%TF.GenerationSoftware,KiCad,Pcbnew,9.0.6*%
%TF.CreationDate,2026-01-13T20:20:36+00:00*%
%TF.ProjectId,Cinder,43696e64-6572-42e6-9b69-6361645f7063,rev?*%
%TF.SameCoordinates,Original*%
%TF.FileFunction,Profile,NP*%
%FSLAX46Y46*%
G04 Gerber Fmt 4.6, Leading zero omitted, Abs format (unit mm)*
G04 Created by KiCad (PCBNEW 9.0.6) date 2026-01-13 20:20:36*
%MOMM*%
%LPD*%
G01*
G04 APERTURE LIST*
%ADD10C,0.150000*%
%TA.AperFunction,Profile*%
%ADD11C,0.050000*%
%TD*%
G04 APERTURE END LIST*
D10*
X-2809523Y28695180D02*
X-3380951Y28695180D01*
X-3095237Y28695180D02*
X-3095237Y29695180D01*
X-3095237Y29695180D02*
X-3190475Y29552323D01*
X-3190475Y29552323D02*
X-3285713Y29457085D01*
X-3285713Y29457085D02*
X-3380951Y29409466D01*
X-1952380Y29695180D02*
X-2142856Y29695180D01*
X-2142856Y29695180D02*
X-2238094Y29647561D01*
X-2238094Y29647561D02*
X-2285713Y29599942D01*
X-2285713Y29599942D02*
X-2380951Y29457085D01*
X-2380951Y29457085D02*
X-2428570Y29266609D01*
X-2428570Y29266609D02*
X-2428570Y28885657D01*
X-2428570Y28885657D02*
X-2380951Y28790419D01*
X-2380951Y28790419D02*
X-2333332Y28742800D01*
X-2333332Y28742800D02*
X-2238094Y28695180D01*
X-2238094Y28695180D02*
X-2047618Y28695180D01*
X-2047618Y28695180D02*
X-1952380Y28742800D01*
X-1952380Y28742800D02*
X-1904761Y28790419D01*
X-1904761Y28790419D02*
X-1857142Y28885657D01*
X-1857142Y28885657D02*
X-1857142Y29123752D01*
X-1857142Y29123752D02*
X-1904761Y29218990D01*
X-1904761Y29218990D02*
X-1952380Y29266609D01*
X-1952380Y29266609D02*
X-2047618Y29314228D01*
X-2047618Y29314228D02*
X-2238094Y29314228D01*
X-2238094Y29314228D02*
X-2333332Y29266609D01*
X-2333332Y29266609D02*
X-2380951Y29218990D01*
X-2380951Y29218990D02*
X-2428570Y29123752D01*
X-999999Y29695180D02*
X-1190475Y29695180D01*
X-1190475Y29695180D02*
X-1285713Y29647561D01*
X-1285713Y29647561D02*
X-1333332Y29599942D01*
X-1333332Y29599942D02*
X-1428570Y29457085D01*
X-1428570Y29457085D02*
X-1476189Y29266609D01*
X-1476189Y29266609D02*
X-1476189Y28885657D01*
X-1476189Y28885657D02*
X-1428570Y28790419D01*
X-1428570Y28790419D02*
X-1380951Y28742800D01*
X-1380951Y28742800D02*
X-1285713Y28695180D01*
X-1285713Y28695180D02*
X-1095237Y28695180D01*
X-1095237Y28695180D02*
X-999999Y28742800D01*
X-999999Y28742800D02*
X-952380Y28790419D01*
X-952380Y28790419D02*
X-904761Y28885657D01*
X-904761Y28885657D02*
X-904761Y29123752D01*
X-904761Y29123752D02*
X-952380Y29218990D01*
X-952380Y29218990D02*
X-999999Y29266609D01*
X-999999Y29266609D02*
X-1095237Y29314228D01*
X-1095237Y29314228D02*
X-1285713Y29314228D01*
X-1285713Y29314228D02*
X-1380951Y29266609D01*
X-1380951Y29266609D02*
X-1428570Y29218990D01*
X-1428570Y29218990D02*
X-1476189Y29123752D01*
X-476189Y28790419D02*
X-428570Y28742800D01*
X-428570Y28742800D02*
X-476189Y28695180D01*
X-476189Y28695180D02*
X-523808Y28742800D01*
X-523808Y28742800D02*
X-476189Y28790419D01*
X-476189Y28790419D02*
X-476189Y28695180D01*
X428571Y29695180D02*
X238095Y29695180D01*
X238095Y29695180D02*
X142857Y29647561D01*
X142857Y29647561D02*
X95238Y29599942D01*
X95238Y29599942D02*
X0Y29457085D01*
X0Y29457085D02*
X-47618Y29266609D01*
X-47618Y29266609D02*
X-47618Y28885657D01*
X-47618Y28885657D02*
X0Y28790419D01*
X0Y28790419D02*
X47619Y28742800D01*
X47619Y28742800D02*
X142857Y28695180D01*
X142857Y28695180D02*
X333333Y28695180D01*
X333333Y28695180D02*
X428571Y28742800D01*
X428571Y28742800D02*
X476190Y28790419D01*
X476190Y28790419D02*
X523809Y28885657D01*
X523809Y28885657D02*
X523809Y29123752D01*
X523809Y29123752D02*
X476190Y29218990D01*
X476190Y29218990D02*
X428571Y29266609D01*
X428571Y29266609D02*
X333333Y29314228D01*
X333333Y29314228D02*
X142857Y29314228D01*
X142857Y29314228D02*
X47619Y29266609D01*
X47619Y29266609D02*
X0Y29218990D01*
X0Y29218990D02*
X-47618Y29123752D01*
X1380952Y29695180D02*
X1190476Y29695180D01*
X1190476Y29695180D02*
X1095238Y29647561D01*
X1095238Y29647561D02*
X1047619Y29599942D01*
X1047619Y29599942D02*
X952381Y29457085D01*
X952381Y29457085D02*
X904762Y29266609D01*
X904762Y29266609D02*
X904762Y28885657D01*
X904762Y28885657D02*
X952381Y28790419D01*
X952381Y28790419D02*
X1000000Y28742800D01*
X1000000Y28742800D02*
X1095238Y28695180D01*
X1095238Y28695180D02*
X1285714Y28695180D01*
X1285714Y28695180D02*
X1380952Y28742800D01*
X1380952Y28742800D02*
X1428571Y28790419D01*
X1428571Y28790419D02*
X1476190Y28885657D01*
X1476190Y28885657D02*
X1476190Y29123752D01*
X1476190Y29123752D02*
X1428571Y29218990D01*
X1428571Y29218990D02*
X1380952Y29266609D01*
X1380952Y29266609D02*
X1285714Y29314228D01*
X1285714Y29314228D02*
X1095238Y29314228D01*
X1095238Y29314228D02*
X1000000Y29266609D01*
X1000000Y29266609D02*
X952381Y29218990D01*
X952381Y29218990D02*
X904762Y29123752D01*
X2333333Y29695180D02*
X2142857Y29695180D01*
X2142857Y29695180D02*
X2047619Y29647561D01*
X2047619Y29647561D02*
X2000000Y29599942D01*
X2000000Y29599942D02*
X1904762Y29457085D01*
X1904762Y29457085D02*
X1857143Y29266609D01*
X1857143Y29266609D02*
X1857143Y28885657D01*
X1857143Y28885657D02*
X1904762Y28790419D01*
X1904762Y28790419D02*
X1952381Y28742800D01*
X1952381Y28742800D02*
X2047619Y28695180D01*
X2047619Y28695180D02*
X2238095Y28695180D01*
X2238095Y28695180D02*
X2333333Y28742800D01*
X2333333Y28742800D02*
X2380952Y28790419D01*
X2380952Y28790419D02*
X2428571Y28885657D01*
X2428571Y28885657D02*
X2428571Y29123752D01*
X2428571Y29123752D02*
X2380952Y29218990D01*
X2380952Y29218990D02*
X2333333Y29266609D01*
X2333333Y29266609D02*
X2238095Y29314228D01*
X2238095Y29314228D02*
X2047619Y29314228D01*
X2047619Y29314228D02*
X1952381Y29266609D01*
X1952381Y29266609D02*
X1904762Y29218990D01*
X1904762Y29218990D02*
X1857143Y29123752D01*
X2761905Y29695180D02*
X3428571Y29695180D01*
X3428571Y29695180D02*
X3000000Y28695180D01*
D11*
X-83333330Y1980000D02*
X-83333330Y28586420D01*
X83333330Y28586420D02*
X83333330Y1980000D01*
X-83333330Y28000000D02*
X83333330Y28000000D01*
X-83333330Y28000000D02*
X-82206826Y28586421D01*
X-83333330Y28000000D02*
X-82206826Y27413579D01*
X83333330Y28000000D02*
X82206826Y27413579D01*
X83333330Y28000000D02*
X82206826Y28586421D01*
D10*
X-169476188Y31195180D02*
X-170047616Y31195180D01*
X-169761902Y31195180D02*
X-169761902Y32195180D01*
X-169761902Y32195180D02*
X-169857140Y32052323D01*
X-169857140Y32052323D02*
X-169952378Y31957085D01*
X-169952378Y31957085D02*
X-170047616Y31909466D01*
X-168619045Y32195180D02*
X-168809521Y32195180D01*
X-168809521Y32195180D02*
X-168904759Y32147561D01*
X-168904759Y32147561D02*
X-168952378Y32099942D01*
X-168952378Y32099942D02*
X-169047616Y31957085D01*
X-169047616Y31957085D02*
X-169095235Y31766609D01*
X-169095235Y31766609D02*
X-169095235Y31385657D01*
X-169095235Y31385657D02*
X-169047616Y31290419D01*
X-169047616Y31290419D02*
X-168999997Y31242800D01*
X-168999997Y31242800D02*
X-168904759Y31195180D01*
X-168904759Y31195180D02*
X-168714283Y31195180D01*
X-168714283Y31195180D02*
X-168619045Y31242800D01*
X-168619045Y31242800D02*
X-168571426Y31290419D01*
X-168571426Y31290419D02*
X-168523807Y31385657D01*
X-168523807Y31385657D02*
X-168523807Y31623752D01*
X-168523807Y31623752D02*
X-168571426Y31718990D01*
X-168571426Y31718990D02*
X-168619045Y31766609D01*
X-168619045Y31766609D02*
X-168714283Y31814228D01*
X-168714283Y31814228D02*
X-168904759Y31814228D01*
X-168904759Y31814228D02*
X-168999997Y31766609D01*
X-168999997Y31766609D02*
X-169047616Y31718990D01*
X-169047616Y31718990D02*
X-169095235Y31623752D01*
X-167666664Y32195180D02*
X-167857140Y32195180D01*
X-167857140Y32195180D02*
X-167952378Y32147561D01*
X-167952378Y32147561D02*
X-167999997Y32099942D01*
X-167999997Y32099942D02*
X-168095235Y31957085D01*
X-168095235Y31957085D02*
X-168142854Y31766609D01*
X-168142854Y31766609D02*
X-168142854Y31385657D01*
X-168142854Y31385657D02*
X-168095235Y31290419D01*
X-168095235Y31290419D02*
X-168047616Y31242800D01*
X-168047616Y31242800D02*
X-167952378Y31195180D01*
X-167952378Y31195180D02*
X-167761902Y31195180D01*
X-167761902Y31195180D02*
X-167666664Y31242800D01*
X-167666664Y31242800D02*
X-167619045Y31290419D01*
X-167619045Y31290419D02*
X-167571426Y31385657D01*
X-167571426Y31385657D02*
X-167571426Y31623752D01*
X-167571426Y31623752D02*
X-167619045Y31718990D01*
X-167619045Y31718990D02*
X-167666664Y31766609D01*
X-167666664Y31766609D02*
X-167761902Y31814228D01*
X-167761902Y31814228D02*
X-167952378Y31814228D01*
X-167952378Y31814228D02*
X-168047616Y31766609D01*
X-168047616Y31766609D02*
X-168095235Y31718990D01*
X-168095235Y31718990D02*
X-168142854Y31623752D01*
X-167142854Y31290419D02*
X-167095235Y31242800D01*
X-167095235Y31242800D02*
X-167142854Y31195180D01*
X-167142854Y31195180D02*
X-167190473Y31242800D01*
X-167190473Y31242800D02*
X-167142854Y31290419D01*
X-167142854Y31290419D02*
X-167142854Y31195180D01*
X-166238093Y32195180D02*
X-166428569Y32195180D01*
X-166428569Y32195180D02*
X-166523807Y32147561D01*
X-166523807Y32147561D02*
X-166571426Y32099942D01*
X-166571426Y32099942D02*
X-166666664Y31957085D01*
X-166666664Y31957085D02*
X-166714283Y31766609D01*
X-166714283Y31766609D02*
X-166714283Y31385657D01*
X-166714283Y31385657D02*
X-166666664Y31290419D01*
X-166666664Y31290419D02*
X-166619045Y31242800D01*
X-166619045Y31242800D02*
X-166523807Y31195180D01*
X-166523807Y31195180D02*
X-166333331Y31195180D01*
X-166333331Y31195180D02*
X-166238093Y31242800D01*
X-166238093Y31242800D02*
X-166190474Y31290419D01*
X-166190474Y31290419D02*
X-166142855Y31385657D01*
X-166142855Y31385657D02*
X-166142855Y31623752D01*
X-166142855Y31623752D02*
X-166190474Y31718990D01*
X-166190474Y31718990D02*
X-166238093Y31766609D01*
X-166238093Y31766609D02*
X-166333331Y31814228D01*
X-166333331Y31814228D02*
X-166523807Y31814228D01*
X-166523807Y31814228D02*
X-166619045Y31766609D01*
X-166619045Y31766609D02*
X-166666664Y31718990D01*
X-166666664Y31718990D02*
X-166714283Y31623752D01*
X-165285712Y32195180D02*
X-165476188Y32195180D01*
X-165476188Y32195180D02*
X-165571426Y32147561D01*
X-165571426Y32147561D02*
X-165619045Y32099942D01*
X-165619045Y32099942D02*
X-165714283Y31957085D01*
X-165714283Y31957085D02*
X-165761902Y31766609D01*
X-165761902Y31766609D02*
X-165761902Y31385657D01*
X-165761902Y31385657D02*
X-165714283Y31290419D01*
X-165714283Y31290419D02*
X-165666664Y31242800D01*
X-165666664Y31242800D02*
X-165571426Y31195180D01*
X-165571426Y31195180D02*
X-165380950Y31195180D01*
X-165380950Y31195180D02*
X-165285712Y31242800D01*
X-165285712Y31242800D02*
X-165238093Y31290419D01*
X-165238093Y31290419D02*
X-165190474Y31385657D01*
X-165190474Y31385657D02*
X-165190474Y31623752D01*
X-165190474Y31623752D02*
X-165238093Y31718990D01*
X-165238093Y31718990D02*
X-165285712Y31766609D01*
X-165285712Y31766609D02*
X-165380950Y31814228D01*
X-165380950Y31814228D02*
X-165571426Y31814228D01*
X-165571426Y31814228D02*
X-165666664Y31766609D01*
X-165666664Y31766609D02*
X-165714283Y31718990D01*
X-165714283Y31718990D02*
X-165761902Y31623752D01*
X-164333331Y32195180D02*
X-164523807Y32195180D01*
X-164523807Y32195180D02*
X-164619045Y32147561D01*
X-164619045Y32147561D02*
X-164666664Y32099942D01*
X-164666664Y32099942D02*
X-164761902Y31957085D01*
X-164761902Y31957085D02*
X-164809521Y31766609D01*
X-164809521Y31766609D02*
X-164809521Y31385657D01*
X-164809521Y31385657D02*
X-164761902Y31290419D01*
X-164761902Y31290419D02*
X-164714283Y31242800D01*
X-164714283Y31242800D02*
X-164619045Y31195180D01*
X-164619045Y31195180D02*
X-164428569Y31195180D01*
X-164428569Y31195180D02*
X-164333331Y31242800D01*
X-164333331Y31242800D02*
X-164285712Y31290419D01*
X-164285712Y31290419D02*
X-164238093Y31385657D01*
X-164238093Y31385657D02*
X-164238093Y31623752D01*
X-164238093Y31623752D02*
X-164285712Y31718990D01*
X-164285712Y31718990D02*
X-164333331Y31766609D01*
X-164333331Y31766609D02*
X-164428569Y31814228D01*
X-164428569Y31814228D02*
X-164619045Y31814228D01*
X-164619045Y31814228D02*
X-164714283Y31766609D01*
X-164714283Y31766609D02*
X-164761902Y31718990D01*
X-164761902Y31718990D02*
X-164809521Y31623752D01*
X-163904759Y32195180D02*
X-163238093Y32195180D01*
X-163238093Y32195180D02*
X-163666664Y31195180D01*
D11*
X-250000000Y20500000D02*
X-250000000Y31086420D01*
X-83333330Y31086420D02*
X-83333330Y1980000D01*
X-250000000Y30500000D02*
X-83333330Y30500000D01*
X-250000000Y30500000D02*
X-248873496Y31086421D01*
X-250000000Y30500000D02*
X-248873496Y29913579D01*
X-83333330Y30500000D02*
X-84459834Y29913579D01*
X-83333330Y30500000D02*
X-84459834Y31086421D01*
D10*
X-254695180Y-13190476D02*
X-254695180Y-13761904D01*
X-254695180Y-13476190D02*
X-255695180Y-13476190D01*
X-255695180Y-13476190D02*
X-255552323Y-13571428D01*
X-255552323Y-13571428D02*
X-255457085Y-13666666D01*
X-255457085Y-13666666D02*
X-255409466Y-13761904D01*
X-255361847Y-12333333D02*
X-254695180Y-12333333D01*
X-255742800Y-12571428D02*
X-255028514Y-12809523D01*
X-255028514Y-12809523D02*
X-255028514Y-12190476D01*
D11*
X-248640000Y-6000000D02*
X-254586420Y-6000000D01*
X-254586420Y-20000000D02*
X-248640000Y-20000000D01*
X-254000000Y-6000000D02*
X-254000000Y-20000000D01*
X-254000000Y-6000000D02*
X-253413579Y-7126504D01*
X-254000000Y-6000000D02*
X-254586421Y-7126504D01*
X-254000000Y-20000000D02*
X-254586421Y-18873496D01*
X-254000000Y-20000000D02*
X-253413579Y-18873496D01*
D10*
X-255361847Y-3809523D02*
X-254695180Y-3809523D01*
X-255742800Y-4047618D02*
X-255028514Y-4285713D01*
X-255028514Y-4285713D02*
X-255028514Y-3666666D01*
D11*
X-249500000Y-2000000D02*
X-254586420Y-2000000D01*
X-254586420Y-6000000D02*
X-249000000Y-6000000D01*
X-254000000Y-2000000D02*
X-254000000Y-6000000D01*
X-254000000Y-2000000D02*
X-253413579Y-3126504D01*
X-254000000Y-2000000D02*
X-254586421Y-3126504D01*
X-254000000Y-6000000D02*
X-254586421Y-4873496D01*
X-254000000Y-6000000D02*
X-253413579Y-4873496D01*
D10*
X-255361847Y190476D02*
X-254695180Y190476D01*
X-255742800Y-47618D02*
X-255028514Y-285713D01*
X-255028514Y-285713D02*
X-255028514Y333333D01*
D11*
X-249500000Y2000000D02*
X-254586420Y2000000D01*
X-254586420Y-2000000D02*
X-249500000Y-2000000D01*
X-254000000Y2000000D02*
X-254000000Y-2000000D01*
X-254000000Y2000000D02*
X-253413579Y873496D01*
X-254000000Y2000000D02*
X-254586421Y873496D01*
X-254000000Y-2000000D02*
X-254586421Y-873496D01*
X-254000000Y-2000000D02*
X-253413579Y-873496D01*
D10*
X-255361847Y4190476D02*
X-254695180Y4190476D01*
X-255742800Y3952381D02*
X-255028514Y3714286D01*
X-255028514Y3714286D02*
X-255028514Y4333333D01*
D11*
X-251500000Y6000000D02*
X-254586420Y6000000D01*
X-254586420Y2000000D02*
X-251500000Y2000000D01*
X-254000000Y6000000D02*
X-254000000Y2000000D01*
X-254000000Y6000000D02*
X-253413579Y4873496D01*
X-254000000Y6000000D02*
X-254586421Y4873496D01*
X-254000000Y2000000D02*
X-254586421Y3126504D01*
X-254000000Y2000000D02*
X-253413579Y3126504D01*
D10*
X-254695180Y12809523D02*
X-254695180Y12238095D01*
X-254695180Y12523809D02*
X-255695180Y12523809D01*
X-255695180Y12523809D02*
X-255552323Y12428571D01*
X-255552323Y12428571D02*
X-255457085Y12333333D01*
X-255457085Y12333333D02*
X-255409466Y12238095D01*
X-255361847Y13666666D02*
X-254695180Y13666666D01*
X-255742800Y13428571D02*
X-255028514Y13190476D01*
X-255028514Y13190476D02*
X-255028514Y13809523D01*
D11*
X-251500000Y6000000D02*
X-254586420Y6000000D01*
X-254586420Y20000000D02*
X-250500000Y20000000D01*
X-254000000Y6000000D02*
X-254000000Y20000000D01*
X-254000000Y6000000D02*
X-254586421Y7126504D01*
X-254000000Y6000000D02*
X-253413579Y7126504D01*
X-254000000Y20000000D02*
X-253413579Y18873496D01*
X-254000000Y20000000D02*
X-254586421Y18873496D01*
D10*
X-267361847Y-285714D02*
X-266695180Y-285714D01*
X-267742800Y-523809D02*
X-267028514Y-761904D01*
X-267028514Y-761904D02*
X-267028514Y-142857D01*
X-267695180Y428571D02*
X-267695180Y523809D01*
X-267695180Y523809D02*
X-267647561Y619047D01*
X-267647561Y619047D02*
X-267599942Y666666D01*
X-267599942Y666666D02*
X-267504704Y714285D01*
X-267504704Y714285D02*
X-267314228Y761904D01*
X-267314228Y761904D02*
X-267076133Y761904D01*
X-267076133Y761904D02*
X-266885657Y714285D01*
X-266885657Y714285D02*
X-266790419Y666666D01*
X-266790419Y666666D02*
X-266742800Y619047D01*
X-266742800Y619047D02*
X-266695180Y523809D01*
X-266695180Y523809D02*
X-266695180Y428571D01*
X-266695180Y428571D02*
X-266742800Y333333D01*
X-266742800Y333333D02*
X-266790419Y285714D01*
X-266790419Y285714D02*
X-266885657Y238095D01*
X-266885657Y238095D02*
X-267076133Y190476D01*
X-267076133Y190476D02*
X-267314228Y190476D01*
X-267314228Y190476D02*
X-267504704Y238095D01*
X-267504704Y238095D02*
X-267599942Y285714D01*
X-267599942Y285714D02*
X-267647561Y333333D01*
X-267647561Y333333D02*
X-267695180Y428571D01*
D11*
X-250500000Y20000000D02*
X-266586420Y20000000D01*
X-266586420Y-20000000D02*
X-250500000Y-20000000D01*
X-266000000Y20000000D02*
X-266000000Y-20000000D01*
X-266000000Y20000000D02*
X-265413579Y18873496D01*
X-266000000Y20000000D02*
X-266586421Y18873496D01*
X-266000000Y-20000000D02*
X-266586421Y-18873496D01*
X-266000000Y-20000000D02*
X-265413579Y-18873496D01*
D10*
X-714285Y44695180D02*
X-1190475Y44695180D01*
X-1190475Y44695180D02*
X-1238094Y44218990D01*
X-1238094Y44218990D02*
X-1190475Y44266609D01*
X-1190475Y44266609D02*
X-1095237Y44314228D01*
X-1095237Y44314228D02*
X-857142Y44314228D01*
X-857142Y44314228D02*
X-761904Y44266609D01*
X-761904Y44266609D02*
X-714285Y44218990D01*
X-714285Y44218990D02*
X-666666Y44123752D01*
X-666666Y44123752D02*
X-666666Y43885657D01*
X-666666Y43885657D02*
X-714285Y43790419D01*
X-714285Y43790419D02*
X-761904Y43742800D01*
X-761904Y43742800D02*
X-857142Y43695180D01*
X-857142Y43695180D02*
X-1095237Y43695180D01*
X-1095237Y43695180D02*
X-1190475Y43742800D01*
X-1190475Y43742800D02*
X-1238094Y43790419D01*
X-47618Y44695180D02*
X47619Y44695180D01*
X47619Y44695180D02*
X142857Y44647561D01*
X142857Y44647561D02*
X190476Y44599942D01*
X190476Y44599942D02*
X238095Y44504704D01*
X238095Y44504704D02*
X285714Y44314228D01*
X285714Y44314228D02*
X285714Y44076133D01*
X285714Y44076133D02*
X238095Y43885657D01*
X238095Y43885657D02*
X190476Y43790419D01*
X190476Y43790419D02*
X142857Y43742800D01*
X142857Y43742800D02*
X47619Y43695180D01*
X47619Y43695180D02*
X-47618Y43695180D01*
X-47618Y43695180D02*
X-142856Y43742800D01*
X-142856Y43742800D02*
X-190475Y43790419D01*
X-190475Y43790419D02*
X-238094Y43885657D01*
X-238094Y43885657D02*
X-285713Y44076133D01*
X-285713Y44076133D02*
X-285713Y44314228D01*
X-285713Y44314228D02*
X-238094Y44504704D01*
X-238094Y44504704D02*
X-190475Y44599942D01*
X-190475Y44599942D02*
X-142856Y44647561D01*
X-142856Y44647561D02*
X-47618Y44695180D01*
X904762Y44695180D02*
X1000000Y44695180D01*
X1000000Y44695180D02*
X1095238Y44647561D01*
X1095238Y44647561D02*
X1142857Y44599942D01*
X1142857Y44599942D02*
X1190476Y44504704D01*
X1190476Y44504704D02*
X1238095Y44314228D01*
X1238095Y44314228D02*
X1238095Y44076133D01*
X1238095Y44076133D02*
X1190476Y43885657D01*
X1190476Y43885657D02*
X1142857Y43790419D01*
X1142857Y43790419D02*
X1095238Y43742800D01*
X1095238Y43742800D02*
X1000000Y43695180D01*
X1000000Y43695180D02*
X904762Y43695180D01*
X904762Y43695180D02*
X809524Y43742800D01*
X809524Y43742800D02*
X761905Y43790419D01*
X761905Y43790419D02*
X714286Y43885657D01*
X714286Y43885657D02*
X666667Y44076133D01*
X666667Y44076133D02*
X666667Y44314228D01*
X666667Y44314228D02*
X714286Y44504704D01*
X714286Y44504704D02*
X761905Y44599942D01*
X761905Y44599942D02*
X809524Y44647561D01*
X809524Y44647561D02*
X904762Y44695180D01*
D11*
X250000000Y20500000D02*
X250000000Y43586420D01*
X-250000000Y43586420D02*
X-250000000Y20500000D01*
X250000000Y43000000D02*
X-250000000Y43000000D01*
X250000000Y43000000D02*
X248873496Y42413579D01*
X250000000Y43000000D02*
X248873496Y43586421D01*
X-250000000Y43000000D02*
X-248873496Y43586421D01*
X-250000000Y43000000D02*
X-248873496Y42413579D01*
X-250000000Y20000000D02*
X250000000Y20000000D01*
X250000000Y-20000000D01*
X-250000000Y-20000000D01*
X-250000000Y20000000D01*
M02*
