%TF.GenerationSoftware,KiCad,Pcbnew,9.0.6*%
%TF.CreationDate,2026-01-15T21:11:11+00:00*%
%TF.ProjectId,Cinder,43696e64-6572-42e6-9b69-6361645f7063,rev?*%
%TF.SameCoordinates,Original*%
%TF.FileFunction,Legend,Bot*%
%TF.FilePolarity,Positive*%
%FSLAX46Y46*%
G04 Gerber Fmt 4.6, Leading zero omitted, Abs format (unit mm)*
G04 Created by KiCad (PCBNEW 9.0.6) date 2026-01-15 21:11:11*
%MOMM*%
%LPD*%
G01*
G04 APERTURE LIST*
%ADD10C,0.150000*%
%ADD11C,0.375000*%
%ADD12C,0.750000*%
%ADD13C,0.100000*%
%ADD14C,0.200000*%
%ADD15C,0.250000*%
%ADD16C,0.120000*%
%ADD17C,0.600000*%
%ADD18C,0.300000*%
G04 APERTURE END LIST*
D10*
X131157200Y-79607142D02*
X131204819Y-79749999D01*
X131204819Y-79749999D02*
X131204819Y-79988094D01*
X131204819Y-79988094D02*
X131157200Y-80083332D01*
X131157200Y-80083332D02*
X131109580Y-80130951D01*
X131109580Y-80130951D02*
X131014342Y-80178570D01*
X131014342Y-80178570D02*
X130919104Y-80178570D01*
X130919104Y-80178570D02*
X130823866Y-80130951D01*
X130823866Y-80130951D02*
X130776247Y-80083332D01*
X130776247Y-80083332D02*
X130728628Y-79988094D01*
X130728628Y-79988094D02*
X130681009Y-79797618D01*
X130681009Y-79797618D02*
X130633390Y-79702380D01*
X130633390Y-79702380D02*
X130585771Y-79654761D01*
X130585771Y-79654761D02*
X130490533Y-79607142D01*
X130490533Y-79607142D02*
X130395295Y-79607142D01*
X130395295Y-79607142D02*
X130300057Y-79654761D01*
X130300057Y-79654761D02*
X130252438Y-79702380D01*
X130252438Y-79702380D02*
X130204819Y-79797618D01*
X130204819Y-79797618D02*
X130204819Y-80035713D01*
X130204819Y-80035713D02*
X130252438Y-80178570D01*
X130538152Y-80464285D02*
X130538152Y-80845237D01*
X130204819Y-80607142D02*
X131061961Y-80607142D01*
X131061961Y-80607142D02*
X131157200Y-80654761D01*
X131157200Y-80654761D02*
X131204819Y-80749999D01*
X131204819Y-80749999D02*
X131204819Y-80845237D01*
X131157200Y-81559523D02*
X131204819Y-81464285D01*
X131204819Y-81464285D02*
X131204819Y-81273809D01*
X131204819Y-81273809D02*
X131157200Y-81178571D01*
X131157200Y-81178571D02*
X131061961Y-81130952D01*
X131061961Y-81130952D02*
X130681009Y-81130952D01*
X130681009Y-81130952D02*
X130585771Y-81178571D01*
X130585771Y-81178571D02*
X130538152Y-81273809D01*
X130538152Y-81273809D02*
X130538152Y-81464285D01*
X130538152Y-81464285D02*
X130585771Y-81559523D01*
X130585771Y-81559523D02*
X130681009Y-81607142D01*
X130681009Y-81607142D02*
X130776247Y-81607142D01*
X130776247Y-81607142D02*
X130871485Y-81130952D01*
X130538152Y-82035714D02*
X131538152Y-82035714D01*
X130585771Y-82035714D02*
X130538152Y-82130952D01*
X130538152Y-82130952D02*
X130538152Y-82321428D01*
X130538152Y-82321428D02*
X130585771Y-82416666D01*
X130585771Y-82416666D02*
X130633390Y-82464285D01*
X130633390Y-82464285D02*
X130728628Y-82511904D01*
X130728628Y-82511904D02*
X131014342Y-82511904D01*
X131014342Y-82511904D02*
X131109580Y-82464285D01*
X131109580Y-82464285D02*
X131157200Y-82416666D01*
X131157200Y-82416666D02*
X131204819Y-82321428D01*
X131204819Y-82321428D02*
X131204819Y-82130952D01*
X131204819Y-82130952D02*
X131157200Y-82035714D01*
X130538152Y-82940476D02*
X131538152Y-82940476D01*
X130585771Y-82940476D02*
X130538152Y-83035714D01*
X130538152Y-83035714D02*
X130538152Y-83226190D01*
X130538152Y-83226190D02*
X130585771Y-83321428D01*
X130585771Y-83321428D02*
X130633390Y-83369047D01*
X130633390Y-83369047D02*
X130728628Y-83416666D01*
X130728628Y-83416666D02*
X131014342Y-83416666D01*
X131014342Y-83416666D02*
X131109580Y-83369047D01*
X131109580Y-83369047D02*
X131157200Y-83321428D01*
X131157200Y-83321428D02*
X131204819Y-83226190D01*
X131204819Y-83226190D02*
X131204819Y-83035714D01*
X131204819Y-83035714D02*
X131157200Y-82940476D01*
X131157200Y-84226190D02*
X131204819Y-84130952D01*
X131204819Y-84130952D02*
X131204819Y-83940476D01*
X131204819Y-83940476D02*
X131157200Y-83845238D01*
X131157200Y-83845238D02*
X131061961Y-83797619D01*
X131061961Y-83797619D02*
X130681009Y-83797619D01*
X130681009Y-83797619D02*
X130585771Y-83845238D01*
X130585771Y-83845238D02*
X130538152Y-83940476D01*
X130538152Y-83940476D02*
X130538152Y-84130952D01*
X130538152Y-84130952D02*
X130585771Y-84226190D01*
X130585771Y-84226190D02*
X130681009Y-84273809D01*
X130681009Y-84273809D02*
X130776247Y-84273809D01*
X130776247Y-84273809D02*
X130871485Y-83797619D01*
X131204819Y-84702381D02*
X130538152Y-84702381D01*
X130728628Y-84702381D02*
X130633390Y-84750000D01*
X130633390Y-84750000D02*
X130585771Y-84797619D01*
X130585771Y-84797619D02*
X130538152Y-84892857D01*
X130538152Y-84892857D02*
X130538152Y-84988095D01*
X131407200Y-66857143D02*
X131454819Y-67000000D01*
X131454819Y-67000000D02*
X131454819Y-67238095D01*
X131454819Y-67238095D02*
X131407200Y-67333333D01*
X131407200Y-67333333D02*
X131359580Y-67380952D01*
X131359580Y-67380952D02*
X131264342Y-67428571D01*
X131264342Y-67428571D02*
X131169104Y-67428571D01*
X131169104Y-67428571D02*
X131073866Y-67380952D01*
X131073866Y-67380952D02*
X131026247Y-67333333D01*
X131026247Y-67333333D02*
X130978628Y-67238095D01*
X130978628Y-67238095D02*
X130931009Y-67047619D01*
X130931009Y-67047619D02*
X130883390Y-66952381D01*
X130883390Y-66952381D02*
X130835771Y-66904762D01*
X130835771Y-66904762D02*
X130740533Y-66857143D01*
X130740533Y-66857143D02*
X130645295Y-66857143D01*
X130645295Y-66857143D02*
X130550057Y-66904762D01*
X130550057Y-66904762D02*
X130502438Y-66952381D01*
X130502438Y-66952381D02*
X130454819Y-67047619D01*
X130454819Y-67047619D02*
X130454819Y-67285714D01*
X130454819Y-67285714D02*
X130502438Y-67428571D01*
X131454819Y-67857143D02*
X130454819Y-67857143D01*
X130931009Y-67857143D02*
X130931009Y-68428571D01*
X131454819Y-68428571D02*
X130454819Y-68428571D01*
X130454819Y-68761905D02*
X130454819Y-69333333D01*
X131454819Y-69047619D02*
X130454819Y-69047619D01*
X130788152Y-70095238D02*
X131454819Y-70095238D01*
X130407200Y-69857143D02*
X131121485Y-69619048D01*
X131121485Y-69619048D02*
X131121485Y-70238095D01*
X130454819Y-70809524D02*
X130454819Y-70904762D01*
X130454819Y-70904762D02*
X130502438Y-71000000D01*
X130502438Y-71000000D02*
X130550057Y-71047619D01*
X130550057Y-71047619D02*
X130645295Y-71095238D01*
X130645295Y-71095238D02*
X130835771Y-71142857D01*
X130835771Y-71142857D02*
X131073866Y-71142857D01*
X131073866Y-71142857D02*
X131264342Y-71095238D01*
X131264342Y-71095238D02*
X131359580Y-71047619D01*
X131359580Y-71047619D02*
X131407200Y-71000000D01*
X131407200Y-71000000D02*
X131454819Y-70904762D01*
X131454819Y-70904762D02*
X131454819Y-70809524D01*
X131454819Y-70809524D02*
X131407200Y-70714286D01*
X131407200Y-70714286D02*
X131359580Y-70666667D01*
X131359580Y-70666667D02*
X131264342Y-70619048D01*
X131264342Y-70619048D02*
X131073866Y-70571429D01*
X131073866Y-70571429D02*
X130835771Y-70571429D01*
X130835771Y-70571429D02*
X130645295Y-70619048D01*
X130645295Y-70619048D02*
X130550057Y-70666667D01*
X130550057Y-70666667D02*
X130502438Y-70714286D01*
X130502438Y-70714286D02*
X130454819Y-70809524D01*
X131204819Y-54416666D02*
X130204819Y-54416666D01*
X131204819Y-55464284D02*
X130728628Y-55130951D01*
X131204819Y-54892856D02*
X130204819Y-54892856D01*
X130204819Y-54892856D02*
X130204819Y-55273808D01*
X130204819Y-55273808D02*
X130252438Y-55369046D01*
X130252438Y-55369046D02*
X130300057Y-55416665D01*
X130300057Y-55416665D02*
X130395295Y-55464284D01*
X130395295Y-55464284D02*
X130538152Y-55464284D01*
X130538152Y-55464284D02*
X130633390Y-55416665D01*
X130633390Y-55416665D02*
X130681009Y-55369046D01*
X130681009Y-55369046D02*
X130728628Y-55273808D01*
X130728628Y-55273808D02*
X130728628Y-54892856D01*
X131157200Y-56607142D02*
X131204819Y-56702380D01*
X131204819Y-56702380D02*
X131204819Y-56892856D01*
X131204819Y-56892856D02*
X131157200Y-56988094D01*
X131157200Y-56988094D02*
X131061961Y-57035713D01*
X131061961Y-57035713D02*
X131014342Y-57035713D01*
X131014342Y-57035713D02*
X130919104Y-56988094D01*
X130919104Y-56988094D02*
X130871485Y-56892856D01*
X130871485Y-56892856D02*
X130871485Y-56749999D01*
X130871485Y-56749999D02*
X130823866Y-56654761D01*
X130823866Y-56654761D02*
X130728628Y-56607142D01*
X130728628Y-56607142D02*
X130681009Y-56607142D01*
X130681009Y-56607142D02*
X130585771Y-56654761D01*
X130585771Y-56654761D02*
X130538152Y-56749999D01*
X130538152Y-56749999D02*
X130538152Y-56892856D01*
X130538152Y-56892856D02*
X130585771Y-56988094D01*
X131157200Y-57845237D02*
X131204819Y-57749999D01*
X131204819Y-57749999D02*
X131204819Y-57559523D01*
X131204819Y-57559523D02*
X131157200Y-57464285D01*
X131157200Y-57464285D02*
X131061961Y-57416666D01*
X131061961Y-57416666D02*
X130681009Y-57416666D01*
X130681009Y-57416666D02*
X130585771Y-57464285D01*
X130585771Y-57464285D02*
X130538152Y-57559523D01*
X130538152Y-57559523D02*
X130538152Y-57749999D01*
X130538152Y-57749999D02*
X130585771Y-57845237D01*
X130585771Y-57845237D02*
X130681009Y-57892856D01*
X130681009Y-57892856D02*
X130776247Y-57892856D01*
X130776247Y-57892856D02*
X130871485Y-57416666D01*
X130538152Y-58321428D02*
X131204819Y-58321428D01*
X130633390Y-58321428D02*
X130585771Y-58369047D01*
X130585771Y-58369047D02*
X130538152Y-58464285D01*
X130538152Y-58464285D02*
X130538152Y-58607142D01*
X130538152Y-58607142D02*
X130585771Y-58702380D01*
X130585771Y-58702380D02*
X130681009Y-58749999D01*
X130681009Y-58749999D02*
X131204819Y-58749999D01*
X131157200Y-59178571D02*
X131204819Y-59273809D01*
X131204819Y-59273809D02*
X131204819Y-59464285D01*
X131204819Y-59464285D02*
X131157200Y-59559523D01*
X131157200Y-59559523D02*
X131061961Y-59607142D01*
X131061961Y-59607142D02*
X131014342Y-59607142D01*
X131014342Y-59607142D02*
X130919104Y-59559523D01*
X130919104Y-59559523D02*
X130871485Y-59464285D01*
X130871485Y-59464285D02*
X130871485Y-59321428D01*
X130871485Y-59321428D02*
X130823866Y-59226190D01*
X130823866Y-59226190D02*
X130728628Y-59178571D01*
X130728628Y-59178571D02*
X130681009Y-59178571D01*
X130681009Y-59178571D02*
X130585771Y-59226190D01*
X130585771Y-59226190D02*
X130538152Y-59321428D01*
X130538152Y-59321428D02*
X130538152Y-59464285D01*
X130538152Y-59464285D02*
X130585771Y-59559523D01*
X131204819Y-60178571D02*
X131157200Y-60083333D01*
X131157200Y-60083333D02*
X131109580Y-60035714D01*
X131109580Y-60035714D02*
X131014342Y-59988095D01*
X131014342Y-59988095D02*
X130728628Y-59988095D01*
X130728628Y-59988095D02*
X130633390Y-60035714D01*
X130633390Y-60035714D02*
X130585771Y-60083333D01*
X130585771Y-60083333D02*
X130538152Y-60178571D01*
X130538152Y-60178571D02*
X130538152Y-60321428D01*
X130538152Y-60321428D02*
X130585771Y-60416666D01*
X130585771Y-60416666D02*
X130633390Y-60464285D01*
X130633390Y-60464285D02*
X130728628Y-60511904D01*
X130728628Y-60511904D02*
X131014342Y-60511904D01*
X131014342Y-60511904D02*
X131109580Y-60464285D01*
X131109580Y-60464285D02*
X131157200Y-60416666D01*
X131157200Y-60416666D02*
X131204819Y-60321428D01*
X131204819Y-60321428D02*
X131204819Y-60178571D01*
X131204819Y-60940476D02*
X130538152Y-60940476D01*
X130728628Y-60940476D02*
X130633390Y-60988095D01*
X130633390Y-60988095D02*
X130585771Y-61035714D01*
X130585771Y-61035714D02*
X130538152Y-61130952D01*
X130538152Y-61130952D02*
X130538152Y-61226190D01*
D11*
X173183119Y-72659567D02*
X173183119Y-71992900D01*
X174230738Y-71992900D02*
X172230738Y-71992900D01*
X172230738Y-71992900D02*
X172230738Y-72945281D01*
X174230738Y-74564329D02*
X173183119Y-74564329D01*
X173183119Y-74564329D02*
X172992642Y-74469091D01*
X172992642Y-74469091D02*
X172897404Y-74278615D01*
X172897404Y-74278615D02*
X172897404Y-73897662D01*
X172897404Y-73897662D02*
X172992642Y-73707186D01*
X174135500Y-74564329D02*
X174230738Y-74373853D01*
X174230738Y-74373853D02*
X174230738Y-73897662D01*
X174230738Y-73897662D02*
X174135500Y-73707186D01*
X174135500Y-73707186D02*
X173945023Y-73611948D01*
X173945023Y-73611948D02*
X173754547Y-73611948D01*
X173754547Y-73611948D02*
X173564071Y-73707186D01*
X173564071Y-73707186D02*
X173468833Y-73897662D01*
X173468833Y-73897662D02*
X173468833Y-74373853D01*
X173468833Y-74373853D02*
X173373595Y-74564329D01*
X172897404Y-75516710D02*
X174230738Y-75516710D01*
X173087880Y-75516710D02*
X172992642Y-75611948D01*
X172992642Y-75611948D02*
X172897404Y-75802424D01*
X172897404Y-75802424D02*
X172897404Y-76088139D01*
X172897404Y-76088139D02*
X172992642Y-76278615D01*
X172992642Y-76278615D02*
X173183119Y-76373853D01*
X173183119Y-76373853D02*
X174230738Y-76373853D01*
D12*
X175857142Y-67476000D02*
X178142857Y-67476000D01*
X176999999Y-68618857D02*
X176999999Y-66333142D01*
X175857142Y-72476000D02*
X178142857Y-72476000D01*
X176999999Y-73618857D02*
X176999999Y-71333142D01*
D11*
X174230738Y-61992900D02*
X172230738Y-61992900D01*
X173183119Y-61992900D02*
X173183119Y-63135757D01*
X174230738Y-63135757D02*
X172230738Y-63135757D01*
X174135500Y-64850043D02*
X174230738Y-64659567D01*
X174230738Y-64659567D02*
X174230738Y-64278614D01*
X174230738Y-64278614D02*
X174135500Y-64088138D01*
X174135500Y-64088138D02*
X173945023Y-63992900D01*
X173945023Y-63992900D02*
X173183119Y-63992900D01*
X173183119Y-63992900D02*
X172992642Y-64088138D01*
X172992642Y-64088138D02*
X172897404Y-64278614D01*
X172897404Y-64278614D02*
X172897404Y-64659567D01*
X172897404Y-64659567D02*
X172992642Y-64850043D01*
X172992642Y-64850043D02*
X173183119Y-64945281D01*
X173183119Y-64945281D02*
X173373595Y-64945281D01*
X173373595Y-64945281D02*
X173564071Y-63992900D01*
X174230738Y-66659567D02*
X173183119Y-66659567D01*
X173183119Y-66659567D02*
X172992642Y-66564329D01*
X172992642Y-66564329D02*
X172897404Y-66373853D01*
X172897404Y-66373853D02*
X172897404Y-65992900D01*
X172897404Y-65992900D02*
X172992642Y-65802424D01*
X174135500Y-66659567D02*
X174230738Y-66469091D01*
X174230738Y-66469091D02*
X174230738Y-65992900D01*
X174230738Y-65992900D02*
X174135500Y-65802424D01*
X174135500Y-65802424D02*
X173945023Y-65707186D01*
X173945023Y-65707186D02*
X173754547Y-65707186D01*
X173754547Y-65707186D02*
X173564071Y-65802424D01*
X173564071Y-65802424D02*
X173468833Y-65992900D01*
X173468833Y-65992900D02*
X173468833Y-66469091D01*
X173468833Y-66469091D02*
X173373595Y-66659567D01*
X172897404Y-67326234D02*
X172897404Y-68088138D01*
X172230738Y-67611948D02*
X173945023Y-67611948D01*
X173945023Y-67611948D02*
X174135500Y-67707186D01*
X174135500Y-67707186D02*
X174230738Y-67897662D01*
X174230738Y-67897662D02*
X174230738Y-68088138D01*
D13*
X183495000Y-70270000D02*
X183495000Y-69270000D01*
X183495000Y-69270000D02*
X169495000Y-69270000D01*
X169495000Y-69270000D02*
X169495000Y-70270000D01*
X169495000Y-70270000D02*
X183495000Y-70270000D01*
D12*
X175857142Y-77296000D02*
X178142857Y-77296000D01*
X175857142Y-62476000D02*
X178142857Y-62476000D01*
D10*
X146454819Y-58032975D02*
X146454819Y-57461547D01*
X146454819Y-57747261D02*
X145454819Y-57747261D01*
X145454819Y-57747261D02*
X145597676Y-57652023D01*
X145597676Y-57652023D02*
X145692914Y-57556785D01*
X145692914Y-57556785D02*
X145740533Y-57461547D01*
X145454819Y-58652023D02*
X145454819Y-58747261D01*
X145454819Y-58747261D02*
X145502438Y-58842499D01*
X145502438Y-58842499D02*
X145550057Y-58890118D01*
X145550057Y-58890118D02*
X145645295Y-58937737D01*
X145645295Y-58937737D02*
X145835771Y-58985356D01*
X145835771Y-58985356D02*
X146073866Y-58985356D01*
X146073866Y-58985356D02*
X146264342Y-58937737D01*
X146264342Y-58937737D02*
X146359580Y-58890118D01*
X146359580Y-58890118D02*
X146407200Y-58842499D01*
X146407200Y-58842499D02*
X146454819Y-58747261D01*
X146454819Y-58747261D02*
X146454819Y-58652023D01*
X146454819Y-58652023D02*
X146407200Y-58556785D01*
X146407200Y-58556785D02*
X146359580Y-58509166D01*
X146359580Y-58509166D02*
X146264342Y-58461547D01*
X146264342Y-58461547D02*
X146073866Y-58413928D01*
X146073866Y-58413928D02*
X145835771Y-58413928D01*
X145835771Y-58413928D02*
X145645295Y-58461547D01*
X145645295Y-58461547D02*
X145550057Y-58509166D01*
X145550057Y-58509166D02*
X145502438Y-58556785D01*
X145502438Y-58556785D02*
X145454819Y-58652023D01*
X145454819Y-59604404D02*
X145454819Y-59699642D01*
X145454819Y-59699642D02*
X145502438Y-59794880D01*
X145502438Y-59794880D02*
X145550057Y-59842499D01*
X145550057Y-59842499D02*
X145645295Y-59890118D01*
X145645295Y-59890118D02*
X145835771Y-59937737D01*
X145835771Y-59937737D02*
X146073866Y-59937737D01*
X146073866Y-59937737D02*
X146264342Y-59890118D01*
X146264342Y-59890118D02*
X146359580Y-59842499D01*
X146359580Y-59842499D02*
X146407200Y-59794880D01*
X146407200Y-59794880D02*
X146454819Y-59699642D01*
X146454819Y-59699642D02*
X146454819Y-59604404D01*
X146454819Y-59604404D02*
X146407200Y-59509166D01*
X146407200Y-59509166D02*
X146359580Y-59461547D01*
X146359580Y-59461547D02*
X146264342Y-59413928D01*
X146264342Y-59413928D02*
X146073866Y-59366309D01*
X146073866Y-59366309D02*
X145835771Y-59366309D01*
X145835771Y-59366309D02*
X145645295Y-59413928D01*
X145645295Y-59413928D02*
X145550057Y-59461547D01*
X145550057Y-59461547D02*
X145502438Y-59509166D01*
X145502438Y-59509166D02*
X145454819Y-59604404D01*
X145788152Y-60794880D02*
X146454819Y-60794880D01*
X145788152Y-60366309D02*
X146311961Y-60366309D01*
X146311961Y-60366309D02*
X146407200Y-60413928D01*
X146407200Y-60413928D02*
X146454819Y-60509166D01*
X146454819Y-60509166D02*
X146454819Y-60652023D01*
X146454819Y-60652023D02*
X146407200Y-60747261D01*
X146407200Y-60747261D02*
X146359580Y-60794880D01*
X145931009Y-61604404D02*
X145931009Y-61271071D01*
X146454819Y-61271071D02*
X145454819Y-61271071D01*
X145454819Y-61271071D02*
X145454819Y-61747261D01*
X145550057Y-62842500D02*
X145502438Y-62890119D01*
X145502438Y-62890119D02*
X145454819Y-62985357D01*
X145454819Y-62985357D02*
X145454819Y-63223452D01*
X145454819Y-63223452D02*
X145502438Y-63318690D01*
X145502438Y-63318690D02*
X145550057Y-63366309D01*
X145550057Y-63366309D02*
X145645295Y-63413928D01*
X145645295Y-63413928D02*
X145740533Y-63413928D01*
X145740533Y-63413928D02*
X145883390Y-63366309D01*
X145883390Y-63366309D02*
X146454819Y-62794881D01*
X146454819Y-62794881D02*
X146454819Y-63413928D01*
X145454819Y-64318690D02*
X145454819Y-63842500D01*
X145454819Y-63842500D02*
X145931009Y-63794881D01*
X145931009Y-63794881D02*
X145883390Y-63842500D01*
X145883390Y-63842500D02*
X145835771Y-63937738D01*
X145835771Y-63937738D02*
X145835771Y-64175833D01*
X145835771Y-64175833D02*
X145883390Y-64271071D01*
X145883390Y-64271071D02*
X145931009Y-64318690D01*
X145931009Y-64318690D02*
X146026247Y-64366309D01*
X146026247Y-64366309D02*
X146264342Y-64366309D01*
X146264342Y-64366309D02*
X146359580Y-64318690D01*
X146359580Y-64318690D02*
X146407200Y-64271071D01*
X146407200Y-64271071D02*
X146454819Y-64175833D01*
X146454819Y-64175833D02*
X146454819Y-63937738D01*
X146454819Y-63937738D02*
X146407200Y-63842500D01*
X146407200Y-63842500D02*
X146359580Y-63794881D01*
X145454819Y-64652024D02*
X146454819Y-64985357D01*
X146454819Y-64985357D02*
X145454819Y-65318690D01*
X143011904Y-47204819D02*
X143011904Y-48014342D01*
X143011904Y-48014342D02*
X142964285Y-48109580D01*
X142964285Y-48109580D02*
X142916666Y-48157200D01*
X142916666Y-48157200D02*
X142821428Y-48204819D01*
X142821428Y-48204819D02*
X142630952Y-48204819D01*
X142630952Y-48204819D02*
X142535714Y-48157200D01*
X142535714Y-48157200D02*
X142488095Y-48109580D01*
X142488095Y-48109580D02*
X142440476Y-48014342D01*
X142440476Y-48014342D02*
X142440476Y-47204819D01*
X141440476Y-48204819D02*
X142011904Y-48204819D01*
X141726190Y-48204819D02*
X141726190Y-47204819D01*
X141726190Y-47204819D02*
X141821428Y-47347676D01*
X141821428Y-47347676D02*
X141916666Y-47442914D01*
X141916666Y-47442914D02*
X142011904Y-47490533D01*
X146916666Y-71297319D02*
X147249999Y-70821128D01*
X147488094Y-71297319D02*
X147488094Y-70297319D01*
X147488094Y-70297319D02*
X147107142Y-70297319D01*
X147107142Y-70297319D02*
X147011904Y-70344938D01*
X147011904Y-70344938D02*
X146964285Y-70392557D01*
X146964285Y-70392557D02*
X146916666Y-70487795D01*
X146916666Y-70487795D02*
X146916666Y-70630652D01*
X146916666Y-70630652D02*
X146964285Y-70725890D01*
X146964285Y-70725890D02*
X147011904Y-70773509D01*
X147011904Y-70773509D02*
X147107142Y-70821128D01*
X147107142Y-70821128D02*
X147488094Y-70821128D01*
X146488094Y-71297319D02*
X146488094Y-70297319D01*
X146488094Y-70297319D02*
X146107142Y-70297319D01*
X146107142Y-70297319D02*
X146011904Y-70344938D01*
X146011904Y-70344938D02*
X145964285Y-70392557D01*
X145964285Y-70392557D02*
X145916666Y-70487795D01*
X145916666Y-70487795D02*
X145916666Y-70630652D01*
X145916666Y-70630652D02*
X145964285Y-70725890D01*
X145964285Y-70725890D02*
X146011904Y-70773509D01*
X146011904Y-70773509D02*
X146107142Y-70821128D01*
X146107142Y-70821128D02*
X146488094Y-70821128D01*
X145535713Y-70392557D02*
X145488094Y-70344938D01*
X145488094Y-70344938D02*
X145392856Y-70297319D01*
X145392856Y-70297319D02*
X145154761Y-70297319D01*
X145154761Y-70297319D02*
X145059523Y-70344938D01*
X145059523Y-70344938D02*
X145011904Y-70392557D01*
X145011904Y-70392557D02*
X144964285Y-70487795D01*
X144964285Y-70487795D02*
X144964285Y-70583033D01*
X144964285Y-70583033D02*
X145011904Y-70725890D01*
X145011904Y-70725890D02*
X145583332Y-71297319D01*
X145583332Y-71297319D02*
X144964285Y-71297319D01*
X144345237Y-70297319D02*
X144249999Y-70297319D01*
X144249999Y-70297319D02*
X144154761Y-70344938D01*
X144154761Y-70344938D02*
X144107142Y-70392557D01*
X144107142Y-70392557D02*
X144059523Y-70487795D01*
X144059523Y-70487795D02*
X144011904Y-70678271D01*
X144011904Y-70678271D02*
X144011904Y-70916366D01*
X144011904Y-70916366D02*
X144059523Y-71106842D01*
X144059523Y-71106842D02*
X144107142Y-71202080D01*
X144107142Y-71202080D02*
X144154761Y-71249700D01*
X144154761Y-71249700D02*
X144249999Y-71297319D01*
X144249999Y-71297319D02*
X144345237Y-71297319D01*
X144345237Y-71297319D02*
X144440475Y-71249700D01*
X144440475Y-71249700D02*
X144488094Y-71202080D01*
X144488094Y-71202080D02*
X144535713Y-71106842D01*
X144535713Y-71106842D02*
X144583332Y-70916366D01*
X144583332Y-70916366D02*
X144583332Y-70678271D01*
X144583332Y-70678271D02*
X144535713Y-70487795D01*
X144535713Y-70487795D02*
X144488094Y-70392557D01*
X144488094Y-70392557D02*
X144440475Y-70344938D01*
X144440475Y-70344938D02*
X144345237Y-70297319D01*
X143154761Y-70630652D02*
X143154761Y-71297319D01*
X143392856Y-70249700D02*
X143630951Y-70963985D01*
X143630951Y-70963985D02*
X143011904Y-70963985D01*
X142440475Y-70297319D02*
X142345237Y-70297319D01*
X142345237Y-70297319D02*
X142249999Y-70344938D01*
X142249999Y-70344938D02*
X142202380Y-70392557D01*
X142202380Y-70392557D02*
X142154761Y-70487795D01*
X142154761Y-70487795D02*
X142107142Y-70678271D01*
X142107142Y-70678271D02*
X142107142Y-70916366D01*
X142107142Y-70916366D02*
X142154761Y-71106842D01*
X142154761Y-71106842D02*
X142202380Y-71202080D01*
X142202380Y-71202080D02*
X142249999Y-71249700D01*
X142249999Y-71249700D02*
X142345237Y-71297319D01*
X142345237Y-71297319D02*
X142440475Y-71297319D01*
X142440475Y-71297319D02*
X142535713Y-71249700D01*
X142535713Y-71249700D02*
X142583332Y-71202080D01*
X142583332Y-71202080D02*
X142630951Y-71106842D01*
X142630951Y-71106842D02*
X142678570Y-70916366D01*
X142678570Y-70916366D02*
X142678570Y-70678271D01*
X142678570Y-70678271D02*
X142630951Y-70487795D01*
X142630951Y-70487795D02*
X142583332Y-70392557D01*
X142583332Y-70392557D02*
X142535713Y-70344938D01*
X142535713Y-70344938D02*
X142440475Y-70297319D01*
X141678570Y-70916366D02*
X140916666Y-70916366D01*
X140535713Y-70297319D02*
X139869047Y-70297319D01*
X139869047Y-70297319D02*
X140535713Y-71297319D01*
X140535713Y-71297319D02*
X139869047Y-71297319D01*
X139488094Y-70773509D02*
X139154761Y-70773509D01*
X139011904Y-71297319D02*
X139488094Y-71297319D01*
X139488094Y-71297319D02*
X139488094Y-70297319D01*
X139488094Y-70297319D02*
X139011904Y-70297319D01*
X138011904Y-71297319D02*
X138345237Y-70821128D01*
X138583332Y-71297319D02*
X138583332Y-70297319D01*
X138583332Y-70297319D02*
X138202380Y-70297319D01*
X138202380Y-70297319D02*
X138107142Y-70344938D01*
X138107142Y-70344938D02*
X138059523Y-70392557D01*
X138059523Y-70392557D02*
X138011904Y-70487795D01*
X138011904Y-70487795D02*
X138011904Y-70630652D01*
X138011904Y-70630652D02*
X138059523Y-70725890D01*
X138059523Y-70725890D02*
X138107142Y-70773509D01*
X138107142Y-70773509D02*
X138202380Y-70821128D01*
X138202380Y-70821128D02*
X138583332Y-70821128D01*
X137392856Y-70297319D02*
X137202380Y-70297319D01*
X137202380Y-70297319D02*
X137107142Y-70344938D01*
X137107142Y-70344938D02*
X137011904Y-70440176D01*
X137011904Y-70440176D02*
X136964285Y-70630652D01*
X136964285Y-70630652D02*
X136964285Y-70963985D01*
X136964285Y-70963985D02*
X137011904Y-71154461D01*
X137011904Y-71154461D02*
X137107142Y-71249700D01*
X137107142Y-71249700D02*
X137202380Y-71297319D01*
X137202380Y-71297319D02*
X137392856Y-71297319D01*
X137392856Y-71297319D02*
X137488094Y-71249700D01*
X137488094Y-71249700D02*
X137583332Y-71154461D01*
X137583332Y-71154461D02*
X137630951Y-70963985D01*
X137630951Y-70963985D02*
X137630951Y-70630652D01*
X137630951Y-70630652D02*
X137583332Y-70440176D01*
X137583332Y-70440176D02*
X137488094Y-70344938D01*
X137488094Y-70344938D02*
X137392856Y-70297319D01*
X161440476Y-97704819D02*
X162011904Y-97704819D01*
X161726190Y-97704819D02*
X161726190Y-96704819D01*
X161726190Y-96704819D02*
X161821428Y-96847676D01*
X161821428Y-96847676D02*
X161916666Y-96942914D01*
X161916666Y-96942914D02*
X162011904Y-96990533D01*
X160821428Y-96704819D02*
X160726190Y-96704819D01*
X160726190Y-96704819D02*
X160630952Y-96752438D01*
X160630952Y-96752438D02*
X160583333Y-96800057D01*
X160583333Y-96800057D02*
X160535714Y-96895295D01*
X160535714Y-96895295D02*
X160488095Y-97085771D01*
X160488095Y-97085771D02*
X160488095Y-97323866D01*
X160488095Y-97323866D02*
X160535714Y-97514342D01*
X160535714Y-97514342D02*
X160583333Y-97609580D01*
X160583333Y-97609580D02*
X160630952Y-97657200D01*
X160630952Y-97657200D02*
X160726190Y-97704819D01*
X160726190Y-97704819D02*
X160821428Y-97704819D01*
X160821428Y-97704819D02*
X160916666Y-97657200D01*
X160916666Y-97657200D02*
X160964285Y-97609580D01*
X160964285Y-97609580D02*
X161011904Y-97514342D01*
X161011904Y-97514342D02*
X161059523Y-97323866D01*
X161059523Y-97323866D02*
X161059523Y-97085771D01*
X161059523Y-97085771D02*
X161011904Y-96895295D01*
X161011904Y-96895295D02*
X160964285Y-96800057D01*
X160964285Y-96800057D02*
X160916666Y-96752438D01*
X160916666Y-96752438D02*
X160821428Y-96704819D01*
X160059523Y-97704819D02*
X160059523Y-96704819D01*
X159488095Y-97704819D02*
X159916666Y-97133390D01*
X159488095Y-96704819D02*
X160059523Y-97276247D01*
X161440476Y-95204819D02*
X162011904Y-95204819D01*
X161726190Y-95204819D02*
X161726190Y-94204819D01*
X161726190Y-94204819D02*
X161821428Y-94347676D01*
X161821428Y-94347676D02*
X161916666Y-94442914D01*
X161916666Y-94442914D02*
X162011904Y-94490533D01*
X160821428Y-94204819D02*
X160726190Y-94204819D01*
X160726190Y-94204819D02*
X160630952Y-94252438D01*
X160630952Y-94252438D02*
X160583333Y-94300057D01*
X160583333Y-94300057D02*
X160535714Y-94395295D01*
X160535714Y-94395295D02*
X160488095Y-94585771D01*
X160488095Y-94585771D02*
X160488095Y-94823866D01*
X160488095Y-94823866D02*
X160535714Y-95014342D01*
X160535714Y-95014342D02*
X160583333Y-95109580D01*
X160583333Y-95109580D02*
X160630952Y-95157200D01*
X160630952Y-95157200D02*
X160726190Y-95204819D01*
X160726190Y-95204819D02*
X160821428Y-95204819D01*
X160821428Y-95204819D02*
X160916666Y-95157200D01*
X160916666Y-95157200D02*
X160964285Y-95109580D01*
X160964285Y-95109580D02*
X161011904Y-95014342D01*
X161011904Y-95014342D02*
X161059523Y-94823866D01*
X161059523Y-94823866D02*
X161059523Y-94585771D01*
X161059523Y-94585771D02*
X161011904Y-94395295D01*
X161011904Y-94395295D02*
X160964285Y-94300057D01*
X160964285Y-94300057D02*
X160916666Y-94252438D01*
X160916666Y-94252438D02*
X160821428Y-94204819D01*
X160059523Y-95204819D02*
X160059523Y-94204819D01*
X159488095Y-95204819D02*
X159916666Y-94633390D01*
X159488095Y-94204819D02*
X160059523Y-94776247D01*
X157690476Y-86454819D02*
X158261904Y-86454819D01*
X157976190Y-86454819D02*
X157976190Y-85454819D01*
X157976190Y-85454819D02*
X158071428Y-85597676D01*
X158071428Y-85597676D02*
X158166666Y-85692914D01*
X158166666Y-85692914D02*
X158261904Y-85740533D01*
X157071428Y-85454819D02*
X156976190Y-85454819D01*
X156976190Y-85454819D02*
X156880952Y-85502438D01*
X156880952Y-85502438D02*
X156833333Y-85550057D01*
X156833333Y-85550057D02*
X156785714Y-85645295D01*
X156785714Y-85645295D02*
X156738095Y-85835771D01*
X156738095Y-85835771D02*
X156738095Y-86073866D01*
X156738095Y-86073866D02*
X156785714Y-86264342D01*
X156785714Y-86264342D02*
X156833333Y-86359580D01*
X156833333Y-86359580D02*
X156880952Y-86407200D01*
X156880952Y-86407200D02*
X156976190Y-86454819D01*
X156976190Y-86454819D02*
X157071428Y-86454819D01*
X157071428Y-86454819D02*
X157166666Y-86407200D01*
X157166666Y-86407200D02*
X157214285Y-86359580D01*
X157214285Y-86359580D02*
X157261904Y-86264342D01*
X157261904Y-86264342D02*
X157309523Y-86073866D01*
X157309523Y-86073866D02*
X157309523Y-85835771D01*
X157309523Y-85835771D02*
X157261904Y-85645295D01*
X157261904Y-85645295D02*
X157214285Y-85550057D01*
X157214285Y-85550057D02*
X157166666Y-85502438D01*
X157166666Y-85502438D02*
X157071428Y-85454819D01*
X156309523Y-86454819D02*
X156309523Y-85454819D01*
X155738095Y-86454819D02*
X156166666Y-85883390D01*
X155738095Y-85454819D02*
X156309523Y-86026247D01*
X161440476Y-100104819D02*
X162011904Y-100104819D01*
X161726190Y-100104819D02*
X161726190Y-99104819D01*
X161726190Y-99104819D02*
X161821428Y-99247676D01*
X161821428Y-99247676D02*
X161916666Y-99342914D01*
X161916666Y-99342914D02*
X162011904Y-99390533D01*
X160821428Y-99104819D02*
X160726190Y-99104819D01*
X160726190Y-99104819D02*
X160630952Y-99152438D01*
X160630952Y-99152438D02*
X160583333Y-99200057D01*
X160583333Y-99200057D02*
X160535714Y-99295295D01*
X160535714Y-99295295D02*
X160488095Y-99485771D01*
X160488095Y-99485771D02*
X160488095Y-99723866D01*
X160488095Y-99723866D02*
X160535714Y-99914342D01*
X160535714Y-99914342D02*
X160583333Y-100009580D01*
X160583333Y-100009580D02*
X160630952Y-100057200D01*
X160630952Y-100057200D02*
X160726190Y-100104819D01*
X160726190Y-100104819D02*
X160821428Y-100104819D01*
X160821428Y-100104819D02*
X160916666Y-100057200D01*
X160916666Y-100057200D02*
X160964285Y-100009580D01*
X160964285Y-100009580D02*
X161011904Y-99914342D01*
X161011904Y-99914342D02*
X161059523Y-99723866D01*
X161059523Y-99723866D02*
X161059523Y-99485771D01*
X161059523Y-99485771D02*
X161011904Y-99295295D01*
X161011904Y-99295295D02*
X160964285Y-99200057D01*
X160964285Y-99200057D02*
X160916666Y-99152438D01*
X160916666Y-99152438D02*
X160821428Y-99104819D01*
X160059523Y-100104819D02*
X160059523Y-99104819D01*
X159488095Y-100104819D02*
X159916666Y-99533390D01*
X159488095Y-99104819D02*
X160059523Y-99676247D01*
X165761904Y-45454819D02*
X165761904Y-46264342D01*
X165761904Y-46264342D02*
X165714285Y-46359580D01*
X165714285Y-46359580D02*
X165666666Y-46407200D01*
X165666666Y-46407200D02*
X165571428Y-46454819D01*
X165571428Y-46454819D02*
X165380952Y-46454819D01*
X165380952Y-46454819D02*
X165285714Y-46407200D01*
X165285714Y-46407200D02*
X165238095Y-46359580D01*
X165238095Y-46359580D02*
X165190476Y-46264342D01*
X165190476Y-46264342D02*
X165190476Y-45454819D01*
X164809523Y-45454819D02*
X164190476Y-45454819D01*
X164190476Y-45454819D02*
X164523809Y-45835771D01*
X164523809Y-45835771D02*
X164380952Y-45835771D01*
X164380952Y-45835771D02*
X164285714Y-45883390D01*
X164285714Y-45883390D02*
X164238095Y-45931009D01*
X164238095Y-45931009D02*
X164190476Y-46026247D01*
X164190476Y-46026247D02*
X164190476Y-46264342D01*
X164190476Y-46264342D02*
X164238095Y-46359580D01*
X164238095Y-46359580D02*
X164285714Y-46407200D01*
X164285714Y-46407200D02*
X164380952Y-46454819D01*
X164380952Y-46454819D02*
X164666666Y-46454819D01*
X164666666Y-46454819D02*
X164761904Y-46407200D01*
X164761904Y-46407200D02*
X164809523Y-46359580D01*
D14*
X175982219Y-110716816D02*
X176982219Y-111050149D01*
X176982219Y-111050149D02*
X175982219Y-111383482D01*
X176982219Y-111716816D02*
X175982219Y-111716816D01*
X176982219Y-112193006D02*
X175982219Y-112193006D01*
X175982219Y-112193006D02*
X176982219Y-112764434D01*
X176982219Y-112764434D02*
X175982219Y-112764434D01*
D10*
X128333333Y-76534819D02*
X128333333Y-77249104D01*
X128333333Y-77249104D02*
X128380952Y-77391961D01*
X128380952Y-77391961D02*
X128476190Y-77487200D01*
X128476190Y-77487200D02*
X128619047Y-77534819D01*
X128619047Y-77534819D02*
X128714285Y-77534819D01*
X127380952Y-76534819D02*
X127857142Y-76534819D01*
X127857142Y-76534819D02*
X127904761Y-77011009D01*
X127904761Y-77011009D02*
X127857142Y-76963390D01*
X127857142Y-76963390D02*
X127761904Y-76915771D01*
X127761904Y-76915771D02*
X127523809Y-76915771D01*
X127523809Y-76915771D02*
X127428571Y-76963390D01*
X127428571Y-76963390D02*
X127380952Y-77011009D01*
X127380952Y-77011009D02*
X127333333Y-77106247D01*
X127333333Y-77106247D02*
X127333333Y-77344342D01*
X127333333Y-77344342D02*
X127380952Y-77439580D01*
X127380952Y-77439580D02*
X127428571Y-77487200D01*
X127428571Y-77487200D02*
X127523809Y-77534819D01*
X127523809Y-77534819D02*
X127761904Y-77534819D01*
X127761904Y-77534819D02*
X127857142Y-77487200D01*
X127857142Y-77487200D02*
X127904761Y-77439580D01*
%TO.C,U6*%
X140020000Y-57962500D02*
X141310000Y-57962500D01*
X138620000Y-59362500D02*
X140020000Y-57962500D01*
X138620000Y-64722500D02*
X138620000Y-59362500D01*
X141290000Y-64712500D02*
X138620000Y-64722500D01*
X143980000Y-57962500D02*
X142680000Y-57982500D01*
X145370000Y-59362500D02*
X143980000Y-57962500D01*
X145370000Y-64712500D02*
X145370000Y-59362500D01*
X142740000Y-64692500D02*
X145370000Y-64712500D01*
D15*
%TO.C,U1*%
X133250000Y-50160000D02*
X133250000Y-50920000D01*
X133250000Y-52580000D02*
X133250000Y-53460000D01*
X133250000Y-55120000D02*
X133250000Y-56000000D01*
X133250000Y-57660000D02*
X133250000Y-58540000D01*
X133250000Y-60200000D02*
X133250000Y-61080000D01*
X133250000Y-62740000D02*
X133250000Y-63620000D01*
X133250000Y-65280000D02*
X133250000Y-66160000D01*
X133250000Y-67820000D02*
X133250000Y-68700000D01*
X133250000Y-70360000D02*
X133250000Y-71240000D01*
X133250000Y-72900000D02*
X133250000Y-73650000D01*
X133250000Y-73650000D02*
X136340000Y-73650000D01*
X137770000Y-48660000D02*
X146730000Y-48660000D01*
X137770000Y-50160000D02*
X137770000Y-48660000D01*
X138000000Y-73650000D02*
X138880000Y-73650000D01*
X140540000Y-73650000D02*
X141420000Y-73650000D01*
X143080000Y-73650000D02*
X143960000Y-73650000D01*
X145620000Y-73650000D02*
X146500000Y-73650000D01*
X146730000Y-50160000D02*
X146730000Y-48660000D01*
X148160000Y-73650000D02*
X151250000Y-73650000D01*
X151250000Y-50160000D02*
X133250000Y-50160000D01*
X151250000Y-50920000D02*
X151250000Y-50160000D01*
X151250000Y-53460000D02*
X151250000Y-52580000D01*
X151250000Y-56000000D02*
X151250000Y-55120000D01*
X151250000Y-58540000D02*
X151250000Y-57660000D01*
X151250000Y-61080000D02*
X151250000Y-60200000D01*
X151250000Y-63620000D02*
X151250000Y-62740000D01*
X151250000Y-66160000D02*
X151250000Y-65280000D01*
X151250000Y-68700000D02*
X151250000Y-67820000D01*
X151250000Y-71240000D02*
X151250000Y-70360000D01*
X151250000Y-73650000D02*
X151250000Y-72900000D01*
D16*
%TO.C,R5*%
X156022936Y-96340000D02*
X157477064Y-96340000D01*
X156022936Y-98160000D02*
X157477064Y-98160000D01*
%TO.C,R7*%
X156022936Y-93840000D02*
X157477064Y-93840000D01*
X156022936Y-95660000D02*
X157477064Y-95660000D01*
%TO.C,R8*%
X152022936Y-85090000D02*
X153477064Y-85090000D01*
X152022936Y-86910000D02*
X153477064Y-86910000D01*
%TO.C,R6*%
X156022936Y-98840000D02*
X157477064Y-98840000D01*
X156022936Y-100660000D02*
X157477064Y-100660000D01*
D15*
%TO.C,U3*%
X157250000Y-40470000D02*
X172750000Y-40470000D01*
X157250000Y-57750000D02*
X157250000Y-40470000D01*
X160170000Y-57750000D02*
X157250000Y-57750000D01*
X167410000Y-57750000D02*
X162590000Y-57750000D01*
X172750000Y-40470000D02*
X172750000Y-57750000D01*
X172750000Y-57750000D02*
X169830000Y-57750000D01*
D17*
X172410000Y-47970000D02*
G75*
G02*
X171810000Y-47970000I-300000J0D01*
G01*
X171810000Y-47970000D02*
G75*
G02*
X172410000Y-47970000I300000J0D01*
G01*
D18*
%TO.C,U4*%
X171750000Y-112210000D02*
G75*
G02*
X171450000Y-112210000I-150000J0D01*
G01*
X171450000Y-112210000D02*
G75*
G02*
X171750000Y-112210000I150000J0D01*
G01*
D16*
%TO.C,J5*%
X129380000Y-78080000D02*
X128000000Y-78080000D01*
X129380000Y-79460000D02*
X129380000Y-78080000D01*
X129380000Y-80730000D02*
X129380000Y-88460000D01*
X129380000Y-80730000D02*
X126620000Y-80730000D01*
X129380000Y-88460000D02*
X126620000Y-88460000D01*
X126620000Y-80730000D02*
X126620000Y-88460000D01*
%TD*%
M02*
