%TF.GenerationSoftware,KiCad,Pcbnew,9.0.6*%
%TF.CreationDate,2026-01-15T21:11:11+00:00*%
%TF.ProjectId,Cinder,43696e64-6572-42e6-9b69-6361645f7063,rev?*%
%TF.SameCoordinates,Original*%
%TF.FileFunction,Paste,Bot*%
%TF.FilePolarity,Positive*%
%FSLAX46Y46*%
G04 Gerber Fmt 4.6, Leading zero omitted, Abs format (unit mm)*
G04 Created by KiCad (PCBNEW 9.0.6) date 2026-01-15 21:11:11*
%MOMM*%
%LPD*%
G01*
G04 APERTURE LIST*
G04 Aperture macros list*
%AMRoundRect*
0 Rectangle with rounded corners*
0 $1 Rounding radius*
0 $2 $3 $4 $5 $6 $7 $8 $9 X,Y pos of 4 corners*
0 Add a 4 corners polygon primitive as box body*
4,1,4,$2,$3,$4,$5,$6,$7,$8,$9,$2,$3,0*
0 Add four circle primitives for the rounded corners*
1,1,$1+$1,$2,$3*
1,1,$1+$1,$4,$5*
1,1,$1+$1,$6,$7*
1,1,$1+$1,$8,$9*
0 Add four rect primitives between the rounded corners*
20,1,$1+$1,$2,$3,$4,$5,0*
20,1,$1+$1,$4,$5,$6,$7,0*
20,1,$1+$1,$6,$7,$8,$9,0*
20,1,$1+$1,$8,$9,$2,$3,0*%
G04 Aperture macros list end*
%ADD10R,1.200000X3.500000*%
%ADD11R,2.000000X1.200000*%
%ADD12R,1.200000X2.000000*%
%ADD13R,1.010000X0.610000*%
%ADD14RoundRect,0.250000X-0.400000X-0.625000X0.400000X-0.625000X0.400000X0.625000X-0.400000X0.625000X0*%
G04 APERTURE END LIST*
D10*
%TO.C,U6*%
X142000000Y-58672500D03*
X142000000Y-64012500D03*
%TD*%
D11*
%TO.C,U1*%
X133750000Y-51750000D03*
X133750000Y-54290000D03*
X133750000Y-56830000D03*
X133750000Y-59370000D03*
X133750000Y-61910000D03*
X133750000Y-64450000D03*
X133750000Y-66990000D03*
X133750000Y-69530000D03*
X133750000Y-72070000D03*
D12*
X137170000Y-73150000D03*
X139710000Y-73150000D03*
X142250000Y-73150000D03*
X144790000Y-73150000D03*
X147330000Y-73150000D03*
D11*
X150750000Y-72070000D03*
X150750000Y-69530000D03*
X150750000Y-66990000D03*
X150750000Y-64450000D03*
X150750000Y-61910000D03*
X150750000Y-59370000D03*
X150750000Y-56830000D03*
X150750000Y-54290000D03*
X150750000Y-51750000D03*
D13*
X148240000Y-68560000D03*
X148240000Y-67290000D03*
X148240000Y-66020000D03*
X148240000Y-64750000D03*
X148240000Y-63480000D03*
X148240000Y-62220000D03*
X148240000Y-60950000D03*
X148240000Y-59680000D03*
X148240000Y-58410000D03*
X148240000Y-57140000D03*
%TD*%
D14*
%TO.C,R5*%
X158300000Y-97250000D03*
X155200000Y-97250000D03*
%TD*%
%TO.C,R7*%
X158300000Y-94750000D03*
X155200000Y-94750000D03*
%TD*%
%TO.C,R8*%
X154300000Y-86000000D03*
X151200000Y-86000000D03*
%TD*%
%TO.C,R6*%
X158300000Y-99750000D03*
X155200000Y-99750000D03*
%TD*%
M02*
