M48
; DRILL file {KiCad 9.0.6} date 2026-01-14T19:17:24+0000
; FORMAT={-:-/ absolute / metric / decimal}
; #@! TF.CreationDate,2026-01-14T19:17:24+00:00
; #@! TF.GenerationSoftware,Kicad,Pcbnew,9.0.6
; #@! TF.FileFunction,Plated,1,2,PTH
FMAT,2
METRIC
; #@! TA.AperFunction,Plated,PTH,ViaDrill
T1C0.300
; #@! TA.AperFunction,Plated,PTH,ComponentDrill
T2C1.000
; #@! TA.AperFunction,Plated,PTH,ComponentDrill
T3C1.000
; #@! TA.AperFunction,Plated,PTH,ComponentDrill
T4C1.050
; #@! TA.AperFunction,Plated,PTH,ComponentDrill
T5C1.300
; #@! TA.AperFunction,Plated,PTH,ComponentDrill
T6C1.500
; #@! TA.AperFunction,Plated,PTH,ComponentDrill
T7C1.500
; #@! TA.AperFunction,Plated,PTH,ComponentDrill
T8C2.030
%
G90
G05
T1
X128.0Y-73.0
X128.5Y-62.0
X128.5Y-87.0
X128.75Y-69.25
X128.75Y-77.75
X129.0Y-73.75
X129.5Y-81.5
X129.75Y-74.5
X131.5Y-70.25
X133.5Y-71.5
X135.5Y-67.5
X140.0Y-90.0
X142.5Y-89.75
X142.5Y-93.75
X145.5Y-102.75
X147.5Y-70.25
X147.5Y-75.25
X149.75Y-82.75
X150.25Y-70.0
X150.25Y-87.25
X150.5Y-72.75
X150.5Y-90.25
X151.0Y-71.25
X151.0Y-74.0
X151.25Y-81.5
X151.75Y-87.5
X152.0Y-63.25
X152.55Y-87.5
X153.0Y-78.0
X154.25Y-87.5
X155.25Y-93.75
X156.0Y-93.25
X156.716Y-92.892
X157.361Y-92.419
X159.0Y-76.0
X159.0Y-77.0
X159.5Y-76.5
X159.5Y-83.25
X159.5Y-84.25
X160.0Y-76.0
X160.0Y-77.0
X160.5Y-76.5
X161.0Y-76.0
X161.0Y-77.0
X161.25Y-82.25
X161.25Y-85.25
X161.25Y-86.25
X161.75Y-81.75
X161.75Y-85.75
X162.25Y-82.25
X162.25Y-85.25
X162.25Y-86.25
X163.0Y-101.5
X164.0Y-83.25
X164.0Y-84.25
X164.75Y-99.25
X165.0Y-96.75
X166.5Y-95.25
X169.25Y-95.5
T2
X174.875Y-105.96
X174.875Y-108.5
X174.875Y-111.04
T3
X182.0Y-72.41
X182.0Y-77.0
X182.0Y-82.0
X182.0Y-87.0
T4
X136.19Y-92.54
X138.73Y-92.54
X141.27Y-92.54
X143.81Y-92.54
T5
X159.46Y-102.75
X159.46Y-117.25
X162.0Y-117.25
X164.54Y-102.75
X164.54Y-117.25
T6
X130.92Y-126.46
X133.46Y-132.81
X149.92Y-126.46
X152.46Y-132.81
X161.4Y-64.877
X168.6Y-64.877
X168.92Y-126.46
X171.46Y-132.81
T8
X128.35Y-93.1
X128.35Y-116.9
X151.65Y-93.1
X151.65Y-116.9
T7
G00X156.5Y-110.5
M15
G01X156.5Y-109.0
M16
G05
G00X167.5Y-110.5
M15
G01X167.5Y-109.0
M16
G05
M30
