%TF.GenerationSoftware,KiCad,Pcbnew,9.0.6*%
%TF.CreationDate,2026-01-14T19:17:06+00:00*%
%TF.ProjectId,Cinder,43696e64-6572-42e6-9b69-6361645f7063,rev?*%
%TF.SameCoordinates,Original*%
%TF.FileFunction,Paste,Bot*%
%TF.FilePolarity,Positive*%
%FSLAX46Y46*%
G04 Gerber Fmt 4.6, Leading zero omitted, Abs format (unit mm)*
G04 Created by KiCad (PCBNEW 9.0.6) date 2026-01-14 19:17:06*
%MOMM*%
%LPD*%
G01*
G04 APERTURE LIST*
G04 Aperture macros list*
%AMRoundRect*
0 Rectangle with rounded corners*
0 $1 Rounding radius*
0 $2 $3 $4 $5 $6 $7 $8 $9 X,Y pos of 4 corners*
0 Add a 4 corners polygon primitive as box body*
4,1,4,$2,$3,$4,$5,$6,$7,$8,$9,$2,$3,0*
0 Add four circle primitives for the rounded corners*
1,1,$1+$1,$2,$3*
1,1,$1+$1,$4,$5*
1,1,$1+$1,$6,$7*
1,1,$1+$1,$8,$9*
0 Add four rect primitives between the rounded corners*
20,1,$1+$1,$2,$3,$4,$5,0*
20,1,$1+$1,$4,$5,$6,$7,0*
20,1,$1+$1,$6,$7,$8,$9,0*
20,1,$1+$1,$8,$9,$2,$3,0*%
G04 Aperture macros list end*
%ADD10R,1.010000X0.610000*%
%ADD11R,2.000000X1.200000*%
%ADD12R,1.200000X2.000000*%
%ADD13RoundRect,0.250000X0.400000X0.625000X-0.400000X0.625000X-0.400000X-0.625000X0.400000X-0.625000X0*%
%ADD14R,2.800000X1.300000*%
%ADD15R,6.500000X6.000000*%
%ADD16RoundRect,0.250000X-0.400000X-0.625000X0.400000X-0.625000X0.400000X0.625000X-0.400000X0.625000X0*%
%ADD17RoundRect,0.250000X-0.625000X0.400000X-0.625000X-0.400000X0.625000X-0.400000X0.625000X0.400000X0*%
G04 APERTURE END LIST*
D10*
%TO.C,U1*%
X145990000Y-66690000D03*
X145990000Y-67960000D03*
X145990000Y-69230000D03*
X145990000Y-70500000D03*
X145990000Y-71770000D03*
X145990000Y-73030000D03*
X145990000Y-74300000D03*
X145990000Y-75570000D03*
X145990000Y-76840000D03*
X145990000Y-78110000D03*
D11*
X148500000Y-61300000D03*
X148500000Y-63840000D03*
X148500000Y-66380000D03*
X148500000Y-68920000D03*
X148500000Y-71460000D03*
X148500000Y-74000000D03*
X148500000Y-76540000D03*
X148500000Y-79080000D03*
X148500000Y-81620000D03*
D12*
X145080000Y-82700000D03*
X142540000Y-82700000D03*
X140000000Y-82700000D03*
X137460000Y-82700000D03*
X134920000Y-82700000D03*
D11*
X131500000Y-81620000D03*
X131500000Y-79080000D03*
X131500000Y-76540000D03*
X131500000Y-74000000D03*
X131500000Y-71460000D03*
X131500000Y-68920000D03*
X131500000Y-66380000D03*
X131500000Y-63840000D03*
X131500000Y-61300000D03*
%TD*%
D13*
%TO.C,R7*%
X162700000Y-93000000D03*
X165800000Y-93000000D03*
%TD*%
D14*
%TO.C,Q2*%
X161710000Y-83730000D03*
X161710000Y-88270000D03*
D15*
X168290000Y-86000000D03*
%TD*%
D16*
%TO.C,R4*%
X157800000Y-81250000D03*
X154700000Y-81250000D03*
%TD*%
D14*
%TO.C,Q1*%
X159910000Y-74330000D03*
X159910000Y-78870000D03*
D15*
X166490000Y-76600000D03*
%TD*%
D13*
%TO.C,R8*%
X158800000Y-100250000D03*
X155700000Y-100250000D03*
%TD*%
%TO.C,R6*%
X160550000Y-97900000D03*
X157450000Y-97900000D03*
%TD*%
%TO.C,R5*%
X163300000Y-95500000D03*
X160200000Y-95500000D03*
%TD*%
D17*
%TO.C,R2*%
X128750000Y-76200000D03*
X128750000Y-79300000D03*
%TD*%
%TO.C,R1*%
X128750000Y-67700000D03*
X128750000Y-70800000D03*
%TD*%
D16*
%TO.C,R3*%
X154700000Y-83750000D03*
X157800000Y-83750000D03*
%TD*%
M02*
