%TF.GenerationSoftware,KiCad,Pcbnew,9.0.6*%
%TF.CreationDate,2026-01-14T19:17:06+00:00*%
%TF.ProjectId,Cinder,43696e64-6572-42e6-9b69-6361645f7063,rev?*%
%TF.SameCoordinates,Original*%
%TF.FileFunction,Copper,L2,Bot*%
%TF.FilePolarity,Positive*%
%FSLAX46Y46*%
G04 Gerber Fmt 4.6, Leading zero omitted, Abs format (unit mm)*
G04 Created by KiCad (PCBNEW 9.0.6) date 2026-01-14 19:17:06*
%MOMM*%
%LPD*%
G01*
G04 APERTURE LIST*
G04 Aperture macros list*
%AMRoundRect*
0 Rectangle with rounded corners*
0 $1 Rounding radius*
0 $2 $3 $4 $5 $6 $7 $8 $9 X,Y pos of 4 corners*
0 Add a 4 corners polygon primitive as box body*
4,1,4,$2,$3,$4,$5,$6,$7,$8,$9,$2,$3,0*
0 Add four circle primitives for the rounded corners*
1,1,$1+$1,$2,$3*
1,1,$1+$1,$4,$5*
1,1,$1+$1,$6,$7*
1,1,$1+$1,$8,$9*
0 Add four rect primitives between the rounded corners*
20,1,$1+$1,$2,$3,$4,$5,0*
20,1,$1+$1,$4,$5,$6,$7,0*
20,1,$1+$1,$6,$7,$8,$9,0*
20,1,$1+$1,$8,$9,$2,$3,0*%
G04 Aperture macros list end*
%TA.AperFunction,ComponentPad*%
%ADD10RoundRect,0.150000X-1.350000X-1.350000X1.350000X-1.350000X1.350000X1.350000X-1.350000X1.350000X0*%
%TD*%
%TA.AperFunction,ComponentPad*%
%ADD11C,2.200000*%
%TD*%
%TA.AperFunction,SMDPad,CuDef*%
%ADD12R,1.010000X0.610000*%
%TD*%
%TA.AperFunction,SMDPad,CuDef*%
%ADD13R,2.000000X1.200000*%
%TD*%
%TA.AperFunction,SMDPad,CuDef*%
%ADD14R,1.200000X2.000000*%
%TD*%
%TA.AperFunction,ComponentPad*%
%ADD15C,1.800000*%
%TD*%
%TA.AperFunction,ComponentPad*%
%ADD16C,3.000000*%
%TD*%
%TA.AperFunction,SMDPad,CuDef*%
%ADD17RoundRect,0.250000X0.400000X0.625000X-0.400000X0.625000X-0.400000X-0.625000X0.400000X-0.625000X0*%
%TD*%
%TA.AperFunction,SMDPad,CuDef*%
%ADD18R,2.800000X1.300000*%
%TD*%
%TA.AperFunction,SMDPad,CuDef*%
%ADD19R,6.500000X6.000000*%
%TD*%
%TA.AperFunction,SMDPad,CuDef*%
%ADD20RoundRect,0.250000X-0.400000X-0.625000X0.400000X-0.625000X0.400000X0.625000X-0.400000X0.625000X0*%
%TD*%
%TA.AperFunction,ComponentPad*%
%ADD21O,3.800000X8.000000*%
%TD*%
%TA.AperFunction,ComponentPad*%
%ADD22R,1.700000X1.700000*%
%TD*%
%TA.AperFunction,ComponentPad*%
%ADD23C,1.700000*%
%TD*%
%TA.AperFunction,ComponentPad*%
%ADD24O,2.300000X4.000000*%
%TD*%
%TA.AperFunction,SMDPad,CuDef*%
%ADD25RoundRect,0.250000X-0.625000X0.400000X-0.625000X-0.400000X0.625000X-0.400000X0.625000X0.400000X0*%
%TD*%
%TA.AperFunction,ViaPad*%
%ADD26C,0.600000*%
%TD*%
%TA.AperFunction,Conductor*%
%ADD27C,0.200000*%
%TD*%
%TA.AperFunction,Conductor*%
%ADD28C,3.000000*%
%TD*%
%TA.AperFunction,Conductor*%
%ADD29C,0.500000*%
%TD*%
%TA.AperFunction,Conductor*%
%ADD30C,0.300000*%
%TD*%
G04 APERTURE END LIST*
D10*
%TO.P,J1,1,Pin_1*%
%TO.N,Net-(J1-Pin_1)*%
X182000000Y-72410000D03*
%TD*%
%TO.P,J2,1,Pin_1*%
%TO.N,+19V*%
X182000000Y-77000000D03*
%TD*%
%TO.P,J3,1,Pin_1*%
%TO.N,+19V*%
X182000000Y-82000000D03*
%TD*%
%TO.P,J4,1,Pin_1*%
%TO.N,Net-(J4-Pin_1)*%
X182000000Y-87000000D03*
%TD*%
D11*
%TO.P,SW1,2,2*%
%TO.N,SW2*%
X133460000Y-132810000D03*
%TO.P,SW1,1,1*%
%TO.N,+3.3V*%
X130920000Y-126460000D03*
%TD*%
%TO.P,SW2,2,2*%
%TO.N,SW1*%
X152460000Y-132810000D03*
%TO.P,SW2,1,1*%
%TO.N,+3.3V*%
X149920000Y-126460000D03*
%TD*%
%TO.P,SW3,2,2*%
%TO.N,SW3*%
X171460000Y-132810000D03*
%TO.P,SW3,1,1*%
%TO.N,+3.3V*%
X168920000Y-126460000D03*
%TD*%
D12*
%TO.P,U1,33*%
%TO.N,N/C*%
X145990000Y-66690000D03*
%TO.P,U1,32*%
X145990000Y-67960000D03*
%TO.P,U1,31*%
X145990000Y-69230000D03*
%TO.P,U1,30*%
X145990000Y-70500000D03*
%TO.P,U1,29*%
X145990000Y-71770000D03*
%TO.P,U1,28*%
X145990000Y-73030000D03*
%TO.P,U1,27*%
X145990000Y-74300000D03*
%TO.P,U1,26*%
X145990000Y-75570000D03*
%TO.P,U1,25*%
X145990000Y-76840000D03*
%TO.P,U1,24*%
X145990000Y-78110000D03*
D13*
%TO.P,U1,23,5V*%
%TO.N,+5V*%
X148500000Y-61300000D03*
%TO.P,U1,22,GND*%
%TO.N,GND*%
X148500000Y-63840000D03*
%TO.P,U1,21,3V3*%
%TO.N,+3.3V*%
X148500000Y-66380000D03*
%TO.P,U1,20,GP29*%
%TO.N,EC1*%
X148500000Y-68920000D03*
%TO.P,U1,19,GP28*%
%TO.N,EC2*%
X148500000Y-71460000D03*
%TO.P,U1,18,GP27*%
%TO.N,SW1*%
X148500000Y-74000000D03*
%TO.P,U1,17,GP26*%
%TO.N,SW2*%
X148500000Y-76540000D03*
%TO.P,U1,16,GP15*%
%TO.N,SW3*%
X148500000Y-79080000D03*
%TO.P,U1,15,GP14*%
%TO.N,SW4*%
X148500000Y-81620000D03*
D14*
%TO.P,U1,14,GP13*%
%TO.N,unconnected-(U1-GP13-Pad14)*%
X145080000Y-82700000D03*
%TO.P,U1,13,GP12*%
%TO.N,unconnected-(U1-GP12-Pad13)*%
X142540000Y-82700000D03*
%TO.P,U1,12,GP11*%
%TO.N,unconnected-(U1-GP11-Pad12)*%
X140000000Y-82700000D03*
%TO.P,U1,11,GP10*%
%TO.N,unconnected-(U1-GP10-Pad11)*%
X137460000Y-82700000D03*
%TO.P,U1,10,GP9*%
%TO.N,unconnected-(U1-GP9-Pad10)*%
X134920000Y-82700000D03*
D13*
%TO.P,U1,9,GP8*%
%TO.N,unconnected-(U1-GP8-Pad9)*%
X131500000Y-81620000D03*
%TO.P,U1,8,GP7*%
%TO.N,unconnected-(U1-GP7-Pad8)*%
X131500000Y-79080000D03*
%TO.P,U1,7,GP6*%
%TO.N,unconnected-(U1-GP6-Pad7)*%
X131500000Y-76540000D03*
%TO.P,U1,6,GP5*%
%TO.N,unconnected-(U1-GP5-Pad6)*%
X131500000Y-74000000D03*
%TO.P,U1,5,GP4*%
%TO.N,unconnected-(U1-GP4-Pad5)*%
X131500000Y-71460000D03*
%TO.P,U1,4,GP3*%
%TO.N,Net-(U1-GP3)*%
X131500000Y-68920000D03*
%TO.P,U1,3,GP2*%
%TO.N,Net-(U1-GP2)*%
X131500000Y-66380000D03*
%TO.P,U1,2,GP1*%
%TO.N,Net-(U1-GP1)*%
X131500000Y-63840000D03*
%TO.P,U1,1,GP0*%
%TO.N,Net-(U1-GP0)*%
X131500000Y-61300000D03*
%TD*%
D15*
%TO.P,U2,1,GND*%
%TO.N,GND*%
X136190000Y-92540000D03*
%TO.P,U2,2,VCC*%
%TO.N,+3.3V*%
X138730000Y-92540000D03*
%TO.P,U2,3,SCL*%
%TO.N,Net-(U1-GP1)*%
X141270000Y-92540000D03*
%TO.P,U2,4,SDA*%
%TO.N,Net-(U1-GP0)*%
X143810000Y-92540000D03*
D16*
%TO.P,U2,*%
%TO.N,*%
X128350000Y-93100000D03*
X151650000Y-93100000D03*
X128350000Y-116900000D03*
X151650000Y-116900000D03*
%TD*%
D17*
%TO.P,R7,2*%
%TO.N,GND*%
X162700000Y-93000000D03*
%TO.P,R7,1*%
%TO.N,SW3*%
X165800000Y-93000000D03*
%TD*%
D18*
%TO.P,Q2,3,S*%
%TO.N,GND*%
X161710000Y-83730000D03*
%TO.P,Q2,1,G*%
%TO.N,Net-(Q2-G)*%
X161710000Y-88270000D03*
D19*
%TO.P,Q2,2,D*%
%TO.N,Net-(J4-Pin_1)*%
X168290000Y-86000000D03*
%TD*%
D20*
%TO.P,R4,2*%
%TO.N,Net-(Q1-G)*%
X157800000Y-81250000D03*
%TO.P,R4,1*%
%TO.N,GND*%
X154700000Y-81250000D03*
%TD*%
D18*
%TO.P,Q1,3,S*%
%TO.N,GND*%
X159910000Y-74330000D03*
%TO.P,Q1,1,G*%
%TO.N,Net-(Q1-G)*%
X159910000Y-78870000D03*
D19*
%TO.P,Q1,2,D*%
%TO.N,Net-(J1-Pin_1)*%
X166490000Y-76600000D03*
%TD*%
D21*
%TO.P,U3,4,-*%
%TO.N,GND*%
X161400000Y-64877500D03*
%TO.P,U3,3,+*%
%TO.N,+19V*%
X168600000Y-64877500D03*
%TD*%
D22*
%TO.P,U4,1,Vin*%
%TO.N,+19V*%
X174875000Y-111040000D03*
D23*
%TO.P,U4,2,GND*%
%TO.N,GND*%
X174875000Y-108500000D03*
%TO.P,U4,3,+Vo*%
%TO.N,+5V*%
X174875000Y-105960000D03*
%TD*%
D15*
%TO.P,SW9,A,A*%
%TO.N,EC2*%
X159460000Y-117250000D03*
%TO.P,SW9,C,C*%
%TO.N,GND*%
X162000000Y-117250000D03*
%TO.P,SW9,B,B*%
%TO.N,EC1*%
X164540000Y-117250000D03*
%TO.P,SW9,D,D*%
%TO.N,+3.3V*%
X159460000Y-102750000D03*
%TO.P,SW9,E,E*%
%TO.N,SW4*%
X164540000Y-102750000D03*
D24*
%TO.P,SW9,6,6*%
%TO.N,GND*%
X167500000Y-109750000D03*
%TO.P,SW9,7,7*%
X156500000Y-109750000D03*
%TD*%
D17*
%TO.P,R8,1*%
%TO.N,SW4*%
X158800000Y-100250000D03*
%TO.P,R8,2*%
%TO.N,GND*%
X155700000Y-100250000D03*
%TD*%
%TO.P,R6,1*%
%TO.N,SW2*%
X160550000Y-97900000D03*
%TO.P,R6,2*%
%TO.N,GND*%
X157450000Y-97900000D03*
%TD*%
%TO.P,R5,1*%
%TO.N,SW1*%
X163300000Y-95500000D03*
%TO.P,R5,2*%
%TO.N,GND*%
X160200000Y-95500000D03*
%TD*%
D25*
%TO.P,R2,1*%
%TO.N,Net-(U1-GP3)*%
X128750000Y-76200000D03*
%TO.P,R2,2*%
%TO.N,Net-(Q2-G)*%
X128750000Y-79300000D03*
%TD*%
%TO.P,R1,1*%
%TO.N,Net-(U1-GP2)*%
X128750000Y-67700000D03*
%TO.P,R1,2*%
%TO.N,Net-(Q1-G)*%
X128750000Y-70800000D03*
%TD*%
D20*
%TO.P,R3,1*%
%TO.N,GND*%
X154700000Y-83750000D03*
%TO.P,R3,2*%
%TO.N,Net-(Q2-G)*%
X157800000Y-83750000D03*
%TD*%
D26*
%TO.N,GND*%
X161750000Y-81750000D03*
X161750000Y-85750000D03*
X159500000Y-84250000D03*
X159500000Y-83250000D03*
X161250000Y-82250000D03*
X162250000Y-82250000D03*
X164000000Y-83250000D03*
X164000000Y-84250000D03*
X161250000Y-86250000D03*
X162250000Y-86250000D03*
X161250000Y-85250000D03*
X162250000Y-85250000D03*
X159000000Y-76000000D03*
X160000000Y-76000000D03*
X161000000Y-76000000D03*
X159500000Y-76500000D03*
X160500000Y-76500000D03*
X159000000Y-77000000D03*
X160000000Y-77000000D03*
X161000000Y-77000000D03*
X135500000Y-67500000D03*
X128500000Y-62000000D03*
X147500000Y-70250000D03*
X147500000Y-75250000D03*
X129750000Y-74500000D03*
X149750000Y-82750000D03*
X151250000Y-81500000D03*
X142500000Y-93750000D03*
X140000000Y-90000000D03*
X142500000Y-89750000D03*
X128500000Y-87000000D03*
X129500000Y-81500000D03*
X128750000Y-77750000D03*
X128000000Y-73000000D03*
X131500000Y-70250000D03*
X128750000Y-69250000D03*
X151000000Y-74000000D03*
X151000000Y-71250000D03*
X150500000Y-90250000D03*
X150250000Y-87250000D03*
X163000000Y-101500000D03*
X164750000Y-99250000D03*
X165000000Y-96750000D03*
X169250000Y-95500000D03*
X166500000Y-95250000D03*
%TO.N,Net-(U1-GP3)*%
X129000000Y-73750000D03*
X133500000Y-71500000D03*
%TO.N,EC2*%
X150500000Y-72750000D03*
%TO.N,EC1*%
X150250000Y-70000000D03*
%TO.N,+3.3V*%
X145500000Y-102750000D03*
%TO.N,SW1*%
X153000000Y-78000000D03*
%TO.N,SW3*%
X154250000Y-87500000D03*
X157360501Y-92418905D03*
%TO.N,SW1*%
X156715544Y-92892228D03*
%TO.N,SW2*%
X152550003Y-87500000D03*
X156000000Y-93250000D03*
%TO.N,SW4*%
X151750000Y-87500000D03*
X155250000Y-93750000D03*
%TO.N,+5V*%
X152000000Y-63250000D03*
%TD*%
D27*
%TO.N,GND*%
X147000000Y-72500000D02*
X147000000Y-70250000D01*
%TO.N,SW3*%
X150330000Y-79080000D02*
X148500000Y-79080000D01*
X152250000Y-84750000D02*
X152250000Y-81000000D01*
X153250000Y-85750000D02*
X152250000Y-84750000D01*
X152250000Y-81000000D02*
X150330000Y-79080000D01*
X153250000Y-86500000D02*
X153250000Y-85750000D01*
X154250000Y-87500000D02*
X153250000Y-86500000D01*
D28*
%TO.N,Net-(J4-Pin_1)*%
X169290000Y-87000000D02*
X168290000Y-86000000D01*
X182000000Y-87000000D02*
X169290000Y-87000000D01*
D27*
%TO.N,Net-(U1-GP3)*%
X132920000Y-68920000D02*
X131500000Y-68920000D01*
X133500000Y-69500000D02*
X132920000Y-68920000D01*
X133500000Y-71500000D02*
X133500000Y-69500000D01*
X128750000Y-74000000D02*
X129000000Y-73750000D01*
X128750000Y-76200000D02*
X128750000Y-74000000D01*
%TO.N,EC2*%
X149210000Y-71460000D02*
X148500000Y-71460000D01*
X150500000Y-72750000D02*
X149210000Y-71460000D01*
%TO.N,EC1*%
X149170000Y-68920000D02*
X148500000Y-68920000D01*
X150250000Y-70000000D02*
X149170000Y-68920000D01*
D29*
%TO.N,+5V*%
X152000000Y-62800000D02*
X150500000Y-61300000D01*
X152000000Y-63250000D02*
X152000000Y-62800000D01*
X150500000Y-61300000D02*
X148500000Y-61300000D01*
D27*
%TO.N,SW1*%
X149250000Y-74000000D02*
X148500000Y-74000000D01*
X153000000Y-77750000D02*
X149250000Y-74000000D01*
X153000000Y-78000000D02*
X153000000Y-77750000D01*
%TO.N,SW3*%
X158750000Y-92750000D02*
X157691596Y-92750000D01*
X157691596Y-92750000D02*
X157360501Y-92418905D01*
X159750000Y-92750000D02*
X158750000Y-92750000D01*
X161000000Y-91500000D02*
X159750000Y-92750000D01*
X161750000Y-91500000D02*
X161000000Y-91500000D01*
X164300000Y-91500000D02*
X161750000Y-91500000D01*
X165800000Y-93000000D02*
X164300000Y-91500000D01*
%TO.N,SW2*%
X147000000Y-78040000D02*
X148500000Y-76540000D01*
X150500000Y-81000000D02*
X150000000Y-80500000D01*
X147718000Y-80500000D02*
X147000000Y-79782000D01*
X147000000Y-79782000D02*
X147000000Y-78040000D01*
X150500000Y-84750000D02*
X150500000Y-81000000D01*
X150000000Y-80500000D02*
X147718000Y-80500000D01*
X152500000Y-86750000D02*
X150500000Y-84750000D01*
X152500000Y-87449997D02*
X152500000Y-86750000D01*
X152550003Y-87500000D02*
X152500000Y-87449997D01*
%TO.N,SW1*%
X162500000Y-95500000D02*
X163300000Y-95500000D01*
X160500000Y-93500000D02*
X162500000Y-95500000D01*
X156715544Y-92892228D02*
X157323316Y-93500000D01*
X157323316Y-93500000D02*
X160500000Y-93500000D01*
X165300000Y-95500000D02*
X163300000Y-95500000D01*
%TO.N,SW2*%
X158033550Y-95966450D02*
X156000000Y-93932900D01*
X156000000Y-93932900D02*
X156000000Y-93250000D01*
X159967100Y-97900000D02*
X158033550Y-95966450D01*
X160550000Y-97900000D02*
X159967100Y-97900000D01*
%TO.N,SW4*%
X151750000Y-87500000D02*
X151750000Y-86750000D01*
X158000000Y-96500000D02*
X155250000Y-93750000D01*
X148500000Y-83500000D02*
X148500000Y-81620000D01*
X158800000Y-97300000D02*
X158000000Y-96500000D01*
X151750000Y-86750000D02*
X148500000Y-83500000D01*
X158800000Y-100250000D02*
X158800000Y-97300000D01*
X164250000Y-100250000D02*
X158800000Y-100250000D01*
X164540000Y-100540000D02*
X164250000Y-100250000D01*
%TO.N,SW2*%
X165300000Y-97900000D02*
X160550000Y-97900000D01*
X167000000Y-99600000D02*
X165300000Y-97900000D01*
X167000000Y-103250000D02*
X167000000Y-99600000D01*
X140000000Y-134750000D02*
X140000000Y-119000000D01*
X140000000Y-119000000D02*
X154250000Y-104750000D01*
X138000000Y-136750000D02*
X140000000Y-134750000D01*
X135000000Y-136750000D02*
X138000000Y-136750000D01*
X133460000Y-135210000D02*
X135000000Y-136750000D01*
X165500000Y-104750000D02*
X167000000Y-103250000D01*
X133460000Y-132810000D02*
X133460000Y-135210000D01*
X154250000Y-104750000D02*
X165500000Y-104750000D01*
%TO.N,SW1*%
X167500000Y-97700000D02*
X165300000Y-95500000D01*
%TO.N,SW3*%
X168000000Y-105750000D02*
X168000000Y-95200000D01*
X168000000Y-95200000D02*
X165800000Y-93000000D01*
X171000000Y-108750000D02*
X168000000Y-105750000D01*
X171000000Y-132350000D02*
X171000000Y-108750000D01*
X171460000Y-132810000D02*
X171000000Y-132350000D01*
%TO.N,SW1*%
X167500000Y-104250000D02*
X152460000Y-119290000D01*
X152460000Y-119290000D02*
X152460000Y-132810000D01*
X167500000Y-97700000D02*
X167500000Y-104250000D01*
%TO.N,SW4*%
X164540000Y-102750000D02*
X164540000Y-100540000D01*
%TO.N,+3.3V*%
X144800000Y-102050000D02*
X144800000Y-94400000D01*
X145500000Y-102750000D02*
X144800000Y-102050000D01*
X159460000Y-102750000D02*
X145500000Y-102750000D01*
%TO.N,Net-(Q2-G)*%
X156270000Y-88270000D02*
X156250000Y-88250000D01*
X161710000Y-88270000D02*
X156270000Y-88270000D01*
X155500000Y-89000000D02*
X156250000Y-88250000D01*
X145750000Y-89000000D02*
X155500000Y-89000000D01*
X156250000Y-88250000D02*
X156250000Y-84500000D01*
%TO.N,Net-(Q1-G)*%
X128750000Y-72000000D02*
X128750000Y-70800000D01*
X129500000Y-72750000D02*
X128750000Y-72000000D01*
X133500000Y-73250000D02*
X133000000Y-72750000D01*
X133500000Y-84099000D02*
X133500000Y-73250000D01*
X134500000Y-85099000D02*
X133500000Y-84099000D01*
X142401000Y-85099000D02*
X134500000Y-85099000D01*
X142500000Y-85000000D02*
X142401000Y-85099000D01*
X133000000Y-72750000D02*
X129500000Y-72750000D01*
X146000000Y-88500000D02*
X142500000Y-85000000D01*
X155250000Y-88500000D02*
X146000000Y-88500000D01*
X155750000Y-88000000D02*
X155250000Y-88500000D01*
X155750000Y-83300000D02*
X155750000Y-88000000D01*
X157800000Y-81250000D02*
X155750000Y-83300000D01*
%TO.N,Net-(Q2-G)*%
X128750000Y-82500000D02*
X128750000Y-79300000D01*
X131750000Y-85500000D02*
X128750000Y-82500000D01*
X142250000Y-85500000D02*
X131750000Y-85500000D01*
X145750000Y-89000000D02*
X142250000Y-85500000D01*
%TO.N,Net-(Q1-G)*%
X159910000Y-80090000D02*
X159910000Y-78870000D01*
X157800000Y-81250000D02*
X158750000Y-81250000D01*
X158750000Y-81250000D02*
X159910000Y-80090000D01*
%TO.N,Net-(Q2-G)*%
X156250000Y-84500000D02*
X157000000Y-83750000D01*
X157000000Y-83750000D02*
X157800000Y-83750000D01*
%TO.N,Net-(U1-GP2)*%
X128750000Y-66750000D02*
X129120000Y-66380000D01*
X129120000Y-66380000D02*
X131500000Y-66380000D01*
X128750000Y-67700000D02*
X128750000Y-66750000D01*
D30*
%TO.N,+3.3V*%
X140590000Y-94400000D02*
X144800000Y-94400000D01*
X138730000Y-92540000D02*
X140590000Y-94400000D01*
D27*
%TO.N,Net-(U1-GP0)*%
X132800000Y-61300000D02*
X131500000Y-61300000D01*
X133500000Y-62000000D02*
X132800000Y-61300000D01*
X133200000Y-64800000D02*
X133500000Y-64500000D01*
X128200000Y-64800000D02*
X133200000Y-64800000D01*
X126500000Y-66500000D02*
X128200000Y-64800000D01*
X129000000Y-89000000D02*
X126500000Y-86500000D01*
X140270000Y-89000000D02*
X129000000Y-89000000D01*
X133500000Y-64500000D02*
X133500000Y-62000000D01*
X143810000Y-92540000D02*
X140270000Y-89000000D01*
X126500000Y-86500000D02*
X126500000Y-66500000D01*
%TO.N,Net-(U1-GP1)*%
X127261000Y-63840000D02*
X131500000Y-63840000D01*
X126000000Y-65101000D02*
X127261000Y-63840000D01*
X126000000Y-87000000D02*
X126000000Y-65101000D01*
X138230000Y-89500000D02*
X128500000Y-89500000D01*
X128500000Y-89500000D02*
X126000000Y-87000000D01*
X141270000Y-92540000D02*
X138230000Y-89500000D01*
D30*
%TO.N,+3.3V*%
X147371000Y-65251000D02*
X148500000Y-66380000D01*
X127000000Y-83750000D02*
X127000000Y-66637810D01*
X130250000Y-87000000D02*
X127000000Y-83750000D01*
X141200000Y-87000000D02*
X130250000Y-87000000D01*
X128386810Y-65251000D02*
X147371000Y-65251000D01*
X145600000Y-91400000D02*
X141200000Y-87000000D01*
X145600000Y-93600000D02*
X145600000Y-91400000D01*
X127000000Y-66637810D02*
X128386810Y-65251000D01*
X144800000Y-94400000D02*
X145600000Y-93600000D01*
%TD*%
%TA.AperFunction,Conductor*%
%TO.N,Net-(J1-Pin_1)*%
G36*
X183007855Y-70486220D02*
G01*
X183019888Y-70486973D01*
X183194967Y-70506522D01*
X183218528Y-70511506D01*
X183380749Y-70562721D01*
X183402900Y-70572168D01*
X183552148Y-70653785D01*
X183572062Y-70667343D01*
X183702704Y-70776277D01*
X183719622Y-70793432D01*
X183826728Y-70925569D01*
X183840010Y-70945672D01*
X183919543Y-71096034D01*
X183928686Y-71118326D01*
X183977639Y-71281229D01*
X183982298Y-71304868D01*
X183999413Y-71480194D01*
X184000000Y-71492241D01*
X184000000Y-73493907D01*
X183999403Y-73506061D01*
X183981982Y-73682934D01*
X183977240Y-73706775D01*
X183927424Y-73870998D01*
X183918121Y-73893456D01*
X183837227Y-74044798D01*
X183823722Y-74065010D01*
X183714854Y-74197666D01*
X183697666Y-74214854D01*
X183565010Y-74323722D01*
X183544798Y-74337227D01*
X183393456Y-74418121D01*
X183370998Y-74427424D01*
X183206775Y-74477240D01*
X183182935Y-74481982D01*
X183077046Y-74492411D01*
X183011136Y-74498903D01*
X182998984Y-74499500D01*
X180578988Y-74499500D01*
X180576078Y-74499702D01*
X180567490Y-74500000D01*
X179999999Y-74500000D01*
X179745220Y-74640128D01*
X179745219Y-74640129D01*
X170229617Y-79873710D01*
X170220312Y-79878331D01*
X170081639Y-79940098D01*
X170062035Y-79946927D01*
X169920066Y-79983393D01*
X169899597Y-79986857D01*
X169748321Y-79999565D01*
X169737941Y-80000000D01*
X163756093Y-80000000D01*
X163743939Y-79999403D01*
X163567065Y-79981982D01*
X163543224Y-79977240D01*
X163379001Y-79927424D01*
X163356543Y-79918121D01*
X163205201Y-79837227D01*
X163184989Y-79823722D01*
X163052333Y-79714854D01*
X163035145Y-79697666D01*
X162926277Y-79565010D01*
X162912772Y-79544798D01*
X162831878Y-79393456D01*
X162822575Y-79370998D01*
X162772757Y-79206769D01*
X162768018Y-79182941D01*
X162750597Y-79006061D01*
X162750000Y-78993907D01*
X162750000Y-73470537D01*
X162750730Y-73457102D01*
X162772016Y-73261803D01*
X162777803Y-73235566D01*
X162838500Y-73055845D01*
X162849800Y-73031484D01*
X162947789Y-72869061D01*
X162964071Y-72847705D01*
X163099418Y-72705294D01*
X163109201Y-72696061D01*
X164546135Y-71480194D01*
X165710095Y-70495304D01*
X165718877Y-70488524D01*
X165851508Y-70395284D01*
X165870705Y-70384209D01*
X166012762Y-70318420D01*
X166033606Y-70310949D01*
X166185113Y-70271509D01*
X166206975Y-70267865D01*
X166368640Y-70255615D01*
X166379721Y-70255274D01*
X183007855Y-70486220D01*
G37*
%TD.AperFunction*%
%TD*%
%TA.AperFunction,Conductor*%
%TO.N,GND*%
G36*
X160722592Y-60520185D02*
G01*
X160768347Y-60572989D01*
X160778291Y-60642147D01*
X160749266Y-60705703D01*
X160703006Y-60739061D01*
X160447042Y-60845084D01*
X160447031Y-60845089D01*
X160202968Y-60986000D01*
X160202952Y-60986011D01*
X159979366Y-61157574D01*
X159979359Y-61157580D01*
X159780080Y-61356859D01*
X159780074Y-61356866D01*
X159608511Y-61580452D01*
X159608500Y-61580468D01*
X159467589Y-61824531D01*
X159467584Y-61824542D01*
X159359733Y-62084917D01*
X159286786Y-62357159D01*
X159250001Y-62636571D01*
X159250000Y-62636588D01*
X159250000Y-63877500D01*
X163550000Y-63877500D01*
X163550000Y-62636588D01*
X163549998Y-62636571D01*
X163513213Y-62357159D01*
X163440266Y-62084917D01*
X163332415Y-61824542D01*
X163332410Y-61824531D01*
X163191499Y-61580468D01*
X163191488Y-61580452D01*
X163019925Y-61356866D01*
X163019919Y-61356859D01*
X162820640Y-61157580D01*
X162820633Y-61157574D01*
X162597047Y-60986011D01*
X162597031Y-60986000D01*
X162352968Y-60845089D01*
X162352957Y-60845084D01*
X162096994Y-60739061D01*
X162042591Y-60695220D01*
X162020526Y-60628926D01*
X162037805Y-60561227D01*
X162088942Y-60513616D01*
X162144447Y-60500500D01*
X164000000Y-60500500D01*
X164000000Y-67500000D01*
X161750000Y-72250000D01*
X161750000Y-75500000D01*
X158000000Y-75500000D01*
X157991744Y-75004628D01*
X158260000Y-75004628D01*
X158274503Y-75077540D01*
X158274505Y-75077544D01*
X158329760Y-75160239D01*
X158412455Y-75215494D01*
X158412459Y-75215496D01*
X158485371Y-75229999D01*
X158485374Y-75230000D01*
X159260000Y-75230000D01*
X160560000Y-75230000D01*
X161334626Y-75230000D01*
X161334628Y-75229999D01*
X161407540Y-75215496D01*
X161407544Y-75215494D01*
X161490239Y-75160239D01*
X161545494Y-75077544D01*
X161545496Y-75077540D01*
X161559999Y-75004628D01*
X161560000Y-75004626D01*
X161560000Y-74980000D01*
X160560000Y-74980000D01*
X160560000Y-75230000D01*
X159260000Y-75230000D01*
X159260000Y-74980000D01*
X158260000Y-74980000D01*
X158260000Y-75004628D01*
X157991744Y-75004628D01*
X157969256Y-73655371D01*
X158260000Y-73655371D01*
X158260000Y-73680000D01*
X159260000Y-73680000D01*
X160560000Y-73680000D01*
X161560000Y-73680000D01*
X161560000Y-73655373D01*
X161559999Y-73655371D01*
X161545496Y-73582459D01*
X161545494Y-73582455D01*
X161490239Y-73499760D01*
X161407544Y-73444505D01*
X161407540Y-73444503D01*
X161334627Y-73430000D01*
X160560000Y-73430000D01*
X160560000Y-73680000D01*
X159260000Y-73680000D01*
X159260000Y-73430000D01*
X158485373Y-73430000D01*
X158412459Y-73444503D01*
X158412455Y-73444505D01*
X158329760Y-73499760D01*
X158274505Y-73582455D01*
X158274503Y-73582459D01*
X158260000Y-73655371D01*
X157969256Y-73655371D01*
X157860307Y-67118411D01*
X159250000Y-67118411D01*
X159250001Y-67118428D01*
X159286786Y-67397840D01*
X159359733Y-67670082D01*
X159467584Y-67930457D01*
X159467589Y-67930468D01*
X159608500Y-68174531D01*
X159608511Y-68174547D01*
X159780074Y-68398133D01*
X159780080Y-68398140D01*
X159979359Y-68597419D01*
X159979366Y-68597425D01*
X160202961Y-68768995D01*
X160399999Y-68882755D01*
X160400000Y-68882755D01*
X162400000Y-68882755D01*
X162597038Y-68768995D01*
X162820633Y-68597425D01*
X162820640Y-68597419D01*
X163019919Y-68398140D01*
X163019925Y-68398133D01*
X163191488Y-68174547D01*
X163191499Y-68174531D01*
X163332410Y-67930468D01*
X163332415Y-67930457D01*
X163440266Y-67670082D01*
X163513213Y-67397840D01*
X163549998Y-67118428D01*
X163550000Y-67118411D01*
X163550000Y-65877500D01*
X162400000Y-65877500D01*
X162400000Y-68882755D01*
X160400000Y-68882755D01*
X160400000Y-65877500D01*
X159250000Y-65877500D01*
X159250000Y-67118411D01*
X157860307Y-67118411D01*
X157821727Y-64803631D01*
X160650000Y-64803631D01*
X160650000Y-64951369D01*
X160678822Y-65096267D01*
X160735359Y-65232758D01*
X160817437Y-65355597D01*
X160921903Y-65460063D01*
X161044742Y-65542141D01*
X161181233Y-65598678D01*
X161326131Y-65627500D01*
X161473869Y-65627500D01*
X161618767Y-65598678D01*
X161755258Y-65542141D01*
X161878097Y-65460063D01*
X161982563Y-65355597D01*
X162064641Y-65232758D01*
X162121178Y-65096267D01*
X162150000Y-64951369D01*
X162150000Y-64803631D01*
X162121178Y-64658733D01*
X162064641Y-64522242D01*
X161982563Y-64399403D01*
X161878097Y-64294937D01*
X161755258Y-64212859D01*
X161618767Y-64156322D01*
X161473869Y-64127500D01*
X161326131Y-64127500D01*
X161181233Y-64156322D01*
X161044742Y-64212859D01*
X160921903Y-64294937D01*
X160817437Y-64399403D01*
X160735359Y-64522242D01*
X160678822Y-64658733D01*
X160650000Y-64803631D01*
X157821727Y-64803631D01*
X157750008Y-60500500D01*
X160655553Y-60500500D01*
X160722592Y-60520185D01*
G37*
%TD.AperFunction*%
%TD*%
%TA.AperFunction,Conductor*%
%TO.N,GND*%
G36*
X184430012Y-75008365D02*
G01*
X184481572Y-75055517D01*
X184499500Y-75119740D01*
X184499500Y-136996249D01*
X184499274Y-137003736D01*
X184481728Y-137293794D01*
X184479923Y-137308659D01*
X184428219Y-137590798D01*
X184424635Y-137605336D01*
X184339306Y-137879167D01*
X184333997Y-137893168D01*
X184216275Y-138154736D01*
X184209316Y-138167995D01*
X184060928Y-138413459D01*
X184052422Y-138425782D01*
X183875526Y-138651573D01*
X183865596Y-138662781D01*
X183662781Y-138865596D01*
X183651573Y-138875526D01*
X183425782Y-139052422D01*
X183413459Y-139060928D01*
X183167995Y-139209316D01*
X183154736Y-139216275D01*
X182893168Y-139333997D01*
X182879167Y-139339306D01*
X182605336Y-139424635D01*
X182590798Y-139428219D01*
X182308659Y-139479923D01*
X182293794Y-139481728D01*
X182003736Y-139499274D01*
X181996249Y-139499500D01*
X128003751Y-139499500D01*
X127996264Y-139499274D01*
X127706205Y-139481728D01*
X127691340Y-139479923D01*
X127409201Y-139428219D01*
X127394663Y-139424635D01*
X127120832Y-139339306D01*
X127106831Y-139333997D01*
X126845263Y-139216275D01*
X126832004Y-139209316D01*
X126586540Y-139060928D01*
X126574217Y-139052422D01*
X126348426Y-138875526D01*
X126337218Y-138865596D01*
X126134403Y-138662781D01*
X126124473Y-138651573D01*
X125947573Y-138425776D01*
X125939075Y-138413465D01*
X125790680Y-138167989D01*
X125783727Y-138154743D01*
X125666000Y-137893163D01*
X125660693Y-137879167D01*
X125575364Y-137605336D01*
X125571780Y-137590798D01*
X125520076Y-137308659D01*
X125518271Y-137293794D01*
X125517475Y-137280642D01*
X125500726Y-137003736D01*
X125500500Y-136996249D01*
X125500500Y-128852486D01*
X133749500Y-128852486D01*
X133749500Y-129147513D01*
X133781571Y-129391113D01*
X133788007Y-129439993D01*
X133852874Y-129682080D01*
X133864361Y-129724951D01*
X133864364Y-129724961D01*
X133977254Y-129997500D01*
X133977258Y-129997510D01*
X134124761Y-130252993D01*
X134304352Y-130487040D01*
X134304358Y-130487047D01*
X134512952Y-130695641D01*
X134512959Y-130695647D01*
X134747006Y-130875238D01*
X135002489Y-131022741D01*
X135002490Y-131022741D01*
X135002493Y-131022743D01*
X135275048Y-131135639D01*
X135560007Y-131211993D01*
X135852494Y-131250500D01*
X135852501Y-131250500D01*
X136147499Y-131250500D01*
X136147506Y-131250500D01*
X136439993Y-131211993D01*
X136724952Y-131135639D01*
X136997507Y-131022743D01*
X137252994Y-130875238D01*
X137487042Y-130695646D01*
X137695646Y-130487042D01*
X137875238Y-130252994D01*
X138022743Y-129997507D01*
X138135639Y-129724952D01*
X138211993Y-129439993D01*
X138250500Y-129147506D01*
X138250500Y-128852494D01*
X138211993Y-128560007D01*
X138135639Y-128275048D01*
X138022743Y-128002493D01*
X137875238Y-127747006D01*
X137725674Y-127552091D01*
X137695647Y-127512959D01*
X137695641Y-127512952D01*
X137487047Y-127304358D01*
X137487040Y-127304352D01*
X137252993Y-127124761D01*
X136997510Y-126977258D01*
X136997500Y-126977254D01*
X136724961Y-126864364D01*
X136724954Y-126864362D01*
X136724952Y-126864361D01*
X136439993Y-126788007D01*
X136391113Y-126781571D01*
X136147513Y-126749500D01*
X136147506Y-126749500D01*
X135852494Y-126749500D01*
X135852486Y-126749500D01*
X135574085Y-126786153D01*
X135560007Y-126788007D01*
X135385428Y-126834785D01*
X135275048Y-126864361D01*
X135275038Y-126864364D01*
X135002499Y-126977254D01*
X135002489Y-126977258D01*
X134747006Y-127124761D01*
X134512959Y-127304352D01*
X134512952Y-127304358D01*
X134304358Y-127512952D01*
X134304352Y-127512959D01*
X134124761Y-127747006D01*
X133977258Y-128002489D01*
X133977254Y-128002499D01*
X133864364Y-128275038D01*
X133864361Y-128275048D01*
X133820109Y-128440202D01*
X133788008Y-128560004D01*
X133788006Y-128560015D01*
X133749500Y-128852486D01*
X125500500Y-128852486D01*
X125500500Y-126334038D01*
X129319500Y-126334038D01*
X129319500Y-126585961D01*
X129358910Y-126834785D01*
X129436760Y-127074383D01*
X129551132Y-127298848D01*
X129699201Y-127502649D01*
X129699205Y-127502654D01*
X129877345Y-127680794D01*
X129877350Y-127680798D01*
X130055117Y-127809952D01*
X130081155Y-127828870D01*
X130224184Y-127901747D01*
X130305616Y-127943239D01*
X130305618Y-127943239D01*
X130305621Y-127943241D01*
X130545215Y-128021090D01*
X130794038Y-128060500D01*
X130794039Y-128060500D01*
X131045961Y-128060500D01*
X131045962Y-128060500D01*
X131294785Y-128021090D01*
X131534379Y-127943241D01*
X131758845Y-127828870D01*
X131962656Y-127680793D01*
X132140793Y-127502656D01*
X132288870Y-127298845D01*
X132403241Y-127074379D01*
X132481090Y-126834785D01*
X132520500Y-126585962D01*
X132520500Y-126334038D01*
X132481090Y-126085215D01*
X132403241Y-125845621D01*
X132403239Y-125845618D01*
X132403239Y-125845616D01*
X132361747Y-125764184D01*
X132288870Y-125621155D01*
X132211401Y-125514528D01*
X132140798Y-125417350D01*
X132140794Y-125417345D01*
X131962654Y-125239205D01*
X131962649Y-125239201D01*
X131758848Y-125091132D01*
X131758847Y-125091131D01*
X131758845Y-125091130D01*
X131688747Y-125055413D01*
X131534383Y-124976760D01*
X131294785Y-124898910D01*
X131045962Y-124859500D01*
X130794038Y-124859500D01*
X130669626Y-124879205D01*
X130545214Y-124898910D01*
X130305616Y-124976760D01*
X130081151Y-125091132D01*
X129877350Y-125239201D01*
X129877345Y-125239205D01*
X129699205Y-125417345D01*
X129699201Y-125417350D01*
X129551132Y-125621151D01*
X129436760Y-125845616D01*
X129358910Y-126085214D01*
X129319500Y-126334038D01*
X125500500Y-126334038D01*
X125500500Y-123833389D01*
X134899500Y-123833389D01*
X134899500Y-124006611D01*
X134926598Y-124177701D01*
X134980127Y-124342445D01*
X135058768Y-124496788D01*
X135160586Y-124636928D01*
X135283072Y-124759414D01*
X135423212Y-124861232D01*
X135577555Y-124939873D01*
X135742299Y-124993402D01*
X135913389Y-125020500D01*
X135913390Y-125020500D01*
X136086610Y-125020500D01*
X136086611Y-125020500D01*
X136257701Y-124993402D01*
X136422445Y-124939873D01*
X136576788Y-124861232D01*
X136716928Y-124759414D01*
X136839414Y-124636928D01*
X136941232Y-124496788D01*
X137019873Y-124342445D01*
X137073402Y-124177701D01*
X137100500Y-124006611D01*
X137100500Y-123833389D01*
X137073402Y-123662299D01*
X137019873Y-123497555D01*
X136941232Y-123343212D01*
X136839414Y-123203072D01*
X136716928Y-123080586D01*
X136576788Y-122978768D01*
X136422445Y-122900127D01*
X136257701Y-122846598D01*
X136257699Y-122846597D01*
X136257698Y-122846597D01*
X136126271Y-122825781D01*
X136086611Y-122819500D01*
X135913389Y-122819500D01*
X135873728Y-122825781D01*
X135742302Y-122846597D01*
X135577552Y-122900128D01*
X135423211Y-122978768D01*
X135343256Y-123036859D01*
X135283072Y-123080586D01*
X135283070Y-123080588D01*
X135283069Y-123080588D01*
X135160588Y-123203069D01*
X135160588Y-123203070D01*
X135160586Y-123203072D01*
X135116859Y-123263256D01*
X135058768Y-123343211D01*
X134980128Y-123497552D01*
X134926597Y-123662302D01*
X134899500Y-123833389D01*
X125500500Y-123833389D01*
X125500500Y-116768872D01*
X126349500Y-116768872D01*
X126349500Y-117031127D01*
X126363805Y-117139778D01*
X126383730Y-117291116D01*
X126451602Y-117544418D01*
X126451605Y-117544428D01*
X126551953Y-117786690D01*
X126551958Y-117786700D01*
X126683075Y-118013803D01*
X126842718Y-118221851D01*
X126842726Y-118221860D01*
X127028140Y-118407274D01*
X127028148Y-118407281D01*
X127236196Y-118566924D01*
X127463299Y-118698041D01*
X127463301Y-118698042D01*
X127463303Y-118698043D01*
X127705581Y-118798398D01*
X127958884Y-118866270D01*
X128218880Y-118900500D01*
X128218887Y-118900500D01*
X128481113Y-118900500D01*
X128481120Y-118900500D01*
X128741116Y-118866270D01*
X128994419Y-118798398D01*
X129236697Y-118698043D01*
X129463803Y-118566924D01*
X129671851Y-118407282D01*
X129671855Y-118407277D01*
X129671860Y-118407274D01*
X129857274Y-118221860D01*
X129857277Y-118221855D01*
X129857282Y-118221851D01*
X130016924Y-118013803D01*
X130148043Y-117786697D01*
X130248398Y-117544419D01*
X130316270Y-117291116D01*
X130350500Y-117031120D01*
X130350500Y-116768880D01*
X130316270Y-116508884D01*
X130248398Y-116255581D01*
X130248394Y-116255571D01*
X130148046Y-116013309D01*
X130148041Y-116013299D01*
X130016924Y-115786196D01*
X129857281Y-115578148D01*
X129857274Y-115578140D01*
X129671860Y-115392726D01*
X129671851Y-115392718D01*
X129463803Y-115233075D01*
X129236700Y-115101958D01*
X129236690Y-115101953D01*
X128994428Y-115001605D01*
X128994421Y-115001603D01*
X128994419Y-115001602D01*
X128741116Y-114933730D01*
X128683339Y-114926123D01*
X128481127Y-114899500D01*
X128481120Y-114899500D01*
X128218880Y-114899500D01*
X128218872Y-114899500D01*
X127987772Y-114929926D01*
X127958884Y-114933730D01*
X127705581Y-115001602D01*
X127705571Y-115001605D01*
X127463309Y-115101953D01*
X127463299Y-115101958D01*
X127236196Y-115233075D01*
X127028148Y-115392718D01*
X126842718Y-115578148D01*
X126683075Y-115786196D01*
X126551958Y-116013299D01*
X126551953Y-116013309D01*
X126451605Y-116255571D01*
X126451602Y-116255581D01*
X126387794Y-116493719D01*
X126383730Y-116508885D01*
X126349500Y-116768872D01*
X125500500Y-116768872D01*
X125500500Y-92968872D01*
X126349500Y-92968872D01*
X126349500Y-93231127D01*
X126367892Y-93370821D01*
X126383730Y-93491116D01*
X126450329Y-93739667D01*
X126451602Y-93744418D01*
X126451605Y-93744428D01*
X126551953Y-93986690D01*
X126551958Y-93986700D01*
X126683075Y-94213803D01*
X126842718Y-94421851D01*
X126842726Y-94421860D01*
X127028140Y-94607274D01*
X127028148Y-94607281D01*
X127236196Y-94766924D01*
X127463299Y-94898041D01*
X127463309Y-94898046D01*
X127705571Y-94998394D01*
X127705581Y-94998398D01*
X127958884Y-95066270D01*
X128218880Y-95100500D01*
X128218887Y-95100500D01*
X128481113Y-95100500D01*
X128481120Y-95100500D01*
X128741116Y-95066270D01*
X128994419Y-94998398D01*
X129233177Y-94899501D01*
X129236690Y-94898046D01*
X129236691Y-94898045D01*
X129236697Y-94898043D01*
X129463803Y-94766924D01*
X129671851Y-94607282D01*
X129671855Y-94607277D01*
X129671860Y-94607274D01*
X129857274Y-94421860D01*
X129857277Y-94421855D01*
X129857282Y-94421851D01*
X130016924Y-94213803D01*
X130148043Y-93986697D01*
X130149369Y-93983497D01*
X130234571Y-93777800D01*
X130248398Y-93744419D01*
X130316270Y-93491116D01*
X130350500Y-93231120D01*
X130350500Y-92968880D01*
X130316270Y-92708884D01*
X130248398Y-92455581D01*
X130237710Y-92429778D01*
X130148046Y-92213309D01*
X130148041Y-92213299D01*
X130016924Y-91986196D01*
X129878636Y-91805978D01*
X129857282Y-91778149D01*
X129857281Y-91778148D01*
X129857274Y-91778140D01*
X129671860Y-91592726D01*
X129671855Y-91592722D01*
X129671851Y-91592718D01*
X129596064Y-91534564D01*
X129463803Y-91433075D01*
X129236700Y-91301958D01*
X129236690Y-91301953D01*
X128994428Y-91201605D01*
X128994421Y-91201603D01*
X128994419Y-91201602D01*
X128741116Y-91133730D01*
X128683339Y-91126123D01*
X128481127Y-91099500D01*
X128481120Y-91099500D01*
X128218880Y-91099500D01*
X128218872Y-91099500D01*
X127987772Y-91129926D01*
X127958884Y-91133730D01*
X127723461Y-91196811D01*
X127705581Y-91201602D01*
X127705571Y-91201605D01*
X127463309Y-91301953D01*
X127463299Y-91301958D01*
X127236196Y-91433075D01*
X127028148Y-91592718D01*
X126842718Y-91778148D01*
X126683075Y-91986196D01*
X126551958Y-92213299D01*
X126551953Y-92213309D01*
X126451605Y-92455571D01*
X126451602Y-92455581D01*
X126386450Y-92698735D01*
X126383730Y-92708885D01*
X126349500Y-92968872D01*
X125500500Y-92968872D01*
X125500500Y-87649097D01*
X125520185Y-87582058D01*
X125572989Y-87536303D01*
X125642147Y-87526359D01*
X125705703Y-87555384D01*
X125712181Y-87561416D01*
X128015139Y-89864374D01*
X128015149Y-89864385D01*
X128019479Y-89868715D01*
X128019480Y-89868716D01*
X128131284Y-89980520D01*
X128218095Y-90030639D01*
X128218097Y-90030641D01*
X128256151Y-90052611D01*
X128268215Y-90059577D01*
X128420943Y-90100501D01*
X128420946Y-90100501D01*
X128586653Y-90100501D01*
X128586669Y-90100500D01*
X137929903Y-90100500D01*
X137996942Y-90120185D01*
X138017584Y-90136819D01*
X138808584Y-90927819D01*
X138842069Y-90989142D01*
X138837085Y-91058834D01*
X138795213Y-91114767D01*
X138729749Y-91139184D01*
X138720903Y-91139500D01*
X138619778Y-91139500D01*
X138549929Y-91150563D01*
X138402047Y-91173985D01*
X138192396Y-91242103D01*
X138192393Y-91242104D01*
X137995974Y-91342187D01*
X137817641Y-91471752D01*
X137817636Y-91471756D01*
X137661756Y-91627636D01*
X137560008Y-91767681D01*
X137504678Y-91810346D01*
X137435065Y-91816325D01*
X137373270Y-91783719D01*
X137359371Y-91767680D01*
X137341066Y-91742485D01*
X137341065Y-91742485D01*
X136693369Y-92390182D01*
X136679215Y-92337360D01*
X136610099Y-92217647D01*
X136512353Y-92119901D01*
X136392640Y-92050785D01*
X136339814Y-92036630D01*
X136987513Y-91388932D01*
X136923756Y-91342611D01*
X136727410Y-91242567D01*
X136517835Y-91174473D01*
X136300181Y-91140000D01*
X136079819Y-91140000D01*
X135862164Y-91174473D01*
X135652589Y-91242567D01*
X135456233Y-91342616D01*
X135392485Y-91388931D01*
X135392485Y-91388932D01*
X136040183Y-92036630D01*
X135987360Y-92050785D01*
X135867647Y-92119901D01*
X135769901Y-92217647D01*
X135700785Y-92337360D01*
X135686630Y-92390183D01*
X135038932Y-91742485D01*
X135038931Y-91742485D01*
X134992616Y-91806233D01*
X134892567Y-92002589D01*
X134824473Y-92212164D01*
X134790000Y-92429818D01*
X134790000Y-92650181D01*
X134824473Y-92867835D01*
X134892567Y-93077410D01*
X134992611Y-93273756D01*
X135038932Y-93337513D01*
X135686630Y-92689815D01*
X135700785Y-92742640D01*
X135769901Y-92862353D01*
X135867647Y-92960099D01*
X135987360Y-93029215D01*
X136040183Y-93043369D01*
X135392485Y-93691065D01*
X135392485Y-93691066D01*
X135456243Y-93737388D01*
X135652589Y-93837432D01*
X135862164Y-93905526D01*
X136079819Y-93940000D01*
X136300181Y-93940000D01*
X136517835Y-93905526D01*
X136727410Y-93837432D01*
X136923760Y-93737386D01*
X136987513Y-93691066D01*
X136987514Y-93691066D01*
X136339816Y-93043369D01*
X136392640Y-93029215D01*
X136512353Y-92960099D01*
X136610099Y-92862353D01*
X136679215Y-92742640D01*
X136693369Y-92689817D01*
X137341066Y-93337514D01*
X137341066Y-93337513D01*
X137359372Y-93312319D01*
X137414701Y-93269653D01*
X137484315Y-93263674D01*
X137546110Y-93296279D01*
X137560008Y-93312319D01*
X137661752Y-93452358D01*
X137661756Y-93452363D01*
X137817636Y-93608243D01*
X137817641Y-93608247D01*
X137909521Y-93675001D01*
X137995978Y-93737815D01*
X138124375Y-93803237D01*
X138192393Y-93837895D01*
X138192396Y-93837896D01*
X138287243Y-93868713D01*
X138402049Y-93906015D01*
X138619778Y-93940500D01*
X138619779Y-93940500D01*
X138840221Y-93940500D01*
X138840222Y-93940500D01*
X139057951Y-93906015D01*
X139074829Y-93900531D01*
X139144670Y-93898532D01*
X139200833Y-93930779D01*
X139644474Y-94374419D01*
X140084724Y-94814669D01*
X140149870Y-94879815D01*
X140175332Y-94905277D01*
X140281866Y-94976461D01*
X140281872Y-94976464D01*
X140281873Y-94976465D01*
X140400256Y-95025501D01*
X140400260Y-95025501D01*
X140400261Y-95025502D01*
X140525928Y-95050500D01*
X140525931Y-95050500D01*
X144075500Y-95050500D01*
X144142539Y-95070185D01*
X144188294Y-95122989D01*
X144199500Y-95174500D01*
X144199500Y-101963330D01*
X144199499Y-101963348D01*
X144199499Y-102129054D01*
X144199498Y-102129054D01*
X144199499Y-102129057D01*
X144240423Y-102281785D01*
X144255765Y-102308357D01*
X144298241Y-102381929D01*
X144319479Y-102418715D01*
X144438349Y-102537585D01*
X144438355Y-102537590D01*
X144665425Y-102764660D01*
X144698910Y-102825983D01*
X144699361Y-102828149D01*
X144730261Y-102983491D01*
X144730264Y-102983501D01*
X144790602Y-103129172D01*
X144790609Y-103129185D01*
X144878210Y-103260288D01*
X144878213Y-103260292D01*
X144989707Y-103371786D01*
X144989711Y-103371789D01*
X145120814Y-103459390D01*
X145120827Y-103459397D01*
X145266498Y-103519735D01*
X145266503Y-103519737D01*
X145421153Y-103550499D01*
X145421156Y-103550500D01*
X145421158Y-103550500D01*
X145578844Y-103550500D01*
X145578845Y-103550499D01*
X145733497Y-103519737D01*
X145879179Y-103459394D01*
X145879185Y-103459390D01*
X146010875Y-103371398D01*
X146077553Y-103350520D01*
X146079766Y-103350500D01*
X158118164Y-103350500D01*
X158185203Y-103370185D01*
X158228648Y-103418204D01*
X158262185Y-103484023D01*
X158391752Y-103662358D01*
X158391756Y-103662363D01*
X158547636Y-103818243D01*
X158547641Y-103818247D01*
X158694825Y-103925182D01*
X158737491Y-103980511D01*
X158743470Y-104050125D01*
X158710865Y-104111920D01*
X158650026Y-104146277D01*
X158621940Y-104149500D01*
X154329057Y-104149500D01*
X154170942Y-104149500D01*
X154018215Y-104190423D01*
X154018214Y-104190423D01*
X154018212Y-104190424D01*
X154018209Y-104190425D01*
X153968096Y-104219359D01*
X153968095Y-104219360D01*
X153924689Y-104244420D01*
X153881285Y-104269479D01*
X153881282Y-104269481D01*
X139519481Y-118631282D01*
X139519480Y-118631284D01*
X139480937Y-118698043D01*
X139440423Y-118768215D01*
X139399499Y-118920943D01*
X139399499Y-118920945D01*
X139399499Y-119089046D01*
X139399500Y-119089059D01*
X139399500Y-134449903D01*
X139379815Y-134516942D01*
X139363181Y-134537584D01*
X137787584Y-136113181D01*
X137726261Y-136146666D01*
X137699903Y-136149500D01*
X135300097Y-136149500D01*
X135233058Y-136129815D01*
X135212416Y-136113181D01*
X134096819Y-134997584D01*
X134063334Y-134936261D01*
X134060500Y-134909903D01*
X134060500Y-134376300D01*
X134080185Y-134309261D01*
X134128204Y-134265815D01*
X134298845Y-134178870D01*
X134502656Y-134030793D01*
X134680793Y-133852656D01*
X134685380Y-133846341D01*
X134740708Y-133803675D01*
X134810322Y-133797693D01*
X134872118Y-133830296D01*
X134906477Y-133891134D01*
X134908174Y-133938621D01*
X134899500Y-133993388D01*
X134899500Y-134166610D01*
X134922810Y-134313789D01*
X134926598Y-134337701D01*
X134980127Y-134502445D01*
X135058768Y-134656788D01*
X135160586Y-134796928D01*
X135283072Y-134919414D01*
X135423212Y-135021232D01*
X135577555Y-135099873D01*
X135742299Y-135153402D01*
X135913389Y-135180500D01*
X135913390Y-135180500D01*
X136086610Y-135180500D01*
X136086611Y-135180500D01*
X136257701Y-135153402D01*
X136422445Y-135099873D01*
X136576788Y-135021232D01*
X136716928Y-134919414D01*
X136839414Y-134796928D01*
X136941232Y-134656788D01*
X137019873Y-134502445D01*
X137073402Y-134337701D01*
X137100500Y-134166611D01*
X137100500Y-133993389D01*
X137073402Y-133822299D01*
X137019873Y-133657555D01*
X136941232Y-133503212D01*
X136839414Y-133363072D01*
X136716928Y-133240586D01*
X136576788Y-133138768D01*
X136422445Y-133060127D01*
X136257701Y-133006598D01*
X136257699Y-133006597D01*
X136257698Y-133006597D01*
X136126271Y-132985781D01*
X136086611Y-132979500D01*
X135913389Y-132979500D01*
X135873728Y-132985781D01*
X135742302Y-133006597D01*
X135577552Y-133060128D01*
X135423211Y-133138768D01*
X135359875Y-133184785D01*
X135283072Y-133240586D01*
X135283070Y-133240588D01*
X135283068Y-133240589D01*
X135231139Y-133292518D01*
X135169816Y-133326002D01*
X135100124Y-133321017D01*
X135044191Y-133279146D01*
X135019775Y-133213681D01*
X135020986Y-133185438D01*
X135021088Y-133184788D01*
X135021090Y-133184785D01*
X135060500Y-132935962D01*
X135060500Y-132684038D01*
X135021090Y-132435215D01*
X134943241Y-132195621D01*
X134943239Y-132195618D01*
X134943239Y-132195616D01*
X134901747Y-132114184D01*
X134828870Y-131971155D01*
X134809952Y-131945117D01*
X134680798Y-131767350D01*
X134680794Y-131767345D01*
X134502654Y-131589205D01*
X134502649Y-131589201D01*
X134298848Y-131441132D01*
X134298847Y-131441131D01*
X134298845Y-131441130D01*
X134228747Y-131405413D01*
X134074383Y-131326760D01*
X133834785Y-131248910D01*
X133705095Y-131228369D01*
X133585962Y-131209500D01*
X133334038Y-131209500D01*
X133214905Y-131228369D01*
X133085214Y-131248910D01*
X132845616Y-131326760D01*
X132621151Y-131441132D01*
X132417350Y-131589201D01*
X132417345Y-131589205D01*
X132239205Y-131767345D01*
X132239201Y-131767350D01*
X132091132Y-131971151D01*
X131976760Y-132195616D01*
X131898910Y-132435214D01*
X131859500Y-132684038D01*
X131859500Y-132935961D01*
X131898910Y-133184785D01*
X131976760Y-133424383D01*
X132091132Y-133648848D01*
X132239201Y-133852649D01*
X132239205Y-133852654D01*
X132417345Y-134030794D01*
X132417350Y-134030798D01*
X132595117Y-134159952D01*
X132621155Y-134178870D01*
X132791795Y-134265815D01*
X132842591Y-134313789D01*
X132859500Y-134376300D01*
X132859500Y-135123330D01*
X132859499Y-135123348D01*
X132859499Y-135289054D01*
X132859498Y-135289054D01*
X132900423Y-135441785D01*
X132929358Y-135491900D01*
X132929359Y-135491904D01*
X132929360Y-135491904D01*
X132979479Y-135578714D01*
X132979481Y-135578717D01*
X133098349Y-135697585D01*
X133098355Y-135697590D01*
X134515139Y-137114374D01*
X134515149Y-137114385D01*
X134519479Y-137118715D01*
X134519480Y-137118716D01*
X134631284Y-137230520D01*
X134718095Y-137280639D01*
X134718097Y-137280641D01*
X134756151Y-137302611D01*
X134768215Y-137309577D01*
X134920943Y-137350501D01*
X134920946Y-137350501D01*
X135086653Y-137350501D01*
X135086669Y-137350500D01*
X137913331Y-137350500D01*
X137913347Y-137350501D01*
X137920943Y-137350501D01*
X138079054Y-137350501D01*
X138079057Y-137350501D01*
X138231785Y-137309577D01*
X138281904Y-137280639D01*
X138368716Y-137230520D01*
X138480520Y-137118716D01*
X138480520Y-137118714D01*
X138490728Y-137108507D01*
X138490730Y-137108504D01*
X140358506Y-135240728D01*
X140358511Y-135240724D01*
X140368714Y-135230520D01*
X140368716Y-135230520D01*
X140480520Y-135118716D01*
X140536802Y-135021232D01*
X140559577Y-134981785D01*
X140600500Y-134829057D01*
X140600500Y-134670943D01*
X140600500Y-126334038D01*
X148319500Y-126334038D01*
X148319500Y-126585961D01*
X148358910Y-126834785D01*
X148436760Y-127074383D01*
X148551132Y-127298848D01*
X148699201Y-127502649D01*
X148699205Y-127502654D01*
X148877345Y-127680794D01*
X148877350Y-127680798D01*
X149055117Y-127809952D01*
X149081155Y-127828870D01*
X149224184Y-127901747D01*
X149305616Y-127943239D01*
X149305618Y-127943239D01*
X149305621Y-127943241D01*
X149545215Y-128021090D01*
X149794038Y-128060500D01*
X149794039Y-128060500D01*
X150045961Y-128060500D01*
X150045962Y-128060500D01*
X150294785Y-128021090D01*
X150534379Y-127943241D01*
X150758845Y-127828870D01*
X150962656Y-127680793D01*
X151140793Y-127502656D01*
X151288870Y-127298845D01*
X151403241Y-127074379D01*
X151481090Y-126834785D01*
X151520500Y-126585962D01*
X151520500Y-126334038D01*
X151481090Y-126085215D01*
X151403241Y-125845621D01*
X151403239Y-125845618D01*
X151403239Y-125845616D01*
X151361747Y-125764184D01*
X151288870Y-125621155D01*
X151211401Y-125514528D01*
X151140798Y-125417350D01*
X151140794Y-125417345D01*
X150962654Y-125239205D01*
X150962649Y-125239201D01*
X150758848Y-125091132D01*
X150758847Y-125091131D01*
X150758845Y-125091130D01*
X150688747Y-125055413D01*
X150534383Y-124976760D01*
X150294785Y-124898910D01*
X150045962Y-124859500D01*
X149794038Y-124859500D01*
X149669626Y-124879205D01*
X149545214Y-124898910D01*
X149305616Y-124976760D01*
X149081151Y-125091132D01*
X148877350Y-125239201D01*
X148877345Y-125239205D01*
X148699205Y-125417345D01*
X148699201Y-125417350D01*
X148551132Y-125621151D01*
X148436760Y-125845616D01*
X148358910Y-126085214D01*
X148319500Y-126334038D01*
X140600500Y-126334038D01*
X140600500Y-119300097D01*
X140620185Y-119233058D01*
X140636819Y-119212416D01*
X151079093Y-108770142D01*
X154850000Y-108770142D01*
X154850000Y-109500000D01*
X155749989Y-109500000D01*
X155749989Y-110000000D01*
X154850000Y-110000000D01*
X154850000Y-110729857D01*
X154890629Y-110986377D01*
X154970883Y-111233377D01*
X155088796Y-111464791D01*
X155241445Y-111674896D01*
X155241449Y-111674901D01*
X155425098Y-111858550D01*
X155425103Y-111858554D01*
X155635208Y-112011203D01*
X155866622Y-112129116D01*
X156113622Y-112209370D01*
X156250000Y-112230971D01*
X156250000Y-111208238D01*
X156281230Y-111221175D01*
X156426130Y-111249997D01*
X156573870Y-111249997D01*
X156718770Y-111221175D01*
X156750000Y-111208238D01*
X156750000Y-112230970D01*
X156886377Y-112209370D01*
X157133377Y-112129116D01*
X157364791Y-112011203D01*
X157574896Y-111858554D01*
X157574901Y-111858550D01*
X157758550Y-111674901D01*
X157758554Y-111674896D01*
X157911203Y-111464791D01*
X158029116Y-111233377D01*
X158109370Y-110986377D01*
X158150000Y-110729857D01*
X158150000Y-110000000D01*
X157250011Y-110000000D01*
X157250011Y-109500000D01*
X158150000Y-109500000D01*
X158150000Y-108770142D01*
X158109370Y-108513622D01*
X158029116Y-108266622D01*
X157911203Y-108035208D01*
X157758554Y-107825103D01*
X157758550Y-107825098D01*
X157574901Y-107641449D01*
X157574896Y-107641445D01*
X157364791Y-107488796D01*
X157133375Y-107370882D01*
X156886374Y-107290628D01*
X156750000Y-107269028D01*
X156750000Y-108291761D01*
X156718770Y-108278825D01*
X156573870Y-108250003D01*
X156426130Y-108250003D01*
X156281230Y-108278825D01*
X156250000Y-108291761D01*
X156250000Y-107269028D01*
X156249999Y-107269028D01*
X156113625Y-107290628D01*
X155866624Y-107370882D01*
X155635208Y-107488796D01*
X155425103Y-107641445D01*
X155425098Y-107641449D01*
X155241449Y-107825098D01*
X155241445Y-107825103D01*
X155088796Y-108035208D01*
X154970883Y-108266622D01*
X154890629Y-108513622D01*
X154850000Y-108770142D01*
X151079093Y-108770142D01*
X154462416Y-105386819D01*
X154523739Y-105353334D01*
X154550097Y-105350500D01*
X165250903Y-105350500D01*
X165317942Y-105370185D01*
X165363697Y-105422989D01*
X165373641Y-105492147D01*
X165344616Y-105555703D01*
X165338584Y-105562181D01*
X153862181Y-117038583D01*
X153800858Y-117072068D01*
X153731166Y-117067084D01*
X153675233Y-117025212D01*
X153650816Y-116959748D01*
X153650500Y-116950902D01*
X153650500Y-116768886D01*
X153650499Y-116768872D01*
X153647370Y-116745103D01*
X153616270Y-116508884D01*
X153548398Y-116255581D01*
X153548394Y-116255571D01*
X153448046Y-116013309D01*
X153448041Y-116013299D01*
X153316924Y-115786196D01*
X153157281Y-115578148D01*
X153157274Y-115578140D01*
X152971860Y-115392726D01*
X152971851Y-115392718D01*
X152763803Y-115233075D01*
X152536700Y-115101958D01*
X152536690Y-115101953D01*
X152294428Y-115001605D01*
X152294421Y-115001603D01*
X152294419Y-115001602D01*
X152041116Y-114933730D01*
X151983339Y-114926123D01*
X151781127Y-114899500D01*
X151781120Y-114899500D01*
X151518880Y-114899500D01*
X151518872Y-114899500D01*
X151287772Y-114929926D01*
X151258884Y-114933730D01*
X151005581Y-115001602D01*
X151005571Y-115001605D01*
X150763309Y-115101953D01*
X150763299Y-115101958D01*
X150536196Y-115233075D01*
X150328148Y-115392718D01*
X150142718Y-115578148D01*
X149983075Y-115786196D01*
X149851958Y-116013299D01*
X149851953Y-116013309D01*
X149751605Y-116255571D01*
X149751602Y-116255581D01*
X149687794Y-116493719D01*
X149683730Y-116508885D01*
X149649500Y-116768872D01*
X149649500Y-117031127D01*
X149663805Y-117139778D01*
X149683730Y-117291116D01*
X149751602Y-117544418D01*
X149751605Y-117544428D01*
X149851953Y-117786690D01*
X149851958Y-117786700D01*
X149983075Y-118013803D01*
X150142718Y-118221851D01*
X150142726Y-118221860D01*
X150328140Y-118407274D01*
X150328148Y-118407281D01*
X150536196Y-118566924D01*
X150763299Y-118698041D01*
X150763301Y-118698042D01*
X150763303Y-118698043D01*
X151005581Y-118798398D01*
X151258884Y-118866270D01*
X151518880Y-118900500D01*
X151518887Y-118900500D01*
X151781083Y-118900500D01*
X151848122Y-118920185D01*
X151893877Y-118972989D01*
X151903821Y-119042147D01*
X151900858Y-119056594D01*
X151900424Y-119058212D01*
X151900423Y-119058215D01*
X151859499Y-119210943D01*
X151859499Y-119210945D01*
X151859499Y-119379046D01*
X151859500Y-119379059D01*
X151859500Y-131243699D01*
X151839815Y-131310738D01*
X151791795Y-131354184D01*
X151621151Y-131441132D01*
X151417350Y-131589201D01*
X151417345Y-131589205D01*
X151239205Y-131767345D01*
X151239201Y-131767350D01*
X151091132Y-131971151D01*
X150976760Y-132195616D01*
X150898910Y-132435214D01*
X150859500Y-132684038D01*
X150859500Y-132935961D01*
X150898910Y-133184785D01*
X150976760Y-133424383D01*
X151091132Y-133648848D01*
X151239201Y-133852649D01*
X151239205Y-133852654D01*
X151417345Y-134030794D01*
X151417350Y-134030798D01*
X151595117Y-134159952D01*
X151621155Y-134178870D01*
X151764184Y-134251747D01*
X151845616Y-134293239D01*
X151845618Y-134293239D01*
X151845621Y-134293241D01*
X152085215Y-134371090D01*
X152334038Y-134410500D01*
X152334039Y-134410500D01*
X152585961Y-134410500D01*
X152585962Y-134410500D01*
X152834785Y-134371090D01*
X153074379Y-134293241D01*
X153298845Y-134178870D01*
X153502656Y-134030793D01*
X153680793Y-133852656D01*
X153685380Y-133846341D01*
X153740708Y-133803675D01*
X153810322Y-133797693D01*
X153872118Y-133830296D01*
X153906477Y-133891134D01*
X153908174Y-133938621D01*
X153899500Y-133993388D01*
X153899500Y-134166610D01*
X153922810Y-134313789D01*
X153926598Y-134337701D01*
X153980127Y-134502445D01*
X154058768Y-134656788D01*
X154160586Y-134796928D01*
X154283072Y-134919414D01*
X154423212Y-135021232D01*
X154577555Y-135099873D01*
X154742299Y-135153402D01*
X154913389Y-135180500D01*
X154913390Y-135180500D01*
X155086610Y-135180500D01*
X155086611Y-135180500D01*
X155257701Y-135153402D01*
X155422445Y-135099873D01*
X155576788Y-135021232D01*
X155716928Y-134919414D01*
X155839414Y-134796928D01*
X155941232Y-134656788D01*
X156019873Y-134502445D01*
X156073402Y-134337701D01*
X156100500Y-134166611D01*
X156100500Y-133993389D01*
X156073402Y-133822299D01*
X156019873Y-133657555D01*
X155941232Y-133503212D01*
X155839414Y-133363072D01*
X155716928Y-133240586D01*
X155576788Y-133138768D01*
X155422445Y-133060127D01*
X155257701Y-133006598D01*
X155257699Y-133006597D01*
X155257698Y-133006597D01*
X155126271Y-132985781D01*
X155086611Y-132979500D01*
X154913389Y-132979500D01*
X154873728Y-132985781D01*
X154742302Y-133006597D01*
X154577552Y-133060128D01*
X154423211Y-133138768D01*
X154359875Y-133184785D01*
X154283072Y-133240586D01*
X154283070Y-133240588D01*
X154283068Y-133240589D01*
X154231139Y-133292518D01*
X154169816Y-133326002D01*
X154100124Y-133321017D01*
X154044191Y-133279146D01*
X154019775Y-133213681D01*
X154020986Y-133185438D01*
X154021088Y-133184788D01*
X154021090Y-133184785D01*
X154060500Y-132935962D01*
X154060500Y-132684038D01*
X154021090Y-132435215D01*
X153943241Y-132195621D01*
X153943239Y-132195618D01*
X153943239Y-132195616D01*
X153901747Y-132114184D01*
X153828870Y-131971155D01*
X153809952Y-131945117D01*
X153680798Y-131767350D01*
X153680794Y-131767345D01*
X153502654Y-131589205D01*
X153502649Y-131589201D01*
X153298848Y-131441132D01*
X153298847Y-131441131D01*
X153298845Y-131441130D01*
X153229186Y-131405637D01*
X153128205Y-131354184D01*
X153077409Y-131306209D01*
X153060500Y-131243699D01*
X153060500Y-130534538D01*
X153080185Y-130467499D01*
X153132989Y-130421744D01*
X153202147Y-130411800D01*
X153265703Y-130440825D01*
X153282876Y-130459052D01*
X153304352Y-130487040D01*
X153304358Y-130487047D01*
X153512952Y-130695641D01*
X153512959Y-130695647D01*
X153747006Y-130875238D01*
X154002489Y-131022741D01*
X154002490Y-131022741D01*
X154002493Y-131022743D01*
X154275048Y-131135639D01*
X154560007Y-131211993D01*
X154852494Y-131250500D01*
X154852501Y-131250500D01*
X155147499Y-131250500D01*
X155147506Y-131250500D01*
X155439993Y-131211993D01*
X155724952Y-131135639D01*
X155997507Y-131022743D01*
X156252994Y-130875238D01*
X156487042Y-130695646D01*
X156695646Y-130487042D01*
X156875238Y-130252994D01*
X157022743Y-129997507D01*
X157135639Y-129724952D01*
X157211993Y-129439993D01*
X157250500Y-129147506D01*
X157250500Y-128852494D01*
X157211993Y-128560007D01*
X157135639Y-128275048D01*
X157022743Y-128002493D01*
X156875238Y-127747006D01*
X156725674Y-127552091D01*
X156695647Y-127512959D01*
X156695641Y-127512952D01*
X156487047Y-127304358D01*
X156487040Y-127304352D01*
X156252993Y-127124761D01*
X155997510Y-126977258D01*
X155997500Y-126977254D01*
X155724961Y-126864364D01*
X155724954Y-126864362D01*
X155724952Y-126864361D01*
X155439993Y-126788007D01*
X155391113Y-126781571D01*
X155147513Y-126749500D01*
X155147506Y-126749500D01*
X154852494Y-126749500D01*
X154852486Y-126749500D01*
X154574085Y-126786153D01*
X154560007Y-126788007D01*
X154385428Y-126834785D01*
X154275048Y-126864361D01*
X154275038Y-126864364D01*
X154002499Y-126977254D01*
X154002489Y-126977258D01*
X153747006Y-127124761D01*
X153512959Y-127304352D01*
X153512952Y-127304358D01*
X153304355Y-127512955D01*
X153282875Y-127540949D01*
X153226446Y-127582151D01*
X153156700Y-127586305D01*
X153095780Y-127552091D01*
X153063028Y-127490374D01*
X153060500Y-127465461D01*
X153060500Y-123833389D01*
X153899500Y-123833389D01*
X153899500Y-124006611D01*
X153926598Y-124177701D01*
X153980127Y-124342445D01*
X154058768Y-124496788D01*
X154160586Y-124636928D01*
X154283072Y-124759414D01*
X154423212Y-124861232D01*
X154577555Y-124939873D01*
X154742299Y-124993402D01*
X154913389Y-125020500D01*
X154913390Y-125020500D01*
X155086610Y-125020500D01*
X155086611Y-125020500D01*
X155257701Y-124993402D01*
X155422445Y-124939873D01*
X155576788Y-124861232D01*
X155716928Y-124759414D01*
X155839414Y-124636928D01*
X155941232Y-124496788D01*
X156019873Y-124342445D01*
X156073402Y-124177701D01*
X156100500Y-124006611D01*
X156100500Y-123833389D01*
X156073402Y-123662299D01*
X156019873Y-123497555D01*
X155941232Y-123343212D01*
X155839414Y-123203072D01*
X155716928Y-123080586D01*
X155576788Y-122978768D01*
X155422445Y-122900127D01*
X155257701Y-122846598D01*
X155257699Y-122846597D01*
X155257698Y-122846597D01*
X155126271Y-122825781D01*
X155086611Y-122819500D01*
X154913389Y-122819500D01*
X154873728Y-122825781D01*
X154742302Y-122846597D01*
X154577552Y-122900128D01*
X154423211Y-122978768D01*
X154343256Y-123036859D01*
X154283072Y-123080586D01*
X154283070Y-123080588D01*
X154283069Y-123080588D01*
X154160588Y-123203069D01*
X154160588Y-123203070D01*
X154160586Y-123203072D01*
X154116859Y-123263256D01*
X154058768Y-123343211D01*
X153980128Y-123497552D01*
X153926597Y-123662302D01*
X153899500Y-123833389D01*
X153060500Y-123833389D01*
X153060500Y-119590097D01*
X153080185Y-119523058D01*
X153096819Y-119502416D01*
X155459457Y-117139778D01*
X158059500Y-117139778D01*
X158059500Y-117360221D01*
X158093985Y-117577952D01*
X158162103Y-117787603D01*
X158162104Y-117787606D01*
X158206651Y-117875032D01*
X158256912Y-117973674D01*
X158262187Y-117984025D01*
X158391752Y-118162358D01*
X158391756Y-118162363D01*
X158547636Y-118318243D01*
X158547641Y-118318247D01*
X158661632Y-118401065D01*
X158725978Y-118447815D01*
X158854375Y-118513237D01*
X158922393Y-118547895D01*
X158922396Y-118547896D01*
X158980960Y-118566924D01*
X159132049Y-118616015D01*
X159349778Y-118650500D01*
X159349779Y-118650500D01*
X159570221Y-118650500D01*
X159570222Y-118650500D01*
X159787951Y-118616015D01*
X159997606Y-118547895D01*
X160194022Y-118447815D01*
X160372365Y-118318242D01*
X160528242Y-118162365D01*
X160629991Y-118022317D01*
X160685320Y-117979653D01*
X160754933Y-117973674D01*
X160816729Y-118006279D01*
X160830628Y-118022319D01*
X160848932Y-118047513D01*
X161398948Y-117497496D01*
X161423967Y-117557896D01*
X161495103Y-117664358D01*
X161585642Y-117754897D01*
X161692104Y-117826033D01*
X161752501Y-117851050D01*
X161202485Y-118401065D01*
X161202485Y-118401066D01*
X161266243Y-118447388D01*
X161462589Y-118547432D01*
X161672164Y-118615526D01*
X161889819Y-118650000D01*
X162110181Y-118650000D01*
X162327835Y-118615526D01*
X162537410Y-118547432D01*
X162733760Y-118447386D01*
X162797513Y-118401066D01*
X162797514Y-118401066D01*
X162247497Y-117851050D01*
X162307896Y-117826033D01*
X162414358Y-117754897D01*
X162504897Y-117664358D01*
X162576033Y-117557896D01*
X162601050Y-117497498D01*
X163151066Y-118047514D01*
X163151066Y-118047513D01*
X163169372Y-118022319D01*
X163224701Y-117979653D01*
X163294315Y-117973674D01*
X163356110Y-118006279D01*
X163370008Y-118022319D01*
X163471752Y-118162358D01*
X163471756Y-118162363D01*
X163627636Y-118318243D01*
X163627641Y-118318247D01*
X163741632Y-118401065D01*
X163805978Y-118447815D01*
X163934375Y-118513237D01*
X164002393Y-118547895D01*
X164002396Y-118547896D01*
X164060960Y-118566924D01*
X164212049Y-118616015D01*
X164429778Y-118650500D01*
X164429779Y-118650500D01*
X164650221Y-118650500D01*
X164650222Y-118650500D01*
X164867951Y-118616015D01*
X165077606Y-118547895D01*
X165274022Y-118447815D01*
X165452365Y-118318242D01*
X165608242Y-118162365D01*
X165737815Y-117984022D01*
X165837895Y-117787606D01*
X165906015Y-117577951D01*
X165940500Y-117360222D01*
X165940500Y-117139778D01*
X165906015Y-116922049D01*
X165837895Y-116712394D01*
X165837895Y-116712393D01*
X165793349Y-116624968D01*
X165737815Y-116515978D01*
X165691685Y-116452485D01*
X165608247Y-116337641D01*
X165608243Y-116337636D01*
X165452363Y-116181756D01*
X165452358Y-116181752D01*
X165274025Y-116052187D01*
X165274024Y-116052186D01*
X165274022Y-116052185D01*
X165211096Y-116020122D01*
X165077606Y-115952104D01*
X165077603Y-115952103D01*
X164867952Y-115883985D01*
X164759086Y-115866742D01*
X164650222Y-115849500D01*
X164429778Y-115849500D01*
X164357201Y-115860995D01*
X164212047Y-115883985D01*
X164002396Y-115952103D01*
X164002393Y-115952104D01*
X163805974Y-116052187D01*
X163627641Y-116181752D01*
X163627636Y-116181756D01*
X163471756Y-116337636D01*
X163370008Y-116477681D01*
X163314678Y-116520346D01*
X163245065Y-116526325D01*
X163183270Y-116493719D01*
X163169371Y-116477680D01*
X163151066Y-116452485D01*
X163151065Y-116452485D01*
X162601050Y-117002501D01*
X162576033Y-116942104D01*
X162504897Y-116835642D01*
X162414358Y-116745103D01*
X162307896Y-116673967D01*
X162247496Y-116648948D01*
X162797513Y-116098932D01*
X162733756Y-116052611D01*
X162537410Y-115952567D01*
X162327835Y-115884473D01*
X162110181Y-115850000D01*
X161889819Y-115850000D01*
X161672164Y-115884473D01*
X161462589Y-115952567D01*
X161266233Y-116052616D01*
X161202485Y-116098931D01*
X161202485Y-116098932D01*
X161752502Y-116648949D01*
X161692104Y-116673967D01*
X161585642Y-116745103D01*
X161495103Y-116835642D01*
X161423967Y-116942104D01*
X161398949Y-117002502D01*
X160848932Y-116452485D01*
X160848930Y-116452485D01*
X160830626Y-116477679D01*
X160775296Y-116520345D01*
X160705683Y-116526324D01*
X160643888Y-116493718D01*
X160629990Y-116477679D01*
X160528247Y-116337640D01*
X160372363Y-116181756D01*
X160372358Y-116181752D01*
X160194025Y-116052187D01*
X160194024Y-116052186D01*
X160194022Y-116052185D01*
X160131096Y-116020122D01*
X159997606Y-115952104D01*
X159997603Y-115952103D01*
X159787952Y-115883985D01*
X159679086Y-115866742D01*
X159570222Y-115849500D01*
X159349778Y-115849500D01*
X159277201Y-115860995D01*
X159132047Y-115883985D01*
X158922396Y-115952103D01*
X158922393Y-115952104D01*
X158725974Y-116052187D01*
X158547641Y-116181752D01*
X158547636Y-116181756D01*
X158391756Y-116337636D01*
X158391752Y-116337641D01*
X158262187Y-116515974D01*
X158162104Y-116712393D01*
X158162103Y-116712396D01*
X158093985Y-116922047D01*
X158059500Y-117139778D01*
X155459457Y-117139778D01*
X163829093Y-108770142D01*
X165850000Y-108770142D01*
X165850000Y-109500000D01*
X166749989Y-109500000D01*
X166749989Y-110000000D01*
X165850000Y-110000000D01*
X165850000Y-110729857D01*
X165890629Y-110986377D01*
X165970883Y-111233377D01*
X166088796Y-111464791D01*
X166241445Y-111674896D01*
X166241449Y-111674901D01*
X166425098Y-111858550D01*
X166425103Y-111858554D01*
X166635208Y-112011203D01*
X166866622Y-112129116D01*
X167113622Y-112209370D01*
X167250000Y-112230971D01*
X167250000Y-111208238D01*
X167281230Y-111221175D01*
X167426130Y-111249997D01*
X167573870Y-111249997D01*
X167718770Y-111221175D01*
X167750000Y-111208238D01*
X167750000Y-112230970D01*
X167886377Y-112209370D01*
X168133377Y-112129116D01*
X168364791Y-112011203D01*
X168574896Y-111858554D01*
X168574901Y-111858550D01*
X168758550Y-111674901D01*
X168758554Y-111674896D01*
X168911203Y-111464791D01*
X169029116Y-111233377D01*
X169109370Y-110986377D01*
X169150000Y-110729857D01*
X169150000Y-110000000D01*
X168250011Y-110000000D01*
X168250011Y-109500000D01*
X169150000Y-109500000D01*
X169150000Y-108770142D01*
X169109370Y-108513622D01*
X169029116Y-108266622D01*
X168911203Y-108035208D01*
X168758554Y-107825103D01*
X168758550Y-107825098D01*
X168574901Y-107641449D01*
X168574896Y-107641445D01*
X168364791Y-107488796D01*
X168133375Y-107370882D01*
X167886374Y-107290628D01*
X167750000Y-107269028D01*
X167750000Y-108291761D01*
X167718770Y-108278825D01*
X167573870Y-108250003D01*
X167426130Y-108250003D01*
X167281230Y-108278825D01*
X167250000Y-108291761D01*
X167250000Y-107269028D01*
X167249999Y-107269028D01*
X167113625Y-107290628D01*
X166866624Y-107370882D01*
X166635208Y-107488796D01*
X166425103Y-107641445D01*
X166425098Y-107641449D01*
X166241449Y-107825098D01*
X166241445Y-107825103D01*
X166088796Y-108035208D01*
X165970883Y-108266622D01*
X165890629Y-108513622D01*
X165850000Y-108770142D01*
X163829093Y-108770142D01*
X167187819Y-105411416D01*
X167207255Y-105400803D01*
X167223989Y-105386303D01*
X167237320Y-105384386D01*
X167249142Y-105377931D01*
X167271228Y-105379510D01*
X167293147Y-105376359D01*
X167305398Y-105381954D01*
X167318834Y-105382915D01*
X167336560Y-105396185D01*
X167356703Y-105405384D01*
X167363985Y-105416715D01*
X167374767Y-105424787D01*
X167382504Y-105445532D01*
X167394477Y-105464162D01*
X167397628Y-105486080D01*
X167399184Y-105490251D01*
X167399500Y-105499097D01*
X167399500Y-105663330D01*
X167399499Y-105663348D01*
X167399499Y-105829054D01*
X167399498Y-105829054D01*
X167440423Y-105981785D01*
X167469358Y-106031900D01*
X167469359Y-106031904D01*
X167469360Y-106031904D01*
X167519479Y-106118714D01*
X167519481Y-106118717D01*
X167638349Y-106237585D01*
X167638355Y-106237590D01*
X170363181Y-108962416D01*
X170396666Y-109023739D01*
X170399500Y-109050097D01*
X170399500Y-125391790D01*
X170379815Y-125458829D01*
X170327011Y-125504584D01*
X170257853Y-125514528D01*
X170194297Y-125485503D01*
X170175182Y-125464675D01*
X170140798Y-125417350D01*
X170140794Y-125417345D01*
X169962654Y-125239205D01*
X169962649Y-125239201D01*
X169758848Y-125091132D01*
X169758847Y-125091131D01*
X169758845Y-125091130D01*
X169688747Y-125055413D01*
X169534383Y-124976760D01*
X169294785Y-124898910D01*
X169045962Y-124859500D01*
X168794038Y-124859500D01*
X168669626Y-124879205D01*
X168545214Y-124898910D01*
X168305616Y-124976760D01*
X168081151Y-125091132D01*
X167877350Y-125239201D01*
X167877345Y-125239205D01*
X167699205Y-125417345D01*
X167699201Y-125417350D01*
X167551132Y-125621151D01*
X167436760Y-125845616D01*
X167358910Y-126085214D01*
X167319500Y-126334038D01*
X167319500Y-126585961D01*
X167358910Y-126834785D01*
X167436760Y-127074383D01*
X167551132Y-127298848D01*
X167699201Y-127502649D01*
X167699205Y-127502654D01*
X167877345Y-127680794D01*
X167877350Y-127680798D01*
X168055117Y-127809952D01*
X168081155Y-127828870D01*
X168224184Y-127901747D01*
X168305616Y-127943239D01*
X168305618Y-127943239D01*
X168305621Y-127943241D01*
X168545215Y-128021090D01*
X168794038Y-128060500D01*
X168794039Y-128060500D01*
X169045961Y-128060500D01*
X169045962Y-128060500D01*
X169294785Y-128021090D01*
X169534379Y-127943241D01*
X169758845Y-127828870D01*
X169962656Y-127680793D01*
X170140793Y-127502656D01*
X170175181Y-127455325D01*
X170230511Y-127412658D01*
X170300124Y-127406679D01*
X170361919Y-127439284D01*
X170396277Y-127500122D01*
X170399500Y-127528209D01*
X170399500Y-131555689D01*
X170379815Y-131622728D01*
X170363181Y-131643370D01*
X170239205Y-131767345D01*
X170239201Y-131767350D01*
X170091132Y-131971151D01*
X169976760Y-132195616D01*
X169898910Y-132435214D01*
X169859500Y-132684038D01*
X169859500Y-132935961D01*
X169898910Y-133184785D01*
X169976760Y-133424383D01*
X170091132Y-133648848D01*
X170239201Y-133852649D01*
X170239205Y-133852654D01*
X170417345Y-134030794D01*
X170417350Y-134030798D01*
X170595117Y-134159952D01*
X170621155Y-134178870D01*
X170764184Y-134251747D01*
X170845616Y-134293239D01*
X170845618Y-134293239D01*
X170845621Y-134293241D01*
X171085215Y-134371090D01*
X171334038Y-134410500D01*
X171334039Y-134410500D01*
X171585961Y-134410500D01*
X171585962Y-134410500D01*
X171834785Y-134371090D01*
X172074379Y-134293241D01*
X172298845Y-134178870D01*
X172502656Y-134030793D01*
X172680793Y-133852656D01*
X172685380Y-133846341D01*
X172740708Y-133803675D01*
X172810322Y-133797693D01*
X172872118Y-133830296D01*
X172906477Y-133891134D01*
X172908174Y-133938621D01*
X172899500Y-133993388D01*
X172899500Y-134166610D01*
X172922810Y-134313789D01*
X172926598Y-134337701D01*
X172980127Y-134502445D01*
X173058768Y-134656788D01*
X173160586Y-134796928D01*
X173283072Y-134919414D01*
X173423212Y-135021232D01*
X173577555Y-135099873D01*
X173742299Y-135153402D01*
X173913389Y-135180500D01*
X173913390Y-135180500D01*
X174086610Y-135180500D01*
X174086611Y-135180500D01*
X174257701Y-135153402D01*
X174422445Y-135099873D01*
X174576788Y-135021232D01*
X174716928Y-134919414D01*
X174839414Y-134796928D01*
X174941232Y-134656788D01*
X175019873Y-134502445D01*
X175073402Y-134337701D01*
X175100500Y-134166611D01*
X175100500Y-133993389D01*
X175073402Y-133822299D01*
X175019873Y-133657555D01*
X174941232Y-133503212D01*
X174839414Y-133363072D01*
X174716928Y-133240586D01*
X174576788Y-133138768D01*
X174422445Y-133060127D01*
X174257701Y-133006598D01*
X174257699Y-133006597D01*
X174257698Y-133006597D01*
X174126271Y-132985781D01*
X174086611Y-132979500D01*
X173913389Y-132979500D01*
X173873728Y-132985781D01*
X173742302Y-133006597D01*
X173577552Y-133060128D01*
X173423211Y-133138768D01*
X173359875Y-133184785D01*
X173283072Y-133240586D01*
X173283070Y-133240588D01*
X173283068Y-133240589D01*
X173231139Y-133292518D01*
X173169816Y-133326002D01*
X173100124Y-133321017D01*
X173044191Y-133279146D01*
X173019775Y-133213681D01*
X173020986Y-133185438D01*
X173021088Y-133184788D01*
X173021090Y-133184785D01*
X173060500Y-132935962D01*
X173060500Y-132684038D01*
X173021090Y-132435215D01*
X172943241Y-132195621D01*
X172943239Y-132195618D01*
X172943239Y-132195616D01*
X172901747Y-132114184D01*
X172828870Y-131971155D01*
X172809952Y-131945117D01*
X172680798Y-131767350D01*
X172680794Y-131767345D01*
X172502654Y-131589205D01*
X172502649Y-131589201D01*
X172298848Y-131441132D01*
X172298847Y-131441131D01*
X172298845Y-131441130D01*
X172074379Y-131326759D01*
X171834785Y-131248910D01*
X171834783Y-131248909D01*
X171705101Y-131228369D01*
X171641967Y-131198439D01*
X171605036Y-131139127D01*
X171600500Y-131105896D01*
X171600500Y-129682080D01*
X171620185Y-129615041D01*
X171672989Y-129569286D01*
X171742147Y-129559342D01*
X171805703Y-129588367D01*
X171843477Y-129647145D01*
X171844260Y-129649934D01*
X171852874Y-129682080D01*
X171864361Y-129724951D01*
X171864364Y-129724961D01*
X171977254Y-129997500D01*
X171977258Y-129997510D01*
X172124761Y-130252993D01*
X172304352Y-130487040D01*
X172304358Y-130487047D01*
X172512952Y-130695641D01*
X172512959Y-130695647D01*
X172747006Y-130875238D01*
X173002489Y-131022741D01*
X173002490Y-131022741D01*
X173002493Y-131022743D01*
X173275048Y-131135639D01*
X173560007Y-131211993D01*
X173852494Y-131250500D01*
X173852501Y-131250500D01*
X174147499Y-131250500D01*
X174147506Y-131250500D01*
X174439993Y-131211993D01*
X174724952Y-131135639D01*
X174997507Y-131022743D01*
X175252994Y-130875238D01*
X175487042Y-130695646D01*
X175695646Y-130487042D01*
X175875238Y-130252994D01*
X176022743Y-129997507D01*
X176135639Y-129724952D01*
X176211993Y-129439993D01*
X176250500Y-129147506D01*
X176250500Y-128852494D01*
X176211993Y-128560007D01*
X176135639Y-128275048D01*
X176022743Y-128002493D01*
X175875238Y-127747006D01*
X175725674Y-127552091D01*
X175695647Y-127512959D01*
X175695641Y-127512952D01*
X175487047Y-127304358D01*
X175487040Y-127304352D01*
X175252993Y-127124761D01*
X174997510Y-126977258D01*
X174997500Y-126977254D01*
X174724961Y-126864364D01*
X174724954Y-126864362D01*
X174724952Y-126864361D01*
X174439993Y-126788007D01*
X174391113Y-126781571D01*
X174147513Y-126749500D01*
X174147506Y-126749500D01*
X173852494Y-126749500D01*
X173852486Y-126749500D01*
X173574085Y-126786153D01*
X173560007Y-126788007D01*
X173385428Y-126834785D01*
X173275048Y-126864361D01*
X173275038Y-126864364D01*
X173002499Y-126977254D01*
X173002489Y-126977258D01*
X172747006Y-127124761D01*
X172512959Y-127304352D01*
X172512952Y-127304358D01*
X172304358Y-127512952D01*
X172304352Y-127512959D01*
X172124761Y-127747006D01*
X171977258Y-128002489D01*
X171977254Y-128002499D01*
X171864364Y-128275038D01*
X171864361Y-128275048D01*
X171844275Y-128350012D01*
X171807910Y-128409673D01*
X171745063Y-128440202D01*
X171675688Y-128431907D01*
X171621810Y-128387422D01*
X171600535Y-128320870D01*
X171600500Y-128317919D01*
X171600500Y-123833389D01*
X172899500Y-123833389D01*
X172899500Y-124006611D01*
X172926598Y-124177701D01*
X172980127Y-124342445D01*
X173058768Y-124496788D01*
X173160586Y-124636928D01*
X173283072Y-124759414D01*
X173423212Y-124861232D01*
X173577555Y-124939873D01*
X173742299Y-124993402D01*
X173913389Y-125020500D01*
X173913390Y-125020500D01*
X174086610Y-125020500D01*
X174086611Y-125020500D01*
X174257701Y-124993402D01*
X174422445Y-124939873D01*
X174576788Y-124861232D01*
X174716928Y-124759414D01*
X174839414Y-124636928D01*
X174941232Y-124496788D01*
X175019873Y-124342445D01*
X175073402Y-124177701D01*
X175100500Y-124006611D01*
X175100500Y-123833389D01*
X175073402Y-123662299D01*
X175019873Y-123497555D01*
X174941232Y-123343212D01*
X174839414Y-123203072D01*
X174716928Y-123080586D01*
X174576788Y-122978768D01*
X174422445Y-122900127D01*
X174257701Y-122846598D01*
X174257699Y-122846597D01*
X174257698Y-122846597D01*
X174126271Y-122825781D01*
X174086611Y-122819500D01*
X173913389Y-122819500D01*
X173873728Y-122825781D01*
X173742302Y-122846597D01*
X173577552Y-122900128D01*
X173423211Y-122978768D01*
X173343256Y-123036859D01*
X173283072Y-123080586D01*
X173283070Y-123080588D01*
X173283069Y-123080588D01*
X173160588Y-123203069D01*
X173160588Y-123203070D01*
X173160586Y-123203072D01*
X173116859Y-123263256D01*
X173058768Y-123343211D01*
X172980128Y-123497552D01*
X172926597Y-123662302D01*
X172899500Y-123833389D01*
X171600500Y-123833389D01*
X171600500Y-108839060D01*
X171600501Y-108839047D01*
X171600501Y-108670944D01*
X171600501Y-108670943D01*
X171559577Y-108518216D01*
X171480520Y-108381284D01*
X168952949Y-105853713D01*
X173524500Y-105853713D01*
X173524500Y-106066286D01*
X173557753Y-106276239D01*
X173623444Y-106478414D01*
X173719951Y-106667820D01*
X173844890Y-106839786D01*
X173995213Y-106990109D01*
X174167179Y-107115048D01*
X174167181Y-107115049D01*
X174167184Y-107115051D01*
X174176493Y-107119794D01*
X174227290Y-107167766D01*
X174244087Y-107235587D01*
X174221552Y-107301722D01*
X174176505Y-107340760D01*
X174167446Y-107345376D01*
X174167440Y-107345380D01*
X174113282Y-107384727D01*
X174113282Y-107384728D01*
X174745592Y-108017038D01*
X174682008Y-108034076D01*
X174567994Y-108099902D01*
X174474902Y-108192994D01*
X174409076Y-108307008D01*
X174392038Y-108370592D01*
X173759728Y-107738282D01*
X173759727Y-107738282D01*
X173720380Y-107792439D01*
X173623904Y-107981782D01*
X173558242Y-108183869D01*
X173558242Y-108183872D01*
X173525000Y-108393753D01*
X173525000Y-108606246D01*
X173558242Y-108816127D01*
X173558242Y-108816130D01*
X173623904Y-109018217D01*
X173720375Y-109207550D01*
X173759728Y-109261716D01*
X174392038Y-108629407D01*
X174409076Y-108692992D01*
X174474902Y-108807006D01*
X174567994Y-108900098D01*
X174682008Y-108965924D01*
X174745591Y-108982961D01*
X174075370Y-109653181D01*
X174014047Y-109686666D01*
X173987698Y-109689500D01*
X173977134Y-109689500D01*
X173977123Y-109689501D01*
X173917516Y-109695908D01*
X173782671Y-109746202D01*
X173782664Y-109746206D01*
X173667455Y-109832452D01*
X173667452Y-109832455D01*
X173581206Y-109947664D01*
X173581202Y-109947671D01*
X173530908Y-110082517D01*
X173524501Y-110142116D01*
X173524501Y-110142123D01*
X173524500Y-110142135D01*
X173524500Y-111937870D01*
X173524501Y-111937876D01*
X173530908Y-111997483D01*
X173581202Y-112132328D01*
X173581206Y-112132335D01*
X173667452Y-112247544D01*
X173667455Y-112247547D01*
X173782664Y-112333793D01*
X173782671Y-112333797D01*
X173917517Y-112384091D01*
X173917516Y-112384091D01*
X173924444Y-112384835D01*
X173977127Y-112390500D01*
X175772872Y-112390499D01*
X175832483Y-112384091D01*
X175967331Y-112333796D01*
X176082546Y-112247546D01*
X176168796Y-112132331D01*
X176219091Y-111997483D01*
X176225500Y-111937873D01*
X176225499Y-110142128D01*
X176219091Y-110082517D01*
X176168796Y-109947669D01*
X176168795Y-109947668D01*
X176168793Y-109947664D01*
X176082547Y-109832455D01*
X176082544Y-109832452D01*
X175967335Y-109746206D01*
X175967328Y-109746202D01*
X175832482Y-109695908D01*
X175832483Y-109695908D01*
X175772883Y-109689501D01*
X175772881Y-109689500D01*
X175772873Y-109689500D01*
X175772865Y-109689500D01*
X175762309Y-109689500D01*
X175695270Y-109669815D01*
X175674628Y-109653181D01*
X175004407Y-108982961D01*
X175067992Y-108965924D01*
X175182006Y-108900098D01*
X175275098Y-108807006D01*
X175340924Y-108692992D01*
X175357961Y-108629407D01*
X175990270Y-109261717D01*
X175990270Y-109261716D01*
X176029622Y-109207554D01*
X176126095Y-109018217D01*
X176191757Y-108816130D01*
X176191757Y-108816127D01*
X176225000Y-108606246D01*
X176225000Y-108393753D01*
X176191757Y-108183872D01*
X176191757Y-108183869D01*
X176126095Y-107981782D01*
X176029624Y-107792449D01*
X175990270Y-107738282D01*
X175990269Y-107738282D01*
X175357961Y-108370591D01*
X175340924Y-108307008D01*
X175275098Y-108192994D01*
X175182006Y-108099902D01*
X175067992Y-108034076D01*
X175004408Y-108017038D01*
X175636716Y-107384728D01*
X175582547Y-107345373D01*
X175582547Y-107345372D01*
X175573500Y-107340763D01*
X175522706Y-107292788D01*
X175505912Y-107224966D01*
X175528451Y-107158832D01*
X175573508Y-107119793D01*
X175582816Y-107115051D01*
X175662007Y-107057515D01*
X175754786Y-106990109D01*
X175754788Y-106990106D01*
X175754792Y-106990104D01*
X175905104Y-106839792D01*
X175905106Y-106839788D01*
X175905109Y-106839786D01*
X176030048Y-106667820D01*
X176030047Y-106667820D01*
X176030051Y-106667816D01*
X176126557Y-106478412D01*
X176192246Y-106276243D01*
X176225500Y-106066287D01*
X176225500Y-105853713D01*
X176192246Y-105643757D01*
X176126557Y-105441588D01*
X176030051Y-105252184D01*
X176030049Y-105252181D01*
X176030048Y-105252179D01*
X175905109Y-105080213D01*
X175754786Y-104929890D01*
X175582820Y-104804951D01*
X175393414Y-104708444D01*
X175393413Y-104708443D01*
X175393412Y-104708443D01*
X175191243Y-104642754D01*
X175191241Y-104642753D01*
X175191240Y-104642753D01*
X175029957Y-104617208D01*
X174981287Y-104609500D01*
X174768713Y-104609500D01*
X174720042Y-104617208D01*
X174558760Y-104642753D01*
X174356585Y-104708444D01*
X174167179Y-104804951D01*
X173995213Y-104929890D01*
X173844890Y-105080213D01*
X173719951Y-105252179D01*
X173623444Y-105441585D01*
X173557753Y-105643760D01*
X173524500Y-105853713D01*
X168952949Y-105853713D01*
X168636819Y-105537583D01*
X168603334Y-105476260D01*
X168600500Y-105449902D01*
X168600500Y-95289059D01*
X168600501Y-95289046D01*
X168600501Y-95120945D01*
X168600501Y-95120943D01*
X168559577Y-94968215D01*
X168519904Y-94899500D01*
X168480520Y-94831284D01*
X168368716Y-94719480D01*
X168364385Y-94715149D01*
X168364374Y-94715139D01*
X166986818Y-93337583D01*
X166953333Y-93276260D01*
X166950499Y-93249902D01*
X166950499Y-92324998D01*
X166950498Y-92324981D01*
X166939999Y-92222203D01*
X166939998Y-92222200D01*
X166937050Y-92213303D01*
X166884814Y-92055666D01*
X166792712Y-91906344D01*
X166668656Y-91782288D01*
X166519334Y-91690186D01*
X166352797Y-91635001D01*
X166352795Y-91635000D01*
X166250010Y-91624500D01*
X165349999Y-91624500D01*
X165349983Y-91624501D01*
X165339413Y-91625581D01*
X165270721Y-91612807D01*
X165239138Y-91589903D01*
X164787590Y-91138355D01*
X164787588Y-91138352D01*
X164668717Y-91019481D01*
X164668716Y-91019480D01*
X164581904Y-90969360D01*
X164581904Y-90969359D01*
X164581900Y-90969358D01*
X164531785Y-90940423D01*
X164379057Y-90899499D01*
X164220943Y-90899499D01*
X164213347Y-90899499D01*
X164213331Y-90899500D01*
X161086669Y-90899500D01*
X161086653Y-90899499D01*
X161079057Y-90899499D01*
X160920943Y-90899499D01*
X160815253Y-90927819D01*
X160768210Y-90940424D01*
X160768209Y-90940425D01*
X160718096Y-90969359D01*
X160718095Y-90969360D01*
X160690432Y-90985331D01*
X160631285Y-91019479D01*
X160631282Y-91019481D01*
X160558892Y-91091872D01*
X160519480Y-91131284D01*
X160519478Y-91131286D01*
X160015764Y-91635001D01*
X159537584Y-92113181D01*
X159476261Y-92146666D01*
X159449903Y-92149500D01*
X158198219Y-92149500D01*
X158131180Y-92129815D01*
X158085425Y-92077011D01*
X158083658Y-92072952D01*
X158069898Y-92039732D01*
X158069891Y-92039719D01*
X157982290Y-91908616D01*
X157982287Y-91908612D01*
X157870793Y-91797118D01*
X157870789Y-91797115D01*
X157739686Y-91709514D01*
X157739673Y-91709507D01*
X157594002Y-91649169D01*
X157593990Y-91649166D01*
X157439346Y-91618405D01*
X157439343Y-91618405D01*
X157281659Y-91618405D01*
X157281656Y-91618405D01*
X157127011Y-91649166D01*
X157126999Y-91649169D01*
X156981328Y-91709507D01*
X156981315Y-91709514D01*
X156850212Y-91797115D01*
X156850208Y-91797118D01*
X156738714Y-91908612D01*
X156738708Y-91908620D01*
X156651104Y-92039728D01*
X156649358Y-92042996D01*
X156647994Y-92044384D01*
X156647723Y-92044790D01*
X156647645Y-92044738D01*
X156600391Y-92092835D01*
X156564198Y-92106149D01*
X156482052Y-92122489D01*
X156482042Y-92122492D01*
X156336371Y-92182830D01*
X156336358Y-92182837D01*
X156205255Y-92270438D01*
X156205251Y-92270441D01*
X156093758Y-92381934D01*
X156093755Y-92381939D01*
X156085435Y-92394390D01*
X156031825Y-92439195D01*
X155982333Y-92449500D01*
X155921155Y-92449500D01*
X155766510Y-92480261D01*
X155766498Y-92480264D01*
X155620827Y-92540602D01*
X155620814Y-92540609D01*
X155489711Y-92628210D01*
X155489707Y-92628213D01*
X155378213Y-92739707D01*
X155378210Y-92739711D01*
X155290609Y-92870814D01*
X155290607Y-92870819D01*
X155289725Y-92872949D01*
X155288964Y-92873893D01*
X155287736Y-92876191D01*
X155287300Y-92875958D01*
X155245885Y-92927354D01*
X155179592Y-92949421D01*
X155175162Y-92949500D01*
X155171155Y-92949500D01*
X155016510Y-92980261D01*
X155016498Y-92980264D01*
X154870827Y-93040602D01*
X154870814Y-93040609D01*
X154739711Y-93128210D01*
X154739707Y-93128213D01*
X154628213Y-93239707D01*
X154628210Y-93239711D01*
X154540609Y-93370814D01*
X154540602Y-93370827D01*
X154480264Y-93516498D01*
X154480261Y-93516510D01*
X154449500Y-93671153D01*
X154449500Y-93828846D01*
X154480261Y-93983489D01*
X154480264Y-93983501D01*
X154540602Y-94129172D01*
X154540609Y-94129185D01*
X154628210Y-94260288D01*
X154628213Y-94260292D01*
X154739707Y-94371786D01*
X154739711Y-94371789D01*
X154870814Y-94459390D01*
X154870827Y-94459397D01*
X155016498Y-94519735D01*
X155016503Y-94519737D01*
X155081147Y-94532595D01*
X155171849Y-94550638D01*
X155233760Y-94583023D01*
X155235339Y-94584574D01*
X156974957Y-96324192D01*
X157008442Y-96385515D01*
X157003458Y-96455207D01*
X156961586Y-96511140D01*
X156903837Y-96533685D01*
X156903921Y-96534077D01*
X156901514Y-96534592D01*
X156899878Y-96535231D01*
X156897302Y-96535494D01*
X156730880Y-96590641D01*
X156730875Y-96590643D01*
X156581654Y-96682684D01*
X156457684Y-96806654D01*
X156365643Y-96955875D01*
X156365641Y-96955880D01*
X156310494Y-97122302D01*
X156310493Y-97122309D01*
X156300000Y-97225013D01*
X156300000Y-97650000D01*
X157326000Y-97650000D01*
X157393039Y-97669685D01*
X157438794Y-97722489D01*
X157450000Y-97774000D01*
X157450000Y-97900000D01*
X157576000Y-97900000D01*
X157643039Y-97919685D01*
X157688794Y-97972489D01*
X157700000Y-98024000D01*
X157700000Y-99326361D01*
X157697113Y-99326361D01*
X157694981Y-99366639D01*
X157660001Y-99472200D01*
X157660000Y-99472204D01*
X157649500Y-99574983D01*
X157649500Y-100925001D01*
X157649501Y-100925018D01*
X157660000Y-101027796D01*
X157660001Y-101027799D01*
X157715115Y-101194119D01*
X157715186Y-101194334D01*
X157807288Y-101343656D01*
X157931344Y-101467712D01*
X158080666Y-101559814D01*
X158247203Y-101614999D01*
X158320762Y-101622513D01*
X158385452Y-101648908D01*
X158425604Y-101706089D01*
X158428468Y-101775900D01*
X158395846Y-101833546D01*
X158391759Y-101837633D01*
X158391752Y-101837641D01*
X158262185Y-102015976D01*
X158228648Y-102081796D01*
X158180674Y-102132591D01*
X158118164Y-102149500D01*
X146079766Y-102149500D01*
X146012727Y-102129815D01*
X146010875Y-102128602D01*
X145879185Y-102040609D01*
X145879172Y-102040602D01*
X145733501Y-101980264D01*
X145733491Y-101980261D01*
X145578149Y-101949361D01*
X145561392Y-101940595D01*
X145542914Y-101936576D01*
X145517877Y-101917833D01*
X145516238Y-101916976D01*
X145514660Y-101915425D01*
X145436819Y-101837584D01*
X145403334Y-101776261D01*
X145400500Y-101749903D01*
X145400500Y-100924986D01*
X154550001Y-100924986D01*
X154560494Y-101027697D01*
X154615641Y-101194119D01*
X154615643Y-101194124D01*
X154707684Y-101343345D01*
X154831654Y-101467315D01*
X154980875Y-101559356D01*
X154980880Y-101559358D01*
X155147302Y-101614505D01*
X155147309Y-101614506D01*
X155250019Y-101624999D01*
X155449999Y-101624999D01*
X155950000Y-101624999D01*
X156149972Y-101624999D01*
X156149986Y-101624998D01*
X156252697Y-101614505D01*
X156419119Y-101559358D01*
X156419124Y-101559356D01*
X156568345Y-101467315D01*
X156692315Y-101343345D01*
X156784356Y-101194124D01*
X156784358Y-101194119D01*
X156839505Y-101027697D01*
X156839506Y-101027690D01*
X156849999Y-100924986D01*
X156850000Y-100924973D01*
X156850000Y-100500000D01*
X155950000Y-100500000D01*
X155950000Y-101624999D01*
X155449999Y-101624999D01*
X155450000Y-101624998D01*
X155450000Y-100500000D01*
X154550001Y-100500000D01*
X154550001Y-100924986D01*
X145400500Y-100924986D01*
X145400500Y-99575013D01*
X154550000Y-99575013D01*
X154550000Y-100000000D01*
X155450000Y-100000000D01*
X155450000Y-98875000D01*
X155950000Y-98875000D01*
X155950000Y-100000000D01*
X156849999Y-100000000D01*
X156849999Y-99575028D01*
X156849998Y-99575013D01*
X156839506Y-99472304D01*
X156826463Y-99432944D01*
X156824061Y-99363115D01*
X156859792Y-99303073D01*
X156922313Y-99271880D01*
X156956773Y-99270581D01*
X157000021Y-99274999D01*
X157199999Y-99274999D01*
X157200000Y-99274998D01*
X157200000Y-98150000D01*
X156300001Y-98150000D01*
X156300001Y-98574986D01*
X156310494Y-98677698D01*
X156323536Y-98717057D01*
X156325937Y-98786885D01*
X156290205Y-98846927D01*
X156227685Y-98878119D01*
X156193228Y-98879418D01*
X156149988Y-98875000D01*
X155950000Y-98875000D01*
X155450000Y-98875000D01*
X155250029Y-98875000D01*
X155250012Y-98875001D01*
X155147302Y-98885494D01*
X154980880Y-98940641D01*
X154980875Y-98940643D01*
X154831654Y-99032684D01*
X154707684Y-99156654D01*
X154615643Y-99305875D01*
X154615641Y-99305880D01*
X154560494Y-99472302D01*
X154560493Y-99472309D01*
X154550000Y-99575013D01*
X145400500Y-99575013D01*
X145400500Y-94770808D01*
X145420185Y-94703769D01*
X145436819Y-94683127D01*
X146105273Y-94014673D01*
X146105277Y-94014669D01*
X146176465Y-93908127D01*
X146177543Y-93905526D01*
X146189338Y-93877048D01*
X146225501Y-93789744D01*
X146227876Y-93777800D01*
X146227877Y-93777800D01*
X146227877Y-93777796D01*
X146250500Y-93664069D01*
X146250500Y-92968872D01*
X149649500Y-92968872D01*
X149649500Y-93231127D01*
X149667892Y-93370821D01*
X149683730Y-93491116D01*
X149750329Y-93739667D01*
X149751602Y-93744418D01*
X149751605Y-93744428D01*
X149851953Y-93986690D01*
X149851958Y-93986700D01*
X149983075Y-94213803D01*
X150142718Y-94421851D01*
X150142726Y-94421860D01*
X150328140Y-94607274D01*
X150328148Y-94607281D01*
X150536196Y-94766924D01*
X150763299Y-94898041D01*
X150763309Y-94898046D01*
X151005571Y-94998394D01*
X151005581Y-94998398D01*
X151258884Y-95066270D01*
X151518880Y-95100500D01*
X151518887Y-95100500D01*
X151781113Y-95100500D01*
X151781120Y-95100500D01*
X152041116Y-95066270D01*
X152294419Y-94998398D01*
X152533177Y-94899501D01*
X152536690Y-94898046D01*
X152536691Y-94898045D01*
X152536697Y-94898043D01*
X152763803Y-94766924D01*
X152971851Y-94607282D01*
X152971855Y-94607277D01*
X152971860Y-94607274D01*
X153157274Y-94421860D01*
X153157277Y-94421855D01*
X153157282Y-94421851D01*
X153316924Y-94213803D01*
X153448043Y-93986697D01*
X153449369Y-93983497D01*
X153534571Y-93777800D01*
X153548398Y-93744419D01*
X153616270Y-93491116D01*
X153650500Y-93231120D01*
X153650500Y-92968880D01*
X153616270Y-92708884D01*
X153548398Y-92455581D01*
X153537710Y-92429778D01*
X153448046Y-92213309D01*
X153448041Y-92213299D01*
X153316924Y-91986196D01*
X153178636Y-91805978D01*
X153157282Y-91778149D01*
X153157281Y-91778148D01*
X153157274Y-91778140D01*
X152971860Y-91592726D01*
X152971851Y-91592718D01*
X152763803Y-91433075D01*
X152536700Y-91301958D01*
X152536690Y-91301953D01*
X152294428Y-91201605D01*
X152294421Y-91201603D01*
X152294419Y-91201602D01*
X152041116Y-91133730D01*
X151983339Y-91126123D01*
X151781127Y-91099500D01*
X151781120Y-91099500D01*
X151518880Y-91099500D01*
X151518872Y-91099500D01*
X151287772Y-91129926D01*
X151258884Y-91133730D01*
X151023461Y-91196811D01*
X151005581Y-91201602D01*
X151005571Y-91201605D01*
X150763309Y-91301953D01*
X150763299Y-91301958D01*
X150536196Y-91433075D01*
X150328148Y-91592718D01*
X150142718Y-91778148D01*
X149983075Y-91986196D01*
X149851958Y-92213299D01*
X149851953Y-92213309D01*
X149751605Y-92455571D01*
X149751602Y-92455581D01*
X149686450Y-92698735D01*
X149683730Y-92708885D01*
X149649500Y-92968872D01*
X146250500Y-92968872D01*
X146250500Y-91335931D01*
X146250500Y-91335928D01*
X146225502Y-91210261D01*
X146225501Y-91210260D01*
X146225501Y-91210256D01*
X146176465Y-91091873D01*
X146162208Y-91070535D01*
X146147952Y-91049199D01*
X146105275Y-90985328D01*
X141614673Y-86494726D01*
X141614669Y-86494723D01*
X141508127Y-86423535D01*
X141389744Y-86374499D01*
X141389738Y-86374497D01*
X141264071Y-86349500D01*
X141264069Y-86349500D01*
X130570808Y-86349500D01*
X130503769Y-86329815D01*
X130483127Y-86313181D01*
X127686819Y-83516873D01*
X127653334Y-83455550D01*
X127650500Y-83429192D01*
X127650500Y-80505116D01*
X127670185Y-80438077D01*
X127722989Y-80392322D01*
X127792147Y-80382378D01*
X127813488Y-80387406D01*
X127972203Y-80439999D01*
X128038103Y-80446731D01*
X128102794Y-80473127D01*
X128142945Y-80530307D01*
X128149500Y-80570089D01*
X128149500Y-82413330D01*
X128149499Y-82413348D01*
X128149499Y-82579054D01*
X128149498Y-82579054D01*
X128190423Y-82731786D01*
X128190424Y-82731787D01*
X128205218Y-82757411D01*
X128216608Y-82777139D01*
X128269480Y-82868716D01*
X128269482Y-82868718D01*
X128388349Y-82987585D01*
X128388354Y-82987589D01*
X131381284Y-85980520D01*
X131381286Y-85980521D01*
X131381290Y-85980524D01*
X131502087Y-86050265D01*
X131518216Y-86059577D01*
X131670943Y-86100501D01*
X131670945Y-86100501D01*
X131836654Y-86100501D01*
X131836670Y-86100500D01*
X141949903Y-86100500D01*
X142016942Y-86120185D01*
X142037584Y-86136819D01*
X145265139Y-89364374D01*
X145265149Y-89364385D01*
X145269479Y-89368715D01*
X145269480Y-89368716D01*
X145381284Y-89480520D01*
X145381286Y-89480521D01*
X145381290Y-89480524D01*
X145518209Y-89559573D01*
X145518216Y-89559577D01*
X145630019Y-89589534D01*
X145670942Y-89600500D01*
X145670943Y-89600500D01*
X155413331Y-89600500D01*
X155413347Y-89600501D01*
X155420943Y-89600501D01*
X155579054Y-89600501D01*
X155579057Y-89600501D01*
X155731785Y-89559577D01*
X155781904Y-89530639D01*
X155868716Y-89480520D01*
X155980520Y-89368716D01*
X155980520Y-89368714D01*
X155990728Y-89358507D01*
X155990729Y-89358504D01*
X156442416Y-88906819D01*
X156503739Y-88873334D01*
X156530097Y-88870500D01*
X159687649Y-88870500D01*
X159754688Y-88890185D01*
X159800443Y-88942989D01*
X159810939Y-88981248D01*
X159815908Y-89027483D01*
X159866202Y-89162328D01*
X159866206Y-89162335D01*
X159952452Y-89277544D01*
X159952455Y-89277547D01*
X160067664Y-89363793D01*
X160067671Y-89363797D01*
X160202517Y-89414091D01*
X160202516Y-89414091D01*
X160209444Y-89414835D01*
X160262127Y-89420500D01*
X163157872Y-89420499D01*
X163217483Y-89414091D01*
X163352331Y-89363796D01*
X163467546Y-89277546D01*
X163553796Y-89162331D01*
X163604091Y-89027483D01*
X163610500Y-88967873D01*
X163610499Y-87572128D01*
X163604091Y-87512517D01*
X163592157Y-87480521D01*
X163553797Y-87377671D01*
X163553793Y-87377664D01*
X163467547Y-87262455D01*
X163467544Y-87262452D01*
X163352335Y-87176206D01*
X163352328Y-87176202D01*
X163217482Y-87125908D01*
X163217483Y-87125908D01*
X163157883Y-87119501D01*
X163157881Y-87119500D01*
X163157873Y-87119500D01*
X163157864Y-87119500D01*
X160262129Y-87119500D01*
X160262123Y-87119501D01*
X160202516Y-87125908D01*
X160067671Y-87176202D01*
X160067664Y-87176206D01*
X159952455Y-87262452D01*
X159952452Y-87262455D01*
X159866206Y-87377664D01*
X159866202Y-87377671D01*
X159818611Y-87505272D01*
X159815909Y-87512517D01*
X159810937Y-87558757D01*
X159784201Y-87623306D01*
X159726809Y-87663154D01*
X159687649Y-87669500D01*
X156974500Y-87669500D01*
X156907461Y-87649815D01*
X156861706Y-87597011D01*
X156850500Y-87545500D01*
X156850500Y-85140021D01*
X156870185Y-85072982D01*
X156922989Y-85027227D01*
X156992147Y-85017283D01*
X157039594Y-85034481D01*
X157080666Y-85059814D01*
X157247203Y-85114999D01*
X157349991Y-85125500D01*
X158250008Y-85125499D01*
X158250016Y-85125498D01*
X158250019Y-85125498D01*
X158306302Y-85119748D01*
X158352797Y-85114999D01*
X158519334Y-85059814D01*
X158668656Y-84967712D01*
X158792712Y-84843656D01*
X158884814Y-84694334D01*
X158939999Y-84527797D01*
X158950210Y-84427844D01*
X159810000Y-84427844D01*
X159816401Y-84487372D01*
X159816403Y-84487379D01*
X159866645Y-84622086D01*
X159866649Y-84622093D01*
X159952809Y-84737187D01*
X159952812Y-84737190D01*
X160067906Y-84823350D01*
X160067913Y-84823354D01*
X160202620Y-84873596D01*
X160202627Y-84873598D01*
X160262155Y-84879999D01*
X160262172Y-84880000D01*
X161460000Y-84880000D01*
X161960000Y-84880000D01*
X163157828Y-84880000D01*
X163157844Y-84879999D01*
X163217372Y-84873598D01*
X163217379Y-84873596D01*
X163352086Y-84823354D01*
X163352093Y-84823350D01*
X163467187Y-84737190D01*
X163467190Y-84737187D01*
X163553350Y-84622093D01*
X163553354Y-84622086D01*
X163603596Y-84487379D01*
X163603598Y-84487372D01*
X163609999Y-84427844D01*
X163610000Y-84427827D01*
X163610000Y-83980000D01*
X161960000Y-83980000D01*
X161960000Y-84880000D01*
X161460000Y-84880000D01*
X161460000Y-83980000D01*
X159810000Y-83980000D01*
X159810000Y-84427844D01*
X158950210Y-84427844D01*
X158950500Y-84425009D01*
X158950499Y-83747883D01*
X158950499Y-83074998D01*
X158950498Y-83074981D01*
X158947073Y-83041452D01*
X158946123Y-83032155D01*
X159810000Y-83032155D01*
X159810000Y-83480000D01*
X161460000Y-83480000D01*
X161960000Y-83480000D01*
X163610000Y-83480000D01*
X163610000Y-83032172D01*
X163609999Y-83032155D01*
X163603598Y-82972629D01*
X163603595Y-82972617D01*
X163595956Y-82952135D01*
X164539500Y-82952135D01*
X164539500Y-89047870D01*
X164539501Y-89047876D01*
X164545908Y-89107483D01*
X164596202Y-89242328D01*
X164596206Y-89242335D01*
X164682452Y-89357544D01*
X164682455Y-89357547D01*
X164797664Y-89443793D01*
X164797671Y-89443797D01*
X164932517Y-89494091D01*
X164932516Y-89494091D01*
X164939444Y-89494835D01*
X164992127Y-89500500D01*
X171587872Y-89500499D01*
X171647483Y-89494091D01*
X171782331Y-89443796D01*
X171897546Y-89357546D01*
X171983796Y-89242331D01*
X172034091Y-89107483D01*
X172034091Y-89107481D01*
X172035874Y-89099938D01*
X172038146Y-89100474D01*
X172060429Y-89046688D01*
X172117823Y-89006843D01*
X172156976Y-89000500D01*
X183415686Y-89000500D01*
X183415694Y-89000500D01*
X183452569Y-88997598D01*
X183452571Y-88997597D01*
X183452573Y-88997597D01*
X183494191Y-88985505D01*
X183610398Y-88951744D01*
X183751865Y-88868081D01*
X183868081Y-88751865D01*
X183951744Y-88610398D01*
X183997598Y-88452569D01*
X184000500Y-88415694D01*
X184000500Y-85584306D01*
X183997598Y-85547431D01*
X183989110Y-85518216D01*
X183951745Y-85389606D01*
X183951744Y-85389603D01*
X183951744Y-85389602D01*
X183868081Y-85248135D01*
X183868079Y-85248133D01*
X183868076Y-85248129D01*
X183751870Y-85131923D01*
X183751862Y-85131917D01*
X183673681Y-85085681D01*
X183610398Y-85048256D01*
X183610397Y-85048255D01*
X183610396Y-85048255D01*
X183610393Y-85048254D01*
X183452573Y-85002402D01*
X183452567Y-85002401D01*
X183415701Y-84999500D01*
X183415694Y-84999500D01*
X182131120Y-84999500D01*
X172164499Y-84999500D01*
X172097460Y-84979815D01*
X172051705Y-84927011D01*
X172040499Y-84875500D01*
X172040499Y-82952129D01*
X172040498Y-82952123D01*
X172040497Y-82952116D01*
X172034091Y-82892517D01*
X172025212Y-82868712D01*
X171983797Y-82757671D01*
X171983793Y-82757664D01*
X171897547Y-82642455D01*
X171897544Y-82642452D01*
X171782335Y-82556206D01*
X171782328Y-82556202D01*
X171647482Y-82505908D01*
X171647483Y-82505908D01*
X171587883Y-82499501D01*
X171587881Y-82499500D01*
X171587873Y-82499500D01*
X171587864Y-82499500D01*
X164992129Y-82499500D01*
X164992123Y-82499501D01*
X164932516Y-82505908D01*
X164797671Y-82556202D01*
X164797664Y-82556206D01*
X164682455Y-82642452D01*
X164682452Y-82642455D01*
X164596206Y-82757664D01*
X164596202Y-82757671D01*
X164545908Y-82892517D01*
X164539501Y-82952116D01*
X164539501Y-82952123D01*
X164539500Y-82952135D01*
X163595956Y-82952135D01*
X163553354Y-82837913D01*
X163553350Y-82837906D01*
X163467190Y-82722812D01*
X163467187Y-82722809D01*
X163352093Y-82636649D01*
X163352086Y-82636645D01*
X163217379Y-82586403D01*
X163217372Y-82586401D01*
X163157844Y-82580000D01*
X161960000Y-82580000D01*
X161960000Y-83480000D01*
X161460000Y-83480000D01*
X161460000Y-82580000D01*
X160262155Y-82580000D01*
X160202627Y-82586401D01*
X160202620Y-82586403D01*
X160067913Y-82636645D01*
X160067906Y-82636649D01*
X159952812Y-82722809D01*
X159952809Y-82722812D01*
X159866649Y-82837906D01*
X159866645Y-82837913D01*
X159816403Y-82972620D01*
X159816401Y-82972627D01*
X159810000Y-83032155D01*
X158946123Y-83032155D01*
X158939999Y-82972203D01*
X158939998Y-82972200D01*
X158926440Y-82931284D01*
X158884814Y-82805666D01*
X158792712Y-82656344D01*
X158724049Y-82587681D01*
X158690564Y-82526358D01*
X158695548Y-82456666D01*
X158724049Y-82412319D01*
X158792712Y-82343656D01*
X158884814Y-82194334D01*
X158939999Y-82027797D01*
X158950500Y-81925009D01*
X158950499Y-81899230D01*
X158953881Y-81887712D01*
X158952740Y-81875760D01*
X158963541Y-81854809D01*
X158970181Y-81832193D01*
X158980055Y-81822777D01*
X158984757Y-81813658D01*
X159012492Y-81791846D01*
X159031904Y-81780639D01*
X159118716Y-81730520D01*
X159230520Y-81618716D01*
X159230520Y-81618714D01*
X159240728Y-81608507D01*
X159240729Y-81608504D01*
X160390520Y-80458716D01*
X160469577Y-80321784D01*
X160510501Y-80169057D01*
X160510501Y-80144499D01*
X160530186Y-80077460D01*
X160582990Y-80031705D01*
X160634501Y-80020499D01*
X161357871Y-80020499D01*
X161357872Y-80020499D01*
X161417483Y-80014091D01*
X161552331Y-79963796D01*
X161667546Y-79877546D01*
X161717213Y-79811198D01*
X161773145Y-79769328D01*
X161842837Y-79764344D01*
X161904160Y-79797829D01*
X161928572Y-79832490D01*
X161945089Y-79867411D01*
X161945111Y-79867454D01*
X162025996Y-80018781D01*
X162026001Y-80018789D01*
X162027026Y-80020499D01*
X162076725Y-80103417D01*
X162090230Y-80123629D01*
X162149015Y-80202893D01*
X162257883Y-80335549D01*
X162324149Y-80408662D01*
X162341337Y-80425850D01*
X162414450Y-80492116D01*
X162547106Y-80600984D01*
X162626370Y-80659769D01*
X162646582Y-80673274D01*
X162731209Y-80723997D01*
X162731217Y-80724002D01*
X162781659Y-80750963D01*
X162882554Y-80804893D01*
X162882584Y-80804907D01*
X162971713Y-80847064D01*
X162971732Y-80847072D01*
X162994184Y-80856373D01*
X162994189Y-80856374D01*
X162994192Y-80856376D01*
X163087122Y-80889628D01*
X163251345Y-80939444D01*
X163347071Y-80963422D01*
X163347089Y-80963425D01*
X163347105Y-80963429D01*
X163351650Y-80964332D01*
X163370912Y-80968164D01*
X163468506Y-80982640D01*
X163645380Y-81000061D01*
X163694609Y-81003692D01*
X163706763Y-81004289D01*
X163756093Y-81005500D01*
X163756108Y-81005500D01*
X169737933Y-81005500D01*
X169737941Y-81005500D01*
X169780042Y-81004618D01*
X169786241Y-81004358D01*
X169790428Y-81004183D01*
X169832462Y-81001538D01*
X169832467Y-81001537D01*
X169832492Y-81001536D01*
X169983768Y-80988828D01*
X170067374Y-80978261D01*
X170087843Y-80974797D01*
X170170217Y-80957279D01*
X170312186Y-80920813D01*
X170392804Y-80896465D01*
X170412408Y-80889636D01*
X170490755Y-80858604D01*
X170629428Y-80796837D01*
X170667545Y-80778894D01*
X170676850Y-80774273D01*
X170714186Y-80754745D01*
X171024090Y-80584298D01*
X179999500Y-80584298D01*
X179999500Y-83415701D01*
X180002401Y-83452567D01*
X180002402Y-83452573D01*
X180048254Y-83610393D01*
X180048255Y-83610396D01*
X180131917Y-83751862D01*
X180131923Y-83751870D01*
X180248129Y-83868076D01*
X180248133Y-83868079D01*
X180248135Y-83868081D01*
X180389602Y-83951744D01*
X180431224Y-83963836D01*
X180547426Y-83997597D01*
X180547429Y-83997597D01*
X180547431Y-83997598D01*
X180584306Y-84000500D01*
X180584314Y-84000500D01*
X183415686Y-84000500D01*
X183415694Y-84000500D01*
X183452569Y-83997598D01*
X183452571Y-83997597D01*
X183452573Y-83997597D01*
X183513141Y-83980000D01*
X183610398Y-83951744D01*
X183751865Y-83868081D01*
X183868081Y-83751865D01*
X183951744Y-83610398D01*
X183989468Y-83480554D01*
X183997597Y-83452573D01*
X183997598Y-83452567D01*
X184000500Y-83415694D01*
X184000500Y-80584306D01*
X183997598Y-80547431D01*
X183991345Y-80525909D01*
X183951745Y-80389606D01*
X183951744Y-80389603D01*
X183951744Y-80389602D01*
X183868081Y-80248135D01*
X183868079Y-80248133D01*
X183868076Y-80248129D01*
X183751870Y-80131923D01*
X183751862Y-80131917D01*
X183610396Y-80048255D01*
X183610393Y-80048254D01*
X183452573Y-80002402D01*
X183452567Y-80002401D01*
X183415701Y-79999500D01*
X183415694Y-79999500D01*
X180584306Y-79999500D01*
X180584298Y-79999500D01*
X180547432Y-80002401D01*
X180547426Y-80002402D01*
X180389606Y-80048254D01*
X180389603Y-80048255D01*
X180248137Y-80131917D01*
X180248129Y-80131923D01*
X180131923Y-80248129D01*
X180131917Y-80248137D01*
X180048255Y-80389603D01*
X180048254Y-80389606D01*
X180002402Y-80547426D01*
X180002401Y-80547432D01*
X179999500Y-80584298D01*
X171024090Y-80584298D01*
X179815744Y-75748887D01*
X179883969Y-75733829D01*
X179949508Y-75758046D01*
X179991549Y-75813852D01*
X179999500Y-75857539D01*
X179999500Y-78415701D01*
X180002401Y-78452567D01*
X180002402Y-78452573D01*
X180048254Y-78610393D01*
X180048255Y-78610396D01*
X180131917Y-78751862D01*
X180131923Y-78751870D01*
X180248129Y-78868076D01*
X180248133Y-78868079D01*
X180248135Y-78868081D01*
X180389602Y-78951744D01*
X180431224Y-78963836D01*
X180547426Y-78997597D01*
X180547429Y-78997597D01*
X180547431Y-78997598D01*
X180584306Y-79000500D01*
X180584314Y-79000500D01*
X183415686Y-79000500D01*
X183415694Y-79000500D01*
X183452569Y-78997598D01*
X183452571Y-78997597D01*
X183452573Y-78997597D01*
X183494191Y-78985505D01*
X183610398Y-78951744D01*
X183751865Y-78868081D01*
X183868081Y-78751865D01*
X183951744Y-78610398D01*
X183997598Y-78452569D01*
X184000500Y-78415694D01*
X184000500Y-75584306D01*
X183997598Y-75547431D01*
X183991673Y-75527036D01*
X183951748Y-75389613D01*
X183951745Y-75389607D01*
X183951744Y-75389602D01*
X183951741Y-75389597D01*
X183951485Y-75389006D01*
X183951421Y-75388488D01*
X183949568Y-75382110D01*
X183950596Y-75381811D01*
X183942919Y-75319663D01*
X183973203Y-75256697D01*
X184006829Y-75230390D01*
X184018787Y-75223999D01*
X184103417Y-75173274D01*
X184123629Y-75159769D01*
X184202893Y-75100984D01*
X184296836Y-75023886D01*
X184361145Y-74996574D01*
X184430012Y-75008365D01*
G37*
%TD.AperFunction*%
%TA.AperFunction,Conductor*%
G36*
X163882539Y-100870185D02*
G01*
X163928294Y-100922989D01*
X163939500Y-100974500D01*
X163939500Y-101408164D01*
X163919815Y-101475203D01*
X163871796Y-101518648D01*
X163805976Y-101552185D01*
X163627641Y-101681752D01*
X163627636Y-101681756D01*
X163471756Y-101837636D01*
X163471752Y-101837641D01*
X163342187Y-102015974D01*
X163242104Y-102212393D01*
X163242103Y-102212396D01*
X163173985Y-102422047D01*
X163139500Y-102639778D01*
X163139500Y-102860221D01*
X163173985Y-103077952D01*
X163242103Y-103287603D01*
X163242104Y-103287606D01*
X163308649Y-103418204D01*
X163329636Y-103459394D01*
X163342187Y-103484025D01*
X163471752Y-103662358D01*
X163471756Y-103662363D01*
X163627636Y-103818243D01*
X163627641Y-103818247D01*
X163774825Y-103925182D01*
X163817491Y-103980511D01*
X163823470Y-104050125D01*
X163790865Y-104111920D01*
X163730026Y-104146277D01*
X163701940Y-104149500D01*
X160298060Y-104149500D01*
X160231021Y-104129815D01*
X160185266Y-104077011D01*
X160175322Y-104007853D01*
X160204347Y-103944297D01*
X160225175Y-103925182D01*
X160372358Y-103818247D01*
X160372356Y-103818247D01*
X160372365Y-103818242D01*
X160528242Y-103662365D01*
X160657815Y-103484022D01*
X160757895Y-103287606D01*
X160826015Y-103077951D01*
X160860500Y-102860222D01*
X160860500Y-102639778D01*
X160826015Y-102422049D01*
X160757895Y-102212394D01*
X160757895Y-102212393D01*
X160691351Y-102081796D01*
X160657815Y-102015978D01*
X160625095Y-101970943D01*
X160528247Y-101837641D01*
X160528243Y-101837636D01*
X160372363Y-101681756D01*
X160372358Y-101681752D01*
X160194025Y-101552187D01*
X160194024Y-101552186D01*
X160194022Y-101552185D01*
X160128203Y-101518648D01*
X159997606Y-101452104D01*
X159997603Y-101452103D01*
X159921237Y-101427291D01*
X159863562Y-101387854D01*
X159836363Y-101323495D01*
X159848278Y-101254649D01*
X159854005Y-101244282D01*
X159884814Y-101194334D01*
X159939999Y-101027797D01*
X159945444Y-100974500D01*
X159946732Y-100961897D01*
X159973129Y-100897205D01*
X160030310Y-100857054D01*
X160070090Y-100850500D01*
X163815500Y-100850500D01*
X163882539Y-100870185D01*
G37*
%TD.AperFunction*%
%TA.AperFunction,Conductor*%
G36*
X165066942Y-98520185D02*
G01*
X165087584Y-98536819D01*
X166363181Y-99812416D01*
X166396666Y-99873739D01*
X166399500Y-99900097D01*
X166399500Y-102949903D01*
X166379815Y-103016942D01*
X166363181Y-103037584D01*
X166070626Y-103330138D01*
X166009303Y-103363623D01*
X165939611Y-103358639D01*
X165883678Y-103316767D01*
X165859261Y-103251303D01*
X165865013Y-103204142D01*
X165906015Y-103077951D01*
X165940500Y-102860222D01*
X165940500Y-102639778D01*
X165906015Y-102422049D01*
X165837895Y-102212394D01*
X165837895Y-102212393D01*
X165771351Y-102081796D01*
X165737815Y-102015978D01*
X165705095Y-101970943D01*
X165608247Y-101837641D01*
X165608243Y-101837636D01*
X165452363Y-101681756D01*
X165452358Y-101681752D01*
X165274023Y-101552185D01*
X165208204Y-101518648D01*
X165157409Y-101470674D01*
X165140500Y-101408164D01*
X165140500Y-100629059D01*
X165140501Y-100629046D01*
X165140501Y-100460945D01*
X165140501Y-100460943D01*
X165099577Y-100308215D01*
X165070639Y-100258095D01*
X165020520Y-100171284D01*
X164908716Y-100059480D01*
X164908715Y-100059479D01*
X164904385Y-100055149D01*
X164904374Y-100055139D01*
X164737590Y-99888355D01*
X164737588Y-99888352D01*
X164618717Y-99769481D01*
X164618716Y-99769480D01*
X164531904Y-99719360D01*
X164531904Y-99719359D01*
X164531900Y-99719358D01*
X164481785Y-99690423D01*
X164329057Y-99649499D01*
X164170943Y-99649499D01*
X164163347Y-99649499D01*
X164163331Y-99649500D01*
X160070089Y-99649500D01*
X160039270Y-99640450D01*
X160008056Y-99632868D01*
X160005961Y-99630669D01*
X160003050Y-99629815D01*
X159982021Y-99605547D01*
X159959856Y-99582286D01*
X159958807Y-99578756D01*
X159957295Y-99577011D01*
X159948323Y-99548929D01*
X159947286Y-99543540D01*
X159939999Y-99472203D01*
X159924643Y-99425863D01*
X159923120Y-99417945D01*
X159925713Y-99390874D01*
X159924778Y-99363694D01*
X159928996Y-99356605D01*
X159929783Y-99348394D01*
X159946600Y-99327022D01*
X159960508Y-99303651D01*
X159967889Y-99299968D01*
X159972990Y-99293486D01*
X159998693Y-99284598D01*
X160023028Y-99272458D01*
X160035129Y-99272001D01*
X160039024Y-99270655D01*
X160043298Y-99271693D01*
X160057489Y-99271158D01*
X160061278Y-99271545D01*
X160099991Y-99275500D01*
X161000008Y-99275499D01*
X161000016Y-99275498D01*
X161000019Y-99275498D01*
X161056302Y-99269748D01*
X161102797Y-99264999D01*
X161269334Y-99209814D01*
X161418656Y-99117712D01*
X161542712Y-98993656D01*
X161634814Y-98844334D01*
X161689999Y-98677797D01*
X161692812Y-98650265D01*
X161696732Y-98611897D01*
X161723129Y-98547205D01*
X161780310Y-98507054D01*
X161820090Y-98500500D01*
X164999903Y-98500500D01*
X165066942Y-98520185D01*
G37*
%TD.AperFunction*%
%TA.AperFunction,Conductor*%
G36*
X159281516Y-94120185D02*
G01*
X159327271Y-94172989D01*
X159337215Y-94242147D01*
X159308190Y-94305703D01*
X159302158Y-94312181D01*
X159207684Y-94406654D01*
X159115643Y-94555875D01*
X159115641Y-94555880D01*
X159060494Y-94722302D01*
X159060493Y-94722309D01*
X159050000Y-94825013D01*
X159050000Y-95250000D01*
X161349403Y-95250000D01*
X161416442Y-95269685D01*
X161437084Y-95286319D01*
X162019478Y-95868713D01*
X162019480Y-95868716D01*
X162113182Y-95962418D01*
X162146666Y-96023739D01*
X162149500Y-96050097D01*
X162149500Y-96175000D01*
X162149501Y-96175019D01*
X162160000Y-96277796D01*
X162160001Y-96277799D01*
X162195695Y-96385515D01*
X162215186Y-96444334D01*
X162307288Y-96593656D01*
X162431344Y-96717712D01*
X162580666Y-96809814D01*
X162747203Y-96864999D01*
X162849991Y-96875500D01*
X163750008Y-96875499D01*
X163750016Y-96875498D01*
X163750019Y-96875498D01*
X163806302Y-96869748D01*
X163852797Y-96864999D01*
X164019334Y-96809814D01*
X164168656Y-96717712D01*
X164292712Y-96593656D01*
X164384814Y-96444334D01*
X164439999Y-96277797D01*
X164442431Y-96253989D01*
X164446732Y-96211897D01*
X164473129Y-96147205D01*
X164530310Y-96107054D01*
X164570090Y-96100500D01*
X164999903Y-96100500D01*
X165066942Y-96120185D01*
X165087584Y-96136819D01*
X166863181Y-97912416D01*
X166896666Y-97973739D01*
X166899500Y-98000097D01*
X166899500Y-98350903D01*
X166879815Y-98417942D01*
X166827011Y-98463697D01*
X166757853Y-98473641D01*
X166694297Y-98444616D01*
X166687819Y-98438584D01*
X165787590Y-97538355D01*
X165787588Y-97538352D01*
X165668717Y-97419481D01*
X165668716Y-97419480D01*
X165581904Y-97369360D01*
X165581904Y-97369359D01*
X165581900Y-97369358D01*
X165531785Y-97340423D01*
X165379057Y-97299499D01*
X165220943Y-97299499D01*
X165213347Y-97299499D01*
X165213331Y-97299500D01*
X161820089Y-97299500D01*
X161753050Y-97279815D01*
X161707295Y-97227011D01*
X161696731Y-97188102D01*
X161694839Y-97169591D01*
X161689999Y-97122203D01*
X161634814Y-96955666D01*
X161542712Y-96806344D01*
X161418656Y-96682288D01*
X161418655Y-96682287D01*
X161320493Y-96621741D01*
X161273768Y-96569793D01*
X161262545Y-96500831D01*
X161280054Y-96451100D01*
X161284356Y-96444125D01*
X161339505Y-96277697D01*
X161339506Y-96277690D01*
X161349999Y-96174986D01*
X161350000Y-96174973D01*
X161350000Y-95750000D01*
X159050000Y-95750000D01*
X159050000Y-95834304D01*
X159030315Y-95901343D01*
X158977511Y-95947098D01*
X158908352Y-95957041D01*
X158844797Y-95928015D01*
X158838319Y-95921984D01*
X157228516Y-94312181D01*
X157195031Y-94250858D01*
X157200015Y-94181166D01*
X157241887Y-94125233D01*
X157307351Y-94100816D01*
X157316197Y-94100500D01*
X159214477Y-94100500D01*
X159281516Y-94120185D01*
G37*
%TD.AperFunction*%
%TA.AperFunction,Conductor*%
G36*
X161450333Y-92104819D02*
G01*
X161465654Y-92104191D01*
X161483178Y-92114463D01*
X161502663Y-92120185D01*
X161512701Y-92131769D01*
X161525931Y-92139525D01*
X161535120Y-92157642D01*
X161548418Y-92172989D01*
X161551071Y-92189092D01*
X161557536Y-92201838D01*
X161558982Y-92237101D01*
X161558982Y-92237103D01*
X161550000Y-92325013D01*
X161550000Y-92750000D01*
X163849999Y-92750000D01*
X163849999Y-92325028D01*
X163849998Y-92325010D01*
X163841018Y-92237101D01*
X163843820Y-92222028D01*
X163841638Y-92206853D01*
X163850075Y-92188376D01*
X163853788Y-92168408D01*
X163864294Y-92157242D01*
X163870663Y-92143297D01*
X163887750Y-92132315D01*
X163901669Y-92117524D01*
X163917421Y-92113247D01*
X163929441Y-92105523D01*
X163964376Y-92100500D01*
X163999903Y-92100500D01*
X164066942Y-92120185D01*
X164087584Y-92136819D01*
X164613181Y-92662416D01*
X164646666Y-92723739D01*
X164649500Y-92750097D01*
X164649500Y-93675001D01*
X164649501Y-93675019D01*
X164660000Y-93777796D01*
X164660001Y-93777799D01*
X164715185Y-93944331D01*
X164715187Y-93944336D01*
X164741317Y-93986700D01*
X164807288Y-94093656D01*
X164931344Y-94217712D01*
X165080666Y-94309814D01*
X165247203Y-94364999D01*
X165349991Y-94375500D01*
X166250008Y-94375499D01*
X166260576Y-94374419D01*
X166329268Y-94387187D01*
X166360861Y-94410096D01*
X167363181Y-95412416D01*
X167396666Y-95473739D01*
X167399500Y-95500097D01*
X167399500Y-96450903D01*
X167379815Y-96517942D01*
X167327011Y-96563697D01*
X167257853Y-96573641D01*
X167194297Y-96544616D01*
X167187819Y-96538584D01*
X165787590Y-95138355D01*
X165787588Y-95138352D01*
X165668717Y-95019481D01*
X165668709Y-95019475D01*
X165579923Y-94968215D01*
X165579922Y-94968215D01*
X165531785Y-94940423D01*
X165379057Y-94899499D01*
X165220943Y-94899499D01*
X165213347Y-94899499D01*
X165213331Y-94899500D01*
X164570089Y-94899500D01*
X164503050Y-94879815D01*
X164457295Y-94827011D01*
X164446731Y-94788102D01*
X164444567Y-94766924D01*
X164439999Y-94722203D01*
X164384814Y-94555666D01*
X164292712Y-94406344D01*
X164168656Y-94282288D01*
X164063958Y-94217710D01*
X164019336Y-94190187D01*
X164019331Y-94190185D01*
X163847079Y-94133106D01*
X163789634Y-94093333D01*
X163762811Y-94028817D01*
X163775126Y-93960041D01*
X163780548Y-93950297D01*
X163784356Y-93944122D01*
X163784358Y-93944119D01*
X163839505Y-93777697D01*
X163839506Y-93777690D01*
X163849999Y-93674986D01*
X163850000Y-93674973D01*
X163850000Y-93250000D01*
X161550001Y-93250000D01*
X161550001Y-93401404D01*
X161530316Y-93468443D01*
X161477512Y-93514198D01*
X161408354Y-93524142D01*
X161344798Y-93495117D01*
X161338320Y-93489085D01*
X160987590Y-93138355D01*
X160987588Y-93138352D01*
X160868717Y-93019481D01*
X160868709Y-93019475D01*
X160759281Y-92956297D01*
X160759281Y-92956298D01*
X160731783Y-92940422D01*
X160684519Y-92927758D01*
X160624858Y-92891392D01*
X160594330Y-92828545D01*
X160602625Y-92759170D01*
X160628929Y-92720305D01*
X161212416Y-92136819D01*
X161273739Y-92103334D01*
X161300097Y-92100500D01*
X161435624Y-92100500D01*
X161450333Y-92104819D01*
G37*
%TD.AperFunction*%
%TA.AperFunction,Conductor*%
G36*
X142626420Y-93296705D02*
G01*
X142640318Y-93312745D01*
X142741752Y-93452358D01*
X142741756Y-93452363D01*
X142827212Y-93537819D01*
X142860697Y-93599142D01*
X142855713Y-93668834D01*
X142813841Y-93724767D01*
X142748377Y-93749184D01*
X142739531Y-93749500D01*
X142340469Y-93749500D01*
X142273430Y-93729815D01*
X142227675Y-93677011D01*
X142217731Y-93607853D01*
X142246756Y-93544297D01*
X142252788Y-93537819D01*
X142295490Y-93495117D01*
X142338242Y-93452365D01*
X142375267Y-93401404D01*
X142439682Y-93312745D01*
X142495011Y-93270079D01*
X142564625Y-93264100D01*
X142626420Y-93296705D01*
G37*
%TD.AperFunction*%
%TA.AperFunction,Conductor*%
G36*
X140036942Y-89620185D02*
G01*
X140057584Y-89636819D01*
X141348584Y-90927819D01*
X141382069Y-90989142D01*
X141377085Y-91058834D01*
X141335213Y-91114767D01*
X141269749Y-91139184D01*
X141260903Y-91139500D01*
X141159778Y-91139500D01*
X141116232Y-91146397D01*
X140942045Y-91173985D01*
X140871794Y-91196811D01*
X140801953Y-91198806D01*
X140745796Y-91166561D01*
X139391416Y-89812181D01*
X139357931Y-89750858D01*
X139362915Y-89681166D01*
X139404787Y-89625233D01*
X139470251Y-89600816D01*
X139479097Y-89600500D01*
X139969903Y-89600500D01*
X140036942Y-89620185D01*
G37*
%TD.AperFunction*%
%TA.AperFunction,Conductor*%
G36*
X127305703Y-84976095D02*
G01*
X127312181Y-84982127D01*
X129835325Y-87505272D01*
X129835328Y-87505275D01*
X129916599Y-87559578D01*
X129916598Y-87559578D01*
X129935375Y-87572123D01*
X129941873Y-87576465D01*
X130060256Y-87625501D01*
X130060260Y-87625501D01*
X130060261Y-87625502D01*
X130185928Y-87650500D01*
X130185931Y-87650500D01*
X140879192Y-87650500D01*
X140946231Y-87670185D01*
X140966873Y-87686819D01*
X144243669Y-90963615D01*
X144277154Y-91024938D01*
X144272170Y-91094630D01*
X144230298Y-91150563D01*
X144164834Y-91174980D01*
X144136590Y-91173769D01*
X143977677Y-91148600D01*
X143920222Y-91139500D01*
X143699778Y-91139500D01*
X143656232Y-91146397D01*
X143482045Y-91173985D01*
X143411794Y-91196811D01*
X143341953Y-91198806D01*
X143285796Y-91166561D01*
X140757590Y-88638355D01*
X140757588Y-88638352D01*
X140638717Y-88519481D01*
X140638709Y-88519475D01*
X140522823Y-88452569D01*
X140522822Y-88452568D01*
X140508035Y-88444031D01*
X140501785Y-88440423D01*
X140349057Y-88399499D01*
X140190943Y-88399499D01*
X140183347Y-88399499D01*
X140183331Y-88399500D01*
X129300097Y-88399500D01*
X129233058Y-88379815D01*
X129212416Y-88363181D01*
X127136819Y-86287584D01*
X127103334Y-86226261D01*
X127100500Y-86199903D01*
X127100500Y-85069808D01*
X127120185Y-85002769D01*
X127172989Y-84957014D01*
X127242147Y-84947070D01*
X127305703Y-84976095D01*
G37*
%TD.AperFunction*%
%TA.AperFunction,Conductor*%
G36*
X144986944Y-65905294D02*
G01*
X145000381Y-65904334D01*
X145019816Y-65914947D01*
X145041060Y-65921185D01*
X145049880Y-65931363D01*
X145061703Y-65937820D01*
X145072316Y-65957256D01*
X145086815Y-65973989D01*
X145088731Y-65987319D01*
X145095188Y-65999143D01*
X145093607Y-66021230D01*
X145096759Y-66043147D01*
X145091054Y-66056918D01*
X145090202Y-66068835D01*
X145073287Y-66099812D01*
X145041204Y-66142668D01*
X145041202Y-66142671D01*
X144990910Y-66277513D01*
X144990909Y-66277517D01*
X144984500Y-66337127D01*
X144984500Y-66337134D01*
X144984500Y-66337135D01*
X144984500Y-67042870D01*
X144984501Y-67042876D01*
X144990908Y-67102483D01*
X145041202Y-67237328D01*
X145041205Y-67237333D01*
X145051205Y-67250692D01*
X145075620Y-67316157D01*
X145060767Y-67384429D01*
X145051205Y-67399308D01*
X145041205Y-67412666D01*
X145041202Y-67412671D01*
X144990910Y-67547513D01*
X144990909Y-67547517D01*
X144984500Y-67607127D01*
X144984500Y-67607134D01*
X144984500Y-67607135D01*
X144984500Y-68312870D01*
X144984501Y-68312876D01*
X144990908Y-68372483D01*
X145041202Y-68507328D01*
X145041205Y-68507333D01*
X145051205Y-68520692D01*
X145075620Y-68586157D01*
X145060767Y-68654429D01*
X145051205Y-68669308D01*
X145041205Y-68682666D01*
X145041202Y-68682671D01*
X144990910Y-68817513D01*
X144990909Y-68817517D01*
X144984500Y-68877127D01*
X144984500Y-68877134D01*
X144984500Y-68877135D01*
X144984500Y-69582870D01*
X144984501Y-69582876D01*
X144990908Y-69642483D01*
X145041202Y-69777328D01*
X145041205Y-69777333D01*
X145051205Y-69790692D01*
X145075620Y-69856157D01*
X145060767Y-69924429D01*
X145051205Y-69939308D01*
X145041205Y-69952666D01*
X145041202Y-69952671D01*
X144990953Y-70087399D01*
X144990909Y-70087517D01*
X144984500Y-70147127D01*
X144984500Y-70147134D01*
X144984500Y-70147135D01*
X144984500Y-70852870D01*
X144984501Y-70852876D01*
X144990908Y-70912483D01*
X145041202Y-71047328D01*
X145041205Y-71047333D01*
X145051205Y-71060692D01*
X145075620Y-71126157D01*
X145060767Y-71194429D01*
X145051205Y-71209308D01*
X145041205Y-71222666D01*
X145041202Y-71222671D01*
X144993749Y-71349902D01*
X144990909Y-71357517D01*
X144984500Y-71417127D01*
X144984500Y-71417134D01*
X144984500Y-71417135D01*
X144984500Y-72122870D01*
X144984501Y-72122876D01*
X144990908Y-72182483D01*
X145041202Y-72317328D01*
X145041207Y-72317337D01*
X145047462Y-72325693D01*
X145071877Y-72391158D01*
X145057023Y-72459430D01*
X145047462Y-72474307D01*
X145041207Y-72482662D01*
X145041202Y-72482671D01*
X144994317Y-72608379D01*
X144990909Y-72617517D01*
X144984500Y-72677127D01*
X144984500Y-72677128D01*
X144984500Y-72677132D01*
X144984500Y-73382870D01*
X144984501Y-73382876D01*
X144990908Y-73442483D01*
X145041202Y-73577328D01*
X145041205Y-73577333D01*
X145051205Y-73590692D01*
X145075620Y-73656157D01*
X145060767Y-73724429D01*
X145051205Y-73739308D01*
X145041205Y-73752666D01*
X145041202Y-73752671D01*
X144990910Y-73887513D01*
X144990909Y-73887517D01*
X144984500Y-73947127D01*
X144984500Y-73947134D01*
X144984500Y-73947135D01*
X144984500Y-74652870D01*
X144984501Y-74652876D01*
X144990908Y-74712483D01*
X145041202Y-74847328D01*
X145041205Y-74847333D01*
X145051205Y-74860692D01*
X145075620Y-74926157D01*
X145060767Y-74994429D01*
X145051205Y-75009308D01*
X145041205Y-75022666D01*
X145041202Y-75022671D01*
X144990910Y-75157513D01*
X144990909Y-75157517D01*
X144984500Y-75217127D01*
X144984500Y-75217134D01*
X144984500Y-75217135D01*
X144984500Y-75922870D01*
X144984501Y-75922876D01*
X144990908Y-75982483D01*
X145041202Y-76117328D01*
X145041205Y-76117333D01*
X145051205Y-76130692D01*
X145075620Y-76196157D01*
X145060767Y-76264429D01*
X145051205Y-76279308D01*
X145041205Y-76292666D01*
X145041202Y-76292671D01*
X144990910Y-76427513D01*
X144990909Y-76427517D01*
X144984500Y-76487127D01*
X144984500Y-76487134D01*
X144984500Y-76487135D01*
X144984500Y-77192870D01*
X144984501Y-77192876D01*
X144990908Y-77252483D01*
X145041202Y-77387328D01*
X145041205Y-77387333D01*
X145051205Y-77400692D01*
X145075620Y-77466157D01*
X145060767Y-77534429D01*
X145051205Y-77549308D01*
X145041205Y-77562666D01*
X145041202Y-77562671D01*
X144990910Y-77697513D01*
X144990909Y-77697517D01*
X144984500Y-77757127D01*
X144984500Y-77757134D01*
X144984500Y-77757135D01*
X144984500Y-78462870D01*
X144984501Y-78462876D01*
X144990908Y-78522483D01*
X145041202Y-78657328D01*
X145041206Y-78657335D01*
X145127452Y-78772544D01*
X145127455Y-78772547D01*
X145242664Y-78858793D01*
X145242671Y-78858797D01*
X145377517Y-78909091D01*
X145377516Y-78909091D01*
X145384444Y-78909835D01*
X145437127Y-78915500D01*
X146275500Y-78915499D01*
X146342539Y-78935183D01*
X146388294Y-78987987D01*
X146399500Y-79039499D01*
X146399500Y-79695330D01*
X146399499Y-79695348D01*
X146399499Y-79861054D01*
X146399498Y-79861054D01*
X146405915Y-79885001D01*
X146440423Y-80013785D01*
X146440424Y-80013786D01*
X146444298Y-80020498D01*
X146444300Y-80020500D01*
X146519477Y-80150712D01*
X146519481Y-80150717D01*
X146638349Y-80269585D01*
X146638355Y-80269590D01*
X147024366Y-80655601D01*
X147057851Y-80716924D01*
X147052867Y-80786615D01*
X147005908Y-80912517D01*
X146999501Y-80972116D01*
X146999500Y-80972135D01*
X146999500Y-82267870D01*
X146999501Y-82267876D01*
X147005908Y-82327483D01*
X147056202Y-82462328D01*
X147056206Y-82462335D01*
X147142452Y-82577544D01*
X147142455Y-82577547D01*
X147257664Y-82663793D01*
X147257671Y-82663797D01*
X147267833Y-82667587D01*
X147392517Y-82714091D01*
X147452127Y-82720500D01*
X147775500Y-82720499D01*
X147842539Y-82740183D01*
X147888294Y-82792987D01*
X147899500Y-82844499D01*
X147899500Y-83413330D01*
X147899499Y-83413348D01*
X147899499Y-83579054D01*
X147899498Y-83579054D01*
X147940423Y-83731785D01*
X147952014Y-83751862D01*
X147968560Y-83780519D01*
X148019114Y-83868082D01*
X148019479Y-83868714D01*
X148019481Y-83868717D01*
X148138349Y-83987585D01*
X148138355Y-83987590D01*
X151061165Y-86910400D01*
X151094650Y-86971723D01*
X151089666Y-87041415D01*
X151076586Y-87066972D01*
X151040609Y-87120814D01*
X151040602Y-87120827D01*
X150980264Y-87266498D01*
X150980261Y-87266510D01*
X150949500Y-87421153D01*
X150949500Y-87578846D01*
X150980261Y-87733489D01*
X150982031Y-87739324D01*
X150979279Y-87740158D01*
X150985503Y-87797359D01*
X150954309Y-87859878D01*
X150894266Y-87895608D01*
X150863445Y-87899500D01*
X146300097Y-87899500D01*
X146233058Y-87879815D01*
X146212416Y-87863181D01*
X142868718Y-84519483D01*
X142868716Y-84519481D01*
X142731785Y-84440423D01*
X142731780Y-84440420D01*
X142728496Y-84439060D01*
X142726150Y-84437169D01*
X142724746Y-84436359D01*
X142724872Y-84436140D01*
X142674092Y-84395220D01*
X142652027Y-84328926D01*
X142669306Y-84261226D01*
X142720443Y-84213615D01*
X142775946Y-84200499D01*
X143187872Y-84200499D01*
X143247483Y-84194091D01*
X143382331Y-84143796D01*
X143497546Y-84057546D01*
X143583796Y-83942331D01*
X143634091Y-83807483D01*
X143640500Y-83747873D01*
X143640499Y-81652135D01*
X143979500Y-81652135D01*
X143979500Y-83747870D01*
X143979501Y-83747876D01*
X143985908Y-83807483D01*
X144036202Y-83942328D01*
X144036206Y-83942335D01*
X144122452Y-84057544D01*
X144122455Y-84057547D01*
X144237664Y-84143793D01*
X144237671Y-84143797D01*
X144372517Y-84194091D01*
X144372516Y-84194091D01*
X144379444Y-84194835D01*
X144432127Y-84200500D01*
X145727872Y-84200499D01*
X145787483Y-84194091D01*
X145922331Y-84143796D01*
X146037546Y-84057546D01*
X146123796Y-83942331D01*
X146174091Y-83807483D01*
X146180500Y-83747873D01*
X146180499Y-81652128D01*
X146174091Y-81592517D01*
X146172250Y-81587582D01*
X146123797Y-81457671D01*
X146123793Y-81457664D01*
X146037547Y-81342455D01*
X146037544Y-81342452D01*
X145922335Y-81256206D01*
X145922328Y-81256202D01*
X145787482Y-81205908D01*
X145787483Y-81205908D01*
X145727883Y-81199501D01*
X145727881Y-81199500D01*
X145727873Y-81199500D01*
X145727864Y-81199500D01*
X144432129Y-81199500D01*
X144432123Y-81199501D01*
X144372516Y-81205908D01*
X144237671Y-81256202D01*
X144237664Y-81256206D01*
X144122455Y-81342452D01*
X144122452Y-81342455D01*
X144036206Y-81457664D01*
X144036202Y-81457671D01*
X143985908Y-81592517D01*
X143983092Y-81618716D01*
X143979501Y-81652123D01*
X143979500Y-81652135D01*
X143640499Y-81652135D01*
X143640499Y-81652128D01*
X143634091Y-81592517D01*
X143632250Y-81587582D01*
X143583797Y-81457671D01*
X143583793Y-81457664D01*
X143497547Y-81342455D01*
X143497544Y-81342452D01*
X143382335Y-81256206D01*
X143382328Y-81256202D01*
X143247482Y-81205908D01*
X143247483Y-81205908D01*
X143187883Y-81199501D01*
X143187881Y-81199500D01*
X143187873Y-81199500D01*
X143187864Y-81199500D01*
X141892129Y-81199500D01*
X141892123Y-81199501D01*
X141832516Y-81205908D01*
X141697671Y-81256202D01*
X141697664Y-81256206D01*
X141582455Y-81342452D01*
X141582452Y-81342455D01*
X141496206Y-81457664D01*
X141496202Y-81457671D01*
X141445908Y-81592517D01*
X141443092Y-81618716D01*
X141439501Y-81652123D01*
X141439500Y-81652135D01*
X141439500Y-83747870D01*
X141439501Y-83747876D01*
X141445908Y-83807483D01*
X141496202Y-83942328D01*
X141496206Y-83942335D01*
X141582452Y-84057544D01*
X141582455Y-84057547D01*
X141697664Y-84143793D01*
X141697671Y-84143797D01*
X141832517Y-84194091D01*
X141832516Y-84194091D01*
X141839444Y-84194835D01*
X141892127Y-84200500D01*
X142224052Y-84200499D01*
X142227888Y-84201626D01*
X142231789Y-84200741D01*
X142261129Y-84211386D01*
X142291089Y-84220183D01*
X142293709Y-84223206D01*
X142297469Y-84224571D01*
X142316399Y-84249392D01*
X142336844Y-84272987D01*
X142337413Y-84276946D01*
X142339839Y-84280127D01*
X142342344Y-84311241D01*
X142346788Y-84342146D01*
X142345125Y-84345785D01*
X142345447Y-84349772D01*
X142330732Y-84377302D01*
X142317763Y-84405701D01*
X142313854Y-84408879D01*
X142312512Y-84411392D01*
X142302262Y-84418307D01*
X142284449Y-84432795D01*
X142273136Y-84439104D01*
X142268215Y-84440423D01*
X142195612Y-84482340D01*
X142194796Y-84482796D01*
X142183096Y-84485450D01*
X142134397Y-84498500D01*
X134800098Y-84498500D01*
X134733059Y-84478815D01*
X134712417Y-84462181D01*
X134662416Y-84412180D01*
X134628931Y-84350857D01*
X134633915Y-84281165D01*
X134675787Y-84225232D01*
X134741251Y-84200815D01*
X134750097Y-84200499D01*
X135567871Y-84200499D01*
X135567872Y-84200499D01*
X135627483Y-84194091D01*
X135762331Y-84143796D01*
X135877546Y-84057546D01*
X135963796Y-83942331D01*
X136014091Y-83807483D01*
X136020500Y-83747873D01*
X136020499Y-81652135D01*
X136359500Y-81652135D01*
X136359500Y-83747870D01*
X136359501Y-83747876D01*
X136365908Y-83807483D01*
X136416202Y-83942328D01*
X136416206Y-83942335D01*
X136502452Y-84057544D01*
X136502455Y-84057547D01*
X136617664Y-84143793D01*
X136617671Y-84143797D01*
X136752517Y-84194091D01*
X136752516Y-84194091D01*
X136759444Y-84194835D01*
X136812127Y-84200500D01*
X138107872Y-84200499D01*
X138167483Y-84194091D01*
X138302331Y-84143796D01*
X138417546Y-84057546D01*
X138503796Y-83942331D01*
X138554091Y-83807483D01*
X138560500Y-83747873D01*
X138560499Y-81652135D01*
X138899500Y-81652135D01*
X138899500Y-83747870D01*
X138899501Y-83747876D01*
X138905908Y-83807483D01*
X138956202Y-83942328D01*
X138956206Y-83942335D01*
X139042452Y-84057544D01*
X139042455Y-84057547D01*
X139157664Y-84143793D01*
X139157671Y-84143797D01*
X139292517Y-84194091D01*
X139292516Y-84194091D01*
X139299444Y-84194835D01*
X139352127Y-84200500D01*
X140647872Y-84200499D01*
X140707483Y-84194091D01*
X140842331Y-84143796D01*
X140957546Y-84057546D01*
X141043796Y-83942331D01*
X141094091Y-83807483D01*
X141100500Y-83747873D01*
X141100499Y-81652128D01*
X141094091Y-81592517D01*
X141092250Y-81587582D01*
X141043797Y-81457671D01*
X141043793Y-81457664D01*
X140957547Y-81342455D01*
X140957544Y-81342452D01*
X140842335Y-81256206D01*
X140842328Y-81256202D01*
X140707482Y-81205908D01*
X140707483Y-81205908D01*
X140647883Y-81199501D01*
X140647881Y-81199500D01*
X140647873Y-81199500D01*
X140647864Y-81199500D01*
X139352129Y-81199500D01*
X139352123Y-81199501D01*
X139292516Y-81205908D01*
X139157671Y-81256202D01*
X139157664Y-81256206D01*
X139042455Y-81342452D01*
X139042452Y-81342455D01*
X138956206Y-81457664D01*
X138956202Y-81457671D01*
X138905908Y-81592517D01*
X138903092Y-81618716D01*
X138899501Y-81652123D01*
X138899500Y-81652135D01*
X138560499Y-81652135D01*
X138560499Y-81652128D01*
X138554091Y-81592517D01*
X138552250Y-81587582D01*
X138503797Y-81457671D01*
X138503793Y-81457664D01*
X138417547Y-81342455D01*
X138417544Y-81342452D01*
X138302335Y-81256206D01*
X138302328Y-81256202D01*
X138167482Y-81205908D01*
X138167483Y-81205908D01*
X138107883Y-81199501D01*
X138107881Y-81199500D01*
X138107873Y-81199500D01*
X138107864Y-81199500D01*
X136812129Y-81199500D01*
X136812123Y-81199501D01*
X136752516Y-81205908D01*
X136617671Y-81256202D01*
X136617664Y-81256206D01*
X136502455Y-81342452D01*
X136502452Y-81342455D01*
X136416206Y-81457664D01*
X136416202Y-81457671D01*
X136365908Y-81592517D01*
X136363092Y-81618716D01*
X136359501Y-81652123D01*
X136359500Y-81652135D01*
X136020499Y-81652135D01*
X136020499Y-81652128D01*
X136014091Y-81592517D01*
X136012250Y-81587582D01*
X135963797Y-81457671D01*
X135963793Y-81457664D01*
X135877547Y-81342455D01*
X135877544Y-81342452D01*
X135762335Y-81256206D01*
X135762328Y-81256202D01*
X135627482Y-81205908D01*
X135627483Y-81205908D01*
X135567883Y-81199501D01*
X135567881Y-81199500D01*
X135567873Y-81199500D01*
X135567864Y-81199500D01*
X134272129Y-81199500D01*
X134272123Y-81199501D01*
X134237753Y-81203196D01*
X134168994Y-81190789D01*
X134117857Y-81143178D01*
X134100500Y-81079906D01*
X134100500Y-73339060D01*
X134100501Y-73339047D01*
X134100501Y-73170944D01*
X134095655Y-73152859D01*
X134059577Y-73018216D01*
X134050470Y-73002442D01*
X133980524Y-72881290D01*
X133980518Y-72881282D01*
X133593491Y-72494255D01*
X133560006Y-72432932D01*
X133564990Y-72363240D01*
X133606862Y-72307307D01*
X133656976Y-72284957D01*
X133733497Y-72269737D01*
X133879179Y-72209394D01*
X134010289Y-72121789D01*
X134121789Y-72010289D01*
X134209394Y-71879179D01*
X134269737Y-71733497D01*
X134300500Y-71578842D01*
X134300500Y-71421158D01*
X134300500Y-71421155D01*
X134300499Y-71421153D01*
X134269738Y-71266510D01*
X134269737Y-71266503D01*
X134269735Y-71266498D01*
X134209397Y-71120827D01*
X134209390Y-71120814D01*
X134121398Y-70989125D01*
X134100520Y-70922447D01*
X134100500Y-70920234D01*
X134100500Y-69589059D01*
X134100501Y-69589046D01*
X134100501Y-69420945D01*
X134100501Y-69420943D01*
X134059577Y-69268215D01*
X134019481Y-69198767D01*
X133980520Y-69131284D01*
X133868716Y-69019480D01*
X133868715Y-69019479D01*
X133864385Y-69015149D01*
X133864374Y-69015139D01*
X133407590Y-68558355D01*
X133407588Y-68558352D01*
X133288717Y-68439481D01*
X133288709Y-68439475D01*
X133182144Y-68377950D01*
X133182139Y-68377948D01*
X133172673Y-68372483D01*
X133151785Y-68360423D01*
X133082756Y-68341926D01*
X133077734Y-68340106D01*
X133053699Y-68322459D01*
X133028234Y-68306937D01*
X133025836Y-68302001D01*
X133021415Y-68298755D01*
X133010734Y-68270910D01*
X132997706Y-68244089D01*
X132996699Y-68236780D01*
X132994091Y-68212516D01*
X132943797Y-68077671D01*
X132943793Y-68077664D01*
X132857547Y-67962455D01*
X132857544Y-67962452D01*
X132742335Y-67876206D01*
X132742328Y-67876202D01*
X132607482Y-67825908D01*
X132607483Y-67825908D01*
X132547883Y-67819501D01*
X132547881Y-67819500D01*
X132547873Y-67819500D01*
X132547864Y-67819500D01*
X130452129Y-67819500D01*
X130452123Y-67819501D01*
X130392515Y-67825909D01*
X130292831Y-67863088D01*
X130262224Y-67865276D01*
X130231852Y-67869644D01*
X130227696Y-67867746D01*
X130223140Y-67868072D01*
X130196212Y-67853368D01*
X130168296Y-67840619D01*
X130165825Y-67836774D01*
X130161817Y-67834586D01*
X130147111Y-67807655D01*
X130130522Y-67781841D01*
X130129630Y-67775641D01*
X130128332Y-67773263D01*
X130125499Y-67746906D01*
X130125499Y-67553093D01*
X130145184Y-67486054D01*
X130197988Y-67440299D01*
X130267146Y-67430355D01*
X130292832Y-67436911D01*
X130392517Y-67474091D01*
X130392516Y-67474091D01*
X130399444Y-67474835D01*
X130452127Y-67480500D01*
X132547872Y-67480499D01*
X132607483Y-67474091D01*
X132742331Y-67423796D01*
X132857546Y-67337546D01*
X132943796Y-67222331D01*
X132994091Y-67087483D01*
X133000500Y-67027873D01*
X133000499Y-66025499D01*
X133020183Y-65958461D01*
X133072987Y-65912706D01*
X133124499Y-65901500D01*
X144974021Y-65901500D01*
X144986944Y-65905294D01*
G37*
%TD.AperFunction*%
%TA.AperFunction,Conductor*%
G36*
X146944795Y-60520185D02*
G01*
X146990550Y-60572989D01*
X147001045Y-60637752D01*
X146999500Y-60652127D01*
X146999500Y-60652133D01*
X146999500Y-60652134D01*
X146999500Y-61947870D01*
X146999501Y-61947876D01*
X147005908Y-62007483D01*
X147056202Y-62142328D01*
X147056206Y-62142335D01*
X147142452Y-62257544D01*
X147142455Y-62257547D01*
X147257664Y-62343793D01*
X147257671Y-62343797D01*
X147392517Y-62394091D01*
X147392516Y-62394091D01*
X147397837Y-62394663D01*
X147452127Y-62400500D01*
X149547872Y-62400499D01*
X149607483Y-62394091D01*
X149742331Y-62343796D01*
X149857546Y-62257546D01*
X149943796Y-62142331D01*
X149947960Y-62131165D01*
X149961228Y-62113441D01*
X149970428Y-62093297D01*
X149981758Y-62086015D01*
X149989829Y-62075234D01*
X150010577Y-62067495D01*
X150029206Y-62055523D01*
X150051121Y-62052371D01*
X150055293Y-62050816D01*
X150064141Y-62050500D01*
X150137770Y-62050500D01*
X150204809Y-62070185D01*
X150225451Y-62086819D01*
X151170931Y-63032298D01*
X151204416Y-63093621D01*
X151204868Y-63144168D01*
X151199500Y-63171157D01*
X151199500Y-63328846D01*
X151230261Y-63483489D01*
X151230264Y-63483501D01*
X151290602Y-63629172D01*
X151290609Y-63629185D01*
X151378210Y-63760288D01*
X151378213Y-63760292D01*
X151489707Y-63871786D01*
X151489711Y-63871789D01*
X151620814Y-63959390D01*
X151620827Y-63959397D01*
X151766498Y-64019735D01*
X151766503Y-64019737D01*
X151921153Y-64050499D01*
X151921156Y-64050500D01*
X151921158Y-64050500D01*
X152078844Y-64050500D01*
X152078845Y-64050499D01*
X152233497Y-64019737D01*
X152379179Y-63959394D01*
X152510289Y-63871789D01*
X152621789Y-63760289D01*
X152709394Y-63629179D01*
X152769737Y-63483497D01*
X152800500Y-63328842D01*
X152800500Y-63171158D01*
X152800500Y-63171157D01*
X152800500Y-63171155D01*
X152800499Y-63171153D01*
X152769739Y-63016511D01*
X152769738Y-63016508D01*
X152769737Y-63016503D01*
X152759937Y-62992844D01*
X152750500Y-62945396D01*
X152750500Y-62726079D01*
X152721659Y-62581092D01*
X152721658Y-62581091D01*
X152721658Y-62581087D01*
X152721656Y-62581082D01*
X152665087Y-62444511D01*
X152665080Y-62444498D01*
X152582952Y-62321585D01*
X152582951Y-62321584D01*
X152478416Y-62217049D01*
X152106630Y-61845263D01*
X150974109Y-60712740D01*
X150975980Y-60710868D01*
X150943106Y-60662595D01*
X150941243Y-60592751D01*
X150977436Y-60532986D01*
X151040195Y-60502276D01*
X151061109Y-60500500D01*
X157750008Y-60500500D01*
X158000000Y-75500000D01*
X161737594Y-75500000D01*
X161744500Y-75527036D01*
X161744500Y-77672339D01*
X161724815Y-77739378D01*
X161672011Y-77785133D01*
X161602853Y-77795077D01*
X161561484Y-77777944D01*
X161560114Y-77780454D01*
X161552328Y-77776202D01*
X161417482Y-77725908D01*
X161417483Y-77725908D01*
X161357883Y-77719501D01*
X161357881Y-77719500D01*
X161357873Y-77719500D01*
X161357864Y-77719500D01*
X158462129Y-77719500D01*
X158462123Y-77719501D01*
X158402516Y-77725908D01*
X158267671Y-77776202D01*
X158267664Y-77776206D01*
X158152455Y-77862452D01*
X158152452Y-77862455D01*
X158066206Y-77977664D01*
X158066202Y-77977671D01*
X158015908Y-78112517D01*
X158009501Y-78172116D01*
X158009500Y-78172135D01*
X158009500Y-79567870D01*
X158009501Y-79567876D01*
X158015909Y-79627485D01*
X158045628Y-79707168D01*
X158050612Y-79776860D01*
X158017126Y-79838182D01*
X157955802Y-79871667D01*
X157929446Y-79874500D01*
X157349998Y-79874500D01*
X157349980Y-79874501D01*
X157247203Y-79885000D01*
X157247200Y-79885001D01*
X157080668Y-79940185D01*
X157080663Y-79940187D01*
X156931342Y-80032289D01*
X156807289Y-80156342D01*
X156715187Y-80305663D01*
X156715185Y-80305668D01*
X156709843Y-80321790D01*
X156660001Y-80472203D01*
X156660001Y-80472204D01*
X156660000Y-80472204D01*
X156649500Y-80574983D01*
X156649500Y-81499901D01*
X156629815Y-81566940D01*
X156613181Y-81587582D01*
X156044154Y-82156608D01*
X155982831Y-82190093D01*
X155913139Y-82185109D01*
X155857206Y-82143237D01*
X155832789Y-82077773D01*
X155838217Y-82034338D01*
X155838089Y-82034311D01*
X155838405Y-82032834D01*
X155838770Y-82029915D01*
X155839505Y-82027696D01*
X155839506Y-82027690D01*
X155849999Y-81924986D01*
X155850000Y-81924973D01*
X155850000Y-81500000D01*
X154950000Y-81500000D01*
X154950000Y-85124999D01*
X155025500Y-85124999D01*
X155092539Y-85144684D01*
X155138294Y-85197488D01*
X155149500Y-85248999D01*
X155149500Y-86996560D01*
X155129815Y-87063599D01*
X155077011Y-87109354D01*
X155007853Y-87119298D01*
X154944297Y-87090273D01*
X154922398Y-87065451D01*
X154871789Y-86989711D01*
X154871786Y-86989707D01*
X154760292Y-86878213D01*
X154760288Y-86878210D01*
X154629185Y-86790609D01*
X154629172Y-86790602D01*
X154483501Y-86730264D01*
X154483491Y-86730261D01*
X154328151Y-86699362D01*
X154266241Y-86666977D01*
X154264662Y-86665426D01*
X153886819Y-86287583D01*
X153853334Y-86226260D01*
X153850500Y-86199902D01*
X153850500Y-85839060D01*
X153850501Y-85839047D01*
X153850501Y-85670944D01*
X153827284Y-85584298D01*
X153809577Y-85518216D01*
X153735323Y-85389603D01*
X153730524Y-85381290D01*
X153730518Y-85381282D01*
X152886819Y-84537583D01*
X152853334Y-84476260D01*
X152850500Y-84449902D01*
X152850500Y-84424986D01*
X153550001Y-84424986D01*
X153560494Y-84527697D01*
X153615641Y-84694119D01*
X153615643Y-84694124D01*
X153707684Y-84843345D01*
X153831654Y-84967315D01*
X153980875Y-85059356D01*
X153980880Y-85059358D01*
X154147302Y-85114505D01*
X154147309Y-85114506D01*
X154250019Y-85124999D01*
X154449999Y-85124999D01*
X154450000Y-85124998D01*
X154450000Y-84000000D01*
X153550001Y-84000000D01*
X153550001Y-84424986D01*
X152850500Y-84424986D01*
X152850500Y-83075013D01*
X153550000Y-83075013D01*
X153550000Y-83500000D01*
X154450000Y-83500000D01*
X154450000Y-81500000D01*
X153550001Y-81500000D01*
X153550001Y-81924986D01*
X153560494Y-82027697D01*
X153615641Y-82194119D01*
X153615643Y-82194124D01*
X153707684Y-82343345D01*
X153776658Y-82412319D01*
X153810143Y-82473642D01*
X153805159Y-82543334D01*
X153776658Y-82587681D01*
X153707684Y-82656654D01*
X153615643Y-82805875D01*
X153615641Y-82805880D01*
X153560494Y-82972302D01*
X153560493Y-82972309D01*
X153550000Y-83075013D01*
X152850500Y-83075013D01*
X152850500Y-81089059D01*
X152850501Y-81089046D01*
X152850501Y-80920945D01*
X152850501Y-80920943D01*
X152809577Y-80768215D01*
X152764708Y-80690500D01*
X152730520Y-80631284D01*
X152674249Y-80575013D01*
X153550000Y-80575013D01*
X153550000Y-81000000D01*
X154450000Y-81000000D01*
X154950000Y-81000000D01*
X155849999Y-81000000D01*
X155849999Y-80575028D01*
X155849998Y-80575013D01*
X155839505Y-80472302D01*
X155784358Y-80305880D01*
X155784356Y-80305875D01*
X155692315Y-80156654D01*
X155568345Y-80032684D01*
X155419124Y-79940643D01*
X155419119Y-79940641D01*
X155252697Y-79885494D01*
X155252690Y-79885493D01*
X155149986Y-79875000D01*
X154950000Y-79875000D01*
X154950000Y-81000000D01*
X154450000Y-81000000D01*
X154450000Y-79875000D01*
X154250029Y-79875000D01*
X154250012Y-79875001D01*
X154147302Y-79885494D01*
X153980880Y-79940641D01*
X153980875Y-79940643D01*
X153831654Y-80032684D01*
X153707684Y-80156654D01*
X153615643Y-80305875D01*
X153615641Y-80305880D01*
X153560494Y-80472302D01*
X153560493Y-80472309D01*
X153550000Y-80575013D01*
X152674249Y-80575013D01*
X152618716Y-80519480D01*
X152618715Y-80519479D01*
X152614385Y-80515149D01*
X152614374Y-80515139D01*
X150817590Y-78718355D01*
X150817588Y-78718352D01*
X150698717Y-78599481D01*
X150698716Y-78599480D01*
X150611904Y-78549360D01*
X150611904Y-78549359D01*
X150611900Y-78549358D01*
X150561785Y-78520423D01*
X150409057Y-78479499D01*
X150250943Y-78479499D01*
X150243347Y-78479499D01*
X150243331Y-78479500D01*
X150116977Y-78479500D01*
X150049938Y-78459815D01*
X150004183Y-78407011D01*
X149996733Y-78379865D01*
X149995876Y-78380068D01*
X149994092Y-78372520D01*
X149943797Y-78237671D01*
X149943793Y-78237664D01*
X149857547Y-78122455D01*
X149857544Y-78122452D01*
X149742335Y-78036206D01*
X149742328Y-78036202D01*
X149607482Y-77985908D01*
X149607483Y-77985908D01*
X149547883Y-77979501D01*
X149547881Y-77979500D01*
X149547873Y-77979500D01*
X149547865Y-77979500D01*
X148209096Y-77979500D01*
X148187850Y-77973261D01*
X148165762Y-77971682D01*
X148154978Y-77963609D01*
X148142057Y-77959815D01*
X148127557Y-77943081D01*
X148109829Y-77929810D01*
X148105121Y-77917189D01*
X148096302Y-77907011D01*
X148093150Y-77885093D01*
X148085412Y-77864346D01*
X148088274Y-77851185D01*
X148086358Y-77837853D01*
X148095557Y-77817709D01*
X148100264Y-77796073D01*
X148113532Y-77778347D01*
X148115383Y-77774297D01*
X148121415Y-77767819D01*
X148212416Y-77676818D01*
X148273739Y-77643333D01*
X148300097Y-77640499D01*
X149547871Y-77640499D01*
X149547872Y-77640499D01*
X149607483Y-77634091D01*
X149742331Y-77583796D01*
X149857546Y-77497546D01*
X149943796Y-77382331D01*
X149994091Y-77247483D01*
X150000500Y-77187873D01*
X150000499Y-75899095D01*
X150020184Y-75832057D01*
X150072987Y-75786302D01*
X150142146Y-75776358D01*
X150205702Y-75805383D01*
X150212180Y-75811415D01*
X152172944Y-77772179D01*
X152206429Y-77833502D01*
X152206881Y-77884050D01*
X152200290Y-77917189D01*
X152199500Y-77921159D01*
X152199500Y-78078846D01*
X152230261Y-78233489D01*
X152230264Y-78233501D01*
X152290602Y-78379172D01*
X152290609Y-78379185D01*
X152378210Y-78510288D01*
X152378213Y-78510292D01*
X152489707Y-78621786D01*
X152489711Y-78621789D01*
X152620814Y-78709390D01*
X152620827Y-78709397D01*
X152766498Y-78769735D01*
X152766503Y-78769737D01*
X152921153Y-78800499D01*
X152921156Y-78800500D01*
X152921158Y-78800500D01*
X153078844Y-78800500D01*
X153078845Y-78800499D01*
X153233497Y-78769737D01*
X153379179Y-78709394D01*
X153510289Y-78621789D01*
X153621789Y-78510289D01*
X153709394Y-78379179D01*
X153712154Y-78372517D01*
X153769735Y-78233501D01*
X153769737Y-78233497D01*
X153800500Y-78078842D01*
X153800500Y-77921158D01*
X153800500Y-77921155D01*
X153800499Y-77921153D01*
X153769737Y-77766503D01*
X153743752Y-77703769D01*
X153709397Y-77620827D01*
X153709390Y-77620814D01*
X153621789Y-77489711D01*
X153621786Y-77489707D01*
X153510292Y-77378213D01*
X153510288Y-77378210D01*
X153421466Y-77318861D01*
X153402677Y-77303441D01*
X153384048Y-77284812D01*
X153368716Y-77269480D01*
X153368713Y-77269478D01*
X150036818Y-73937583D01*
X150003333Y-73876260D01*
X150000499Y-73849902D01*
X150000499Y-73595134D01*
X150020184Y-73528095D01*
X150072988Y-73482340D01*
X150142146Y-73472396D01*
X150171951Y-73480573D01*
X150258683Y-73516498D01*
X150266503Y-73519737D01*
X150421153Y-73550499D01*
X150421156Y-73550500D01*
X150421158Y-73550500D01*
X150578844Y-73550500D01*
X150578845Y-73550499D01*
X150733497Y-73519737D01*
X150741317Y-73516498D01*
X150746648Y-73514290D01*
X150879172Y-73459397D01*
X150879172Y-73459396D01*
X150879179Y-73459394D01*
X151010289Y-73371789D01*
X151121789Y-73260289D01*
X151209394Y-73129179D01*
X151269737Y-72983497D01*
X151300500Y-72828842D01*
X151300500Y-72671158D01*
X151300500Y-72671155D01*
X151300499Y-72671153D01*
X151288012Y-72608379D01*
X151269737Y-72516503D01*
X151267909Y-72512089D01*
X151209397Y-72370827D01*
X151209390Y-72370814D01*
X151121789Y-72239711D01*
X151121786Y-72239707D01*
X151010292Y-72128213D01*
X151010288Y-72128210D01*
X150879185Y-72040609D01*
X150879172Y-72040602D01*
X150733501Y-71980264D01*
X150733491Y-71980261D01*
X150578149Y-71949361D01*
X150516238Y-71916976D01*
X150514660Y-71915425D01*
X150036818Y-71437583D01*
X150003333Y-71376260D01*
X150000499Y-71349902D01*
X150000499Y-70917648D01*
X150020184Y-70850609D01*
X150072988Y-70804854D01*
X150142146Y-70794910D01*
X150148684Y-70796029D01*
X150160081Y-70798296D01*
X150171157Y-70800500D01*
X150171158Y-70800500D01*
X150328844Y-70800500D01*
X150328845Y-70800499D01*
X150483497Y-70769737D01*
X150629179Y-70709394D01*
X150760289Y-70621789D01*
X150871789Y-70510289D01*
X150959394Y-70379179D01*
X151019737Y-70233497D01*
X151050500Y-70078842D01*
X151050500Y-69921158D01*
X151050500Y-69921155D01*
X151050499Y-69921153D01*
X151041825Y-69877546D01*
X151019737Y-69766503D01*
X151003672Y-69727719D01*
X150959397Y-69620827D01*
X150959390Y-69620814D01*
X150871789Y-69489711D01*
X150871786Y-69489707D01*
X150760292Y-69378213D01*
X150760288Y-69378210D01*
X150629185Y-69290609D01*
X150629172Y-69290602D01*
X150483501Y-69230264D01*
X150483489Y-69230261D01*
X150328151Y-69199362D01*
X150266240Y-69166977D01*
X150264710Y-69165475D01*
X150150253Y-69051018D01*
X150036818Y-68937582D01*
X150003333Y-68876259D01*
X150000499Y-68849901D01*
X150000499Y-68272129D01*
X150000498Y-68272123D01*
X149994091Y-68212516D01*
X149943797Y-68077671D01*
X149943793Y-68077664D01*
X149857547Y-67962455D01*
X149857544Y-67962452D01*
X149742335Y-67876206D01*
X149742328Y-67876202D01*
X149607482Y-67825908D01*
X149607483Y-67825908D01*
X149547883Y-67819501D01*
X149547881Y-67819500D01*
X149547873Y-67819500D01*
X149547864Y-67819500D01*
X147452129Y-67819500D01*
X147452123Y-67819501D01*
X147392516Y-67825908D01*
X147257671Y-67876202D01*
X147257669Y-67876203D01*
X147193810Y-67924009D01*
X147128346Y-67948426D01*
X147060073Y-67933575D01*
X147010667Y-67884170D01*
X146995499Y-67824742D01*
X146995499Y-67607129D01*
X146995498Y-67607123D01*
X146989091Y-67547516D01*
X146968612Y-67492610D01*
X146963628Y-67422919D01*
X146997113Y-67361596D01*
X147058436Y-67328111D01*
X147128128Y-67333095D01*
X147159102Y-67350009D01*
X147257665Y-67423793D01*
X147257668Y-67423795D01*
X147257671Y-67423797D01*
X147392517Y-67474091D01*
X147392516Y-67474091D01*
X147399444Y-67474835D01*
X147452127Y-67480500D01*
X149547872Y-67480499D01*
X149607483Y-67474091D01*
X149742331Y-67423796D01*
X149857546Y-67337546D01*
X149943796Y-67222331D01*
X149994091Y-67087483D01*
X150000500Y-67027873D01*
X150000499Y-65732128D01*
X149994091Y-65672517D01*
X149943796Y-65537669D01*
X149943795Y-65537668D01*
X149943793Y-65537664D01*
X149857547Y-65422455D01*
X149857544Y-65422452D01*
X149742335Y-65336206D01*
X149742328Y-65336202D01*
X149607482Y-65285908D01*
X149607483Y-65285908D01*
X149547883Y-65279501D01*
X149547881Y-65279500D01*
X149547873Y-65279500D01*
X149547865Y-65279500D01*
X148370808Y-65279500D01*
X148341367Y-65270855D01*
X148311381Y-65264332D01*
X148306365Y-65260577D01*
X148303769Y-65259815D01*
X148283127Y-65243181D01*
X148191627Y-65151681D01*
X148158142Y-65090358D01*
X148163126Y-65020666D01*
X148204998Y-64964733D01*
X148237324Y-64952675D01*
X148250000Y-64940000D01*
X148750000Y-64940000D01*
X149547828Y-64940000D01*
X149547844Y-64939999D01*
X149607372Y-64933598D01*
X149607379Y-64933596D01*
X149742086Y-64883354D01*
X149742093Y-64883350D01*
X149857187Y-64797190D01*
X149857190Y-64797187D01*
X149943350Y-64682093D01*
X149943354Y-64682086D01*
X149993596Y-64547379D01*
X149993598Y-64547372D01*
X149999999Y-64487844D01*
X150000000Y-64487827D01*
X150000000Y-64090000D01*
X148750000Y-64090000D01*
X148750000Y-64940000D01*
X148250000Y-64940000D01*
X148250000Y-64090000D01*
X147000000Y-64090000D01*
X147000000Y-64476500D01*
X146980315Y-64543539D01*
X146927511Y-64589294D01*
X146876000Y-64600500D01*
X134224500Y-64600500D01*
X134157461Y-64580815D01*
X134111706Y-64528011D01*
X134100500Y-64476500D01*
X134100500Y-63192155D01*
X147000000Y-63192155D01*
X147000000Y-63590000D01*
X148250000Y-63590000D01*
X148750000Y-63590000D01*
X150000000Y-63590000D01*
X150000000Y-63192172D01*
X149999999Y-63192155D01*
X149993598Y-63132627D01*
X149993596Y-63132620D01*
X149943354Y-62997913D01*
X149943350Y-62997906D01*
X149857190Y-62882812D01*
X149857187Y-62882809D01*
X149742093Y-62796649D01*
X149742086Y-62796645D01*
X149607379Y-62746403D01*
X149607372Y-62746401D01*
X149547844Y-62740000D01*
X148750000Y-62740000D01*
X148750000Y-63590000D01*
X148250000Y-63590000D01*
X148250000Y-62740000D01*
X147452155Y-62740000D01*
X147392627Y-62746401D01*
X147392620Y-62746403D01*
X147257913Y-62796645D01*
X147257906Y-62796649D01*
X147142812Y-62882809D01*
X147142809Y-62882812D01*
X147056649Y-62997906D01*
X147056645Y-62997913D01*
X147006403Y-63132620D01*
X147006401Y-63132627D01*
X147000000Y-63192155D01*
X134100500Y-63192155D01*
X134100500Y-61920945D01*
X134100500Y-61920943D01*
X134059577Y-61768216D01*
X134059573Y-61768209D01*
X133980524Y-61631290D01*
X133980521Y-61631286D01*
X133980520Y-61631284D01*
X133868716Y-61519480D01*
X133868715Y-61519479D01*
X133864385Y-61515149D01*
X133864374Y-61515139D01*
X133287590Y-60938355D01*
X133287588Y-60938352D01*
X133168717Y-60819481D01*
X133168716Y-60819480D01*
X133081904Y-60769360D01*
X133062494Y-60758153D01*
X133014282Y-60707586D01*
X133001618Y-60655385D01*
X133000882Y-60655424D01*
X133000854Y-60655428D01*
X133000853Y-60655426D01*
X133000676Y-60655436D01*
X133000499Y-60652134D01*
X133000499Y-60652128D01*
X132998954Y-60637752D01*
X133011361Y-60568993D01*
X133058973Y-60517857D01*
X133122244Y-60500500D01*
X146877756Y-60500500D01*
X146944795Y-60520185D01*
G37*
%TD.AperFunction*%
%TA.AperFunction,Conductor*%
G36*
X130186853Y-80070783D02*
G01*
X130257669Y-80123796D01*
X130257671Y-80123797D01*
X130392517Y-80174091D01*
X130392516Y-80174091D01*
X130399444Y-80174835D01*
X130452127Y-80180500D01*
X132547872Y-80180499D01*
X132607483Y-80174091D01*
X132670155Y-80150716D01*
X132732167Y-80127587D01*
X132762775Y-80125398D01*
X132793147Y-80121031D01*
X132797302Y-80122928D01*
X132801859Y-80122603D01*
X132828791Y-80137309D01*
X132856703Y-80150056D01*
X132859172Y-80153898D01*
X132863182Y-80156088D01*
X132877888Y-80183021D01*
X132894477Y-80208834D01*
X132895368Y-80215034D01*
X132896666Y-80217411D01*
X132899500Y-80243769D01*
X132899500Y-80456230D01*
X132879815Y-80523269D01*
X132827011Y-80569024D01*
X132757853Y-80578968D01*
X132732168Y-80572412D01*
X132607485Y-80525909D01*
X132607483Y-80525908D01*
X132547883Y-80519501D01*
X132547881Y-80519500D01*
X132547873Y-80519500D01*
X132547864Y-80519500D01*
X130452129Y-80519500D01*
X130452123Y-80519501D01*
X130392516Y-80525908D01*
X130257671Y-80576202D01*
X130257664Y-80576206D01*
X130142455Y-80662452D01*
X130142452Y-80662455D01*
X130056206Y-80777664D01*
X130056202Y-80777671D01*
X130005908Y-80912517D01*
X129999501Y-80972116D01*
X129999500Y-80972135D01*
X129999500Y-82267870D01*
X129999501Y-82267876D01*
X130005908Y-82327483D01*
X130056202Y-82462328D01*
X130056206Y-82462335D01*
X130142452Y-82577544D01*
X130142455Y-82577547D01*
X130257664Y-82663793D01*
X130257671Y-82663797D01*
X130392517Y-82714091D01*
X130392516Y-82714091D01*
X130399444Y-82714835D01*
X130452127Y-82720500D01*
X132547872Y-82720499D01*
X132607483Y-82714091D01*
X132732167Y-82667587D01*
X132801859Y-82662603D01*
X132863182Y-82696088D01*
X132896666Y-82757411D01*
X132899500Y-82783769D01*
X132899500Y-84012330D01*
X132899499Y-84012348D01*
X132899499Y-84178054D01*
X132899498Y-84178054D01*
X132912140Y-84225232D01*
X132940423Y-84330785D01*
X132941736Y-84333059D01*
X132941741Y-84333078D01*
X132941746Y-84333076D01*
X133019477Y-84467712D01*
X133019481Y-84467717D01*
X133138349Y-84586585D01*
X133138355Y-84586590D01*
X133239584Y-84687819D01*
X133273069Y-84749142D01*
X133268085Y-84818834D01*
X133226213Y-84874767D01*
X133160749Y-84899184D01*
X133151903Y-84899500D01*
X132050098Y-84899500D01*
X131983059Y-84879815D01*
X131962417Y-84863181D01*
X129386819Y-82287583D01*
X129353334Y-82226260D01*
X129350500Y-82199902D01*
X129350500Y-80570088D01*
X129370185Y-80503049D01*
X129422989Y-80457294D01*
X129461897Y-80446730D01*
X129527797Y-80439999D01*
X129694334Y-80384814D01*
X129843656Y-80292712D01*
X129967712Y-80168656D01*
X130007004Y-80104953D01*
X130058950Y-80058229D01*
X130127913Y-80047006D01*
X130186853Y-80070783D01*
G37*
%TD.AperFunction*%
%TA.AperFunction,Conductor*%
G36*
X151305704Y-80905385D02*
G01*
X151312182Y-80911417D01*
X151613181Y-81212416D01*
X151646666Y-81273739D01*
X151649500Y-81300097D01*
X151649500Y-84670939D01*
X151649499Y-84670943D01*
X151649499Y-84737187D01*
X151649499Y-84750903D01*
X151629814Y-84817943D01*
X151577009Y-84863697D01*
X151517795Y-84872210D01*
X151507852Y-84873640D01*
X151507851Y-84873639D01*
X151507851Y-84873640D01*
X151478826Y-84860384D01*
X151444296Y-84844615D01*
X151437818Y-84838583D01*
X151136819Y-84537584D01*
X151103334Y-84476261D01*
X151100500Y-84449903D01*
X151100500Y-81089060D01*
X151100501Y-81089047D01*
X151100501Y-80999098D01*
X151120186Y-80932059D01*
X151172990Y-80886304D01*
X151242148Y-80876360D01*
X151305704Y-80905385D01*
G37*
%TD.AperFunction*%
%TA.AperFunction,Conductor*%
G36*
X149863182Y-82696088D02*
G01*
X149896666Y-82757411D01*
X149899500Y-82783769D01*
X149899500Y-83750903D01*
X149879815Y-83817942D01*
X149827011Y-83863697D01*
X149757853Y-83873641D01*
X149694297Y-83844616D01*
X149687819Y-83838584D01*
X149136819Y-83287584D01*
X149103334Y-83226261D01*
X149100500Y-83199903D01*
X149100500Y-82844499D01*
X149120185Y-82777460D01*
X149172989Y-82731705D01*
X149224500Y-82720499D01*
X149547871Y-82720499D01*
X149547872Y-82720499D01*
X149607483Y-82714091D01*
X149732167Y-82667587D01*
X149801859Y-82662603D01*
X149863182Y-82696088D01*
G37*
%TD.AperFunction*%
%TA.AperFunction,Conductor*%
G36*
X129964498Y-77203343D02*
G01*
X130009268Y-77256985D01*
X130011721Y-77263067D01*
X130056202Y-77382328D01*
X130056206Y-77382335D01*
X130142452Y-77497544D01*
X130142455Y-77497547D01*
X130257664Y-77583793D01*
X130257671Y-77583797D01*
X130392517Y-77634091D01*
X130392516Y-77634091D01*
X130399444Y-77634835D01*
X130452127Y-77640500D01*
X132547872Y-77640499D01*
X132607483Y-77634091D01*
X132732167Y-77587587D01*
X132762775Y-77585398D01*
X132793147Y-77581031D01*
X132797302Y-77582928D01*
X132801859Y-77582603D01*
X132828791Y-77597309D01*
X132856703Y-77610056D01*
X132859172Y-77613898D01*
X132863182Y-77616088D01*
X132877888Y-77643021D01*
X132894477Y-77668834D01*
X132895368Y-77675034D01*
X132896666Y-77677411D01*
X132899500Y-77703769D01*
X132899500Y-77916230D01*
X132879815Y-77983269D01*
X132827011Y-78029024D01*
X132757853Y-78038968D01*
X132732168Y-78032412D01*
X132607485Y-77985909D01*
X132607483Y-77985908D01*
X132547883Y-77979501D01*
X132547881Y-77979500D01*
X132547873Y-77979500D01*
X132547864Y-77979500D01*
X130452129Y-77979500D01*
X130452123Y-77979501D01*
X130392516Y-77985908D01*
X130257671Y-78036202D01*
X130257664Y-78036206D01*
X130142455Y-78122452D01*
X130142452Y-78122455D01*
X130056206Y-78237664D01*
X130056201Y-78237673D01*
X130046978Y-78262402D01*
X130005107Y-78318335D01*
X129939642Y-78342751D01*
X129871369Y-78327899D01*
X129849504Y-78311530D01*
X129849319Y-78311766D01*
X129843658Y-78307290D01*
X129843656Y-78307288D01*
X129694334Y-78215186D01*
X129527797Y-78160001D01*
X129527795Y-78160000D01*
X129425010Y-78149500D01*
X128074998Y-78149500D01*
X128074981Y-78149501D01*
X127972203Y-78160000D01*
X127972200Y-78160001D01*
X127846489Y-78201658D01*
X127813503Y-78212589D01*
X127743676Y-78214991D01*
X127683634Y-78179259D01*
X127652441Y-78116739D01*
X127650500Y-78094883D01*
X127650500Y-77405116D01*
X127670185Y-77338077D01*
X127722989Y-77292322D01*
X127792147Y-77282378D01*
X127813488Y-77287406D01*
X127972203Y-77339999D01*
X128074991Y-77350500D01*
X129425008Y-77350499D01*
X129527797Y-77339999D01*
X129694334Y-77284814D01*
X129830446Y-77200859D01*
X129897834Y-77182421D01*
X129964498Y-77203343D01*
G37*
%TD.AperFunction*%
%TA.AperFunction,Conductor*%
G36*
X147133304Y-74956970D02*
G01*
X147159045Y-74971026D01*
X147164277Y-74973883D01*
X147256212Y-75042705D01*
X147257668Y-75043795D01*
X147257671Y-75043797D01*
X147392517Y-75094091D01*
X147392516Y-75094091D01*
X147399444Y-75094835D01*
X147452127Y-75100500D01*
X149449902Y-75100499D01*
X149479342Y-75109143D01*
X149509329Y-75115667D01*
X149514344Y-75119421D01*
X149516941Y-75120184D01*
X149537583Y-75136818D01*
X149628584Y-75227819D01*
X149662069Y-75289142D01*
X149657085Y-75358834D01*
X149615213Y-75414767D01*
X149549749Y-75439184D01*
X149540903Y-75439500D01*
X147452129Y-75439500D01*
X147452123Y-75439501D01*
X147392516Y-75445908D01*
X147257671Y-75496202D01*
X147257669Y-75496203D01*
X147193810Y-75544009D01*
X147128346Y-75568426D01*
X147060073Y-75553575D01*
X147010667Y-75504170D01*
X146995499Y-75444742D01*
X146995499Y-75217129D01*
X146995498Y-75217123D01*
X146989091Y-75157516D01*
X146973787Y-75116484D01*
X146968803Y-75046792D01*
X146968803Y-75046791D01*
X146991156Y-75005856D01*
X147002288Y-74985469D01*
X147023946Y-74973642D01*
X147063612Y-74951984D01*
X147133304Y-74956970D01*
G37*
%TD.AperFunction*%
%TA.AperFunction,Conductor*%
G36*
X129938772Y-73945546D02*
G01*
X129986383Y-73996682D01*
X129999500Y-74052188D01*
X129999500Y-74647870D01*
X129999501Y-74647876D01*
X130005908Y-74707483D01*
X130056202Y-74842328D01*
X130056206Y-74842335D01*
X130142452Y-74957544D01*
X130142455Y-74957547D01*
X130257664Y-75043793D01*
X130257671Y-75043797D01*
X130392517Y-75094091D01*
X130392516Y-75094091D01*
X130399444Y-75094835D01*
X130452127Y-75100500D01*
X132547872Y-75100499D01*
X132607483Y-75094091D01*
X132706101Y-75057309D01*
X132732167Y-75047587D01*
X132762775Y-75045398D01*
X132793147Y-75041031D01*
X132797302Y-75042928D01*
X132801859Y-75042603D01*
X132828791Y-75057309D01*
X132856703Y-75070056D01*
X132859172Y-75073898D01*
X132863182Y-75076088D01*
X132877888Y-75103021D01*
X132894477Y-75128834D01*
X132895368Y-75135034D01*
X132896666Y-75137411D01*
X132899500Y-75163769D01*
X132899500Y-75376230D01*
X132879815Y-75443269D01*
X132827011Y-75489024D01*
X132757853Y-75498968D01*
X132732168Y-75492412D01*
X132607485Y-75445909D01*
X132607483Y-75445908D01*
X132547883Y-75439501D01*
X132547881Y-75439500D01*
X132547873Y-75439500D01*
X132547864Y-75439500D01*
X130452129Y-75439500D01*
X130452123Y-75439501D01*
X130392516Y-75445908D01*
X130257671Y-75496202D01*
X130257665Y-75496205D01*
X130237487Y-75511311D01*
X130172022Y-75535727D01*
X130103750Y-75520874D01*
X130057639Y-75477140D01*
X130034423Y-75439501D01*
X129967712Y-75331344D01*
X129843656Y-75207288D01*
X129702437Y-75120184D01*
X129694336Y-75115187D01*
X129694331Y-75115185D01*
X129676097Y-75109143D01*
X129527797Y-75060001D01*
X129527794Y-75060000D01*
X129461897Y-75053268D01*
X129397205Y-75026871D01*
X129357054Y-74969690D01*
X129350500Y-74929910D01*
X129350500Y-74544836D01*
X129370185Y-74477797D01*
X129405609Y-74441734D01*
X129510289Y-74371789D01*
X129621786Y-74260292D01*
X129621789Y-74260289D01*
X129709394Y-74129179D01*
X129760941Y-74004731D01*
X129804779Y-73950333D01*
X129871073Y-73928267D01*
X129938772Y-73945546D01*
G37*
%TD.AperFunction*%
%TA.AperFunction,Conductor*%
G36*
X127813488Y-71887406D02*
G01*
X127972203Y-71939999D01*
X128039160Y-71946839D01*
X128040203Y-71946964D01*
X128071386Y-71960312D01*
X128102793Y-71973127D01*
X128103424Y-71974026D01*
X128104435Y-71974459D01*
X128123455Y-72002552D01*
X128142944Y-72030307D01*
X128143168Y-72031669D01*
X128143606Y-72032316D01*
X128143662Y-72034666D01*
X128149499Y-72070089D01*
X128149499Y-72079054D01*
X128149498Y-72079054D01*
X128190424Y-72231789D01*
X128190425Y-72231790D01*
X128212186Y-72269480D01*
X128212187Y-72269482D01*
X128269475Y-72368709D01*
X128269481Y-72368717D01*
X128388349Y-72487585D01*
X128388355Y-72487590D01*
X128716259Y-72815494D01*
X128749744Y-72876817D01*
X128744760Y-72946509D01*
X128702888Y-73002442D01*
X128676032Y-73017735D01*
X128620829Y-73040601D01*
X128620814Y-73040609D01*
X128489711Y-73128210D01*
X128489707Y-73128213D01*
X128378213Y-73239707D01*
X128378210Y-73239711D01*
X128290609Y-73370814D01*
X128290602Y-73370827D01*
X128230264Y-73516498D01*
X128230261Y-73516510D01*
X128199500Y-73671153D01*
X128199500Y-73721636D01*
X128191834Y-73760179D01*
X128192527Y-73760365D01*
X128190424Y-73768213D01*
X128190423Y-73768215D01*
X128149499Y-73920943D01*
X128149499Y-73920945D01*
X128149499Y-74089046D01*
X128149500Y-74089059D01*
X128149500Y-74929911D01*
X128129815Y-74996950D01*
X128077011Y-75042705D01*
X128038102Y-75053269D01*
X127972202Y-75060001D01*
X127972200Y-75060001D01*
X127869326Y-75094091D01*
X127813503Y-75112589D01*
X127743676Y-75114991D01*
X127683634Y-75079259D01*
X127652441Y-75016739D01*
X127650500Y-74994883D01*
X127650500Y-72005116D01*
X127670185Y-71938077D01*
X127722989Y-71892322D01*
X127792147Y-71882378D01*
X127813488Y-71887406D01*
G37*
%TD.AperFunction*%
%TA.AperFunction,Conductor*%
G36*
X167348505Y-60520185D02*
G01*
X167394260Y-60572989D01*
X167404204Y-60642147D01*
X167375179Y-60705703D01*
X167347439Y-60729492D01*
X167301824Y-60758155D01*
X167208712Y-60816661D01*
X166997915Y-60984765D01*
X166807265Y-61175415D01*
X166639161Y-61386212D01*
X166495714Y-61614505D01*
X166378734Y-61857417D01*
X166289687Y-62111897D01*
X166289684Y-62111905D01*
X166229688Y-62374768D01*
X166229686Y-62374780D01*
X166199500Y-62642686D01*
X166199500Y-67112313D01*
X166229686Y-67380219D01*
X166229687Y-67380228D01*
X166229688Y-67380232D01*
X166241128Y-67430355D01*
X166289684Y-67643094D01*
X166289687Y-67643102D01*
X166378734Y-67897582D01*
X166495714Y-68140494D01*
X166495716Y-68140497D01*
X166639162Y-68368789D01*
X166642108Y-68372483D01*
X166806999Y-68579251D01*
X166807266Y-68579585D01*
X166997915Y-68770234D01*
X167208711Y-68938338D01*
X167324442Y-69011057D01*
X167359951Y-69033369D01*
X167406242Y-69085704D01*
X167416890Y-69154758D01*
X167388515Y-69218606D01*
X167330125Y-69256978D01*
X167292257Y-69262351D01*
X166393705Y-69249871D01*
X166393692Y-69249871D01*
X166393685Y-69249871D01*
X166378721Y-69249997D01*
X166348753Y-69250250D01*
X166337744Y-69250589D01*
X166292671Y-69252988D01*
X166130990Y-69265239D01*
X166130989Y-69265240D01*
X166041699Y-69276042D01*
X166041638Y-69276050D01*
X166019791Y-69279692D01*
X165931824Y-69298434D01*
X165931805Y-69298439D01*
X165780298Y-69337879D01*
X165780292Y-69337880D01*
X165780276Y-69337885D01*
X165694341Y-69364412D01*
X165673519Y-69371876D01*
X165673512Y-69371878D01*
X165673500Y-69371883D01*
X165673484Y-69371889D01*
X165673457Y-69371900D01*
X165590209Y-69406016D01*
X165590204Y-69406018D01*
X165448167Y-69471799D01*
X165448129Y-69471817D01*
X165368246Y-69513253D01*
X165349044Y-69524330D01*
X165273244Y-69572702D01*
X165273203Y-69572729D01*
X165140593Y-69665954D01*
X165104434Y-69692602D01*
X165095604Y-69699419D01*
X165060621Y-69727700D01*
X162502433Y-71892322D01*
X162459706Y-71928476D01*
X162424088Y-71960312D01*
X162419045Y-71964819D01*
X162409271Y-71974043D01*
X162370583Y-72012596D01*
X162235232Y-72155010D01*
X162235228Y-72155015D01*
X162164458Y-72238074D01*
X162148181Y-72259423D01*
X162086827Y-72349661D01*
X161988852Y-72512061D01*
X161988836Y-72512089D01*
X161937655Y-72608375D01*
X161926349Y-72632749D01*
X161885870Y-72734093D01*
X161885863Y-72734110D01*
X161825165Y-72913833D01*
X161795909Y-73018969D01*
X161795907Y-73018978D01*
X161790117Y-73045227D01*
X161772435Y-73152859D01*
X161770924Y-73166727D01*
X161750000Y-73217032D01*
X161750000Y-72250000D01*
X164000000Y-67500000D01*
X164000000Y-60500500D01*
X167281466Y-60500500D01*
X167348505Y-60520185D01*
G37*
%TD.AperFunction*%
%TA.AperFunction,Conductor*%
G36*
X147133304Y-72416970D02*
G01*
X147159045Y-72431026D01*
X147164277Y-72433883D01*
X147229450Y-72482671D01*
X147257668Y-72503795D01*
X147257671Y-72503797D01*
X147392517Y-72554091D01*
X147392516Y-72554091D01*
X147399444Y-72554835D01*
X147452127Y-72560500D01*
X149409902Y-72560499D01*
X149439342Y-72569143D01*
X149469329Y-72575667D01*
X149474344Y-72579421D01*
X149476941Y-72580184D01*
X149497583Y-72596818D01*
X149588584Y-72687819D01*
X149622069Y-72749142D01*
X149617085Y-72818834D01*
X149575213Y-72874767D01*
X149509749Y-72899184D01*
X149500903Y-72899500D01*
X147452129Y-72899500D01*
X147452123Y-72899501D01*
X147392516Y-72905908D01*
X147257671Y-72956202D01*
X147257669Y-72956203D01*
X147193810Y-73004009D01*
X147128346Y-73028426D01*
X147060073Y-73013575D01*
X147010667Y-72964170D01*
X146995499Y-72904742D01*
X146995499Y-72677129D01*
X146995498Y-72677123D01*
X146994856Y-72671153D01*
X146989091Y-72617517D01*
X146985681Y-72608375D01*
X146973787Y-72576484D01*
X146968803Y-72506792D01*
X146968803Y-72506791D01*
X146994665Y-72459430D01*
X147002288Y-72445469D01*
X147025249Y-72432932D01*
X147063612Y-72411984D01*
X147133304Y-72416970D01*
G37*
%TD.AperFunction*%
%TA.AperFunction,Conductor*%
G36*
X147128128Y-69873095D02*
G01*
X147159102Y-69890009D01*
X147256510Y-69962928D01*
X147257668Y-69963795D01*
X147257671Y-69963797D01*
X147392517Y-70014091D01*
X147392516Y-70014091D01*
X147399444Y-70014835D01*
X147452127Y-70020500D01*
X149336130Y-70020499D01*
X149366591Y-70029443D01*
X149397490Y-70036745D01*
X149399875Y-70039216D01*
X149403169Y-70040184D01*
X149423953Y-70064170D01*
X149446006Y-70087024D01*
X149447550Y-70091401D01*
X149448924Y-70092987D01*
X149457747Y-70120308D01*
X149475848Y-70211309D01*
X149469621Y-70280901D01*
X149426758Y-70336078D01*
X149360868Y-70359322D01*
X149354231Y-70359500D01*
X147452129Y-70359500D01*
X147452123Y-70359501D01*
X147392516Y-70365908D01*
X147257671Y-70416202D01*
X147257669Y-70416203D01*
X147193810Y-70464009D01*
X147128346Y-70488426D01*
X147060073Y-70473575D01*
X147010667Y-70424170D01*
X146995499Y-70364742D01*
X146995499Y-70147129D01*
X146995498Y-70147123D01*
X146989091Y-70087516D01*
X146968612Y-70032610D01*
X146963628Y-69962919D01*
X146997113Y-69901596D01*
X147058436Y-69868111D01*
X147128128Y-69873095D01*
G37*
%TD.AperFunction*%
%TA.AperFunction,Conductor*%
G36*
X130201661Y-69946440D02*
G01*
X130232627Y-69949811D01*
X130237698Y-69952703D01*
X130239814Y-69953071D01*
X130242219Y-69955281D01*
X130249840Y-69959628D01*
X130249886Y-69959546D01*
X130257671Y-69963797D01*
X130392517Y-70014091D01*
X130392516Y-70014091D01*
X130399444Y-70014835D01*
X130452127Y-70020500D01*
X132547872Y-70020499D01*
X132607483Y-70014091D01*
X132671924Y-69990056D01*
X132732167Y-69967587D01*
X132762775Y-69965398D01*
X132793147Y-69961031D01*
X132797302Y-69962928D01*
X132801859Y-69962603D01*
X132828791Y-69977309D01*
X132856703Y-69990056D01*
X132859172Y-69993898D01*
X132863182Y-69996088D01*
X132877888Y-70023021D01*
X132894477Y-70048834D01*
X132895368Y-70055034D01*
X132896666Y-70057411D01*
X132899500Y-70083769D01*
X132899500Y-70296230D01*
X132879815Y-70363269D01*
X132827011Y-70409024D01*
X132757853Y-70418968D01*
X132732168Y-70412412D01*
X132607485Y-70365909D01*
X132607483Y-70365908D01*
X132547883Y-70359501D01*
X132547881Y-70359500D01*
X132547873Y-70359500D01*
X132547864Y-70359500D01*
X130452129Y-70359500D01*
X130452123Y-70359501D01*
X130392515Y-70365909D01*
X130287244Y-70405172D01*
X130217553Y-70410156D01*
X130156230Y-70376670D01*
X130123964Y-70320428D01*
X130121530Y-70311143D01*
X130114999Y-70247203D01*
X130066076Y-70099563D01*
X130065076Y-70095748D01*
X130065986Y-70064620D01*
X130064916Y-70033486D01*
X130067000Y-70029982D01*
X130067120Y-70025908D01*
X130084718Y-70000210D01*
X130100647Y-69973444D01*
X130104294Y-69971623D01*
X130106598Y-69968261D01*
X130135295Y-69956156D01*
X130163168Y-69942251D01*
X130167220Y-69942692D01*
X130170976Y-69941108D01*
X130201661Y-69946440D01*
G37*
%TD.AperFunction*%
%TA.AperFunction,Conductor*%
G36*
X129944459Y-68715703D02*
G01*
X129989229Y-68769345D01*
X129999500Y-68818760D01*
X129999500Y-69567870D01*
X129999501Y-69567876D01*
X130005908Y-69627482D01*
X130015209Y-69652419D01*
X130020192Y-69722110D01*
X129986706Y-69783433D01*
X129925382Y-69816917D01*
X129855690Y-69811931D01*
X129833933Y-69801291D01*
X129732271Y-69738585D01*
X129694336Y-69715187D01*
X129694331Y-69715185D01*
X129626234Y-69692620D01*
X129527797Y-69660001D01*
X129527795Y-69660000D01*
X129425010Y-69649500D01*
X128074998Y-69649500D01*
X128074981Y-69649501D01*
X127972203Y-69660000D01*
X127972200Y-69660001D01*
X127846489Y-69701658D01*
X127813503Y-69712589D01*
X127743676Y-69714991D01*
X127683634Y-69679259D01*
X127652441Y-69616739D01*
X127650500Y-69594883D01*
X127650500Y-68905116D01*
X127670185Y-68838077D01*
X127722989Y-68792322D01*
X127792147Y-68782378D01*
X127813488Y-68787406D01*
X127972203Y-68839999D01*
X128074991Y-68850500D01*
X129425008Y-68850499D01*
X129527797Y-68839999D01*
X129694334Y-68784814D01*
X129810404Y-68713221D01*
X129877795Y-68694781D01*
X129944459Y-68715703D01*
G37*
%TD.AperFunction*%
%TA.AperFunction,Conductor*%
G36*
X129944795Y-60520185D02*
G01*
X129990550Y-60572989D01*
X130001045Y-60637752D01*
X129999500Y-60652127D01*
X129999500Y-60652133D01*
X129999500Y-60652134D01*
X129999500Y-61947870D01*
X129999501Y-61947876D01*
X130005908Y-62007483D01*
X130056202Y-62142328D01*
X130056206Y-62142335D01*
X130142452Y-62257544D01*
X130142455Y-62257547D01*
X130257664Y-62343793D01*
X130257671Y-62343797D01*
X130392517Y-62394091D01*
X130392516Y-62394091D01*
X130397837Y-62394663D01*
X130452127Y-62400500D01*
X132547872Y-62400499D01*
X132607483Y-62394091D01*
X132732167Y-62347587D01*
X132762775Y-62345398D01*
X132793147Y-62341031D01*
X132797302Y-62342928D01*
X132801859Y-62342603D01*
X132828791Y-62357309D01*
X132856703Y-62370056D01*
X132859172Y-62373898D01*
X132863182Y-62376088D01*
X132877888Y-62403021D01*
X132894477Y-62428834D01*
X132895368Y-62435034D01*
X132896666Y-62437411D01*
X132899500Y-62463769D01*
X132899500Y-62676230D01*
X132879815Y-62743269D01*
X132827011Y-62789024D01*
X132757853Y-62798968D01*
X132732168Y-62792412D01*
X132607485Y-62745909D01*
X132607483Y-62745908D01*
X132547883Y-62739501D01*
X132547881Y-62739500D01*
X132547873Y-62739500D01*
X132547864Y-62739500D01*
X130452129Y-62739500D01*
X130452123Y-62739501D01*
X130392516Y-62745908D01*
X130257671Y-62796202D01*
X130257664Y-62796206D01*
X130142455Y-62882452D01*
X130142452Y-62882455D01*
X130056206Y-62997664D01*
X130056202Y-62997671D01*
X130005908Y-63132517D01*
X130004126Y-63140062D01*
X130001853Y-63139525D01*
X129979571Y-63193312D01*
X129922177Y-63233157D01*
X129883024Y-63239500D01*
X127181942Y-63239500D01*
X127029213Y-63280423D01*
X126982639Y-63307314D01*
X126982638Y-63307314D01*
X126892287Y-63359477D01*
X126892282Y-63359481D01*
X125712181Y-64539583D01*
X125650858Y-64573068D01*
X125581166Y-64568084D01*
X125525233Y-64526212D01*
X125500816Y-64460748D01*
X125500500Y-64451902D01*
X125500500Y-63003750D01*
X125500726Y-62996263D01*
X125504486Y-62934108D01*
X125518271Y-62706201D01*
X125520076Y-62691340D01*
X125528988Y-62642712D01*
X125571780Y-62409197D01*
X125575364Y-62394663D01*
X125660696Y-62120822D01*
X125665998Y-62106841D01*
X125783731Y-61845249D01*
X125790676Y-61832016D01*
X125939080Y-61586526D01*
X125947567Y-61574230D01*
X126124480Y-61348417D01*
X126134395Y-61337226D01*
X126337226Y-61134395D01*
X126348417Y-61124480D01*
X126574230Y-60947567D01*
X126586526Y-60939080D01*
X126832016Y-60790676D01*
X126845249Y-60783731D01*
X127106841Y-60665998D01*
X127120822Y-60660696D01*
X127394668Y-60575362D01*
X127409197Y-60571780D01*
X127691344Y-60520075D01*
X127706201Y-60518271D01*
X127996264Y-60500726D01*
X128003751Y-60500500D01*
X128065892Y-60500500D01*
X129877756Y-60500500D01*
X129944795Y-60520185D01*
G37*
%TD.AperFunction*%
%TD*%
%TA.AperFunction,NonConductor*%
G36*
X182003736Y-60500726D02*
G01*
X182293796Y-60518271D01*
X182308657Y-60520075D01*
X182469220Y-60549500D01*
X182590798Y-60571780D01*
X182605335Y-60575363D01*
X182879172Y-60660695D01*
X182893163Y-60666000D01*
X183154743Y-60783727D01*
X183167989Y-60790680D01*
X183413465Y-60939075D01*
X183425776Y-60947573D01*
X183473250Y-60984766D01*
X183651573Y-61124473D01*
X183662781Y-61134403D01*
X183865596Y-61337218D01*
X183875526Y-61348426D01*
X183905356Y-61386501D01*
X183995481Y-61501538D01*
X184052422Y-61574217D01*
X184060928Y-61586540D01*
X184209316Y-61832004D01*
X184216275Y-61845263D01*
X184333997Y-62106831D01*
X184339306Y-62120832D01*
X184424635Y-62394663D01*
X184428219Y-62409201D01*
X184479923Y-62691340D01*
X184481728Y-62706205D01*
X184499274Y-62996263D01*
X184499500Y-63003750D01*
X184499500Y-69866635D01*
X184479815Y-69933674D01*
X184427011Y-69979429D01*
X184357853Y-69989373D01*
X184296089Y-69961871D01*
X184216008Y-69895096D01*
X184186849Y-69873095D01*
X184137935Y-69836188D01*
X184118021Y-69822630D01*
X184118012Y-69822624D01*
X184118001Y-69822617D01*
X184034610Y-69771595D01*
X184034599Y-69771589D01*
X184034586Y-69771581D01*
X183885338Y-69689964D01*
X183885339Y-69689964D01*
X183885329Y-69689959D01*
X183797368Y-69647275D01*
X183797365Y-69647274D01*
X183775199Y-69637820D01*
X183683479Y-69603875D01*
X183683468Y-69603872D01*
X183521247Y-69552657D01*
X183426635Y-69527778D01*
X183426631Y-69527777D01*
X183426623Y-69527775D01*
X183403062Y-69522791D01*
X183403050Y-69522789D01*
X183403045Y-69522788D01*
X183306521Y-69507228D01*
X183131486Y-69487684D01*
X183082670Y-69483434D01*
X183070677Y-69482684D01*
X183070658Y-69482683D01*
X183070654Y-69482683D01*
X183057012Y-69482161D01*
X183021801Y-69480816D01*
X169847810Y-69297844D01*
X169781050Y-69277230D01*
X169736033Y-69223796D01*
X169727051Y-69154506D01*
X169756956Y-69091360D01*
X169783553Y-69068867D01*
X169991289Y-68938338D01*
X170202085Y-68770234D01*
X170392734Y-68579585D01*
X170560838Y-68368789D01*
X170704284Y-68140497D01*
X170821267Y-67897579D01*
X170910316Y-67643091D01*
X170970312Y-67380232D01*
X171000500Y-67112309D01*
X171000500Y-62642691D01*
X170970312Y-62374768D01*
X170910316Y-62111909D01*
X170903803Y-62093297D01*
X170873776Y-62007483D01*
X170821267Y-61857421D01*
X170704284Y-61614503D01*
X170560838Y-61386211D01*
X170392734Y-61175415D01*
X170202085Y-60984766D01*
X169991289Y-60816662D01*
X169852561Y-60729493D01*
X169806271Y-60677159D01*
X169795623Y-60608106D01*
X169823998Y-60544257D01*
X169882387Y-60505885D01*
X169918534Y-60500500D01*
X181934108Y-60500500D01*
X181996249Y-60500500D01*
X182003736Y-60500726D01*
G37*
%TD.AperFunction*%
M02*
