M48
; DRILL file {KiCad 9.0.6} date 2026-01-15T21:11:20+0000
; FORMAT={-:-/ absolute / metric / decimal}
; #@! TF.CreationDate,2026-01-15T21:11:20+00:00
; #@! TF.GenerationSoftware,Kicad,Pcbnew,9.0.6
; #@! TF.FileFunction,Plated,1,2,PTH
FMAT,2
METRIC
; #@! TA.AperFunction,Plated,PTH,ViaDrill
T1C0.300
; #@! TA.AperFunction,Plated,PTH,ComponentDrill
T2C1.000
; #@! TA.AperFunction,Plated,PTH,ComponentDrill
T3C1.000
; #@! TA.AperFunction,Plated,PTH,ComponentDrill
T4C1.050
; #@! TA.AperFunction,Plated,PTH,ComponentDrill
T5C1.300
; #@! TA.AperFunction,Plated,PTH,ComponentDrill
T6C1.500
; #@! TA.AperFunction,Plated,PTH,ComponentDrill
T7C1.500
; #@! TA.AperFunction,Plated,PTH,ComponentDrill
T8C2.030
%
G90
G05
T1
X133.0Y-80.0
X135.5Y-87.25
X136.75Y-59.75
X136.75Y-61.5
X137.0Y-58.0
X137.0Y-62.75
X137.0Y-64.0
X137.0Y-66.25
X137.75Y-67.75
X138.5Y-79.25
X141.0Y-66.25
X142.0Y-53.0
X142.25Y-66.75
X143.0Y-83.75
X145.25Y-104.0
X145.75Y-51.25
X147.0Y-59.0
X147.0Y-64.1
X148.756Y-71.756
X149.25Y-112.25
X150.0Y-74.0
X150.25Y-109.5
X150.665Y-75.665
X151.5Y-103.5
X153.5Y-60.0
X154.0Y-52.5
X154.0Y-53.5
X154.0Y-54.5
X154.5Y-80.5
X154.5Y-81.5
X154.5Y-82.5
X155.0Y-52.5
X155.0Y-53.5
X155.0Y-54.5
X156.5Y-64.0
X176.25Y-80.75
T2
X174.5Y-106.17
X174.5Y-108.71
X174.5Y-111.25
T3
X128.0Y-53.38
X128.0Y-55.92
X128.0Y-58.46
X128.0Y-61.0
X128.0Y-65.19
X128.0Y-67.73
X128.0Y-70.27
X128.0Y-72.81
X128.0Y-79.46
X128.0Y-82.0
X128.0Y-84.54
X128.0Y-87.08
X182.0Y-62.68
X182.0Y-67.27
X182.0Y-72.27
X182.0Y-77.27
T4
X136.19Y-92.54
X138.73Y-92.54
X141.27Y-92.54
X143.81Y-92.54
T5
X159.46Y-102.75
X159.46Y-117.25
X162.0Y-117.25
X164.54Y-102.75
X164.54Y-117.25
T6
X130.92Y-126.46
X133.46Y-132.81
X149.92Y-126.46
X152.46Y-132.81
X161.4Y-56.0
X168.6Y-56.0
X168.92Y-126.46
X171.46Y-132.81
T8
X128.35Y-93.1
X128.35Y-116.9
X151.65Y-93.1
X151.65Y-116.9
T7
G00X156.5Y-110.5
M15
G01X156.5Y-109.0
M16
G05
G00X167.5Y-110.5
M15
G01X167.5Y-109.0
M16
G05
M30
