%TF.GenerationSoftware,KiCad,Pcbnew,9.0.6*%
%TF.CreationDate,2026-01-14T19:17:06+00:00*%
%TF.ProjectId,Cinder,43696e64-6572-42e6-9b69-6361645f7063,rev?*%
%TF.SameCoordinates,Original*%
%TF.FileFunction,Legend,Top*%
%TF.FilePolarity,Positive*%
%FSLAX46Y46*%
G04 Gerber Fmt 4.6, Leading zero omitted, Abs format (unit mm)*
G04 Created by KiCad (PCBNEW 9.0.6) date 2026-01-14 19:17:06*
%MOMM*%
%LPD*%
G01*
G04 APERTURE LIST*
%ADD10C,0.100000*%
%ADD11C,0.375000*%
%ADD12C,0.750000*%
%ADD13C,0.150000*%
%ADD14C,0.120000*%
%ADD15C,0.250000*%
G04 APERTURE END LIST*
D10*
X183495000Y-80000000D02*
X183495000Y-79000000D01*
X169495000Y-80000000D02*
X183495000Y-80000000D01*
X169495000Y-79000000D02*
X169495000Y-80000000D01*
X183495000Y-79000000D02*
X169495000Y-79000000D01*
D11*
X174230738Y-77277099D02*
X172230738Y-77277099D01*
X173183119Y-77277099D02*
X173183119Y-76134242D01*
X174230738Y-76134242D02*
X172230738Y-76134242D01*
X174135500Y-74419956D02*
X174230738Y-74610432D01*
X174230738Y-74610432D02*
X174230738Y-74991385D01*
X174230738Y-74991385D02*
X174135500Y-75181861D01*
X174135500Y-75181861D02*
X173945023Y-75277099D01*
X173945023Y-75277099D02*
X173183119Y-75277099D01*
X173183119Y-75277099D02*
X172992642Y-75181861D01*
X172992642Y-75181861D02*
X172897404Y-74991385D01*
X172897404Y-74991385D02*
X172897404Y-74610432D01*
X172897404Y-74610432D02*
X172992642Y-74419956D01*
X172992642Y-74419956D02*
X173183119Y-74324718D01*
X173183119Y-74324718D02*
X173373595Y-74324718D01*
X173373595Y-74324718D02*
X173564071Y-75277099D01*
X174230738Y-72610432D02*
X173183119Y-72610432D01*
X173183119Y-72610432D02*
X172992642Y-72705670D01*
X172992642Y-72705670D02*
X172897404Y-72896146D01*
X172897404Y-72896146D02*
X172897404Y-73277099D01*
X172897404Y-73277099D02*
X172992642Y-73467575D01*
X174135500Y-72610432D02*
X174230738Y-72800908D01*
X174230738Y-72800908D02*
X174230738Y-73277099D01*
X174230738Y-73277099D02*
X174135500Y-73467575D01*
X174135500Y-73467575D02*
X173945023Y-73562813D01*
X173945023Y-73562813D02*
X173754547Y-73562813D01*
X173754547Y-73562813D02*
X173564071Y-73467575D01*
X173564071Y-73467575D02*
X173468833Y-73277099D01*
X173468833Y-73277099D02*
X173468833Y-72800908D01*
X173468833Y-72800908D02*
X173373595Y-72610432D01*
X172897404Y-71943765D02*
X172897404Y-71181861D01*
X172230738Y-71658051D02*
X173945023Y-71658051D01*
X173945023Y-71658051D02*
X174135500Y-71562813D01*
X174135500Y-71562813D02*
X174230738Y-71372337D01*
X174230738Y-71372337D02*
X174230738Y-71181861D01*
X173183119Y-85610432D02*
X173183119Y-86277099D01*
X174230738Y-86277099D02*
X172230738Y-86277099D01*
X172230738Y-86277099D02*
X172230738Y-85324718D01*
X174230738Y-83705670D02*
X173183119Y-83705670D01*
X173183119Y-83705670D02*
X172992642Y-83800908D01*
X172992642Y-83800908D02*
X172897404Y-83991384D01*
X172897404Y-83991384D02*
X172897404Y-84372337D01*
X172897404Y-84372337D02*
X172992642Y-84562813D01*
X174135500Y-83705670D02*
X174230738Y-83896146D01*
X174230738Y-83896146D02*
X174230738Y-84372337D01*
X174230738Y-84372337D02*
X174135500Y-84562813D01*
X174135500Y-84562813D02*
X173945023Y-84658051D01*
X173945023Y-84658051D02*
X173754547Y-84658051D01*
X173754547Y-84658051D02*
X173564071Y-84562813D01*
X173564071Y-84562813D02*
X173468833Y-84372337D01*
X173468833Y-84372337D02*
X173468833Y-83896146D01*
X173468833Y-83896146D02*
X173373595Y-83705670D01*
X172897404Y-82753289D02*
X174230738Y-82753289D01*
X173087880Y-82753289D02*
X172992642Y-82658051D01*
X172992642Y-82658051D02*
X172897404Y-82467575D01*
X172897404Y-82467575D02*
X172897404Y-82181860D01*
X172897404Y-82181860D02*
X172992642Y-81991384D01*
X172992642Y-81991384D02*
X173183119Y-81896146D01*
X173183119Y-81896146D02*
X174230738Y-81896146D01*
D12*
X175857142Y-72206000D02*
X178142857Y-72206000D01*
X175857142Y-77206000D02*
X178142857Y-77206000D01*
X176999999Y-78348857D02*
X176999999Y-76063142D01*
X175857142Y-82206000D02*
X178142857Y-82206000D01*
X176999999Y-83348857D02*
X176999999Y-81063142D01*
X175857142Y-87026000D02*
X178142857Y-87026000D01*
D13*
X128533200Y-130333332D02*
X128580819Y-130190475D01*
X128580819Y-130190475D02*
X128580819Y-129952380D01*
X128580819Y-129952380D02*
X128533200Y-129857142D01*
X128533200Y-129857142D02*
X128485580Y-129809523D01*
X128485580Y-129809523D02*
X128390342Y-129761904D01*
X128390342Y-129761904D02*
X128295104Y-129761904D01*
X128295104Y-129761904D02*
X128199866Y-129809523D01*
X128199866Y-129809523D02*
X128152247Y-129857142D01*
X128152247Y-129857142D02*
X128104628Y-129952380D01*
X128104628Y-129952380D02*
X128057009Y-130142856D01*
X128057009Y-130142856D02*
X128009390Y-130238094D01*
X128009390Y-130238094D02*
X127961771Y-130285713D01*
X127961771Y-130285713D02*
X127866533Y-130333332D01*
X127866533Y-130333332D02*
X127771295Y-130333332D01*
X127771295Y-130333332D02*
X127676057Y-130285713D01*
X127676057Y-130285713D02*
X127628438Y-130238094D01*
X127628438Y-130238094D02*
X127580819Y-130142856D01*
X127580819Y-130142856D02*
X127580819Y-129904761D01*
X127580819Y-129904761D02*
X127628438Y-129761904D01*
X127580819Y-129428570D02*
X128580819Y-129190475D01*
X128580819Y-129190475D02*
X127866533Y-128999999D01*
X127866533Y-128999999D02*
X128580819Y-128809523D01*
X128580819Y-128809523D02*
X127580819Y-128571428D01*
X128580819Y-127666666D02*
X128580819Y-128238094D01*
X128580819Y-127952380D02*
X127580819Y-127952380D01*
X127580819Y-127952380D02*
X127723676Y-128047618D01*
X127723676Y-128047618D02*
X127818914Y-128142856D01*
X127818914Y-128142856D02*
X127866533Y-128238094D01*
X147533200Y-130333332D02*
X147580819Y-130190475D01*
X147580819Y-130190475D02*
X147580819Y-129952380D01*
X147580819Y-129952380D02*
X147533200Y-129857142D01*
X147533200Y-129857142D02*
X147485580Y-129809523D01*
X147485580Y-129809523D02*
X147390342Y-129761904D01*
X147390342Y-129761904D02*
X147295104Y-129761904D01*
X147295104Y-129761904D02*
X147199866Y-129809523D01*
X147199866Y-129809523D02*
X147152247Y-129857142D01*
X147152247Y-129857142D02*
X147104628Y-129952380D01*
X147104628Y-129952380D02*
X147057009Y-130142856D01*
X147057009Y-130142856D02*
X147009390Y-130238094D01*
X147009390Y-130238094D02*
X146961771Y-130285713D01*
X146961771Y-130285713D02*
X146866533Y-130333332D01*
X146866533Y-130333332D02*
X146771295Y-130333332D01*
X146771295Y-130333332D02*
X146676057Y-130285713D01*
X146676057Y-130285713D02*
X146628438Y-130238094D01*
X146628438Y-130238094D02*
X146580819Y-130142856D01*
X146580819Y-130142856D02*
X146580819Y-129904761D01*
X146580819Y-129904761D02*
X146628438Y-129761904D01*
X146580819Y-129428570D02*
X147580819Y-129190475D01*
X147580819Y-129190475D02*
X146866533Y-128999999D01*
X146866533Y-128999999D02*
X147580819Y-128809523D01*
X147580819Y-128809523D02*
X146580819Y-128571428D01*
X146676057Y-128238094D02*
X146628438Y-128190475D01*
X146628438Y-128190475D02*
X146580819Y-128095237D01*
X146580819Y-128095237D02*
X146580819Y-127857142D01*
X146580819Y-127857142D02*
X146628438Y-127761904D01*
X146628438Y-127761904D02*
X146676057Y-127714285D01*
X146676057Y-127714285D02*
X146771295Y-127666666D01*
X146771295Y-127666666D02*
X146866533Y-127666666D01*
X146866533Y-127666666D02*
X147009390Y-127714285D01*
X147009390Y-127714285D02*
X147580819Y-128285713D01*
X147580819Y-128285713D02*
X147580819Y-127666666D01*
X166533200Y-130333332D02*
X166580819Y-130190475D01*
X166580819Y-130190475D02*
X166580819Y-129952380D01*
X166580819Y-129952380D02*
X166533200Y-129857142D01*
X166533200Y-129857142D02*
X166485580Y-129809523D01*
X166485580Y-129809523D02*
X166390342Y-129761904D01*
X166390342Y-129761904D02*
X166295104Y-129761904D01*
X166295104Y-129761904D02*
X166199866Y-129809523D01*
X166199866Y-129809523D02*
X166152247Y-129857142D01*
X166152247Y-129857142D02*
X166104628Y-129952380D01*
X166104628Y-129952380D02*
X166057009Y-130142856D01*
X166057009Y-130142856D02*
X166009390Y-130238094D01*
X166009390Y-130238094D02*
X165961771Y-130285713D01*
X165961771Y-130285713D02*
X165866533Y-130333332D01*
X165866533Y-130333332D02*
X165771295Y-130333332D01*
X165771295Y-130333332D02*
X165676057Y-130285713D01*
X165676057Y-130285713D02*
X165628438Y-130238094D01*
X165628438Y-130238094D02*
X165580819Y-130142856D01*
X165580819Y-130142856D02*
X165580819Y-129904761D01*
X165580819Y-129904761D02*
X165628438Y-129761904D01*
X165580819Y-129428570D02*
X166580819Y-129190475D01*
X166580819Y-129190475D02*
X165866533Y-128999999D01*
X165866533Y-128999999D02*
X166580819Y-128809523D01*
X166580819Y-128809523D02*
X165580819Y-128571428D01*
X165580819Y-128285713D02*
X165580819Y-127666666D01*
X165580819Y-127666666D02*
X165961771Y-127999999D01*
X165961771Y-127999999D02*
X165961771Y-127857142D01*
X165961771Y-127857142D02*
X166009390Y-127761904D01*
X166009390Y-127761904D02*
X166057009Y-127714285D01*
X166057009Y-127714285D02*
X166152247Y-127666666D01*
X166152247Y-127666666D02*
X166390342Y-127666666D01*
X166390342Y-127666666D02*
X166485580Y-127714285D01*
X166485580Y-127714285D02*
X166533200Y-127761904D01*
X166533200Y-127761904D02*
X166580819Y-127857142D01*
X166580819Y-127857142D02*
X166580819Y-128142856D01*
X166580819Y-128142856D02*
X166533200Y-128238094D01*
X166533200Y-128238094D02*
X166485580Y-128285713D01*
X139238095Y-87994819D02*
X139238095Y-88804342D01*
X139238095Y-88804342D02*
X139285714Y-88899580D01*
X139285714Y-88899580D02*
X139333333Y-88947200D01*
X139333333Y-88947200D02*
X139428571Y-88994819D01*
X139428571Y-88994819D02*
X139619047Y-88994819D01*
X139619047Y-88994819D02*
X139714285Y-88947200D01*
X139714285Y-88947200D02*
X139761904Y-88899580D01*
X139761904Y-88899580D02*
X139809523Y-88804342D01*
X139809523Y-88804342D02*
X139809523Y-87994819D01*
X140238095Y-88090057D02*
X140285714Y-88042438D01*
X140285714Y-88042438D02*
X140380952Y-87994819D01*
X140380952Y-87994819D02*
X140619047Y-87994819D01*
X140619047Y-87994819D02*
X140714285Y-88042438D01*
X140714285Y-88042438D02*
X140761904Y-88090057D01*
X140761904Y-88090057D02*
X140809523Y-88185295D01*
X140809523Y-88185295D02*
X140809523Y-88280533D01*
X140809523Y-88280533D02*
X140761904Y-88423390D01*
X140761904Y-88423390D02*
X140190476Y-88994819D01*
X140190476Y-88994819D02*
X140809523Y-88994819D01*
X167066667Y-102807200D02*
X167209524Y-102854819D01*
X167209524Y-102854819D02*
X167447619Y-102854819D01*
X167447619Y-102854819D02*
X167542857Y-102807200D01*
X167542857Y-102807200D02*
X167590476Y-102759580D01*
X167590476Y-102759580D02*
X167638095Y-102664342D01*
X167638095Y-102664342D02*
X167638095Y-102569104D01*
X167638095Y-102569104D02*
X167590476Y-102473866D01*
X167590476Y-102473866D02*
X167542857Y-102426247D01*
X167542857Y-102426247D02*
X167447619Y-102378628D01*
X167447619Y-102378628D02*
X167257143Y-102331009D01*
X167257143Y-102331009D02*
X167161905Y-102283390D01*
X167161905Y-102283390D02*
X167114286Y-102235771D01*
X167114286Y-102235771D02*
X167066667Y-102140533D01*
X167066667Y-102140533D02*
X167066667Y-102045295D01*
X167066667Y-102045295D02*
X167114286Y-101950057D01*
X167114286Y-101950057D02*
X167161905Y-101902438D01*
X167161905Y-101902438D02*
X167257143Y-101854819D01*
X167257143Y-101854819D02*
X167495238Y-101854819D01*
X167495238Y-101854819D02*
X167638095Y-101902438D01*
X167971429Y-101854819D02*
X168209524Y-102854819D01*
X168209524Y-102854819D02*
X168400000Y-102140533D01*
X168400000Y-102140533D02*
X168590476Y-102854819D01*
X168590476Y-102854819D02*
X168828572Y-101854819D01*
X169257143Y-102854819D02*
X169447619Y-102854819D01*
X169447619Y-102854819D02*
X169542857Y-102807200D01*
X169542857Y-102807200D02*
X169590476Y-102759580D01*
X169590476Y-102759580D02*
X169685714Y-102616723D01*
X169685714Y-102616723D02*
X169733333Y-102426247D01*
X169733333Y-102426247D02*
X169733333Y-102045295D01*
X169733333Y-102045295D02*
X169685714Y-101950057D01*
X169685714Y-101950057D02*
X169638095Y-101902438D01*
X169638095Y-101902438D02*
X169542857Y-101854819D01*
X169542857Y-101854819D02*
X169352381Y-101854819D01*
X169352381Y-101854819D02*
X169257143Y-101902438D01*
X169257143Y-101902438D02*
X169209524Y-101950057D01*
X169209524Y-101950057D02*
X169161905Y-102045295D01*
X169161905Y-102045295D02*
X169161905Y-102283390D01*
X169161905Y-102283390D02*
X169209524Y-102378628D01*
X169209524Y-102378628D02*
X169257143Y-102426247D01*
X169257143Y-102426247D02*
X169352381Y-102473866D01*
X169352381Y-102473866D02*
X169542857Y-102473866D01*
X169542857Y-102473866D02*
X169638095Y-102426247D01*
X169638095Y-102426247D02*
X169685714Y-102378628D01*
X169685714Y-102378628D02*
X169733333Y-102283390D01*
D14*
%TO.C,J1*%
X183380000Y-73680000D02*
X183380000Y-73790000D01*
X180620000Y-73790000D02*
X183380000Y-73790000D01*
X180620000Y-73680000D02*
X183380000Y-73680000D01*
X180620000Y-73680000D02*
X180620000Y-73790000D01*
X180620000Y-72410000D02*
X180620000Y-71030000D01*
X180620000Y-71030000D02*
X182000000Y-71030000D01*
%TO.C,J2*%
X183380000Y-78270000D02*
X183380000Y-78380000D01*
X180620000Y-78380000D02*
X183380000Y-78380000D01*
X180620000Y-78270000D02*
X183380000Y-78270000D01*
X180620000Y-78270000D02*
X180620000Y-78380000D01*
X180620000Y-77000000D02*
X180620000Y-75620000D01*
X180620000Y-75620000D02*
X182000000Y-75620000D01*
%TO.C,J3*%
X183380000Y-83270000D02*
X183380000Y-83380000D01*
X180620000Y-83380000D02*
X183380000Y-83380000D01*
X180620000Y-83270000D02*
X183380000Y-83270000D01*
X180620000Y-83270000D02*
X180620000Y-83380000D01*
X180620000Y-82000000D02*
X180620000Y-80620000D01*
X180620000Y-80620000D02*
X182000000Y-80620000D01*
%TO.C,J4*%
X183380000Y-88270000D02*
X183380000Y-88380000D01*
X180620000Y-88380000D02*
X183380000Y-88380000D01*
X180620000Y-88270000D02*
X183380000Y-88270000D01*
X180620000Y-88270000D02*
X180620000Y-88380000D01*
X180620000Y-87000000D02*
X180620000Y-85620000D01*
X180620000Y-85620000D02*
X182000000Y-85620000D01*
%TO.C,SW1*%
X142985000Y-122015000D02*
X142985000Y-135985000D01*
X129015000Y-122015000D02*
X142985000Y-122015000D01*
X142985000Y-135985000D02*
X129015000Y-135985000D01*
X129015000Y-135985000D02*
X129015000Y-122015000D01*
%TO.C,SW2*%
X161985000Y-122015000D02*
X161985000Y-135985000D01*
X148015000Y-122015000D02*
X161985000Y-122015000D01*
X161985000Y-135985000D02*
X148015000Y-135985000D01*
X148015000Y-135985000D02*
X148015000Y-122015000D01*
%TO.C,SW3*%
X180985000Y-122015000D02*
X180985000Y-135985000D01*
X167015000Y-122015000D02*
X180985000Y-122015000D01*
X180985000Y-135985000D02*
X167015000Y-135985000D01*
X167015000Y-135985000D02*
X167015000Y-122015000D01*
D15*
%TO.C,U2*%
X126400000Y-91100000D02*
X153600000Y-91100000D01*
X153600000Y-91100000D02*
X153600000Y-118900000D01*
X153600000Y-118900000D02*
X146500000Y-118900000D01*
X146500000Y-118900000D02*
X146500000Y-115150000D01*
X146500000Y-115150000D02*
X133650000Y-115150000D01*
X133650000Y-115150000D02*
X133650000Y-118900000D01*
X133650000Y-118900000D02*
X126400000Y-118900000D01*
X126400000Y-118900000D02*
X126400000Y-91100000D01*
%TO.C,SW9*%
X156100000Y-103750000D02*
X156100000Y-107580000D01*
X167900000Y-107580000D02*
X167900000Y-103750000D01*
X167900000Y-115750000D02*
X156100000Y-115750000D01*
X156100000Y-103750000D02*
X158930000Y-103750000D01*
X159210000Y-108730000D02*
X164790000Y-108730000D01*
X156100000Y-103750000D02*
X156100000Y-107580000D01*
X156100000Y-111920000D02*
X156100000Y-115750000D01*
X167900000Y-115750000D02*
X167900000Y-111920000D01*
X166790000Y-107720000D02*
X165980000Y-107720000D01*
X166790000Y-111780000D02*
X165980000Y-111780000D01*
X156100000Y-111920000D02*
X156100000Y-115750000D01*
X157950000Y-107720000D02*
X157210000Y-107720000D01*
X157210000Y-111780000D02*
X158190000Y-111780000D01*
X159990000Y-103750000D02*
X164010000Y-103750000D01*
X165070000Y-103750000D02*
X167900000Y-103750000D01*
X166330000Y-109750000D02*
G75*
G02*
X157670000Y-109750000I-4330000J0D01*
G01*
X157670000Y-109750000D02*
G75*
G02*
X166330000Y-109750000I4330000J0D01*
G01*
X165350000Y-109750000D02*
G75*
G02*
X158650000Y-109750000I-3350000J0D01*
G01*
X158650000Y-109750000D02*
G75*
G02*
X165350000Y-109750000I3350000J0D01*
G01*
X165050000Y-109750000D02*
G75*
G02*
X158950000Y-109750000I-3050000J0D01*
G01*
X158950000Y-109750000D02*
G75*
G02*
X165050000Y-109750000I3050000J0D01*
G01*
X163782861Y-108735110D02*
G75*
G02*
X160220000Y-108730000I-1782861J-994890D01*
G01*
%TD*%
M02*
