%TF.GenerationSoftware,KiCad,Pcbnew,9.0.6*%
%TF.CreationDate,2026-01-14T19:17:06+00:00*%
%TF.ProjectId,Cinder,43696e64-6572-42e6-9b69-6361645f7063,rev?*%
%TF.SameCoordinates,Original*%
%TF.FileFunction,Copper,L1,Top*%
%TF.FilePolarity,Positive*%
%FSLAX46Y46*%
G04 Gerber Fmt 4.6, Leading zero omitted, Abs format (unit mm)*
G04 Created by KiCad (PCBNEW 9.0.6) date 2026-01-14 19:17:06*
%MOMM*%
%LPD*%
G01*
G04 APERTURE LIST*
G04 Aperture macros list*
%AMRoundRect*
0 Rectangle with rounded corners*
0 $1 Rounding radius*
0 $2 $3 $4 $5 $6 $7 $8 $9 X,Y pos of 4 corners*
0 Add a 4 corners polygon primitive as box body*
4,1,4,$2,$3,$4,$5,$6,$7,$8,$9,$2,$3,0*
0 Add four circle primitives for the rounded corners*
1,1,$1+$1,$2,$3*
1,1,$1+$1,$4,$5*
1,1,$1+$1,$6,$7*
1,1,$1+$1,$8,$9*
0 Add four rect primitives between the rounded corners*
20,1,$1+$1,$2,$3,$4,$5,0*
20,1,$1+$1,$4,$5,$6,$7,0*
20,1,$1+$1,$6,$7,$8,$9,0*
20,1,$1+$1,$8,$9,$2,$3,0*%
G04 Aperture macros list end*
%TA.AperFunction,ComponentPad*%
%ADD10RoundRect,0.150000X-1.350000X-1.350000X1.350000X-1.350000X1.350000X1.350000X-1.350000X1.350000X0*%
%TD*%
%TA.AperFunction,ComponentPad*%
%ADD11C,2.200000*%
%TD*%
%TA.AperFunction,ComponentPad*%
%ADD12C,1.800000*%
%TD*%
%TA.AperFunction,ComponentPad*%
%ADD13C,3.000000*%
%TD*%
%TA.AperFunction,ComponentPad*%
%ADD14O,3.800000X8.000000*%
%TD*%
%TA.AperFunction,ComponentPad*%
%ADD15R,1.700000X1.700000*%
%TD*%
%TA.AperFunction,ComponentPad*%
%ADD16C,1.700000*%
%TD*%
%TA.AperFunction,ComponentPad*%
%ADD17O,2.300000X4.000000*%
%TD*%
%TA.AperFunction,ViaPad*%
%ADD18C,0.600000*%
%TD*%
%TA.AperFunction,Conductor*%
%ADD19C,0.200000*%
%TD*%
%TA.AperFunction,Conductor*%
%ADD20C,0.500000*%
%TD*%
%TA.AperFunction,Conductor*%
%ADD21C,0.800000*%
%TD*%
G04 APERTURE END LIST*
D10*
%TO.P,J1,1,Pin_1*%
%TO.N,Net-(J1-Pin_1)*%
X182000000Y-72410000D03*
%TD*%
%TO.P,J2,1,Pin_1*%
%TO.N,+19V*%
X182000000Y-77000000D03*
%TD*%
%TO.P,J3,1,Pin_1*%
%TO.N,+19V*%
X182000000Y-82000000D03*
%TD*%
%TO.P,J4,1,Pin_1*%
%TO.N,Net-(J4-Pin_1)*%
X182000000Y-87000000D03*
%TD*%
D11*
%TO.P,SW1,2,2*%
%TO.N,SW2*%
X133460000Y-132810000D03*
%TO.P,SW1,1,1*%
%TO.N,+3.3V*%
X130920000Y-126460000D03*
%TD*%
%TO.P,SW2,2,2*%
%TO.N,SW1*%
X152460000Y-132810000D03*
%TO.P,SW2,1,1*%
%TO.N,+3.3V*%
X149920000Y-126460000D03*
%TD*%
%TO.P,SW3,2,2*%
%TO.N,SW3*%
X171460000Y-132810000D03*
%TO.P,SW3,1,1*%
%TO.N,+3.3V*%
X168920000Y-126460000D03*
%TD*%
D12*
%TO.P,U2,1,GND*%
%TO.N,GND*%
X136190000Y-92540000D03*
%TO.P,U2,2,VCC*%
%TO.N,+3.3V*%
X138730000Y-92540000D03*
%TO.P,U2,3,SCL*%
%TO.N,Net-(U1-GP1)*%
X141270000Y-92540000D03*
%TO.P,U2,4,SDA*%
%TO.N,Net-(U1-GP0)*%
X143810000Y-92540000D03*
D13*
%TO.P,U2,*%
%TO.N,*%
X128350000Y-93100000D03*
X151650000Y-93100000D03*
X128350000Y-116900000D03*
X151650000Y-116900000D03*
%TD*%
D14*
%TO.P,U3,4,-*%
%TO.N,GND*%
X161400000Y-64877500D03*
%TO.P,U3,3,+*%
%TO.N,+19V*%
X168600000Y-64877500D03*
%TD*%
D15*
%TO.P,U4,1,Vin*%
%TO.N,+19V*%
X174875000Y-111040000D03*
D16*
%TO.P,U4,2,GND*%
%TO.N,GND*%
X174875000Y-108500000D03*
%TO.P,U4,3,+Vo*%
%TO.N,+5V*%
X174875000Y-105960000D03*
%TD*%
D12*
%TO.P,SW9,A,A*%
%TO.N,EC2*%
X159460000Y-117250000D03*
%TO.P,SW9,C,C*%
%TO.N,GND*%
X162000000Y-117250000D03*
%TO.P,SW9,B,B*%
%TO.N,EC1*%
X164540000Y-117250000D03*
%TO.P,SW9,D,D*%
%TO.N,+3.3V*%
X159460000Y-102750000D03*
%TO.P,SW9,E,E*%
%TO.N,SW4*%
X164540000Y-102750000D03*
D17*
%TO.P,SW9,6,6*%
%TO.N,GND*%
X167500000Y-109750000D03*
%TO.P,SW9,7,7*%
X156500000Y-109750000D03*
%TD*%
D18*
%TO.N,GND*%
X161750000Y-81750000D03*
X161750000Y-85750000D03*
X159500000Y-84250000D03*
X159500000Y-83250000D03*
X161250000Y-82250000D03*
X162250000Y-82250000D03*
X164000000Y-83250000D03*
X164000000Y-84250000D03*
X161250000Y-86250000D03*
X162250000Y-86250000D03*
X161250000Y-85250000D03*
X162250000Y-85250000D03*
X159000000Y-76000000D03*
X160000000Y-76000000D03*
X161000000Y-76000000D03*
X159500000Y-76500000D03*
X160500000Y-76500000D03*
X159000000Y-77000000D03*
X160000000Y-77000000D03*
X161000000Y-77000000D03*
X135500000Y-67500000D03*
X128500000Y-62000000D03*
X147500000Y-70250000D03*
X147500000Y-75250000D03*
X129750000Y-74500000D03*
X149750000Y-82750000D03*
X151250000Y-81500000D03*
X142500000Y-93750000D03*
X140000000Y-90000000D03*
X142500000Y-89750000D03*
X128500000Y-87000000D03*
X129500000Y-81500000D03*
X128750000Y-77750000D03*
X128000000Y-73000000D03*
X131500000Y-70250000D03*
X128750000Y-69250000D03*
X151000000Y-74000000D03*
X151000000Y-71250000D03*
X150500000Y-90250000D03*
X150250000Y-87250000D03*
X163000000Y-101500000D03*
X164750000Y-99250000D03*
X165000000Y-96750000D03*
X169250000Y-95500000D03*
X166500000Y-95250000D03*
%TO.N,Net-(U1-GP3)*%
X129000000Y-73750000D03*
X133500000Y-71500000D03*
%TO.N,EC2*%
X150500000Y-72750000D03*
%TO.N,EC1*%
X150250000Y-70000000D03*
%TO.N,+3.3V*%
X145500000Y-102750000D03*
%TO.N,SW1*%
X153000000Y-78000000D03*
%TO.N,SW3*%
X154250000Y-87500000D03*
X157360501Y-92418905D03*
%TO.N,SW1*%
X156715544Y-92892228D03*
%TO.N,SW2*%
X152550003Y-87500000D03*
X156000000Y-93250000D03*
%TO.N,SW4*%
X151750000Y-87500000D03*
X155250000Y-93750000D03*
%TO.N,+5V*%
X152000000Y-63250000D03*
%TD*%
D19*
%TO.N,EC1*%
X146750000Y-73500000D02*
X150250000Y-70000000D01*
%TO.N,EC2*%
X148500000Y-76500000D02*
X148500000Y-74750000D01*
X148500000Y-74750000D02*
X150500000Y-72750000D01*
X147250000Y-77750000D02*
X148500000Y-76500000D01*
X147250000Y-107250000D02*
X147250000Y-77750000D01*
X157250000Y-117250000D02*
X147250000Y-107250000D01*
X159460000Y-117250000D02*
X157250000Y-117250000D01*
%TO.N,Net-(U1-GP3)*%
X129000000Y-73750000D02*
X131250000Y-73750000D01*
X131250000Y-73750000D02*
X133500000Y-71500000D01*
%TO.N,EC1*%
X146750000Y-78500000D02*
X146750000Y-73500000D01*
D20*
%TO.N,+5V*%
X152000000Y-82000000D02*
X149000000Y-85000000D01*
X152000000Y-63250000D02*
X152000000Y-82000000D01*
X149000000Y-98750000D02*
X156210000Y-105960000D01*
X156210000Y-105960000D02*
X174875000Y-105960000D01*
X149000000Y-85000000D02*
X149000000Y-98750000D01*
D19*
%TO.N,SW1*%
X156642228Y-92892228D02*
X156715544Y-92892228D01*
X153250000Y-89500000D02*
X156642228Y-92892228D01*
X153000000Y-86000000D02*
X153250000Y-86250000D01*
X153000000Y-78000000D02*
X153000000Y-86000000D01*
X153250000Y-86250000D02*
X153250000Y-89500000D01*
%TO.N,EC1*%
X146750000Y-105750000D02*
X146750000Y-78500000D01*
X146750000Y-107500000D02*
X146750000Y-105750000D01*
X158250000Y-119000000D02*
X146750000Y-107500000D01*
X162790000Y-119000000D02*
X158250000Y-119000000D01*
X164540000Y-117250000D02*
X162790000Y-119000000D01*
%TO.N,+3.3V*%
X130920000Y-117330000D02*
X145500000Y-102750000D01*
X130920000Y-126460000D02*
X130920000Y-117330000D01*
X149920000Y-126460000D02*
X130920000Y-126460000D01*
X168920000Y-126460000D02*
X149920000Y-126460000D01*
%TO.N,SW3*%
X154250000Y-89308404D02*
X154250000Y-87500000D01*
X157360501Y-92418905D02*
X154250000Y-89308404D01*
%TO.N,SW2*%
X152550003Y-89800003D02*
X156000000Y-93250000D01*
X152550003Y-87500000D02*
X152550003Y-89800003D01*
%TO.N,SW4*%
X151750000Y-90250000D02*
X151750000Y-87500000D01*
X155250000Y-93750000D02*
X151750000Y-90250000D01*
D21*
%TO.N,+19V*%
X177200000Y-84400000D02*
X168600000Y-75800000D01*
X168600000Y-75800000D02*
X168600000Y-64877500D01*
X177200000Y-84400000D02*
X179600000Y-82000000D01*
X177200000Y-108715000D02*
X177200000Y-84400000D01*
X179600000Y-82000000D02*
X182000000Y-82000000D01*
X174875000Y-111040000D02*
X177200000Y-108715000D01*
%TD*%
%TA.AperFunction,Conductor*%
%TO.N,+19V*%
G36*
X170881176Y-60520185D02*
G01*
X170893921Y-60529576D01*
X170902048Y-60536408D01*
X170911675Y-60544501D01*
X170928916Y-60562215D01*
X171041455Y-60703664D01*
X171048669Y-60713723D01*
X171988235Y-62172522D01*
X179482542Y-73808423D01*
X179501995Y-73866977D01*
X179505649Y-73919618D01*
X179505652Y-73919634D01*
X179554465Y-74127176D01*
X179554467Y-74127182D01*
X179554468Y-74127185D01*
X179640591Y-74322237D01*
X179640592Y-74322238D01*
X179761088Y-74498141D01*
X179761093Y-74498147D01*
X179911852Y-74648906D01*
X179911858Y-74648911D01*
X180091686Y-74772096D01*
X180125857Y-74807252D01*
X180250000Y-75000000D01*
X182993907Y-75000000D01*
X183006061Y-75000597D01*
X183182941Y-75018018D01*
X183206769Y-75022757D01*
X183371001Y-75072576D01*
X183393453Y-75081877D01*
X183544798Y-75162772D01*
X183565010Y-75176277D01*
X183697666Y-75285145D01*
X183714854Y-75302333D01*
X183823722Y-75434989D01*
X183837227Y-75455201D01*
X183918121Y-75606543D01*
X183927424Y-75629001D01*
X183977240Y-75793224D01*
X183981982Y-75817065D01*
X183999403Y-75993938D01*
X184000000Y-76006092D01*
X184000000Y-83058618D01*
X183999452Y-83070259D01*
X183983473Y-83239723D01*
X183979121Y-83262594D01*
X183933371Y-83420477D01*
X183924821Y-83442131D01*
X183850373Y-83588666D01*
X183837926Y-83608340D01*
X183737397Y-83738379D01*
X183721492Y-83755380D01*
X183598429Y-83864336D01*
X183579626Y-83878065D01*
X183438359Y-83962100D01*
X183417322Y-83972071D01*
X183262846Y-84028217D01*
X183240314Y-84034081D01*
X183072268Y-84061300D01*
X183060690Y-84062620D01*
X180308664Y-84246088D01*
X180308608Y-84246091D01*
X180250007Y-84249998D01*
X180194210Y-84260142D01*
X180194211Y-84260143D01*
X177591461Y-84733370D01*
X177585954Y-84734244D01*
X177505164Y-84745208D01*
X177494064Y-84746209D01*
X177417544Y-84749652D01*
X177412606Y-84749875D01*
X177407034Y-84750000D01*
X176920307Y-84750000D01*
X176908153Y-84749403D01*
X176731278Y-84731982D01*
X176707437Y-84727240D01*
X176543214Y-84677424D01*
X176520756Y-84668121D01*
X176369414Y-84587227D01*
X176349202Y-84573722D01*
X176211813Y-84460969D01*
X176202797Y-84452797D01*
X166538841Y-74788841D01*
X166530866Y-74780064D01*
X166524293Y-74772096D01*
X166420643Y-74646439D01*
X166407382Y-74626807D01*
X166360947Y-74541478D01*
X166327429Y-74479885D01*
X166318149Y-74458101D01*
X166267595Y-74298647D01*
X166262628Y-74275493D01*
X166242636Y-74103431D01*
X166241832Y-74091600D01*
X166238392Y-73919618D01*
X166003556Y-62177825D01*
X166003796Y-62167240D01*
X166013917Y-62012810D01*
X166017095Y-61991901D01*
X166053329Y-61841436D01*
X166056238Y-61831282D01*
X166295811Y-61112563D01*
X166300045Y-61101622D01*
X166369557Y-60944540D01*
X166381045Y-60924072D01*
X166475570Y-60787771D01*
X166490721Y-60769830D01*
X166609244Y-60653811D01*
X166627507Y-60639046D01*
X166765784Y-60547463D01*
X166786502Y-60536409D01*
X166804191Y-60529029D01*
X166849660Y-60510060D01*
X166897404Y-60500500D01*
X170814137Y-60500500D01*
X170881176Y-60520185D01*
G37*
%TD.AperFunction*%
%TD*%
%TA.AperFunction,Conductor*%
%TO.N,GND*%
G36*
X160149443Y-60520185D02*
G01*
X160195198Y-60572989D01*
X160205142Y-60642147D01*
X160176117Y-60705703D01*
X160148376Y-60729494D01*
X160009001Y-60817068D01*
X159798248Y-60985138D01*
X159607638Y-61175748D01*
X159439568Y-61386501D01*
X159296152Y-61614747D01*
X159179198Y-61857604D01*
X159179192Y-61857618D01*
X159090167Y-62112036D01*
X159090163Y-62112048D01*
X159030181Y-62374848D01*
X159030178Y-62374866D01*
X159000000Y-62642712D01*
X159000000Y-64627500D01*
X160691759Y-64627500D01*
X160678822Y-64658733D01*
X160650000Y-64803631D01*
X160650000Y-64951369D01*
X160678822Y-65096267D01*
X160691759Y-65127500D01*
X159000000Y-65127500D01*
X159000000Y-67112287D01*
X159030178Y-67380133D01*
X159030181Y-67380151D01*
X159090163Y-67642951D01*
X159090167Y-67642963D01*
X159179192Y-67897381D01*
X159179198Y-67897395D01*
X159296152Y-68140252D01*
X159439568Y-68368498D01*
X159607638Y-68579251D01*
X159798248Y-68769861D01*
X160009001Y-68937931D01*
X160237247Y-69081347D01*
X160480104Y-69198301D01*
X160480118Y-69198307D01*
X160734536Y-69287332D01*
X160734548Y-69287336D01*
X160997348Y-69347318D01*
X160997366Y-69347321D01*
X161149999Y-69364518D01*
X161150000Y-69364518D01*
X161150000Y-65585740D01*
X161181233Y-65598678D01*
X161326131Y-65627500D01*
X161473869Y-65627500D01*
X161618767Y-65598678D01*
X161650000Y-65585740D01*
X161650000Y-69364518D01*
X161802633Y-69347321D01*
X161802651Y-69347318D01*
X162065451Y-69287336D01*
X162065463Y-69287332D01*
X162319881Y-69198307D01*
X162319895Y-69198301D01*
X162562752Y-69081347D01*
X162790998Y-68937931D01*
X163001751Y-68769861D01*
X163192361Y-68579251D01*
X163360431Y-68368498D01*
X163503847Y-68140252D01*
X163620801Y-67897395D01*
X163620807Y-67897381D01*
X163709832Y-67642963D01*
X163709836Y-67642951D01*
X163769818Y-67380151D01*
X163769821Y-67380133D01*
X163799999Y-67112287D01*
X163800000Y-67112283D01*
X163800000Y-65127500D01*
X162108241Y-65127500D01*
X162121178Y-65096267D01*
X162150000Y-64951369D01*
X162150000Y-64803631D01*
X162121178Y-64658733D01*
X162108241Y-64627500D01*
X163800000Y-64627500D01*
X163800000Y-62642716D01*
X163799999Y-62642712D01*
X163769821Y-62374866D01*
X163769818Y-62374848D01*
X163709836Y-62112048D01*
X163709832Y-62112036D01*
X163620807Y-61857618D01*
X163620801Y-61857604D01*
X163503847Y-61614747D01*
X163360431Y-61386501D01*
X163192361Y-61175748D01*
X163001751Y-60985138D01*
X162790998Y-60817068D01*
X162651624Y-60729494D01*
X162605333Y-60677160D01*
X162594684Y-60608106D01*
X162623059Y-60544258D01*
X162681449Y-60505886D01*
X162717596Y-60500500D01*
X165276030Y-60500500D01*
X165343069Y-60520185D01*
X165388824Y-60572989D01*
X165398768Y-60642147D01*
X165389424Y-60674677D01*
X165380560Y-60694708D01*
X165362303Y-60738753D01*
X165358078Y-60749672D01*
X165341917Y-60794575D01*
X165102334Y-61513324D01*
X165089624Y-61554354D01*
X165086715Y-61564506D01*
X165075774Y-61606027D01*
X165039539Y-61756498D01*
X165023011Y-61840810D01*
X165020459Y-61857604D01*
X165019834Y-61861717D01*
X165010569Y-61947053D01*
X165000448Y-62101483D01*
X165000448Y-62101488D01*
X164998553Y-62144470D01*
X164998314Y-62155020D01*
X164998256Y-62197946D01*
X165236532Y-74111709D01*
X165238644Y-74159747D01*
X165239450Y-74171600D01*
X165243857Y-74219511D01*
X165263845Y-74391528D01*
X165263852Y-74391579D01*
X165279493Y-74486384D01*
X165279495Y-74486399D01*
X165284464Y-74509556D01*
X165284468Y-74509573D01*
X165309108Y-74602508D01*
X165309122Y-74602555D01*
X165359663Y-74761968D01*
X165393088Y-74852172D01*
X165393091Y-74852180D01*
X165402372Y-74873966D01*
X165444244Y-74960527D01*
X165492988Y-75050097D01*
X165524188Y-75107430D01*
X165524197Y-75107445D01*
X165524204Y-75107457D01*
X165574168Y-75189644D01*
X165587421Y-75209264D01*
X165632697Y-75269833D01*
X165644977Y-75286261D01*
X165720928Y-75378338D01*
X165755216Y-75419906D01*
X165786671Y-75456232D01*
X165786684Y-75456247D01*
X165794659Y-75465024D01*
X165827845Y-75499837D01*
X175491801Y-85163793D01*
X175527528Y-85197808D01*
X175527543Y-85197822D01*
X175536523Y-85205962D01*
X175573941Y-85238240D01*
X175711297Y-85350966D01*
X175711302Y-85350969D01*
X175711317Y-85350982D01*
X175790583Y-85409769D01*
X175810795Y-85423274D01*
X175867738Y-85457404D01*
X175895422Y-85473997D01*
X175895430Y-85474002D01*
X175945872Y-85500963D01*
X176046767Y-85554893D01*
X176046797Y-85554907D01*
X176135926Y-85597064D01*
X176135943Y-85597071D01*
X176135947Y-85597073D01*
X176158405Y-85606376D01*
X176217277Y-85627441D01*
X176273763Y-85668558D01*
X176299055Y-85733690D01*
X176299500Y-85744191D01*
X176299500Y-105264509D01*
X176279815Y-105331548D01*
X176227011Y-105377303D01*
X176157853Y-105387247D01*
X176094297Y-105358222D01*
X176065016Y-105320804D01*
X176030052Y-105252185D01*
X176030051Y-105252184D01*
X175905109Y-105080213D01*
X175754786Y-104929890D01*
X175582820Y-104804951D01*
X175393414Y-104708444D01*
X175393413Y-104708443D01*
X175393412Y-104708443D01*
X175191243Y-104642754D01*
X175191241Y-104642753D01*
X175191240Y-104642753D01*
X175029957Y-104617208D01*
X174981287Y-104609500D01*
X174768713Y-104609500D01*
X174720042Y-104617208D01*
X174558760Y-104642753D01*
X174356585Y-104708444D01*
X174167179Y-104804951D01*
X173995213Y-104929890D01*
X173844892Y-105080211D01*
X173788097Y-105158385D01*
X173732767Y-105201051D01*
X173687779Y-105209500D01*
X156572230Y-105209500D01*
X156505191Y-105189815D01*
X156484549Y-105173181D01*
X153951146Y-102639778D01*
X158059500Y-102639778D01*
X158059500Y-102860221D01*
X158093985Y-103077952D01*
X158162103Y-103287603D01*
X158162104Y-103287606D01*
X158222055Y-103405263D01*
X158249636Y-103459394D01*
X158262187Y-103484025D01*
X158391752Y-103662358D01*
X158391756Y-103662363D01*
X158547636Y-103818243D01*
X158547641Y-103818247D01*
X158703192Y-103931260D01*
X158725978Y-103947815D01*
X158854375Y-104013237D01*
X158922393Y-104047895D01*
X158922396Y-104047896D01*
X159027221Y-104081955D01*
X159132049Y-104116015D01*
X159349778Y-104150500D01*
X159349779Y-104150500D01*
X159570221Y-104150500D01*
X159570222Y-104150500D01*
X159787951Y-104116015D01*
X159997606Y-104047895D01*
X160194022Y-103947815D01*
X160372365Y-103818242D01*
X160528242Y-103662365D01*
X160657815Y-103484022D01*
X160757895Y-103287606D01*
X160826015Y-103077951D01*
X160860500Y-102860222D01*
X160860500Y-102639778D01*
X163139500Y-102639778D01*
X163139500Y-102860221D01*
X163173985Y-103077952D01*
X163242103Y-103287603D01*
X163242104Y-103287606D01*
X163302055Y-103405263D01*
X163329636Y-103459394D01*
X163342187Y-103484025D01*
X163471752Y-103662358D01*
X163471756Y-103662363D01*
X163627636Y-103818243D01*
X163627641Y-103818247D01*
X163783192Y-103931260D01*
X163805978Y-103947815D01*
X163934375Y-104013237D01*
X164002393Y-104047895D01*
X164002396Y-104047896D01*
X164107221Y-104081955D01*
X164212049Y-104116015D01*
X164429778Y-104150500D01*
X164429779Y-104150500D01*
X164650221Y-104150500D01*
X164650222Y-104150500D01*
X164867951Y-104116015D01*
X165077606Y-104047895D01*
X165274022Y-103947815D01*
X165452365Y-103818242D01*
X165608242Y-103662365D01*
X165737815Y-103484022D01*
X165837895Y-103287606D01*
X165906015Y-103077951D01*
X165940500Y-102860222D01*
X165940500Y-102639778D01*
X165906015Y-102422049D01*
X165846771Y-102239711D01*
X165837896Y-102212396D01*
X165837895Y-102212393D01*
X165781663Y-102102034D01*
X165737815Y-102015978D01*
X165689516Y-101949500D01*
X165608247Y-101837641D01*
X165608243Y-101837636D01*
X165452363Y-101681756D01*
X165452358Y-101681752D01*
X165274025Y-101552187D01*
X165274024Y-101552186D01*
X165274022Y-101552185D01*
X165211096Y-101520122D01*
X165077606Y-101452104D01*
X165077603Y-101452103D01*
X164867952Y-101383985D01*
X164759086Y-101366742D01*
X164650222Y-101349500D01*
X164429778Y-101349500D01*
X164357201Y-101360995D01*
X164212047Y-101383985D01*
X164002396Y-101452103D01*
X164002393Y-101452104D01*
X163805974Y-101552187D01*
X163627641Y-101681752D01*
X163627636Y-101681756D01*
X163471756Y-101837636D01*
X163471752Y-101837641D01*
X163342187Y-102015974D01*
X163242104Y-102212393D01*
X163242103Y-102212396D01*
X163173985Y-102422047D01*
X163139500Y-102639778D01*
X160860500Y-102639778D01*
X160826015Y-102422049D01*
X160766771Y-102239711D01*
X160757896Y-102212396D01*
X160757895Y-102212393D01*
X160701663Y-102102034D01*
X160657815Y-102015978D01*
X160609516Y-101949500D01*
X160528247Y-101837641D01*
X160528243Y-101837636D01*
X160372363Y-101681756D01*
X160372358Y-101681752D01*
X160194025Y-101552187D01*
X160194024Y-101552186D01*
X160194022Y-101552185D01*
X160131096Y-101520122D01*
X159997606Y-101452104D01*
X159997603Y-101452103D01*
X159787952Y-101383985D01*
X159679086Y-101366742D01*
X159570222Y-101349500D01*
X159349778Y-101349500D01*
X159277201Y-101360995D01*
X159132047Y-101383985D01*
X158922396Y-101452103D01*
X158922393Y-101452104D01*
X158725974Y-101552187D01*
X158547641Y-101681752D01*
X158547636Y-101681756D01*
X158391756Y-101837636D01*
X158391752Y-101837641D01*
X158262187Y-102015974D01*
X158162104Y-102212393D01*
X158162103Y-102212396D01*
X158093985Y-102422047D01*
X158059500Y-102639778D01*
X153951146Y-102639778D01*
X149786819Y-98475451D01*
X149753334Y-98414128D01*
X149750500Y-98387770D01*
X149750500Y-94273744D01*
X149770185Y-94206705D01*
X149822989Y-94160950D01*
X149892147Y-94151006D01*
X149955703Y-94180031D01*
X149980805Y-94210434D01*
X149980819Y-94210426D01*
X149980907Y-94210558D01*
X149981888Y-94211746D01*
X149983075Y-94213802D01*
X150142718Y-94421851D01*
X150142726Y-94421860D01*
X150328140Y-94607274D01*
X150328148Y-94607281D01*
X150536196Y-94766924D01*
X150763299Y-94898041D01*
X150763309Y-94898046D01*
X151005571Y-94998394D01*
X151005581Y-94998398D01*
X151258884Y-95066270D01*
X151518880Y-95100500D01*
X151518887Y-95100500D01*
X151781113Y-95100500D01*
X151781120Y-95100500D01*
X152041116Y-95066270D01*
X152294419Y-94998398D01*
X152536697Y-94898043D01*
X152763803Y-94766924D01*
X152971851Y-94607282D01*
X152971855Y-94607277D01*
X152971860Y-94607274D01*
X153157274Y-94421860D01*
X153157277Y-94421855D01*
X153157282Y-94421851D01*
X153316924Y-94213803D01*
X153448043Y-93986697D01*
X153449369Y-93983497D01*
X153481665Y-93905526D01*
X153548398Y-93744419D01*
X153616270Y-93491116D01*
X153644598Y-93275947D01*
X153672865Y-93212052D01*
X153731189Y-93173581D01*
X153801054Y-93172750D01*
X153855218Y-93204453D01*
X154415425Y-93764660D01*
X154448910Y-93825983D01*
X154449361Y-93828149D01*
X154480261Y-93983491D01*
X154480264Y-93983501D01*
X154540602Y-94129172D01*
X154540609Y-94129185D01*
X154628210Y-94260288D01*
X154628213Y-94260292D01*
X154739707Y-94371786D01*
X154739711Y-94371789D01*
X154870814Y-94459390D01*
X154870827Y-94459397D01*
X155016498Y-94519735D01*
X155016503Y-94519737D01*
X155171153Y-94550499D01*
X155171156Y-94550500D01*
X155171158Y-94550500D01*
X155328844Y-94550500D01*
X155328845Y-94550499D01*
X155483497Y-94519737D01*
X155629179Y-94459394D01*
X155760289Y-94371789D01*
X155871789Y-94260289D01*
X155959394Y-94129179D01*
X155960275Y-94127049D01*
X155961035Y-94126106D01*
X155962264Y-94123809D01*
X155962699Y-94124041D01*
X156004115Y-94072646D01*
X156070408Y-94050579D01*
X156074838Y-94050500D01*
X156078844Y-94050500D01*
X156078845Y-94050499D01*
X156233497Y-94019737D01*
X156379179Y-93959394D01*
X156510289Y-93871789D01*
X156621789Y-93760289D01*
X156630108Y-93747837D01*
X156683719Y-93703033D01*
X156733211Y-93692728D01*
X156794388Y-93692728D01*
X156794389Y-93692727D01*
X156949041Y-93661965D01*
X157094723Y-93601622D01*
X157225833Y-93514017D01*
X157337333Y-93402517D01*
X157424938Y-93271407D01*
X157424945Y-93271388D01*
X157426672Y-93268160D01*
X157428034Y-93266772D01*
X157428323Y-93266341D01*
X157428404Y-93266395D01*
X157475628Y-93218309D01*
X157511841Y-93204983D01*
X157593998Y-93188642D01*
X157739680Y-93128299D01*
X157870790Y-93040694D01*
X157982290Y-92929194D01*
X158069895Y-92798084D01*
X158130238Y-92652402D01*
X158161001Y-92497747D01*
X158161001Y-92340063D01*
X158161001Y-92340060D01*
X158161000Y-92340058D01*
X158160463Y-92337360D01*
X158130238Y-92185408D01*
X158130236Y-92185403D01*
X158069898Y-92039732D01*
X158069891Y-92039719D01*
X157982290Y-91908616D01*
X157982287Y-91908612D01*
X157870793Y-91797118D01*
X157870789Y-91797115D01*
X157739686Y-91709514D01*
X157739673Y-91709507D01*
X157594002Y-91649169D01*
X157593992Y-91649166D01*
X157438652Y-91618267D01*
X157376742Y-91585882D01*
X157375163Y-91584331D01*
X154886819Y-89095987D01*
X154853334Y-89034664D01*
X154850500Y-89008306D01*
X154850500Y-88079765D01*
X154870185Y-88012726D01*
X154871398Y-88010874D01*
X154959390Y-87879185D01*
X154959390Y-87879184D01*
X154959394Y-87879179D01*
X155019737Y-87733497D01*
X155050500Y-87578842D01*
X155050500Y-87421158D01*
X155050500Y-87421155D01*
X155050499Y-87421153D01*
X155019738Y-87266510D01*
X155019737Y-87266503D01*
X155019735Y-87266498D01*
X154959397Y-87120827D01*
X154959390Y-87120814D01*
X154871789Y-86989711D01*
X154871786Y-86989707D01*
X154760292Y-86878213D01*
X154760288Y-86878210D01*
X154629185Y-86790609D01*
X154629172Y-86790602D01*
X154483501Y-86730264D01*
X154483489Y-86730261D01*
X154328845Y-86699500D01*
X154328842Y-86699500D01*
X154171158Y-86699500D01*
X154171155Y-86699500D01*
X154016510Y-86730261D01*
X154010676Y-86732031D01*
X154009873Y-86729385D01*
X153952056Y-86735396D01*
X153889687Y-86703902D01*
X153854245Y-86643689D01*
X153850500Y-86613444D01*
X153850500Y-86170945D01*
X153850500Y-86170943D01*
X153809577Y-86018216D01*
X153749022Y-85913330D01*
X153730524Y-85881290D01*
X153730521Y-85881286D01*
X153730520Y-85881284D01*
X153636818Y-85787582D01*
X153603334Y-85726258D01*
X153600500Y-85699901D01*
X153600500Y-78579765D01*
X153620185Y-78512726D01*
X153621398Y-78510874D01*
X153709390Y-78379185D01*
X153709390Y-78379184D01*
X153709394Y-78379179D01*
X153769737Y-78233497D01*
X153800500Y-78078842D01*
X153800500Y-77921158D01*
X153800500Y-77921155D01*
X153800499Y-77921153D01*
X153769738Y-77766510D01*
X153769737Y-77766503D01*
X153769735Y-77766498D01*
X153709397Y-77620827D01*
X153709390Y-77620814D01*
X153621789Y-77489711D01*
X153621786Y-77489707D01*
X153510292Y-77378213D01*
X153510288Y-77378210D01*
X153379185Y-77290609D01*
X153379172Y-77290602D01*
X153233501Y-77230264D01*
X153233489Y-77230261D01*
X153078845Y-77199500D01*
X153078842Y-77199500D01*
X152921158Y-77199500D01*
X152898690Y-77203969D01*
X152829099Y-77197740D01*
X152773922Y-77154877D01*
X152750678Y-77088987D01*
X152750500Y-77082351D01*
X152750500Y-63554604D01*
X152759939Y-63507151D01*
X152769737Y-63483497D01*
X152800500Y-63328842D01*
X152800500Y-63171158D01*
X152800500Y-63171155D01*
X152800499Y-63171153D01*
X152769738Y-63016510D01*
X152769737Y-63016503D01*
X152762901Y-63000000D01*
X152709397Y-62870827D01*
X152709390Y-62870814D01*
X152621789Y-62739711D01*
X152621786Y-62739707D01*
X152510292Y-62628213D01*
X152510288Y-62628210D01*
X152379185Y-62540609D01*
X152379172Y-62540602D01*
X152233501Y-62480264D01*
X152233489Y-62480261D01*
X152078845Y-62449500D01*
X152078842Y-62449500D01*
X151921158Y-62449500D01*
X151921155Y-62449500D01*
X151766510Y-62480261D01*
X151766498Y-62480264D01*
X151620827Y-62540602D01*
X151620814Y-62540609D01*
X151489711Y-62628210D01*
X151489707Y-62628213D01*
X151378213Y-62739707D01*
X151378210Y-62739711D01*
X151290609Y-62870814D01*
X151290602Y-62870827D01*
X151230264Y-63016498D01*
X151230261Y-63016510D01*
X151199500Y-63171153D01*
X151199500Y-63328846D01*
X151230261Y-63483489D01*
X151230263Y-63483497D01*
X151240061Y-63507151D01*
X151249500Y-63554604D01*
X151249500Y-69697809D01*
X151229815Y-69764848D01*
X151177011Y-69810603D01*
X151107853Y-69820547D01*
X151044297Y-69791522D01*
X151010939Y-69745261D01*
X150959397Y-69620827D01*
X150959390Y-69620814D01*
X150871789Y-69489711D01*
X150871786Y-69489707D01*
X150760292Y-69378213D01*
X150760288Y-69378210D01*
X150629185Y-69290609D01*
X150629172Y-69290602D01*
X150483501Y-69230264D01*
X150483489Y-69230261D01*
X150328845Y-69199500D01*
X150328842Y-69199500D01*
X150171158Y-69199500D01*
X150171155Y-69199500D01*
X150016510Y-69230261D01*
X150016498Y-69230264D01*
X149870827Y-69290602D01*
X149870814Y-69290609D01*
X149739711Y-69378210D01*
X149739707Y-69378213D01*
X149628213Y-69489707D01*
X149628210Y-69489711D01*
X149540609Y-69620814D01*
X149540602Y-69620827D01*
X149480264Y-69766498D01*
X149480261Y-69766508D01*
X149449361Y-69921850D01*
X149416976Y-69983761D01*
X149415425Y-69985339D01*
X146269481Y-73131282D01*
X146269479Y-73131285D01*
X146219361Y-73218094D01*
X146219359Y-73218096D01*
X146190425Y-73268209D01*
X146190424Y-73268210D01*
X146190423Y-73268215D01*
X146149499Y-73420943D01*
X146149499Y-73420945D01*
X146149499Y-73589046D01*
X146149500Y-73589059D01*
X146149500Y-101989240D01*
X146129815Y-102056279D01*
X146077011Y-102102034D01*
X146007853Y-102111978D01*
X145956610Y-102092342D01*
X145879190Y-102040612D01*
X145879172Y-102040602D01*
X145733501Y-101980264D01*
X145733489Y-101980261D01*
X145578845Y-101949500D01*
X145578842Y-101949500D01*
X145421158Y-101949500D01*
X145421155Y-101949500D01*
X145266510Y-101980261D01*
X145266498Y-101980264D01*
X145120827Y-102040602D01*
X145120814Y-102040609D01*
X144989711Y-102128210D01*
X144989707Y-102128213D01*
X144878213Y-102239707D01*
X144878210Y-102239711D01*
X144790609Y-102370814D01*
X144790602Y-102370827D01*
X144730264Y-102516498D01*
X144730261Y-102516508D01*
X144699362Y-102671848D01*
X144666977Y-102733759D01*
X144665426Y-102735337D01*
X130561035Y-116839728D01*
X130499712Y-116873213D01*
X130430020Y-116868229D01*
X130374087Y-116826357D01*
X130350415Y-116768233D01*
X130345698Y-116732412D01*
X130316270Y-116508884D01*
X130248398Y-116255581D01*
X130248394Y-116255571D01*
X130148046Y-116013309D01*
X130148041Y-116013299D01*
X130016924Y-115786196D01*
X129857281Y-115578148D01*
X129857274Y-115578140D01*
X129671860Y-115392726D01*
X129671851Y-115392718D01*
X129463803Y-115233075D01*
X129236700Y-115101958D01*
X129236690Y-115101953D01*
X128994428Y-115001605D01*
X128994421Y-115001603D01*
X128994419Y-115001602D01*
X128741116Y-114933730D01*
X128683339Y-114926123D01*
X128481127Y-114899500D01*
X128481120Y-114899500D01*
X128218880Y-114899500D01*
X128218872Y-114899500D01*
X127987772Y-114929926D01*
X127958884Y-114933730D01*
X127705581Y-115001602D01*
X127705571Y-115001605D01*
X127463309Y-115101953D01*
X127463299Y-115101958D01*
X127236196Y-115233075D01*
X127028148Y-115392718D01*
X126842718Y-115578148D01*
X126683075Y-115786196D01*
X126551958Y-116013299D01*
X126551953Y-116013309D01*
X126451605Y-116255571D01*
X126451602Y-116255581D01*
X126387794Y-116493719D01*
X126383730Y-116508885D01*
X126349500Y-116768872D01*
X126349500Y-117031127D01*
X126358333Y-117098215D01*
X126383730Y-117291116D01*
X126451602Y-117544418D01*
X126451605Y-117544428D01*
X126551953Y-117786690D01*
X126551958Y-117786700D01*
X126683075Y-118013803D01*
X126842718Y-118221851D01*
X126842726Y-118221860D01*
X127028140Y-118407274D01*
X127028148Y-118407281D01*
X127236196Y-118566924D01*
X127463299Y-118698041D01*
X127463309Y-118698046D01*
X127705571Y-118798394D01*
X127705581Y-118798398D01*
X127958884Y-118866270D01*
X128218880Y-118900500D01*
X128218887Y-118900500D01*
X128481113Y-118900500D01*
X128481120Y-118900500D01*
X128741116Y-118866270D01*
X128994419Y-118798398D01*
X129236697Y-118698043D01*
X129463803Y-118566924D01*
X129671851Y-118407282D01*
X129671855Y-118407277D01*
X129671860Y-118407274D01*
X129857274Y-118221860D01*
X129857277Y-118221855D01*
X129857282Y-118221851D01*
X130016924Y-118013803D01*
X130088113Y-117890498D01*
X130138679Y-117842284D01*
X130207286Y-117829060D01*
X130272151Y-117855028D01*
X130312680Y-117911942D01*
X130319500Y-117952499D01*
X130319500Y-124893699D01*
X130299815Y-124960738D01*
X130251795Y-125004184D01*
X130081151Y-125091132D01*
X129877350Y-125239201D01*
X129877345Y-125239205D01*
X129699205Y-125417345D01*
X129699201Y-125417350D01*
X129551132Y-125621151D01*
X129436760Y-125845616D01*
X129358910Y-126085214D01*
X129319500Y-126334038D01*
X129319500Y-126585961D01*
X129358910Y-126834785D01*
X129436760Y-127074383D01*
X129501860Y-127202147D01*
X129542993Y-127282876D01*
X129551132Y-127298848D01*
X129699201Y-127502649D01*
X129699205Y-127502654D01*
X129877345Y-127680794D01*
X129877350Y-127680798D01*
X130055117Y-127809952D01*
X130081155Y-127828870D01*
X130224184Y-127901747D01*
X130305616Y-127943239D01*
X130305618Y-127943239D01*
X130305621Y-127943241D01*
X130545215Y-128021090D01*
X130794038Y-128060500D01*
X130794039Y-128060500D01*
X131045961Y-128060500D01*
X131045962Y-128060500D01*
X131294785Y-128021090D01*
X131534379Y-127943241D01*
X131758845Y-127828870D01*
X131962656Y-127680793D01*
X132140793Y-127502656D01*
X132288870Y-127298845D01*
X132375815Y-127128204D01*
X132423789Y-127077409D01*
X132486300Y-127060500D01*
X134465462Y-127060500D01*
X134532501Y-127080185D01*
X134578256Y-127132989D01*
X134588200Y-127202147D01*
X134559175Y-127265703D01*
X134540948Y-127282876D01*
X134512959Y-127304352D01*
X134512952Y-127304358D01*
X134304358Y-127512952D01*
X134304352Y-127512959D01*
X134124761Y-127747006D01*
X133977258Y-128002489D01*
X133977254Y-128002499D01*
X133864364Y-128275038D01*
X133864361Y-128275048D01*
X133788008Y-128560004D01*
X133788006Y-128560015D01*
X133749500Y-128852486D01*
X133749500Y-129147513D01*
X133781571Y-129391113D01*
X133788007Y-129439993D01*
X133788008Y-129439995D01*
X133864361Y-129724951D01*
X133864364Y-129724961D01*
X133977254Y-129997500D01*
X133977258Y-129997510D01*
X134124761Y-130252993D01*
X134304352Y-130487040D01*
X134304358Y-130487047D01*
X134512952Y-130695641D01*
X134512959Y-130695647D01*
X134747006Y-130875238D01*
X135002489Y-131022741D01*
X135002490Y-131022741D01*
X135002493Y-131022743D01*
X135275048Y-131135639D01*
X135560007Y-131211993D01*
X135852494Y-131250500D01*
X135852501Y-131250500D01*
X136147499Y-131250500D01*
X136147506Y-131250500D01*
X136439993Y-131211993D01*
X136724952Y-131135639D01*
X136997507Y-131022743D01*
X137252994Y-130875238D01*
X137487042Y-130695646D01*
X137695646Y-130487042D01*
X137875238Y-130252994D01*
X138022743Y-129997507D01*
X138135639Y-129724952D01*
X138211993Y-129439993D01*
X138250500Y-129147506D01*
X138250500Y-128852494D01*
X138211993Y-128560007D01*
X138135639Y-128275048D01*
X138022743Y-128002493D01*
X137875238Y-127747006D01*
X137695646Y-127512958D01*
X137695641Y-127512952D01*
X137487047Y-127304358D01*
X137487040Y-127304352D01*
X137459052Y-127282876D01*
X137417849Y-127226448D01*
X137413694Y-127156702D01*
X137447906Y-127095782D01*
X137509624Y-127063029D01*
X137534538Y-127060500D01*
X148353700Y-127060500D01*
X148420739Y-127080185D01*
X148464184Y-127128204D01*
X148542993Y-127282876D01*
X148551132Y-127298848D01*
X148699201Y-127502649D01*
X148699205Y-127502654D01*
X148877345Y-127680794D01*
X148877350Y-127680798D01*
X149055117Y-127809952D01*
X149081155Y-127828870D01*
X149224184Y-127901747D01*
X149305616Y-127943239D01*
X149305618Y-127943239D01*
X149305621Y-127943241D01*
X149545215Y-128021090D01*
X149794038Y-128060500D01*
X149794039Y-128060500D01*
X150045961Y-128060500D01*
X150045962Y-128060500D01*
X150294785Y-128021090D01*
X150534379Y-127943241D01*
X150758845Y-127828870D01*
X150962656Y-127680793D01*
X151140793Y-127502656D01*
X151288870Y-127298845D01*
X151375815Y-127128204D01*
X151423789Y-127077409D01*
X151486300Y-127060500D01*
X153465462Y-127060500D01*
X153532501Y-127080185D01*
X153578256Y-127132989D01*
X153588200Y-127202147D01*
X153559175Y-127265703D01*
X153540948Y-127282876D01*
X153512959Y-127304352D01*
X153512952Y-127304358D01*
X153304358Y-127512952D01*
X153304352Y-127512959D01*
X153124761Y-127747006D01*
X152977258Y-128002489D01*
X152977254Y-128002499D01*
X152864364Y-128275038D01*
X152864361Y-128275048D01*
X152788008Y-128560004D01*
X152788006Y-128560015D01*
X152749500Y-128852486D01*
X152749500Y-129147513D01*
X152781571Y-129391113D01*
X152788007Y-129439993D01*
X152788008Y-129439995D01*
X152864361Y-129724951D01*
X152864364Y-129724961D01*
X152977254Y-129997500D01*
X152977258Y-129997510D01*
X153124761Y-130252993D01*
X153304352Y-130487040D01*
X153304358Y-130487047D01*
X153512952Y-130695641D01*
X153512959Y-130695647D01*
X153747006Y-130875238D01*
X154002489Y-131022741D01*
X154002490Y-131022741D01*
X154002493Y-131022743D01*
X154275048Y-131135639D01*
X154560007Y-131211993D01*
X154852494Y-131250500D01*
X154852501Y-131250500D01*
X155147499Y-131250500D01*
X155147506Y-131250500D01*
X155439993Y-131211993D01*
X155724952Y-131135639D01*
X155997507Y-131022743D01*
X156252994Y-130875238D01*
X156487042Y-130695646D01*
X156695646Y-130487042D01*
X156875238Y-130252994D01*
X157022743Y-129997507D01*
X157135639Y-129724952D01*
X157211993Y-129439993D01*
X157250500Y-129147506D01*
X157250500Y-128852494D01*
X157250499Y-128852486D01*
X171749500Y-128852486D01*
X171749500Y-129147513D01*
X171781571Y-129391113D01*
X171788007Y-129439993D01*
X171788008Y-129439995D01*
X171864361Y-129724951D01*
X171864364Y-129724961D01*
X171977254Y-129997500D01*
X171977258Y-129997510D01*
X172124761Y-130252993D01*
X172304352Y-130487040D01*
X172304358Y-130487047D01*
X172512952Y-130695641D01*
X172512959Y-130695647D01*
X172747006Y-130875238D01*
X173002489Y-131022741D01*
X173002490Y-131022741D01*
X173002493Y-131022743D01*
X173275048Y-131135639D01*
X173560007Y-131211993D01*
X173852494Y-131250500D01*
X173852501Y-131250500D01*
X174147499Y-131250500D01*
X174147506Y-131250500D01*
X174439993Y-131211993D01*
X174724952Y-131135639D01*
X174997507Y-131022743D01*
X175252994Y-130875238D01*
X175487042Y-130695646D01*
X175695646Y-130487042D01*
X175875238Y-130252994D01*
X176022743Y-129997507D01*
X176135639Y-129724952D01*
X176211993Y-129439993D01*
X176250500Y-129147506D01*
X176250500Y-128852494D01*
X176211993Y-128560007D01*
X176135639Y-128275048D01*
X176022743Y-128002493D01*
X175875238Y-127747006D01*
X175695646Y-127512958D01*
X175695641Y-127512952D01*
X175487047Y-127304358D01*
X175487040Y-127304352D01*
X175252993Y-127124761D01*
X174997510Y-126977258D01*
X174997500Y-126977254D01*
X174724961Y-126864364D01*
X174724954Y-126864362D01*
X174724952Y-126864361D01*
X174439993Y-126788007D01*
X174391113Y-126781571D01*
X174147513Y-126749500D01*
X174147506Y-126749500D01*
X173852494Y-126749500D01*
X173852486Y-126749500D01*
X173574085Y-126786153D01*
X173560007Y-126788007D01*
X173385428Y-126834785D01*
X173275048Y-126864361D01*
X173275038Y-126864364D01*
X173002499Y-126977254D01*
X173002489Y-126977258D01*
X172747006Y-127124761D01*
X172512959Y-127304352D01*
X172512952Y-127304358D01*
X172304358Y-127512952D01*
X172304352Y-127512959D01*
X172124761Y-127747006D01*
X171977258Y-128002489D01*
X171977254Y-128002499D01*
X171864364Y-128275038D01*
X171864361Y-128275048D01*
X171788008Y-128560004D01*
X171788006Y-128560015D01*
X171749500Y-128852486D01*
X157250499Y-128852486D01*
X157211993Y-128560007D01*
X157135639Y-128275048D01*
X157022743Y-128002493D01*
X156875238Y-127747006D01*
X156695646Y-127512958D01*
X156695641Y-127512952D01*
X156487047Y-127304358D01*
X156487040Y-127304352D01*
X156459052Y-127282876D01*
X156417849Y-127226448D01*
X156413694Y-127156702D01*
X156447906Y-127095782D01*
X156509624Y-127063029D01*
X156534538Y-127060500D01*
X167353700Y-127060500D01*
X167420739Y-127080185D01*
X167464184Y-127128204D01*
X167542993Y-127282876D01*
X167551132Y-127298848D01*
X167699201Y-127502649D01*
X167699205Y-127502654D01*
X167877345Y-127680794D01*
X167877350Y-127680798D01*
X168055117Y-127809952D01*
X168081155Y-127828870D01*
X168224184Y-127901747D01*
X168305616Y-127943239D01*
X168305618Y-127943239D01*
X168305621Y-127943241D01*
X168545215Y-128021090D01*
X168794038Y-128060500D01*
X168794039Y-128060500D01*
X169045961Y-128060500D01*
X169045962Y-128060500D01*
X169294785Y-128021090D01*
X169534379Y-127943241D01*
X169758845Y-127828870D01*
X169962656Y-127680793D01*
X170140793Y-127502656D01*
X170288870Y-127298845D01*
X170403241Y-127074379D01*
X170481090Y-126834785D01*
X170520500Y-126585962D01*
X170520500Y-126334038D01*
X170481090Y-126085215D01*
X170403241Y-125845621D01*
X170403239Y-125845618D01*
X170403239Y-125845616D01*
X170361747Y-125764184D01*
X170288870Y-125621155D01*
X170269952Y-125595117D01*
X170140798Y-125417350D01*
X170140794Y-125417345D01*
X169962654Y-125239205D01*
X169962649Y-125239201D01*
X169758848Y-125091132D01*
X169758847Y-125091131D01*
X169758845Y-125091130D01*
X169688747Y-125055413D01*
X169534383Y-124976760D01*
X169294785Y-124898910D01*
X169261884Y-124893699D01*
X169045962Y-124859500D01*
X168794038Y-124859500D01*
X168669626Y-124879205D01*
X168545214Y-124898910D01*
X168305616Y-124976760D01*
X168081151Y-125091132D01*
X167877350Y-125239201D01*
X167877345Y-125239205D01*
X167699205Y-125417345D01*
X167699201Y-125417350D01*
X167551132Y-125621151D01*
X167464185Y-125791795D01*
X167416211Y-125842591D01*
X167353700Y-125859500D01*
X151486300Y-125859500D01*
X151419261Y-125839815D01*
X151375815Y-125791795D01*
X151288870Y-125621155D01*
X151269952Y-125595117D01*
X151140798Y-125417350D01*
X151140794Y-125417345D01*
X150962654Y-125239205D01*
X150962649Y-125239201D01*
X150758848Y-125091132D01*
X150758847Y-125091131D01*
X150758845Y-125091130D01*
X150688747Y-125055413D01*
X150534383Y-124976760D01*
X150294785Y-124898910D01*
X150261884Y-124893699D01*
X150045962Y-124859500D01*
X149794038Y-124859500D01*
X149669626Y-124879205D01*
X149545214Y-124898910D01*
X149305616Y-124976760D01*
X149081151Y-125091132D01*
X148877350Y-125239201D01*
X148877345Y-125239205D01*
X148699205Y-125417345D01*
X148699201Y-125417350D01*
X148551132Y-125621151D01*
X148464185Y-125791795D01*
X148416211Y-125842591D01*
X148353700Y-125859500D01*
X132486300Y-125859500D01*
X132419261Y-125839815D01*
X132375815Y-125791795D01*
X132288870Y-125621155D01*
X132269952Y-125595117D01*
X132140798Y-125417350D01*
X132140794Y-125417345D01*
X131962654Y-125239205D01*
X131962649Y-125239201D01*
X131758848Y-125091132D01*
X131758847Y-125091131D01*
X131758845Y-125091130D01*
X131689186Y-125055637D01*
X131588205Y-125004184D01*
X131537409Y-124956209D01*
X131520500Y-124893699D01*
X131520500Y-123833389D01*
X134899500Y-123833389D01*
X134899500Y-124006611D01*
X134926598Y-124177701D01*
X134980127Y-124342445D01*
X135058768Y-124496788D01*
X135160586Y-124636928D01*
X135283072Y-124759414D01*
X135423212Y-124861232D01*
X135577555Y-124939873D01*
X135742299Y-124993402D01*
X135913389Y-125020500D01*
X135913390Y-125020500D01*
X136086610Y-125020500D01*
X136086611Y-125020500D01*
X136257701Y-124993402D01*
X136422445Y-124939873D01*
X136576788Y-124861232D01*
X136716928Y-124759414D01*
X136839414Y-124636928D01*
X136941232Y-124496788D01*
X137019873Y-124342445D01*
X137073402Y-124177701D01*
X137100500Y-124006611D01*
X137100500Y-123833389D01*
X153899500Y-123833389D01*
X153899500Y-124006611D01*
X153926598Y-124177701D01*
X153980127Y-124342445D01*
X154058768Y-124496788D01*
X154160586Y-124636928D01*
X154283072Y-124759414D01*
X154423212Y-124861232D01*
X154577555Y-124939873D01*
X154742299Y-124993402D01*
X154913389Y-125020500D01*
X154913390Y-125020500D01*
X155086610Y-125020500D01*
X155086611Y-125020500D01*
X155257701Y-124993402D01*
X155422445Y-124939873D01*
X155576788Y-124861232D01*
X155716928Y-124759414D01*
X155839414Y-124636928D01*
X155941232Y-124496788D01*
X156019873Y-124342445D01*
X156073402Y-124177701D01*
X156100500Y-124006611D01*
X156100500Y-123833389D01*
X172899500Y-123833389D01*
X172899500Y-124006611D01*
X172926598Y-124177701D01*
X172980127Y-124342445D01*
X173058768Y-124496788D01*
X173160586Y-124636928D01*
X173283072Y-124759414D01*
X173423212Y-124861232D01*
X173577555Y-124939873D01*
X173742299Y-124993402D01*
X173913389Y-125020500D01*
X173913390Y-125020500D01*
X174086610Y-125020500D01*
X174086611Y-125020500D01*
X174257701Y-124993402D01*
X174422445Y-124939873D01*
X174576788Y-124861232D01*
X174716928Y-124759414D01*
X174839414Y-124636928D01*
X174941232Y-124496788D01*
X175019873Y-124342445D01*
X175073402Y-124177701D01*
X175100500Y-124006611D01*
X175100500Y-123833389D01*
X175073402Y-123662299D01*
X175019873Y-123497555D01*
X174941232Y-123343212D01*
X174839414Y-123203072D01*
X174716928Y-123080586D01*
X174576788Y-122978768D01*
X174422445Y-122900127D01*
X174257701Y-122846598D01*
X174257699Y-122846597D01*
X174257698Y-122846597D01*
X174126271Y-122825781D01*
X174086611Y-122819500D01*
X173913389Y-122819500D01*
X173873728Y-122825781D01*
X173742302Y-122846597D01*
X173577552Y-122900128D01*
X173423211Y-122978768D01*
X173343256Y-123036859D01*
X173283072Y-123080586D01*
X173283070Y-123080588D01*
X173283069Y-123080588D01*
X173160588Y-123203069D01*
X173160588Y-123203070D01*
X173160586Y-123203072D01*
X173116859Y-123263256D01*
X173058768Y-123343211D01*
X172980128Y-123497552D01*
X172926597Y-123662302D01*
X172899500Y-123833389D01*
X156100500Y-123833389D01*
X156073402Y-123662299D01*
X156019873Y-123497555D01*
X155941232Y-123343212D01*
X155839414Y-123203072D01*
X155716928Y-123080586D01*
X155576788Y-122978768D01*
X155422445Y-122900127D01*
X155257701Y-122846598D01*
X155257699Y-122846597D01*
X155257698Y-122846597D01*
X155126271Y-122825781D01*
X155086611Y-122819500D01*
X154913389Y-122819500D01*
X154873728Y-122825781D01*
X154742302Y-122846597D01*
X154577552Y-122900128D01*
X154423211Y-122978768D01*
X154343256Y-123036859D01*
X154283072Y-123080586D01*
X154283070Y-123080588D01*
X154283069Y-123080588D01*
X154160588Y-123203069D01*
X154160588Y-123203070D01*
X154160586Y-123203072D01*
X154116859Y-123263256D01*
X154058768Y-123343211D01*
X153980128Y-123497552D01*
X153926597Y-123662302D01*
X153899500Y-123833389D01*
X137100500Y-123833389D01*
X137073402Y-123662299D01*
X137019873Y-123497555D01*
X136941232Y-123343212D01*
X136839414Y-123203072D01*
X136716928Y-123080586D01*
X136576788Y-122978768D01*
X136422445Y-122900127D01*
X136257701Y-122846598D01*
X136257699Y-122846597D01*
X136257698Y-122846597D01*
X136126271Y-122825781D01*
X136086611Y-122819500D01*
X135913389Y-122819500D01*
X135873728Y-122825781D01*
X135742302Y-122846597D01*
X135577552Y-122900128D01*
X135423211Y-122978768D01*
X135343256Y-123036859D01*
X135283072Y-123080586D01*
X135283070Y-123080588D01*
X135283069Y-123080588D01*
X135160588Y-123203069D01*
X135160588Y-123203070D01*
X135160586Y-123203072D01*
X135116859Y-123263256D01*
X135058768Y-123343211D01*
X134980128Y-123497552D01*
X134926597Y-123662302D01*
X134899500Y-123833389D01*
X131520500Y-123833389D01*
X131520500Y-117630097D01*
X131540185Y-117563058D01*
X131556819Y-117542416D01*
X132330363Y-116768872D01*
X149649500Y-116768872D01*
X149649500Y-117031127D01*
X149658333Y-117098215D01*
X149683730Y-117291116D01*
X149751602Y-117544418D01*
X149751605Y-117544428D01*
X149851953Y-117786690D01*
X149851958Y-117786700D01*
X149983075Y-118013803D01*
X150142718Y-118221851D01*
X150142726Y-118221860D01*
X150328140Y-118407274D01*
X150328148Y-118407281D01*
X150536196Y-118566924D01*
X150763299Y-118698041D01*
X150763309Y-118698046D01*
X151005571Y-118798394D01*
X151005581Y-118798398D01*
X151258884Y-118866270D01*
X151518880Y-118900500D01*
X151518887Y-118900500D01*
X151781113Y-118900500D01*
X151781120Y-118900500D01*
X152041116Y-118866270D01*
X152294419Y-118798398D01*
X152536697Y-118698043D01*
X152763803Y-118566924D01*
X152971851Y-118407282D01*
X152971855Y-118407277D01*
X152971860Y-118407274D01*
X153157274Y-118221860D01*
X153157277Y-118221855D01*
X153157282Y-118221851D01*
X153316924Y-118013803D01*
X153448043Y-117786697D01*
X153548398Y-117544419D01*
X153616270Y-117291116D01*
X153650500Y-117031120D01*
X153650500Y-116768880D01*
X153616270Y-116508884D01*
X153548398Y-116255581D01*
X153548394Y-116255571D01*
X153448046Y-116013309D01*
X153448041Y-116013299D01*
X153316924Y-115786196D01*
X153157281Y-115578148D01*
X153157274Y-115578140D01*
X152971860Y-115392726D01*
X152971851Y-115392718D01*
X152763803Y-115233075D01*
X152536700Y-115101958D01*
X152536690Y-115101953D01*
X152294428Y-115001605D01*
X152294421Y-115001603D01*
X152294419Y-115001602D01*
X152041116Y-114933730D01*
X151983339Y-114926123D01*
X151781127Y-114899500D01*
X151781120Y-114899500D01*
X151518880Y-114899500D01*
X151518872Y-114899500D01*
X151287772Y-114929926D01*
X151258884Y-114933730D01*
X151005581Y-115001602D01*
X151005571Y-115001605D01*
X150763309Y-115101953D01*
X150763299Y-115101958D01*
X150536196Y-115233075D01*
X150328148Y-115392718D01*
X150142718Y-115578148D01*
X149983075Y-115786196D01*
X149851958Y-116013299D01*
X149851953Y-116013309D01*
X149751605Y-116255571D01*
X149751602Y-116255581D01*
X149687794Y-116493719D01*
X149683730Y-116508885D01*
X149649500Y-116768872D01*
X132330363Y-116768872D01*
X138525379Y-110573856D01*
X145514664Y-103584571D01*
X145575985Y-103551088D01*
X145578152Y-103550637D01*
X145578841Y-103550500D01*
X145578842Y-103550500D01*
X145733497Y-103519737D01*
X145879179Y-103459394D01*
X145956609Y-103407657D01*
X146023286Y-103386779D01*
X146090666Y-103405263D01*
X146137357Y-103457242D01*
X146149500Y-103510759D01*
X146149500Y-107413330D01*
X146149499Y-107413348D01*
X146149499Y-107579054D01*
X146149498Y-107579054D01*
X146190423Y-107731785D01*
X146219358Y-107781900D01*
X146219359Y-107781904D01*
X146219360Y-107781904D01*
X146244300Y-107825103D01*
X146269479Y-107868714D01*
X146269481Y-107868717D01*
X146388349Y-107987585D01*
X146388355Y-107987590D01*
X157765139Y-119364374D01*
X157765149Y-119364385D01*
X157769479Y-119368715D01*
X157769480Y-119368716D01*
X157881284Y-119480520D01*
X157968095Y-119530639D01*
X157968097Y-119530641D01*
X158006151Y-119552611D01*
X158018215Y-119559577D01*
X158170943Y-119600501D01*
X158170946Y-119600501D01*
X158336653Y-119600501D01*
X158336669Y-119600500D01*
X162703331Y-119600500D01*
X162703347Y-119600501D01*
X162710943Y-119600501D01*
X162869054Y-119600501D01*
X162869057Y-119600501D01*
X163021785Y-119559577D01*
X163071904Y-119530639D01*
X163158716Y-119480520D01*
X163270520Y-119368716D01*
X163270520Y-119368714D01*
X163280728Y-119358507D01*
X163280730Y-119358504D01*
X164015797Y-118623436D01*
X164077118Y-118589953D01*
X164141794Y-118593188D01*
X164212049Y-118616015D01*
X164429778Y-118650500D01*
X164429779Y-118650500D01*
X164650221Y-118650500D01*
X164650222Y-118650500D01*
X164867951Y-118616015D01*
X165077606Y-118547895D01*
X165274022Y-118447815D01*
X165452365Y-118318242D01*
X165608242Y-118162365D01*
X165737815Y-117984022D01*
X165837895Y-117787606D01*
X165906015Y-117577951D01*
X165940500Y-117360222D01*
X165940500Y-117139778D01*
X165906015Y-116922049D01*
X165837895Y-116712394D01*
X165837895Y-116712393D01*
X165787343Y-116613181D01*
X165737815Y-116515978D01*
X165691685Y-116452485D01*
X165608247Y-116337641D01*
X165608243Y-116337636D01*
X165452363Y-116181756D01*
X165452358Y-116181752D01*
X165274025Y-116052187D01*
X165274024Y-116052186D01*
X165274022Y-116052185D01*
X165211096Y-116020122D01*
X165077606Y-115952104D01*
X165077603Y-115952103D01*
X164867952Y-115883985D01*
X164759086Y-115866742D01*
X164650222Y-115849500D01*
X164429778Y-115849500D01*
X164357201Y-115860995D01*
X164212047Y-115883985D01*
X164002396Y-115952103D01*
X164002393Y-115952104D01*
X163805974Y-116052187D01*
X163627641Y-116181752D01*
X163627636Y-116181756D01*
X163471756Y-116337636D01*
X163370008Y-116477681D01*
X163314678Y-116520346D01*
X163245065Y-116526325D01*
X163183270Y-116493719D01*
X163169371Y-116477680D01*
X163151066Y-116452485D01*
X163151065Y-116452485D01*
X162601050Y-117002501D01*
X162576033Y-116942104D01*
X162504897Y-116835642D01*
X162414358Y-116745103D01*
X162307896Y-116673967D01*
X162247496Y-116648948D01*
X162797513Y-116098932D01*
X162733756Y-116052611D01*
X162537410Y-115952567D01*
X162327835Y-115884473D01*
X162110181Y-115850000D01*
X161889819Y-115850000D01*
X161672164Y-115884473D01*
X161462589Y-115952567D01*
X161266233Y-116052616D01*
X161202485Y-116098931D01*
X161202485Y-116098932D01*
X161752502Y-116648949D01*
X161692104Y-116673967D01*
X161585642Y-116745103D01*
X161495103Y-116835642D01*
X161423967Y-116942104D01*
X161398949Y-117002502D01*
X160848932Y-116452485D01*
X160848930Y-116452485D01*
X160830626Y-116477679D01*
X160775296Y-116520345D01*
X160705683Y-116526324D01*
X160643888Y-116493718D01*
X160629990Y-116477679D01*
X160528247Y-116337640D01*
X160372363Y-116181756D01*
X160372358Y-116181752D01*
X160194025Y-116052187D01*
X160194024Y-116052186D01*
X160194022Y-116052185D01*
X160131096Y-116020122D01*
X159997606Y-115952104D01*
X159997603Y-115952103D01*
X159787952Y-115883985D01*
X159679086Y-115866742D01*
X159570222Y-115849500D01*
X159349778Y-115849500D01*
X159277201Y-115860995D01*
X159132047Y-115883985D01*
X158922396Y-115952103D01*
X158922393Y-115952104D01*
X158725974Y-116052187D01*
X158547641Y-116181752D01*
X158547636Y-116181756D01*
X158391756Y-116337636D01*
X158391752Y-116337641D01*
X158262185Y-116515976D01*
X158228648Y-116581796D01*
X158180674Y-116632591D01*
X158118164Y-116649500D01*
X157550098Y-116649500D01*
X157483059Y-116629815D01*
X157462417Y-116613181D01*
X149619378Y-108770142D01*
X154850000Y-108770142D01*
X154850000Y-109500000D01*
X155749989Y-109500000D01*
X155749989Y-110000000D01*
X154850000Y-110000000D01*
X154850000Y-110729857D01*
X154890629Y-110986377D01*
X154970883Y-111233377D01*
X155088796Y-111464791D01*
X155241445Y-111674896D01*
X155241449Y-111674901D01*
X155425098Y-111858550D01*
X155425103Y-111858554D01*
X155635208Y-112011203D01*
X155866622Y-112129116D01*
X156113622Y-112209370D01*
X156250000Y-112230971D01*
X156250000Y-111208238D01*
X156281230Y-111221175D01*
X156426130Y-111249997D01*
X156573870Y-111249997D01*
X156718770Y-111221175D01*
X156750000Y-111208238D01*
X156750000Y-112230970D01*
X156886377Y-112209370D01*
X157133377Y-112129116D01*
X157364791Y-112011203D01*
X157574896Y-111858554D01*
X157574901Y-111858550D01*
X157758550Y-111674901D01*
X157758554Y-111674896D01*
X157911203Y-111464791D01*
X158029116Y-111233377D01*
X158109370Y-110986377D01*
X158150000Y-110729857D01*
X158150000Y-110000000D01*
X157250011Y-110000000D01*
X157250011Y-109500000D01*
X158150000Y-109500000D01*
X158150000Y-108770142D01*
X165850000Y-108770142D01*
X165850000Y-109500000D01*
X166749989Y-109500000D01*
X166749989Y-110000000D01*
X165850000Y-110000000D01*
X165850000Y-110729857D01*
X165890629Y-110986377D01*
X165970883Y-111233377D01*
X166088796Y-111464791D01*
X166241445Y-111674896D01*
X166241449Y-111674901D01*
X166425098Y-111858550D01*
X166425103Y-111858554D01*
X166635208Y-112011203D01*
X166866622Y-112129116D01*
X167113622Y-112209370D01*
X167250000Y-112230971D01*
X167250000Y-111208238D01*
X167281230Y-111221175D01*
X167426130Y-111249997D01*
X167573870Y-111249997D01*
X167718770Y-111221175D01*
X167750000Y-111208238D01*
X167750000Y-112230970D01*
X167886377Y-112209370D01*
X168133377Y-112129116D01*
X168364791Y-112011203D01*
X168574896Y-111858554D01*
X168574901Y-111858550D01*
X168758550Y-111674901D01*
X168758554Y-111674896D01*
X168911203Y-111464791D01*
X169029116Y-111233377D01*
X169109370Y-110986377D01*
X169150000Y-110729857D01*
X169150000Y-110000000D01*
X168250011Y-110000000D01*
X168250011Y-109500000D01*
X169150000Y-109500000D01*
X169150000Y-108770142D01*
X169109370Y-108513623D01*
X169081290Y-108427199D01*
X169081289Y-108427197D01*
X169029117Y-108266624D01*
X168911203Y-108035208D01*
X168758554Y-107825103D01*
X168758550Y-107825098D01*
X168574901Y-107641449D01*
X168574896Y-107641445D01*
X168364791Y-107488796D01*
X168133375Y-107370882D01*
X167886374Y-107290628D01*
X167750000Y-107269028D01*
X167750000Y-108291761D01*
X167718770Y-108278825D01*
X167573870Y-108250003D01*
X167426130Y-108250003D01*
X167281230Y-108278825D01*
X167250000Y-108291761D01*
X167250000Y-107269028D01*
X167249999Y-107269028D01*
X167113625Y-107290628D01*
X166866624Y-107370882D01*
X166635208Y-107488796D01*
X166425103Y-107641445D01*
X166425098Y-107641449D01*
X166241449Y-107825098D01*
X166241445Y-107825103D01*
X166088796Y-108035208D01*
X165970883Y-108266622D01*
X165890629Y-108513622D01*
X165850000Y-108770142D01*
X158150000Y-108770142D01*
X158109370Y-108513622D01*
X158029116Y-108266622D01*
X157911203Y-108035208D01*
X157758554Y-107825103D01*
X157758550Y-107825098D01*
X157574901Y-107641449D01*
X157574896Y-107641445D01*
X157364791Y-107488796D01*
X157133375Y-107370882D01*
X156886374Y-107290628D01*
X156750000Y-107269028D01*
X156750000Y-108291761D01*
X156718770Y-108278825D01*
X156573870Y-108250003D01*
X156426130Y-108250003D01*
X156281230Y-108278825D01*
X156250000Y-108291761D01*
X156250000Y-107269028D01*
X156249999Y-107269028D01*
X156113625Y-107290628D01*
X155866624Y-107370882D01*
X155635208Y-107488796D01*
X155425103Y-107641445D01*
X155425098Y-107641449D01*
X155241449Y-107825098D01*
X155241445Y-107825103D01*
X155088796Y-108035208D01*
X154970883Y-108266622D01*
X154890629Y-108513622D01*
X154850000Y-108770142D01*
X149619378Y-108770142D01*
X147886819Y-107037583D01*
X147853334Y-106976260D01*
X147850500Y-106949902D01*
X147850500Y-78050096D01*
X147870185Y-77983057D01*
X147886814Y-77962419D01*
X148868713Y-76980521D01*
X148868716Y-76980520D01*
X148980520Y-76868716D01*
X149030639Y-76781904D01*
X149059577Y-76731785D01*
X149100501Y-76579057D01*
X149100501Y-76420943D01*
X149100501Y-76413348D01*
X149100500Y-76413330D01*
X149100500Y-75050097D01*
X149120185Y-74983058D01*
X149136819Y-74962416D01*
X149823240Y-74275995D01*
X150514662Y-73584572D01*
X150575983Y-73551089D01*
X150578150Y-73550638D01*
X150636085Y-73539113D01*
X150733497Y-73519737D01*
X150879179Y-73459394D01*
X151010289Y-73371789D01*
X151011264Y-73370814D01*
X151037819Y-73344260D01*
X151099142Y-73310775D01*
X151168834Y-73315759D01*
X151224767Y-73357631D01*
X151249184Y-73423095D01*
X151249500Y-73431941D01*
X151249500Y-81637769D01*
X151229815Y-81704808D01*
X151213181Y-81725450D01*
X148417050Y-84521580D01*
X148417044Y-84521588D01*
X148367812Y-84595268D01*
X148367813Y-84595269D01*
X148334921Y-84644496D01*
X148334914Y-84644508D01*
X148278342Y-84781086D01*
X148278340Y-84781092D01*
X148249500Y-84926079D01*
X148249500Y-84926082D01*
X148249500Y-98823918D01*
X148249500Y-98823920D01*
X148249499Y-98823920D01*
X148278340Y-98968907D01*
X148278343Y-98968917D01*
X148334914Y-99105492D01*
X148367812Y-99154727D01*
X148367813Y-99154730D01*
X148417046Y-99228414D01*
X148417052Y-99228421D01*
X155731584Y-106542952D01*
X155731586Y-106542954D01*
X155739736Y-106548399D01*
X155805270Y-106592186D01*
X155854505Y-106625084D01*
X155854506Y-106625084D01*
X155854507Y-106625085D01*
X155854509Y-106625086D01*
X155957669Y-106667816D01*
X155991087Y-106681658D01*
X155991091Y-106681658D01*
X155991092Y-106681659D01*
X156136079Y-106710500D01*
X156136082Y-106710500D01*
X156136083Y-106710500D01*
X156283918Y-106710500D01*
X173687779Y-106710500D01*
X173754818Y-106730185D01*
X173788097Y-106761615D01*
X173844892Y-106839788D01*
X173995213Y-106990109D01*
X174167179Y-107115048D01*
X174167181Y-107115049D01*
X174167184Y-107115051D01*
X174176493Y-107119794D01*
X174227290Y-107167766D01*
X174244087Y-107235587D01*
X174221552Y-107301722D01*
X174176505Y-107340760D01*
X174167446Y-107345376D01*
X174167440Y-107345380D01*
X174113282Y-107384727D01*
X174113282Y-107384728D01*
X174745592Y-108017038D01*
X174682008Y-108034076D01*
X174567994Y-108099902D01*
X174474902Y-108192994D01*
X174409076Y-108307008D01*
X174392038Y-108370592D01*
X173759728Y-107738282D01*
X173759727Y-107738282D01*
X173720380Y-107792439D01*
X173623904Y-107981782D01*
X173558242Y-108183869D01*
X173558242Y-108183872D01*
X173525000Y-108393753D01*
X173525000Y-108606246D01*
X173558242Y-108816127D01*
X173558242Y-108816130D01*
X173623904Y-109018217D01*
X173720375Y-109207550D01*
X173759728Y-109261716D01*
X174392038Y-108629407D01*
X174409076Y-108692992D01*
X174474902Y-108807006D01*
X174567994Y-108900098D01*
X174682008Y-108965924D01*
X174745591Y-108982961D01*
X174075370Y-109653181D01*
X174014047Y-109686666D01*
X173987698Y-109689500D01*
X173977134Y-109689500D01*
X173977123Y-109689501D01*
X173917516Y-109695908D01*
X173782671Y-109746202D01*
X173782664Y-109746206D01*
X173667455Y-109832452D01*
X173667452Y-109832455D01*
X173581206Y-109947664D01*
X173581202Y-109947671D01*
X173530908Y-110082517D01*
X173524501Y-110142116D01*
X173524500Y-110142135D01*
X173524500Y-111937870D01*
X173524501Y-111937876D01*
X173530908Y-111997483D01*
X173581202Y-112132328D01*
X173581206Y-112132335D01*
X173667452Y-112247544D01*
X173667455Y-112247547D01*
X173782664Y-112333793D01*
X173782671Y-112333797D01*
X173917517Y-112384091D01*
X173917516Y-112384091D01*
X173924444Y-112384835D01*
X173977127Y-112390500D01*
X175772872Y-112390499D01*
X175832483Y-112384091D01*
X175967331Y-112333796D01*
X176082546Y-112247546D01*
X176168796Y-112132331D01*
X176219091Y-111997483D01*
X176225500Y-111937873D01*
X176225499Y-111014360D01*
X176245183Y-110947322D01*
X176261813Y-110926685D01*
X177899464Y-109289035D01*
X177998013Y-109141547D01*
X178017895Y-109093547D01*
X178065895Y-108977666D01*
X178100500Y-108803691D01*
X178100500Y-108626308D01*
X178100500Y-85766288D01*
X178120185Y-85699249D01*
X178172989Y-85653494D01*
X178202313Y-85644289D01*
X179875914Y-85339998D01*
X179945393Y-85347373D01*
X179999855Y-85391140D01*
X180022010Y-85457404D01*
X180017172Y-85496592D01*
X180002401Y-85547432D01*
X179999500Y-85584298D01*
X179999500Y-88415701D01*
X180002401Y-88452567D01*
X180002402Y-88452573D01*
X180048254Y-88610393D01*
X180048255Y-88610396D01*
X180131917Y-88751862D01*
X180131923Y-88751870D01*
X180248129Y-88868076D01*
X180248133Y-88868079D01*
X180248135Y-88868081D01*
X180389602Y-88951744D01*
X180431224Y-88963836D01*
X180547426Y-88997597D01*
X180547429Y-88997597D01*
X180547431Y-88997598D01*
X180584306Y-89000500D01*
X180584314Y-89000500D01*
X183415686Y-89000500D01*
X183415694Y-89000500D01*
X183452569Y-88997598D01*
X183452571Y-88997597D01*
X183452573Y-88997597D01*
X183494191Y-88985505D01*
X183610398Y-88951744D01*
X183751865Y-88868081D01*
X183868081Y-88751865D01*
X183951744Y-88610398D01*
X183997598Y-88452569D01*
X184000500Y-88415694D01*
X184000500Y-85584306D01*
X183997598Y-85547431D01*
X183971442Y-85457404D01*
X183951745Y-85389606D01*
X183951744Y-85389603D01*
X183951744Y-85389602D01*
X183868081Y-85248135D01*
X183868079Y-85248133D01*
X183868076Y-85248129D01*
X183751870Y-85131923D01*
X183745702Y-85127139D01*
X183747208Y-85125196D01*
X183707801Y-85082997D01*
X183695292Y-85014256D01*
X183721932Y-84949665D01*
X183770811Y-84912905D01*
X183847978Y-84880677D01*
X183869015Y-84870706D01*
X183952419Y-84826260D01*
X184093686Y-84742225D01*
X184172560Y-84690136D01*
X184191363Y-84676407D01*
X184264965Y-84617171D01*
X184293301Y-84592082D01*
X184356543Y-84562381D01*
X184425804Y-84571585D01*
X184479093Y-84616773D01*
X184499493Y-84683599D01*
X184499500Y-84684923D01*
X184499500Y-136996249D01*
X184499274Y-137003736D01*
X184481728Y-137293794D01*
X184479923Y-137308659D01*
X184428219Y-137590798D01*
X184424635Y-137605336D01*
X184339306Y-137879167D01*
X184333997Y-137893168D01*
X184216275Y-138154736D01*
X184209316Y-138167995D01*
X184060928Y-138413459D01*
X184052422Y-138425782D01*
X183875526Y-138651573D01*
X183865596Y-138662781D01*
X183662781Y-138865596D01*
X183651573Y-138875526D01*
X183425782Y-139052422D01*
X183413459Y-139060928D01*
X183167995Y-139209316D01*
X183154736Y-139216275D01*
X182893168Y-139333997D01*
X182879167Y-139339306D01*
X182605336Y-139424635D01*
X182590798Y-139428219D01*
X182308659Y-139479923D01*
X182293794Y-139481728D01*
X182003736Y-139499274D01*
X181996249Y-139499500D01*
X128003751Y-139499500D01*
X127996264Y-139499274D01*
X127706205Y-139481728D01*
X127691340Y-139479923D01*
X127409201Y-139428219D01*
X127394663Y-139424635D01*
X127120832Y-139339306D01*
X127106831Y-139333997D01*
X126845263Y-139216275D01*
X126832004Y-139209316D01*
X126586540Y-139060928D01*
X126574217Y-139052422D01*
X126348426Y-138875526D01*
X126337218Y-138865596D01*
X126134403Y-138662781D01*
X126124473Y-138651573D01*
X125947573Y-138425776D01*
X125939075Y-138413465D01*
X125790680Y-138167989D01*
X125783727Y-138154743D01*
X125666000Y-137893163D01*
X125660693Y-137879167D01*
X125575364Y-137605336D01*
X125571780Y-137590798D01*
X125520076Y-137308659D01*
X125518271Y-137293794D01*
X125500726Y-137003736D01*
X125500500Y-136996249D01*
X125500500Y-132684038D01*
X131859500Y-132684038D01*
X131859500Y-132935961D01*
X131898910Y-133184785D01*
X131976760Y-133424383D01*
X132091132Y-133648848D01*
X132239201Y-133852649D01*
X132239205Y-133852654D01*
X132417345Y-134030794D01*
X132417350Y-134030798D01*
X132595117Y-134159952D01*
X132621155Y-134178870D01*
X132764184Y-134251747D01*
X132845616Y-134293239D01*
X132845618Y-134293239D01*
X132845621Y-134293241D01*
X133085215Y-134371090D01*
X133334038Y-134410500D01*
X133334039Y-134410500D01*
X133585961Y-134410500D01*
X133585962Y-134410500D01*
X133834785Y-134371090D01*
X134074379Y-134293241D01*
X134298845Y-134178870D01*
X134502656Y-134030793D01*
X134680793Y-133852656D01*
X134685380Y-133846341D01*
X134740708Y-133803675D01*
X134810322Y-133797693D01*
X134872118Y-133830296D01*
X134906477Y-133891134D01*
X134908174Y-133938621D01*
X134899500Y-133993389D01*
X134899500Y-134166611D01*
X134926598Y-134337701D01*
X134980127Y-134502445D01*
X135058768Y-134656788D01*
X135160586Y-134796928D01*
X135283072Y-134919414D01*
X135423212Y-135021232D01*
X135577555Y-135099873D01*
X135742299Y-135153402D01*
X135913389Y-135180500D01*
X135913390Y-135180500D01*
X136086610Y-135180500D01*
X136086611Y-135180500D01*
X136257701Y-135153402D01*
X136422445Y-135099873D01*
X136576788Y-135021232D01*
X136716928Y-134919414D01*
X136839414Y-134796928D01*
X136941232Y-134656788D01*
X137019873Y-134502445D01*
X137073402Y-134337701D01*
X137100500Y-134166611D01*
X137100500Y-133993389D01*
X137073402Y-133822299D01*
X137019873Y-133657555D01*
X136941232Y-133503212D01*
X136839414Y-133363072D01*
X136716928Y-133240586D01*
X136576788Y-133138768D01*
X136422445Y-133060127D01*
X136257701Y-133006598D01*
X136257699Y-133006597D01*
X136257698Y-133006597D01*
X136126271Y-132985781D01*
X136086611Y-132979500D01*
X135913389Y-132979500D01*
X135873728Y-132985781D01*
X135742302Y-133006597D01*
X135577552Y-133060128D01*
X135423211Y-133138768D01*
X135359875Y-133184785D01*
X135283072Y-133240586D01*
X135283070Y-133240588D01*
X135283068Y-133240589D01*
X135231139Y-133292518D01*
X135169816Y-133326002D01*
X135100124Y-133321017D01*
X135044191Y-133279146D01*
X135019775Y-133213681D01*
X135020986Y-133185438D01*
X135021088Y-133184788D01*
X135021090Y-133184785D01*
X135060500Y-132935962D01*
X135060500Y-132684038D01*
X150859500Y-132684038D01*
X150859500Y-132935961D01*
X150898910Y-133184785D01*
X150976760Y-133424383D01*
X151091132Y-133648848D01*
X151239201Y-133852649D01*
X151239205Y-133852654D01*
X151417345Y-134030794D01*
X151417350Y-134030798D01*
X151595117Y-134159952D01*
X151621155Y-134178870D01*
X151764184Y-134251747D01*
X151845616Y-134293239D01*
X151845618Y-134293239D01*
X151845621Y-134293241D01*
X152085215Y-134371090D01*
X152334038Y-134410500D01*
X152334039Y-134410500D01*
X152585961Y-134410500D01*
X152585962Y-134410500D01*
X152834785Y-134371090D01*
X153074379Y-134293241D01*
X153298845Y-134178870D01*
X153502656Y-134030793D01*
X153680793Y-133852656D01*
X153685380Y-133846341D01*
X153740708Y-133803675D01*
X153810322Y-133797693D01*
X153872118Y-133830296D01*
X153906477Y-133891134D01*
X153908174Y-133938621D01*
X153899500Y-133993389D01*
X153899500Y-134166611D01*
X153926598Y-134337701D01*
X153980127Y-134502445D01*
X154058768Y-134656788D01*
X154160586Y-134796928D01*
X154283072Y-134919414D01*
X154423212Y-135021232D01*
X154577555Y-135099873D01*
X154742299Y-135153402D01*
X154913389Y-135180500D01*
X154913390Y-135180500D01*
X155086610Y-135180500D01*
X155086611Y-135180500D01*
X155257701Y-135153402D01*
X155422445Y-135099873D01*
X155576788Y-135021232D01*
X155716928Y-134919414D01*
X155839414Y-134796928D01*
X155941232Y-134656788D01*
X156019873Y-134502445D01*
X156073402Y-134337701D01*
X156100500Y-134166611D01*
X156100500Y-133993389D01*
X156073402Y-133822299D01*
X156019873Y-133657555D01*
X155941232Y-133503212D01*
X155839414Y-133363072D01*
X155716928Y-133240586D01*
X155576788Y-133138768D01*
X155422445Y-133060127D01*
X155257701Y-133006598D01*
X155257699Y-133006597D01*
X155257698Y-133006597D01*
X155126271Y-132985781D01*
X155086611Y-132979500D01*
X154913389Y-132979500D01*
X154873728Y-132985781D01*
X154742302Y-133006597D01*
X154577552Y-133060128D01*
X154423211Y-133138768D01*
X154359875Y-133184785D01*
X154283072Y-133240586D01*
X154283070Y-133240588D01*
X154283068Y-133240589D01*
X154231139Y-133292518D01*
X154169816Y-133326002D01*
X154100124Y-133321017D01*
X154044191Y-133279146D01*
X154019775Y-133213681D01*
X154020986Y-133185438D01*
X154021088Y-133184788D01*
X154021090Y-133184785D01*
X154060500Y-132935962D01*
X154060500Y-132684038D01*
X169859500Y-132684038D01*
X169859500Y-132935961D01*
X169898910Y-133184785D01*
X169976760Y-133424383D01*
X170091132Y-133648848D01*
X170239201Y-133852649D01*
X170239205Y-133852654D01*
X170417345Y-134030794D01*
X170417350Y-134030798D01*
X170595117Y-134159952D01*
X170621155Y-134178870D01*
X170764184Y-134251747D01*
X170845616Y-134293239D01*
X170845618Y-134293239D01*
X170845621Y-134293241D01*
X171085215Y-134371090D01*
X171334038Y-134410500D01*
X171334039Y-134410500D01*
X171585961Y-134410500D01*
X171585962Y-134410500D01*
X171834785Y-134371090D01*
X172074379Y-134293241D01*
X172298845Y-134178870D01*
X172502656Y-134030793D01*
X172680793Y-133852656D01*
X172685380Y-133846341D01*
X172740708Y-133803675D01*
X172810322Y-133797693D01*
X172872118Y-133830296D01*
X172906477Y-133891134D01*
X172908174Y-133938621D01*
X172899500Y-133993389D01*
X172899500Y-134166611D01*
X172926598Y-134337701D01*
X172980127Y-134502445D01*
X173058768Y-134656788D01*
X173160586Y-134796928D01*
X173283072Y-134919414D01*
X173423212Y-135021232D01*
X173577555Y-135099873D01*
X173742299Y-135153402D01*
X173913389Y-135180500D01*
X173913390Y-135180500D01*
X174086610Y-135180500D01*
X174086611Y-135180500D01*
X174257701Y-135153402D01*
X174422445Y-135099873D01*
X174576788Y-135021232D01*
X174716928Y-134919414D01*
X174839414Y-134796928D01*
X174941232Y-134656788D01*
X175019873Y-134502445D01*
X175073402Y-134337701D01*
X175100500Y-134166611D01*
X175100500Y-133993389D01*
X175073402Y-133822299D01*
X175019873Y-133657555D01*
X174941232Y-133503212D01*
X174839414Y-133363072D01*
X174716928Y-133240586D01*
X174576788Y-133138768D01*
X174422445Y-133060127D01*
X174257701Y-133006598D01*
X174257699Y-133006597D01*
X174257698Y-133006597D01*
X174126271Y-132985781D01*
X174086611Y-132979500D01*
X173913389Y-132979500D01*
X173873728Y-132985781D01*
X173742302Y-133006597D01*
X173577552Y-133060128D01*
X173423211Y-133138768D01*
X173359875Y-133184785D01*
X173283072Y-133240586D01*
X173283070Y-133240588D01*
X173283068Y-133240589D01*
X173231139Y-133292518D01*
X173169816Y-133326002D01*
X173100124Y-133321017D01*
X173044191Y-133279146D01*
X173019775Y-133213681D01*
X173020986Y-133185438D01*
X173021088Y-133184788D01*
X173021090Y-133184785D01*
X173060500Y-132935962D01*
X173060500Y-132684038D01*
X173021090Y-132435215D01*
X172943241Y-132195621D01*
X172943239Y-132195618D01*
X172943239Y-132195616D01*
X172901747Y-132114184D01*
X172828870Y-131971155D01*
X172809952Y-131945117D01*
X172680798Y-131767350D01*
X172680794Y-131767345D01*
X172502654Y-131589205D01*
X172502649Y-131589201D01*
X172298848Y-131441132D01*
X172298847Y-131441131D01*
X172298845Y-131441130D01*
X172228747Y-131405413D01*
X172074383Y-131326760D01*
X171834785Y-131248910D01*
X171585962Y-131209500D01*
X171334038Y-131209500D01*
X171209626Y-131229205D01*
X171085214Y-131248910D01*
X170845616Y-131326760D01*
X170621151Y-131441132D01*
X170417350Y-131589201D01*
X170417345Y-131589205D01*
X170239205Y-131767345D01*
X170239201Y-131767350D01*
X170091132Y-131971151D01*
X169976760Y-132195616D01*
X169898910Y-132435214D01*
X169859500Y-132684038D01*
X154060500Y-132684038D01*
X154021090Y-132435215D01*
X153943241Y-132195621D01*
X153943239Y-132195618D01*
X153943239Y-132195616D01*
X153901747Y-132114184D01*
X153828870Y-131971155D01*
X153809952Y-131945117D01*
X153680798Y-131767350D01*
X153680794Y-131767345D01*
X153502654Y-131589205D01*
X153502649Y-131589201D01*
X153298848Y-131441132D01*
X153298847Y-131441131D01*
X153298845Y-131441130D01*
X153228747Y-131405413D01*
X153074383Y-131326760D01*
X152834785Y-131248910D01*
X152585962Y-131209500D01*
X152334038Y-131209500D01*
X152209626Y-131229205D01*
X152085214Y-131248910D01*
X151845616Y-131326760D01*
X151621151Y-131441132D01*
X151417350Y-131589201D01*
X151417345Y-131589205D01*
X151239205Y-131767345D01*
X151239201Y-131767350D01*
X151091132Y-131971151D01*
X150976760Y-132195616D01*
X150898910Y-132435214D01*
X150859500Y-132684038D01*
X135060500Y-132684038D01*
X135021090Y-132435215D01*
X134943241Y-132195621D01*
X134943239Y-132195618D01*
X134943239Y-132195616D01*
X134901747Y-132114184D01*
X134828870Y-131971155D01*
X134809952Y-131945117D01*
X134680798Y-131767350D01*
X134680794Y-131767345D01*
X134502654Y-131589205D01*
X134502649Y-131589201D01*
X134298848Y-131441132D01*
X134298847Y-131441131D01*
X134298845Y-131441130D01*
X134228747Y-131405413D01*
X134074383Y-131326760D01*
X133834785Y-131248910D01*
X133585962Y-131209500D01*
X133334038Y-131209500D01*
X133209626Y-131229205D01*
X133085214Y-131248910D01*
X132845616Y-131326760D01*
X132621151Y-131441132D01*
X132417350Y-131589201D01*
X132417345Y-131589205D01*
X132239205Y-131767345D01*
X132239201Y-131767350D01*
X132091132Y-131971151D01*
X131976760Y-132195616D01*
X131898910Y-132435214D01*
X131859500Y-132684038D01*
X125500500Y-132684038D01*
X125500500Y-92968872D01*
X126349500Y-92968872D01*
X126349500Y-93231127D01*
X126360190Y-93312319D01*
X126383730Y-93491116D01*
X126450500Y-93740306D01*
X126451602Y-93744418D01*
X126451605Y-93744428D01*
X126551953Y-93986690D01*
X126551958Y-93986700D01*
X126683075Y-94213803D01*
X126842718Y-94421851D01*
X126842726Y-94421860D01*
X127028140Y-94607274D01*
X127028148Y-94607281D01*
X127236196Y-94766924D01*
X127463299Y-94898041D01*
X127463309Y-94898046D01*
X127705571Y-94998394D01*
X127705581Y-94998398D01*
X127958884Y-95066270D01*
X128218880Y-95100500D01*
X128218887Y-95100500D01*
X128481113Y-95100500D01*
X128481120Y-95100500D01*
X128741116Y-95066270D01*
X128994419Y-94998398D01*
X129236697Y-94898043D01*
X129463803Y-94766924D01*
X129671851Y-94607282D01*
X129671855Y-94607277D01*
X129671860Y-94607274D01*
X129857274Y-94421860D01*
X129857277Y-94421855D01*
X129857282Y-94421851D01*
X130016924Y-94213803D01*
X130148043Y-93986697D01*
X130149369Y-93983497D01*
X130181665Y-93905526D01*
X130248398Y-93744419D01*
X130316270Y-93491116D01*
X130350500Y-93231120D01*
X130350500Y-92968880D01*
X130316270Y-92708884D01*
X130248398Y-92455581D01*
X130237727Y-92429818D01*
X134790000Y-92429818D01*
X134790000Y-92650181D01*
X134824473Y-92867835D01*
X134892567Y-93077410D01*
X134992611Y-93273756D01*
X135038932Y-93337513D01*
X135686630Y-92689815D01*
X135700785Y-92742640D01*
X135769901Y-92862353D01*
X135867647Y-92960099D01*
X135987360Y-93029215D01*
X136040183Y-93043369D01*
X135392485Y-93691065D01*
X135392485Y-93691066D01*
X135456243Y-93737388D01*
X135652589Y-93837432D01*
X135862164Y-93905526D01*
X136079819Y-93940000D01*
X136300181Y-93940000D01*
X136517835Y-93905526D01*
X136727410Y-93837432D01*
X136923760Y-93737386D01*
X136987513Y-93691066D01*
X136987514Y-93691066D01*
X136339816Y-93043369D01*
X136392640Y-93029215D01*
X136512353Y-92960099D01*
X136610099Y-92862353D01*
X136679215Y-92742640D01*
X136693369Y-92689817D01*
X137341066Y-93337514D01*
X137341066Y-93337513D01*
X137359372Y-93312319D01*
X137414701Y-93269653D01*
X137484315Y-93263674D01*
X137546110Y-93296279D01*
X137560008Y-93312319D01*
X137661752Y-93452358D01*
X137661756Y-93452363D01*
X137817636Y-93608243D01*
X137817641Y-93608247D01*
X137948104Y-93703033D01*
X137995978Y-93737815D01*
X138115539Y-93798735D01*
X138192393Y-93837895D01*
X138192396Y-93837896D01*
X138296701Y-93871786D01*
X138402049Y-93906015D01*
X138619778Y-93940500D01*
X138619779Y-93940500D01*
X138840221Y-93940500D01*
X138840222Y-93940500D01*
X139057951Y-93906015D01*
X139267606Y-93837895D01*
X139464022Y-93737815D01*
X139642365Y-93608242D01*
X139798242Y-93452365D01*
X139808804Y-93437826D01*
X139899682Y-93312745D01*
X139955011Y-93270079D01*
X140024625Y-93264100D01*
X140086420Y-93296705D01*
X140100318Y-93312745D01*
X140201752Y-93452358D01*
X140201756Y-93452363D01*
X140357636Y-93608243D01*
X140357641Y-93608247D01*
X140488104Y-93703033D01*
X140535978Y-93737815D01*
X140655539Y-93798735D01*
X140732393Y-93837895D01*
X140732396Y-93837896D01*
X140836701Y-93871786D01*
X140942049Y-93906015D01*
X141159778Y-93940500D01*
X141159779Y-93940500D01*
X141380221Y-93940500D01*
X141380222Y-93940500D01*
X141597951Y-93906015D01*
X141807606Y-93837895D01*
X142004022Y-93737815D01*
X142182365Y-93608242D01*
X142338242Y-93452365D01*
X142348804Y-93437826D01*
X142439682Y-93312745D01*
X142495011Y-93270079D01*
X142564625Y-93264100D01*
X142626420Y-93296705D01*
X142640318Y-93312745D01*
X142741752Y-93452358D01*
X142741756Y-93452363D01*
X142897636Y-93608243D01*
X142897641Y-93608247D01*
X143028104Y-93703033D01*
X143075978Y-93737815D01*
X143195539Y-93798735D01*
X143272393Y-93837895D01*
X143272396Y-93837896D01*
X143376701Y-93871786D01*
X143482049Y-93906015D01*
X143699778Y-93940500D01*
X143699779Y-93940500D01*
X143920221Y-93940500D01*
X143920222Y-93940500D01*
X144137951Y-93906015D01*
X144347606Y-93837895D01*
X144544022Y-93737815D01*
X144722365Y-93608242D01*
X144878242Y-93452365D01*
X145007815Y-93274022D01*
X145107895Y-93077606D01*
X145176015Y-92867951D01*
X145210500Y-92650222D01*
X145210500Y-92429778D01*
X145176015Y-92212049D01*
X145120025Y-92039726D01*
X145107896Y-92002396D01*
X145107895Y-92002393D01*
X145060110Y-91908612D01*
X145007815Y-91805978D01*
X144961685Y-91742485D01*
X144878247Y-91627641D01*
X144878243Y-91627636D01*
X144722363Y-91471756D01*
X144722358Y-91471752D01*
X144544025Y-91342187D01*
X144544024Y-91342186D01*
X144544022Y-91342185D01*
X144465063Y-91301953D01*
X144347606Y-91242104D01*
X144347603Y-91242103D01*
X144137952Y-91173985D01*
X144029086Y-91156742D01*
X143920222Y-91139500D01*
X143699778Y-91139500D01*
X143627201Y-91150995D01*
X143482047Y-91173985D01*
X143272396Y-91242103D01*
X143272393Y-91242104D01*
X143075974Y-91342187D01*
X142897641Y-91471752D01*
X142897636Y-91471756D01*
X142741756Y-91627636D01*
X142741752Y-91627641D01*
X142640318Y-91767254D01*
X142584988Y-91809920D01*
X142515375Y-91815899D01*
X142453580Y-91783293D01*
X142439682Y-91767254D01*
X142338247Y-91627641D01*
X142338243Y-91627636D01*
X142182363Y-91471756D01*
X142182358Y-91471752D01*
X142004025Y-91342187D01*
X142004024Y-91342186D01*
X142004022Y-91342185D01*
X141925063Y-91301953D01*
X141807606Y-91242104D01*
X141807603Y-91242103D01*
X141597952Y-91173985D01*
X141489086Y-91156742D01*
X141380222Y-91139500D01*
X141159778Y-91139500D01*
X141087201Y-91150995D01*
X140942047Y-91173985D01*
X140732396Y-91242103D01*
X140732393Y-91242104D01*
X140535974Y-91342187D01*
X140357641Y-91471752D01*
X140357636Y-91471756D01*
X140201756Y-91627636D01*
X140201752Y-91627641D01*
X140100318Y-91767254D01*
X140044988Y-91809920D01*
X139975375Y-91815899D01*
X139913580Y-91783293D01*
X139899682Y-91767254D01*
X139798247Y-91627641D01*
X139798243Y-91627636D01*
X139642363Y-91471756D01*
X139642358Y-91471752D01*
X139464025Y-91342187D01*
X139464024Y-91342186D01*
X139464022Y-91342185D01*
X139385063Y-91301953D01*
X139267606Y-91242104D01*
X139267603Y-91242103D01*
X139057952Y-91173985D01*
X138949086Y-91156742D01*
X138840222Y-91139500D01*
X138619778Y-91139500D01*
X138547201Y-91150995D01*
X138402047Y-91173985D01*
X138192396Y-91242103D01*
X138192393Y-91242104D01*
X137995974Y-91342187D01*
X137817641Y-91471752D01*
X137817636Y-91471756D01*
X137661756Y-91627636D01*
X137560008Y-91767681D01*
X137504678Y-91810346D01*
X137435065Y-91816325D01*
X137373270Y-91783719D01*
X137359371Y-91767680D01*
X137341066Y-91742485D01*
X137341065Y-91742485D01*
X136693369Y-92390182D01*
X136679215Y-92337360D01*
X136610099Y-92217647D01*
X136512353Y-92119901D01*
X136392640Y-92050785D01*
X136339814Y-92036630D01*
X136987513Y-91388932D01*
X136923756Y-91342611D01*
X136727410Y-91242567D01*
X136517835Y-91174473D01*
X136300181Y-91140000D01*
X136079819Y-91140000D01*
X135862164Y-91174473D01*
X135652589Y-91242567D01*
X135456233Y-91342616D01*
X135392485Y-91388931D01*
X135392485Y-91388932D01*
X136040183Y-92036630D01*
X135987360Y-92050785D01*
X135867647Y-92119901D01*
X135769901Y-92217647D01*
X135700785Y-92337360D01*
X135686630Y-92390183D01*
X135038932Y-91742485D01*
X135038931Y-91742485D01*
X134992616Y-91806233D01*
X134892567Y-92002589D01*
X134824473Y-92212164D01*
X134790000Y-92429818D01*
X130237727Y-92429818D01*
X130200547Y-92340058D01*
X130148046Y-92213309D01*
X130148041Y-92213299D01*
X130016924Y-91986196D01*
X129878633Y-91805974D01*
X129857282Y-91778149D01*
X129857281Y-91778148D01*
X129857274Y-91778140D01*
X129671860Y-91592726D01*
X129671855Y-91592722D01*
X129671851Y-91592718D01*
X129596064Y-91534564D01*
X129463803Y-91433075D01*
X129236700Y-91301958D01*
X129236690Y-91301953D01*
X128994428Y-91201605D01*
X128994421Y-91201603D01*
X128994419Y-91201602D01*
X128741116Y-91133730D01*
X128683339Y-91126123D01*
X128481127Y-91099500D01*
X128481120Y-91099500D01*
X128218880Y-91099500D01*
X128218872Y-91099500D01*
X127987772Y-91129926D01*
X127958884Y-91133730D01*
X127705581Y-91201602D01*
X127705571Y-91201605D01*
X127463309Y-91301953D01*
X127463299Y-91301958D01*
X127236196Y-91433075D01*
X127028148Y-91592718D01*
X126842718Y-91778148D01*
X126683075Y-91986196D01*
X126551958Y-92213299D01*
X126551953Y-92213309D01*
X126451605Y-92455571D01*
X126451602Y-92455581D01*
X126398867Y-92652394D01*
X126383730Y-92708885D01*
X126349500Y-92968872D01*
X125500500Y-92968872D01*
X125500500Y-73671153D01*
X128199500Y-73671153D01*
X128199500Y-73828846D01*
X128230261Y-73983489D01*
X128230264Y-73983501D01*
X128290602Y-74129172D01*
X128290609Y-74129185D01*
X128378210Y-74260288D01*
X128378213Y-74260292D01*
X128489707Y-74371786D01*
X128489711Y-74371789D01*
X128620814Y-74459390D01*
X128620827Y-74459397D01*
X128766498Y-74519735D01*
X128766503Y-74519737D01*
X128921153Y-74550499D01*
X128921156Y-74550500D01*
X128921158Y-74550500D01*
X129078844Y-74550500D01*
X129078845Y-74550499D01*
X129233497Y-74519737D01*
X129379179Y-74459394D01*
X129379185Y-74459390D01*
X129510875Y-74371398D01*
X129577553Y-74350520D01*
X129579766Y-74350500D01*
X131163331Y-74350500D01*
X131163347Y-74350501D01*
X131170943Y-74350501D01*
X131329054Y-74350501D01*
X131329057Y-74350501D01*
X131481785Y-74309577D01*
X131539943Y-74275999D01*
X131618716Y-74230520D01*
X131730520Y-74118716D01*
X131730520Y-74118714D01*
X131740724Y-74108511D01*
X131740727Y-74108506D01*
X133514664Y-72334571D01*
X133575985Y-72301088D01*
X133578152Y-72300637D01*
X133578841Y-72300500D01*
X133578842Y-72300500D01*
X133733497Y-72269737D01*
X133879179Y-72209394D01*
X134010289Y-72121789D01*
X134121789Y-72010289D01*
X134209394Y-71879179D01*
X134269737Y-71733497D01*
X134300500Y-71578842D01*
X134300500Y-71421158D01*
X134300500Y-71421155D01*
X134300499Y-71421153D01*
X134269738Y-71266510D01*
X134269738Y-71266508D01*
X134269737Y-71266503D01*
X134269735Y-71266498D01*
X134209397Y-71120827D01*
X134209390Y-71120814D01*
X134121789Y-70989711D01*
X134121786Y-70989707D01*
X134010292Y-70878213D01*
X134010288Y-70878210D01*
X133879185Y-70790609D01*
X133879172Y-70790602D01*
X133733501Y-70730264D01*
X133733489Y-70730261D01*
X133578845Y-70699500D01*
X133578842Y-70699500D01*
X133421158Y-70699500D01*
X133421155Y-70699500D01*
X133266510Y-70730261D01*
X133266498Y-70730264D01*
X133120827Y-70790602D01*
X133120814Y-70790609D01*
X132989711Y-70878210D01*
X132989707Y-70878213D01*
X132878213Y-70989707D01*
X132878210Y-70989711D01*
X132790609Y-71120814D01*
X132790602Y-71120827D01*
X132730264Y-71266498D01*
X132730261Y-71266508D01*
X132699362Y-71421848D01*
X132666977Y-71483759D01*
X132665426Y-71485337D01*
X131037584Y-73113181D01*
X130976261Y-73146666D01*
X130949903Y-73149500D01*
X129579766Y-73149500D01*
X129512727Y-73129815D01*
X129510875Y-73128602D01*
X129379185Y-73040609D01*
X129379172Y-73040602D01*
X129233501Y-72980264D01*
X129233489Y-72980261D01*
X129078845Y-72949500D01*
X129078842Y-72949500D01*
X128921158Y-72949500D01*
X128921155Y-72949500D01*
X128766510Y-72980261D01*
X128766498Y-72980264D01*
X128620827Y-73040602D01*
X128620814Y-73040609D01*
X128489711Y-73128210D01*
X128489707Y-73128213D01*
X128378213Y-73239707D01*
X128378210Y-73239711D01*
X128290609Y-73370814D01*
X128290602Y-73370827D01*
X128230264Y-73516498D01*
X128230261Y-73516510D01*
X128199500Y-73671153D01*
X125500500Y-73671153D01*
X125500500Y-63003750D01*
X125500726Y-62996263D01*
X125518271Y-62706205D01*
X125520076Y-62691340D01*
X125528988Y-62642712D01*
X125571780Y-62409197D01*
X125575364Y-62394663D01*
X125581539Y-62374848D01*
X125660696Y-62120822D01*
X125665998Y-62106841D01*
X125783731Y-61845249D01*
X125790676Y-61832016D01*
X125939080Y-61586526D01*
X125947567Y-61574230D01*
X126124480Y-61348417D01*
X126134395Y-61337226D01*
X126337226Y-61134395D01*
X126348417Y-61124480D01*
X126574230Y-60947567D01*
X126586526Y-60939080D01*
X126832016Y-60790676D01*
X126845249Y-60783731D01*
X127106841Y-60665998D01*
X127120822Y-60660696D01*
X127394668Y-60575362D01*
X127409197Y-60571780D01*
X127691344Y-60520075D01*
X127706201Y-60518271D01*
X127996264Y-60500726D01*
X128003751Y-60500500D01*
X128065892Y-60500500D01*
X160082404Y-60500500D01*
X160149443Y-60520185D01*
G37*
%TD.AperFunction*%
%TA.AperFunction,Conductor*%
G36*
X161423967Y-117557896D02*
G01*
X161495103Y-117664358D01*
X161585642Y-117754897D01*
X161692104Y-117826033D01*
X161752502Y-117851050D01*
X161240372Y-118363181D01*
X161179049Y-118396666D01*
X161152691Y-118399500D01*
X160590469Y-118399500D01*
X160576540Y-118395410D01*
X160562044Y-118396198D01*
X160543686Y-118385763D01*
X160523430Y-118379815D01*
X160513924Y-118368845D01*
X160501302Y-118361670D01*
X160491500Y-118342966D01*
X160477675Y-118327011D01*
X160475608Y-118312642D01*
X160468870Y-118299783D01*
X160470736Y-118278752D01*
X160467731Y-118257853D01*
X160473875Y-118243371D01*
X160475045Y-118230187D01*
X160487610Y-118210996D01*
X160492487Y-118199504D01*
X160497270Y-118193336D01*
X160528242Y-118162365D01*
X160631126Y-118020756D01*
X160632327Y-118019208D01*
X160659120Y-117999855D01*
X160685320Y-117979653D01*
X160687331Y-117979480D01*
X160688968Y-117978298D01*
X160721999Y-117976502D01*
X160754933Y-117973674D01*
X160756717Y-117974615D01*
X160758734Y-117974506D01*
X160787486Y-117990849D01*
X160816729Y-118006279D01*
X160818767Y-118008631D01*
X160819476Y-118009034D01*
X160820026Y-118010084D01*
X160830628Y-118022319D01*
X160848932Y-118047513D01*
X161398948Y-117497496D01*
X161423967Y-117557896D01*
G37*
%TD.AperFunction*%
%TA.AperFunction,Conductor*%
G36*
X176246945Y-106554141D02*
G01*
X176290397Y-106608856D01*
X176299500Y-106655490D01*
X176299500Y-107805611D01*
X176279815Y-107872650D01*
X176227011Y-107918405D01*
X176157853Y-107928349D01*
X176094297Y-107899324D01*
X176065016Y-107861906D01*
X176029629Y-107792457D01*
X176029626Y-107792452D01*
X175990270Y-107738282D01*
X175990269Y-107738282D01*
X175357961Y-108370591D01*
X175340924Y-108307008D01*
X175275098Y-108192994D01*
X175182006Y-108099902D01*
X175067992Y-108034076D01*
X175004408Y-108017038D01*
X175636716Y-107384728D01*
X175582547Y-107345373D01*
X175582547Y-107345372D01*
X175573500Y-107340763D01*
X175522706Y-107292788D01*
X175505912Y-107224966D01*
X175528451Y-107158832D01*
X175573508Y-107119793D01*
X175582816Y-107115051D01*
X175662007Y-107057515D01*
X175754786Y-106990109D01*
X175754788Y-106990106D01*
X175754792Y-106990104D01*
X175905104Y-106839792D01*
X175905106Y-106839788D01*
X175905109Y-106839786D01*
X176030048Y-106667820D01*
X176030047Y-106667820D01*
X176030051Y-106667816D01*
X176065015Y-106599194D01*
X176112990Y-106548399D01*
X176180811Y-106531604D01*
X176246945Y-106554141D01*
G37*
%TD.AperFunction*%
%TA.AperFunction,Conductor*%
G36*
X152318834Y-82845047D02*
G01*
X152374767Y-82886919D01*
X152399184Y-82952383D01*
X152399500Y-82961229D01*
X152399500Y-85913330D01*
X152399499Y-85913348D01*
X152399499Y-86079054D01*
X152399498Y-86079054D01*
X152440423Y-86231785D01*
X152469358Y-86281900D01*
X152469359Y-86281904D01*
X152469360Y-86281904D01*
X152519479Y-86368714D01*
X152519481Y-86368717D01*
X152613181Y-86462417D01*
X152627884Y-86489344D01*
X152644477Y-86515163D01*
X152645368Y-86521363D01*
X152646666Y-86523740D01*
X152649500Y-86550098D01*
X152649500Y-86575500D01*
X152629815Y-86642539D01*
X152577011Y-86688294D01*
X152525500Y-86699500D01*
X152471158Y-86699500D01*
X152316513Y-86730261D01*
X152316501Y-86730264D01*
X152197453Y-86779575D01*
X152127983Y-86787044D01*
X152102549Y-86779575D01*
X151983501Y-86730264D01*
X151983489Y-86730261D01*
X151828845Y-86699500D01*
X151828842Y-86699500D01*
X151671158Y-86699500D01*
X151671155Y-86699500D01*
X151516510Y-86730261D01*
X151516498Y-86730264D01*
X151370827Y-86790602D01*
X151370814Y-86790609D01*
X151239711Y-86878210D01*
X151239707Y-86878213D01*
X151128213Y-86989707D01*
X151128210Y-86989711D01*
X151040609Y-87120814D01*
X151040602Y-87120827D01*
X150980264Y-87266498D01*
X150980261Y-87266510D01*
X150949500Y-87421153D01*
X150949500Y-87578846D01*
X150980261Y-87733489D01*
X150980264Y-87733501D01*
X151040602Y-87879172D01*
X151040609Y-87879185D01*
X151128602Y-88010874D01*
X151149480Y-88077551D01*
X151149500Y-88079765D01*
X151149500Y-90163330D01*
X151149499Y-90163348D01*
X151149499Y-90329054D01*
X151149498Y-90329054D01*
X151190423Y-90481785D01*
X151219358Y-90531900D01*
X151219359Y-90531904D01*
X151219360Y-90531904D01*
X151269479Y-90618714D01*
X151269481Y-90618717D01*
X151388349Y-90737585D01*
X151388355Y-90737590D01*
X151545546Y-90894781D01*
X151579031Y-90956104D01*
X151574047Y-91025796D01*
X151532175Y-91081729D01*
X151474051Y-91105401D01*
X151283893Y-91130437D01*
X151258884Y-91133730D01*
X151005581Y-91201602D01*
X151005571Y-91201605D01*
X150763309Y-91301953D01*
X150763299Y-91301958D01*
X150536196Y-91433075D01*
X150328148Y-91592718D01*
X150142718Y-91778148D01*
X149983076Y-91986195D01*
X149981884Y-91988261D01*
X149981366Y-91988753D01*
X149980819Y-91989574D01*
X149980635Y-91989451D01*
X149931314Y-92036474D01*
X149862706Y-92049693D01*
X149797843Y-92023721D01*
X149757318Y-91966805D01*
X149750500Y-91926255D01*
X149750500Y-85362229D01*
X149770185Y-85295190D01*
X149786819Y-85274548D01*
X152187819Y-82873548D01*
X152249142Y-82840063D01*
X152318834Y-82845047D01*
G37*
%TD.AperFunction*%
%TA.AperFunction,Conductor*%
G36*
X151188773Y-70195548D02*
G01*
X151236384Y-70246685D01*
X151249500Y-70302190D01*
X151249500Y-72068059D01*
X151229815Y-72135098D01*
X151177011Y-72180853D01*
X151107853Y-72190797D01*
X151044297Y-72161772D01*
X151037819Y-72155740D01*
X151010292Y-72128213D01*
X151010288Y-72128210D01*
X150879185Y-72040609D01*
X150879172Y-72040602D01*
X150733501Y-71980264D01*
X150733489Y-71980261D01*
X150578845Y-71949500D01*
X150578842Y-71949500D01*
X150421158Y-71949500D01*
X150421155Y-71949500D01*
X150266510Y-71980261D01*
X150266498Y-71980264D01*
X150120827Y-72040602D01*
X150120814Y-72040609D01*
X149989711Y-72128210D01*
X149989707Y-72128213D01*
X149878213Y-72239707D01*
X149878210Y-72239711D01*
X149790609Y-72370814D01*
X149790602Y-72370827D01*
X149730264Y-72516498D01*
X149730261Y-72516508D01*
X149699361Y-72671850D01*
X149666976Y-72733761D01*
X149665425Y-72735339D01*
X148019481Y-74381282D01*
X148019479Y-74381285D01*
X147974385Y-74459392D01*
X147974384Y-74459393D01*
X147940423Y-74518214D01*
X147940423Y-74518215D01*
X147899499Y-74670943D01*
X147899499Y-74670945D01*
X147899499Y-74839046D01*
X147899500Y-74839059D01*
X147899500Y-76199903D01*
X147879815Y-76266942D01*
X147863181Y-76287584D01*
X147562181Y-76588584D01*
X147500858Y-76622069D01*
X147431166Y-76617085D01*
X147375233Y-76575213D01*
X147350816Y-76509749D01*
X147350500Y-76500903D01*
X147350500Y-73800097D01*
X147370185Y-73733058D01*
X147386819Y-73712416D01*
X148798735Y-72300500D01*
X150264662Y-70834572D01*
X150325983Y-70801089D01*
X150328150Y-70800638D01*
X150386085Y-70789113D01*
X150483497Y-70769737D01*
X150629179Y-70709394D01*
X150760289Y-70621789D01*
X150871789Y-70510289D01*
X150959394Y-70379179D01*
X151010939Y-70254738D01*
X151054779Y-70200334D01*
X151121074Y-70178269D01*
X151188773Y-70195548D01*
G37*
%TD.AperFunction*%
%TD*%
%TA.AperFunction,NonConductor*%
G36*
X182003736Y-60500726D02*
G01*
X182293796Y-60518271D01*
X182308657Y-60520075D01*
X182513224Y-60557564D01*
X182590798Y-60571780D01*
X182605335Y-60575363D01*
X182879172Y-60660695D01*
X182893163Y-60666000D01*
X183154743Y-60783727D01*
X183167989Y-60790680D01*
X183413465Y-60939075D01*
X183425776Y-60947573D01*
X183473725Y-60985138D01*
X183651573Y-61124473D01*
X183662781Y-61134403D01*
X183865596Y-61337218D01*
X183875526Y-61348426D01*
X184044818Y-61564512D01*
X184052422Y-61574217D01*
X184060928Y-61586540D01*
X184209316Y-61832004D01*
X184216275Y-61845263D01*
X184333997Y-62106831D01*
X184339306Y-62120832D01*
X184424635Y-62394663D01*
X184428219Y-62409201D01*
X184479923Y-62691340D01*
X184481728Y-62706205D01*
X184499274Y-62996263D01*
X184499500Y-63003750D01*
X184499500Y-74380258D01*
X184479815Y-74447297D01*
X184427011Y-74493052D01*
X184357853Y-74502996D01*
X184296835Y-74476111D01*
X184261725Y-74447297D01*
X184202893Y-74399015D01*
X184123629Y-74340230D01*
X184103417Y-74326725D01*
X184074806Y-74309576D01*
X184018782Y-74275997D01*
X184018779Y-74275995D01*
X183967178Y-74248414D01*
X183917333Y-74199452D01*
X183901873Y-74131314D01*
X183918898Y-74075937D01*
X183951744Y-74020398D01*
X183997598Y-73862569D01*
X184000500Y-73825694D01*
X184000500Y-70994306D01*
X183997598Y-70957431D01*
X183951744Y-70799602D01*
X183868081Y-70658135D01*
X183868079Y-70658133D01*
X183868076Y-70658129D01*
X183751870Y-70541923D01*
X183751862Y-70541917D01*
X183610396Y-70458255D01*
X183610393Y-70458254D01*
X183452573Y-70412402D01*
X183452567Y-70412401D01*
X183415701Y-70409500D01*
X183415694Y-70409500D01*
X180584306Y-70409500D01*
X180584298Y-70409500D01*
X180547432Y-70412401D01*
X180547426Y-70412402D01*
X180389606Y-70458254D01*
X180389603Y-70458255D01*
X180248137Y-70541917D01*
X180248129Y-70541923D01*
X180131923Y-70658129D01*
X180131917Y-70658137D01*
X180048255Y-70799603D01*
X180048254Y-70799606D01*
X180002402Y-70957426D01*
X180002401Y-70957432D01*
X179999500Y-70994298D01*
X179999500Y-72332582D01*
X179979815Y-72399621D01*
X179927011Y-72445376D01*
X179857853Y-72455320D01*
X179794297Y-72426295D01*
X179771251Y-72399725D01*
X172296748Y-60794575D01*
X172230452Y-60691642D01*
X172210702Y-60624623D01*
X172230320Y-60557564D01*
X172283078Y-60511757D01*
X172334702Y-60500500D01*
X181934108Y-60500500D01*
X181996249Y-60500500D01*
X182003736Y-60500726D01*
G37*
%TD.AperFunction*%
M02*
