%TF.GenerationSoftware,KiCad,Pcbnew,9.0.6*%
%TF.CreationDate,2026-01-15T21:11:11+00:00*%
%TF.ProjectId,Cinder,43696e64-6572-42e6-9b69-6361645f7063,rev?*%
%TF.SameCoordinates,Original*%
%TF.FileFunction,Soldermask,Top*%
%TF.FilePolarity,Negative*%
%FSLAX46Y46*%
G04 Gerber Fmt 4.6, Leading zero omitted, Abs format (unit mm)*
G04 Created by KiCad (PCBNEW 9.0.6) date 2026-01-15 21:11:11*
%MOMM*%
%LPD*%
G01*
G04 APERTURE LIST*
G04 Aperture macros list*
%AMRoundRect*
0 Rectangle with rounded corners*
0 $1 Rounding radius*
0 $2 $3 $4 $5 $6 $7 $8 $9 X,Y pos of 4 corners*
0 Add a 4 corners polygon primitive as box body*
4,1,4,$2,$3,$4,$5,$6,$7,$8,$9,$2,$3,0*
0 Add four circle primitives for the rounded corners*
1,1,$1+$1,$2,$3*
1,1,$1+$1,$4,$5*
1,1,$1+$1,$6,$7*
1,1,$1+$1,$8,$9*
0 Add four rect primitives between the rounded corners*
20,1,$1+$1,$2,$3,$4,$5,0*
20,1,$1+$1,$4,$5,$6,$7,0*
20,1,$1+$1,$6,$7,$8,$9,0*
20,1,$1+$1,$8,$9,$2,$3,0*%
G04 Aperture macros list end*
%ADD10RoundRect,0.250000X0.625000X-0.400000X0.625000X0.400000X-0.625000X0.400000X-0.625000X-0.400000X0*%
%ADD11RoundRect,0.250000X-0.625000X0.400000X-0.625000X-0.400000X0.625000X-0.400000X0.625000X0.400000X0*%
%ADD12RoundRect,0.250000X-0.400000X-0.625000X0.400000X-0.625000X0.400000X0.625000X-0.400000X0.625000X0*%
%ADD13RoundRect,0.250000X0.400000X0.625000X-0.400000X0.625000X-0.400000X-0.625000X0.400000X-0.625000X0*%
%ADD14R,1.700000X1.700000*%
%ADD15C,1.700000*%
%ADD16O,1.730000X0.340000*%
%ADD17R,2.900000X5.500000*%
%ADD18RoundRect,0.250000X0.650000X-0.412500X0.650000X0.412500X-0.650000X0.412500X-0.650000X-0.412500X0*%
%ADD19RoundRect,0.250000X0.412500X0.650000X-0.412500X0.650000X-0.412500X-0.650000X0.412500X-0.650000X0*%
%ADD20RoundRect,0.250000X-0.412500X-0.650000X0.412500X-0.650000X0.412500X0.650000X-0.412500X0.650000X0*%
%ADD21RoundRect,0.150000X-1.350000X-1.350000X1.350000X-1.350000X1.350000X1.350000X-1.350000X1.350000X0*%
%ADD22R,2.800000X1.300000*%
%ADD23R,6.500000X6.000000*%
%ADD24O,3.800000X8.000000*%
%ADD25O,2.300000X4.000000*%
%ADD26C,1.800000*%
%ADD27C,4.000000*%
%ADD28C,2.200000*%
%ADD29C,3.000000*%
G04 APERTURE END LIST*
D10*
%TO.C,R11*%
X154500000Y-65450000D03*
X154500000Y-68550000D03*
%TD*%
D11*
%TO.C,R2*%
X157500000Y-66200000D03*
X157500000Y-69300000D03*
%TD*%
D12*
%TO.C,R17*%
X146800000Y-88000000D03*
X143700000Y-88000000D03*
%TD*%
D13*
%TO.C,R16*%
X137950000Y-88000000D03*
X141050000Y-88000000D03*
%TD*%
D14*
%TO.C,J6*%
X128000000Y-65190000D03*
D15*
X128000000Y-67730000D03*
X128000000Y-70270000D03*
X128000000Y-72810000D03*
%TD*%
D10*
%TO.C,R10*%
X151000000Y-68550000D03*
X151000000Y-65450000D03*
%TD*%
D16*
%TO.C,U5*%
X145000000Y-66000000D03*
X145000000Y-65350000D03*
X145000000Y-64700000D03*
X145000000Y-64050000D03*
X145000000Y-63400000D03*
X145000000Y-62750000D03*
X145000000Y-62090000D03*
X145000000Y-61440000D03*
X145000000Y-60790000D03*
X145000000Y-60140000D03*
X145000000Y-59490000D03*
X145000000Y-58840000D03*
X145000000Y-58190000D03*
X145000000Y-57540000D03*
X139260000Y-66000000D03*
X139260000Y-65350000D03*
X139260000Y-64700000D03*
X139260000Y-64050000D03*
X139260000Y-63400000D03*
X139260000Y-62750000D03*
X139260000Y-62090000D03*
X139260000Y-61440000D03*
X139260000Y-60790000D03*
X139260000Y-60140000D03*
X139260000Y-59490000D03*
X139260000Y-58840000D03*
X139260000Y-58190000D03*
X139260000Y-57540000D03*
D17*
X142130000Y-61770000D03*
%TD*%
D12*
%TO.C,R4*%
X154700000Y-58750000D03*
X157800000Y-58750000D03*
%TD*%
%TO.C,R1*%
X154950000Y-61500000D03*
X158050000Y-61500000D03*
%TD*%
%TO.C,R3*%
X152950000Y-75000000D03*
X156050000Y-75000000D03*
%TD*%
D18*
%TO.C,C1*%
X147250000Y-69062500D03*
X147250000Y-65937500D03*
%TD*%
D19*
%TO.C,C2*%
X143812500Y-70750000D03*
X140687500Y-70750000D03*
%TD*%
D20*
%TO.C,C3*%
X148937500Y-54750000D03*
X152062500Y-54750000D03*
%TD*%
%TO.C,C4*%
X148937500Y-52000000D03*
X152062500Y-52000000D03*
%TD*%
D19*
%TO.C,C5*%
X135312500Y-53250000D03*
X132187500Y-53250000D03*
%TD*%
D13*
%TO.C,R9*%
X143800000Y-68250000D03*
X140700000Y-68250000D03*
%TD*%
%TO.C,R12*%
X140550000Y-53250000D03*
X137450000Y-53250000D03*
%TD*%
%TO.C,R13*%
X145800000Y-55250000D03*
X142700000Y-55250000D03*
%TD*%
D12*
%TO.C,R15*%
X135450000Y-55750000D03*
X138550000Y-55750000D03*
%TD*%
D21*
%TO.C,J3*%
X182000000Y-72270000D03*
%TD*%
%TO.C,J4*%
X182000000Y-77270000D03*
%TD*%
%TO.C,J1*%
X182000000Y-62680000D03*
%TD*%
%TO.C,J2*%
X182000000Y-67270000D03*
%TD*%
D22*
%TO.C,Q2*%
X160960000Y-79020000D03*
D23*
X167540000Y-76750000D03*
D22*
X160960000Y-74480000D03*
%TD*%
D23*
%TO.C,Q1*%
X167540000Y-69000000D03*
D22*
X160960000Y-71270000D03*
X160960000Y-66730000D03*
%TD*%
D24*
%TO.C,U3*%
X168600000Y-56000000D03*
X161400000Y-56000000D03*
%TD*%
D14*
%TO.C,U4*%
X174500000Y-111250000D03*
D15*
X174500000Y-108710000D03*
X174500000Y-106170000D03*
%TD*%
D25*
%TO.C,SW9*%
X167500000Y-109750000D03*
X156500000Y-109750000D03*
D26*
X159460000Y-117250000D03*
X164540000Y-117250000D03*
X162000000Y-117250000D03*
X159460000Y-102750000D03*
X164540000Y-102750000D03*
%TD*%
D15*
%TO.C,SW3*%
X174000000Y-134080000D03*
D27*
X174000000Y-129000000D03*
D15*
X174000000Y-123920000D03*
D28*
X168920000Y-126460000D03*
X171460000Y-132810000D03*
%TD*%
D29*
%TO.C,U2*%
X128350000Y-93100000D03*
X128350000Y-116900000D03*
X151650000Y-93100000D03*
X151650000Y-116900000D03*
D26*
X136190000Y-92540000D03*
X138730000Y-92540000D03*
X141270000Y-92540000D03*
X143810000Y-92540000D03*
%TD*%
D15*
%TO.C,SW1*%
X136000000Y-134080000D03*
D27*
X136000000Y-129000000D03*
D15*
X136000000Y-123920000D03*
D28*
X130920000Y-126460000D03*
X133460000Y-132810000D03*
%TD*%
D15*
%TO.C,SW2*%
X155000000Y-134080000D03*
D27*
X155000000Y-129000000D03*
D15*
X155000000Y-123920000D03*
D28*
X149920000Y-126460000D03*
X152460000Y-132810000D03*
%TD*%
D14*
%TO.C,J5*%
X128000000Y-79460000D03*
D15*
X128000000Y-82000000D03*
X128000000Y-84540000D03*
X128000000Y-87080000D03*
%TD*%
D14*
%TO.C,J7*%
X128000000Y-61000000D03*
D15*
X128000000Y-58460000D03*
X128000000Y-55920000D03*
X128000000Y-53380000D03*
%TD*%
M02*
