%TF.GenerationSoftware,KiCad,Pcbnew,9.0.6*%
%TF.CreationDate,2026-01-15T21:11:11+00:00*%
%TF.ProjectId,Cinder,43696e64-6572-42e6-9b69-6361645f7063,rev?*%
%TF.SameCoordinates,Original*%
%TF.FileFunction,Copper,L2,Bot*%
%TF.FilePolarity,Positive*%
%FSLAX46Y46*%
G04 Gerber Fmt 4.6, Leading zero omitted, Abs format (unit mm)*
G04 Created by KiCad (PCBNEW 9.0.6) date 2026-01-15 21:11:11*
%MOMM*%
%LPD*%
G01*
G04 APERTURE LIST*
G04 Aperture macros list*
%AMRoundRect*
0 Rectangle with rounded corners*
0 $1 Rounding radius*
0 $2 $3 $4 $5 $6 $7 $8 $9 X,Y pos of 4 corners*
0 Add a 4 corners polygon primitive as box body*
4,1,4,$2,$3,$4,$5,$6,$7,$8,$9,$2,$3,0*
0 Add four circle primitives for the rounded corners*
1,1,$1+$1,$2,$3*
1,1,$1+$1,$4,$5*
1,1,$1+$1,$6,$7*
1,1,$1+$1,$8,$9*
0 Add four rect primitives between the rounded corners*
20,1,$1+$1,$2,$3,$4,$5,0*
20,1,$1+$1,$4,$5,$6,$7,0*
20,1,$1+$1,$6,$7,$8,$9,0*
20,1,$1+$1,$8,$9,$2,$3,0*%
G04 Aperture macros list end*
%TA.AperFunction,SMDPad,CuDef*%
%ADD10R,1.200000X3.500000*%
%TD*%
%TA.AperFunction,ComponentPad*%
%ADD11R,1.700000X1.700000*%
%TD*%
%TA.AperFunction,ComponentPad*%
%ADD12C,1.700000*%
%TD*%
%TA.AperFunction,SMDPad,CuDef*%
%ADD13R,2.000000X1.200000*%
%TD*%
%TA.AperFunction,SMDPad,CuDef*%
%ADD14R,1.200000X2.000000*%
%TD*%
%TA.AperFunction,SMDPad,CuDef*%
%ADD15R,1.010000X0.610000*%
%TD*%
%TA.AperFunction,SMDPad,CuDef*%
%ADD16RoundRect,0.250000X-0.400000X-0.625000X0.400000X-0.625000X0.400000X0.625000X-0.400000X0.625000X0*%
%TD*%
%TA.AperFunction,ComponentPad*%
%ADD17RoundRect,0.150000X-1.350000X-1.350000X1.350000X-1.350000X1.350000X1.350000X-1.350000X1.350000X0*%
%TD*%
%TA.AperFunction,ComponentPad*%
%ADD18O,3.800000X8.000000*%
%TD*%
%TA.AperFunction,ComponentPad*%
%ADD19O,2.300000X4.000000*%
%TD*%
%TA.AperFunction,ComponentPad*%
%ADD20C,1.800000*%
%TD*%
%TA.AperFunction,ComponentPad*%
%ADD21C,2.200000*%
%TD*%
%TA.AperFunction,ComponentPad*%
%ADD22C,3.000000*%
%TD*%
%TA.AperFunction,ViaPad*%
%ADD23C,0.600000*%
%TD*%
%TA.AperFunction,Conductor*%
%ADD24C,0.400000*%
%TD*%
%TA.AperFunction,Conductor*%
%ADD25C,0.800000*%
%TD*%
%TA.AperFunction,Conductor*%
%ADD26C,0.300000*%
%TD*%
%TA.AperFunction,Conductor*%
%ADD27C,3.000000*%
%TD*%
%TA.AperFunction,Conductor*%
%ADD28C,0.500000*%
%TD*%
%TA.AperFunction,Conductor*%
%ADD29C,0.200000*%
%TD*%
G04 APERTURE END LIST*
D10*
%TO.P,U6,1,1*%
%TO.N,+19V*%
X142000000Y-58672500D03*
%TO.P,U6,2,2*%
%TO.N,GND*%
X142000000Y-64012500D03*
%TD*%
D11*
%TO.P,J6,1,Pin_1*%
%TO.N,+3.3V*%
X128000000Y-65190000D03*
D12*
%TO.P,J6,2,Pin_2*%
%TO.N,GND*%
X128000000Y-67730000D03*
%TO.P,J6,3,Pin_3*%
%TO.N,IR_SCL*%
X128000000Y-70270000D03*
%TO.P,J6,4,Pin_4*%
%TO.N,IR_SDA*%
X128000000Y-72810000D03*
%TD*%
D13*
%TO.P,U1,1,GP0*%
%TO.N,IR_SDA*%
X133750000Y-51750000D03*
%TO.P,U1,2,GP1*%
%TO.N,IR_SCL*%
X133750000Y-54290000D03*
%TO.P,U1,3,GP2*%
%TO.N,nFault*%
X133750000Y-56830000D03*
%TO.P,U1,4,GP3*%
%TO.N,DIR*%
X133750000Y-59370000D03*
%TO.P,U1,5,GP4*%
%TO.N,ENABLE*%
X133750000Y-61910000D03*
%TO.P,U1,6,GP5*%
%TO.N,STEP*%
X133750000Y-64450000D03*
%TO.P,U1,7,GP6*%
%TO.N,MODE0*%
X133750000Y-66990000D03*
%TO.P,U1,8,GP7*%
%TO.N,MODE1*%
X133750000Y-69530000D03*
%TO.P,U1,9,GP8*%
%TO.N,MODE2*%
X133750000Y-72070000D03*
D14*
%TO.P,U1,10,GP9*%
%TO.N,unconnected-(U1-GP9-Pad10)*%
X137170000Y-73150000D03*
%TO.P,U1,11,GP10*%
%TO.N,unconnected-(U1-GP10-Pad11)*%
X139710000Y-73150000D03*
%TO.P,U1,12,GP11*%
%TO.N,unconnected-(U1-GP11-Pad12)*%
X142250000Y-73150000D03*
%TO.P,U1,13,GP12*%
%TO.N,SW1*%
X144790000Y-73150000D03*
%TO.P,U1,14,GP13*%
%TO.N,SW2*%
X147330000Y-73150000D03*
D13*
%TO.P,U1,15,GP14*%
%TO.N,SW3*%
X150750000Y-72070000D03*
%TO.P,U1,16,GP15*%
%TO.N,SW4*%
X150750000Y-69530000D03*
%TO.P,U1,17,GP26*%
%TO.N,EC2*%
X150750000Y-66990000D03*
%TO.P,U1,18,GP27*%
%TO.N,EC1*%
X150750000Y-64450000D03*
%TO.P,U1,19,GP28*%
%TO.N,FAN*%
X150750000Y-61910000D03*
%TO.P,U1,20,GP29*%
%TO.N,HAETER*%
X150750000Y-59370000D03*
%TO.P,U1,21,3V3*%
%TO.N,+3.3V*%
X150750000Y-56830000D03*
%TO.P,U1,22,GND*%
%TO.N,GND*%
X150750000Y-54290000D03*
%TO.P,U1,23,5V*%
%TO.N,+5V*%
X150750000Y-51750000D03*
D15*
%TO.P,U1,24*%
%TO.N,N/C*%
X148240000Y-68560000D03*
%TO.P,U1,25*%
X148240000Y-67290000D03*
%TO.P,U1,26*%
X148240000Y-66020000D03*
%TO.P,U1,27*%
X148240000Y-64750000D03*
%TO.P,U1,28*%
X148240000Y-63480000D03*
%TO.P,U1,29*%
X148240000Y-62220000D03*
%TO.P,U1,30*%
X148240000Y-60950000D03*
%TO.P,U1,31*%
X148240000Y-59680000D03*
%TO.P,U1,32*%
X148240000Y-58410000D03*
%TO.P,U1,33*%
X148240000Y-57140000D03*
%TD*%
D16*
%TO.P,R5,2*%
%TO.N,GND*%
X158300000Y-97250000D03*
%TO.P,R5,1*%
%TO.N,SW2*%
X155200000Y-97250000D03*
%TD*%
%TO.P,R7,2*%
%TO.N,GND*%
X158300000Y-94750000D03*
%TO.P,R7,1*%
%TO.N,SW3*%
X155200000Y-94750000D03*
%TD*%
%TO.P,R8,2*%
%TO.N,GND*%
X154300000Y-86000000D03*
%TO.P,R8,1*%
%TO.N,SW4*%
X151200000Y-86000000D03*
%TD*%
%TO.P,R6,2*%
%TO.N,GND*%
X158300000Y-99750000D03*
%TO.P,R6,1*%
%TO.N,SW1*%
X155200000Y-99750000D03*
%TD*%
D17*
%TO.P,J3,1,Pin_1*%
%TO.N,+19V*%
X182000000Y-72270000D03*
%TD*%
%TO.P,J4,1,Pin_1*%
%TO.N,Net-(J4-Pin_1)*%
X182000000Y-77270000D03*
%TD*%
%TO.P,J1,1,Pin_1*%
%TO.N,Net-(J1-Pin_1)*%
X182000000Y-62680000D03*
%TD*%
%TO.P,J2,1,Pin_1*%
%TO.N,+19V*%
X182000000Y-67270000D03*
%TD*%
D18*
%TO.P,U3,3,+*%
%TO.N,+19V*%
X168600000Y-56000000D03*
%TO.P,U3,4,-*%
%TO.N,GND*%
X161400000Y-56000000D03*
%TD*%
D11*
%TO.P,U4,1,Vin*%
%TO.N,+19V*%
X174500000Y-111250000D03*
D12*
%TO.P,U4,2,GND*%
%TO.N,GND*%
X174500000Y-108710000D03*
%TO.P,U4,3,+Vo*%
%TO.N,+5V*%
X174500000Y-106170000D03*
%TD*%
D19*
%TO.P,SW9,6,6*%
%TO.N,GND*%
X167500000Y-109750000D03*
%TO.P,SW9,7,7*%
X156500000Y-109750000D03*
D20*
%TO.P,SW9,A,A*%
%TO.N,EC2*%
X159460000Y-117250000D03*
%TO.P,SW9,B,B*%
%TO.N,EC1*%
X164540000Y-117250000D03*
%TO.P,SW9,C,C*%
%TO.N,GND*%
X162000000Y-117250000D03*
%TO.P,SW9,D,D*%
%TO.N,+3.3V*%
X159460000Y-102750000D03*
%TO.P,SW9,E,E*%
%TO.N,SW4*%
X164540000Y-102750000D03*
%TD*%
D21*
%TO.P,SW3,1,1*%
%TO.N,+3.3V*%
X168920000Y-126460000D03*
%TO.P,SW3,2,2*%
%TO.N,SW3*%
X171460000Y-132810000D03*
%TD*%
D22*
%TO.P,U2,*%
%TO.N,*%
X128350000Y-93100000D03*
X128350000Y-116900000D03*
X151650000Y-93100000D03*
X151650000Y-116900000D03*
D20*
%TO.P,U2,1,GND*%
%TO.N,GND*%
X136190000Y-92540000D03*
%TO.P,U2,2,VCC*%
%TO.N,+3.3V*%
X138730000Y-92540000D03*
%TO.P,U2,3,SCL*%
%TO.N,IR_SCL*%
X141270000Y-92540000D03*
%TO.P,U2,4,SDA*%
%TO.N,IR_SDA*%
X143810000Y-92540000D03*
%TD*%
D21*
%TO.P,SW1,1,1*%
%TO.N,+3.3V*%
X130920000Y-126460000D03*
%TO.P,SW1,2,2*%
%TO.N,SW1*%
X133460000Y-132810000D03*
%TD*%
%TO.P,SW2,1,1*%
%TO.N,+3.3V*%
X149920000Y-126460000D03*
%TO.P,SW2,2,2*%
%TO.N,SW2*%
X152460000Y-132810000D03*
%TD*%
D11*
%TO.P,J5,1,Pin_1*%
%TO.N,Net-(J5-Pin_1)*%
X128000000Y-79460000D03*
D12*
%TO.P,J5,2,Pin_2*%
%TO.N,Net-(J5-Pin_2)*%
X128000000Y-82000000D03*
%TO.P,J5,3,Pin_3*%
%TO.N,Net-(J5-Pin_3)*%
X128000000Y-84540000D03*
%TO.P,J5,4,Pin_4*%
%TO.N,Net-(J5-Pin_4)*%
X128000000Y-87080000D03*
%TD*%
D11*
%TO.P,J7,1,Pin_1*%
%TO.N,+3.3V*%
X128000000Y-61000000D03*
D12*
%TO.P,J7,2,Pin_2*%
%TO.N,GND*%
X128000000Y-58460000D03*
%TO.P,J7,3,Pin_3*%
%TO.N,IR_SCL*%
X128000000Y-55920000D03*
%TO.P,J7,4,Pin_4*%
%TO.N,IR_SDA*%
X128000000Y-53380000D03*
%TD*%
D23*
%TO.N,GND*%
X154500000Y-80500000D03*
X154500000Y-81500000D03*
X154500000Y-82500000D03*
X154000000Y-52500000D03*
X155000000Y-52500000D03*
X155000000Y-53500000D03*
X155000000Y-54500000D03*
X154000000Y-54500000D03*
X154000000Y-53500000D03*
X142000000Y-53000000D03*
X148756315Y-71756315D03*
X150665380Y-75665380D03*
X150000000Y-74000000D03*
X141000000Y-66250000D03*
%TO.N,SW1*%
X151500000Y-103500000D03*
X145250000Y-104000000D03*
%TO.N,SW2*%
X150250000Y-109500000D03*
X149250000Y-112250000D03*
%TO.N,+19V*%
X176250000Y-80750000D03*
%TO.N,+5V*%
X145750000Y-51250000D03*
X138500000Y-79250000D03*
X143000000Y-83750000D03*
%TO.N,HAETER*%
X153500000Y-60000000D03*
%TO.N,FAN*%
X156500000Y-64000000D03*
%TO.N,+3.3V*%
X133000000Y-80000000D03*
X135500000Y-87250000D03*
%TO.N,+19V*%
X147000000Y-59000000D03*
X147000000Y-64100000D03*
X142250000Y-66750000D03*
%TO.N,MODE2*%
X137750000Y-67750000D03*
%TO.N,MODE1*%
X137000000Y-66250000D03*
%TO.N,MODE0*%
X137000000Y-64000000D03*
%TO.N,STEP*%
X137000000Y-62750000D03*
%TO.N,ENABLE*%
X136750000Y-61500000D03*
%TO.N,DIR*%
X136750000Y-59750000D03*
%TO.N,nFault*%
X137000000Y-58000000D03*
%TD*%
D24*
%TO.N,GND*%
X150000000Y-75000000D02*
X150665380Y-75665380D01*
X150000000Y-74000000D02*
X150000000Y-75000000D01*
D25*
X142000000Y-65250000D02*
X141000000Y-66250000D01*
X142000000Y-64012500D02*
X142000000Y-65250000D01*
%TO.N,+19V*%
X142000000Y-58672500D02*
X144922500Y-58672500D01*
X147000000Y-60750000D02*
X147000000Y-59000000D01*
X144922500Y-58672500D02*
X147000000Y-60750000D01*
X147000000Y-64100000D02*
X147000000Y-60750000D01*
D26*
%TO.N,+3.3V*%
X149420000Y-55500000D02*
X150750000Y-56830000D01*
X138750000Y-55500000D02*
X149420000Y-55500000D01*
X138000000Y-60000000D02*
X138000000Y-56250000D01*
X137250000Y-60750000D02*
X138000000Y-60000000D01*
X138000000Y-56250000D02*
X138750000Y-55500000D01*
X128000000Y-61000000D02*
X128250000Y-60750000D01*
X128250000Y-60750000D02*
X137250000Y-60750000D01*
%TO.N,EC1*%
X151450000Y-64450000D02*
X150750000Y-64450000D01*
X166750000Y-104250000D02*
X166750000Y-96000000D01*
X166750000Y-96000000D02*
X156750000Y-86000000D01*
X164540000Y-106460000D02*
X166750000Y-104250000D01*
X156750000Y-69750000D02*
X151450000Y-64450000D01*
X164540000Y-117250000D02*
X164540000Y-106460000D01*
X156750000Y-86000000D02*
X156750000Y-69750000D01*
%TO.N,EC2*%
X166250000Y-104000000D02*
X166250000Y-96250000D01*
X166250000Y-96250000D02*
X156250000Y-86250000D01*
X159460000Y-110790000D02*
X166250000Y-104000000D01*
X156250000Y-86250000D02*
X156250000Y-72490000D01*
X156250000Y-72490000D02*
X150750000Y-66990000D01*
X159460000Y-117250000D02*
X159460000Y-110790000D01*
%TO.N,SW2*%
X149250000Y-112250000D02*
X147330000Y-114170000D01*
X147330000Y-127680000D02*
X147330000Y-114170000D01*
%TO.N,SW1*%
X145250000Y-104499000D02*
X146251000Y-105500000D01*
X145250000Y-104000000D02*
X145250000Y-104499000D01*
X146251000Y-105500000D02*
X146251000Y-74611000D01*
X155200000Y-99750000D02*
X151500000Y-103450000D01*
X151500000Y-103450000D02*
X151500000Y-103500000D01*
%TO.N,SW2*%
X147330000Y-113250000D02*
X147330000Y-73150000D01*
X150250000Y-102200000D02*
X150250000Y-109500000D01*
X155200000Y-97250000D02*
X150250000Y-102200000D01*
%TO.N,SW3*%
X154200000Y-95750000D02*
X148500000Y-95750000D01*
X148500000Y-95750000D02*
X148500000Y-74320000D01*
X155200000Y-94750000D02*
X154200000Y-95750000D01*
%TO.N,SW4*%
X150790000Y-89000000D02*
X149500000Y-87710000D01*
X149500000Y-87710000D02*
X149500000Y-86000000D01*
X155500000Y-89000000D02*
X150790000Y-89000000D01*
X164540000Y-98040000D02*
X155500000Y-89000000D01*
X164540000Y-102750000D02*
X164540000Y-98040000D01*
X149500000Y-86000000D02*
X149500000Y-77750000D01*
X151200000Y-86000000D02*
X149500000Y-86000000D01*
X152750000Y-74500000D02*
X152750000Y-71530000D01*
X149500000Y-77750000D02*
X152750000Y-74500000D01*
X152750000Y-71530000D02*
X150750000Y-69530000D01*
%TO.N,SW3*%
X148500000Y-109850000D02*
X148500000Y-95750000D01*
X148500000Y-74320000D02*
X150750000Y-72070000D01*
X171460000Y-132810000D02*
X148500000Y-109850000D01*
%TO.N,SW2*%
X147330000Y-114170000D02*
X147330000Y-113250000D01*
X152460000Y-132810000D02*
X147330000Y-127680000D01*
%TO.N,SW1*%
X146251000Y-74611000D02*
X144790000Y-73150000D01*
X146251000Y-111499000D02*
X146251000Y-105500000D01*
X133460000Y-124290000D02*
X146251000Y-111499000D01*
X133460000Y-132810000D02*
X133460000Y-124290000D01*
D25*
%TO.N,+19V*%
X178980000Y-72270000D02*
X182000000Y-72270000D01*
X176250000Y-75000000D02*
X178980000Y-72270000D01*
X176250000Y-80750000D02*
X176250000Y-75000000D01*
%TO.N,+5V*%
X145750000Y-51250000D02*
X150250000Y-51250000D01*
X150250000Y-51250000D02*
X150750000Y-51750000D01*
X143000000Y-83750000D02*
X138500000Y-79250000D01*
D27*
%TO.N,+19V*%
X168600000Y-56000000D02*
X179870000Y-67270000D01*
X182000000Y-72270000D02*
X182000000Y-67270000D01*
D26*
%TO.N,HAETER*%
X153500000Y-60000000D02*
X152870000Y-59370000D01*
X152870000Y-59370000D02*
X150750000Y-59370000D01*
%TO.N,FAN*%
X154410000Y-61910000D02*
X150750000Y-61910000D01*
X156500000Y-64000000D02*
X154410000Y-61910000D01*
%TO.N,+3.3V*%
X135500000Y-82500000D02*
X133000000Y-80000000D01*
X135500000Y-87250000D02*
X135500000Y-82500000D01*
%TO.N,IR_SCL*%
X143270000Y-85520000D02*
X143250000Y-85520000D01*
X145750000Y-88000000D02*
X143270000Y-85520000D01*
X143250000Y-85520000D02*
X128000000Y-70270000D01*
X144500000Y-94500000D02*
X145750000Y-93250000D01*
X145750000Y-93250000D02*
X145750000Y-88000000D01*
X143230000Y-94500000D02*
X144500000Y-94500000D01*
X141270000Y-92540000D02*
X143230000Y-94500000D01*
%TO.N,IR_SDA*%
X143810000Y-88620000D02*
X143810000Y-92540000D01*
X128000000Y-72810000D02*
X143810000Y-88620000D01*
X126249000Y-71059000D02*
X128000000Y-72810000D01*
X126249000Y-55131000D02*
X126249000Y-71059000D01*
X128000000Y-53380000D02*
X126249000Y-55131000D01*
%TO.N,IR_SCL*%
X126750000Y-69020000D02*
X128000000Y-70270000D01*
X126750000Y-57170000D02*
X126750000Y-69020000D01*
X128000000Y-55920000D02*
X126750000Y-57170000D01*
%TO.N,+3.3V*%
X128000000Y-65190000D02*
X128000000Y-61000000D01*
%TO.N,IR_SCL*%
X129630000Y-54290000D02*
X128000000Y-55920000D01*
X133750000Y-54290000D02*
X129630000Y-54290000D01*
%TO.N,IR_SDA*%
X129630000Y-51750000D02*
X128000000Y-53380000D01*
X133750000Y-51750000D02*
X129630000Y-51750000D01*
D28*
%TO.N,+19V*%
X144350000Y-66750000D02*
X142250000Y-66750000D01*
X147000000Y-64100000D02*
X144350000Y-66750000D01*
D29*
%TO.N,MODE2*%
X137750000Y-68070000D02*
X137750000Y-67750000D01*
X133750000Y-72070000D02*
X137750000Y-68070000D01*
%TO.N,MODE0*%
X137000000Y-64000000D02*
X134010000Y-66990000D01*
X134010000Y-66990000D02*
X133750000Y-66990000D01*
%TO.N,MODE1*%
X133750000Y-69500000D02*
X137000000Y-66250000D01*
X133750000Y-69530000D02*
X133750000Y-69500000D01*
%TO.N,STEP*%
X135300000Y-64450000D02*
X137000000Y-62750000D01*
X133750000Y-64450000D02*
X135300000Y-64450000D01*
%TO.N,ENABLE*%
X136340000Y-61910000D02*
X136750000Y-61500000D01*
X133750000Y-61910000D02*
X136340000Y-61910000D01*
%TO.N,DIR*%
X136370000Y-59370000D02*
X136750000Y-59750000D01*
X133750000Y-59370000D02*
X136370000Y-59370000D01*
%TO.N,nFault*%
X135830000Y-56830000D02*
X137000000Y-58000000D01*
X133750000Y-56830000D02*
X135830000Y-56830000D01*
D27*
%TO.N,+19V*%
X182000000Y-67270000D02*
X179870000Y-67270000D01*
%TD*%
%TA.AperFunction,Conductor*%
%TO.N,GND*%
G36*
X145002829Y-50520185D02*
G01*
X145048584Y-50572989D01*
X145058528Y-50642147D01*
X145038892Y-50693391D01*
X144951990Y-50823447D01*
X144951983Y-50823459D01*
X144884106Y-50987332D01*
X144884103Y-50987341D01*
X144849500Y-51161304D01*
X144849500Y-51338695D01*
X144884103Y-51512658D01*
X144884106Y-51512667D01*
X144951983Y-51676540D01*
X144951990Y-51676553D01*
X145050535Y-51824034D01*
X145050538Y-51824038D01*
X145175961Y-51949461D01*
X145175965Y-51949464D01*
X145323446Y-52048009D01*
X145323459Y-52048016D01*
X145446363Y-52098923D01*
X145487334Y-52115894D01*
X145487336Y-52115894D01*
X145487341Y-52115896D01*
X145661304Y-52150499D01*
X145661307Y-52150500D01*
X145661309Y-52150500D01*
X149125501Y-52150500D01*
X149192540Y-52170185D01*
X149238295Y-52222989D01*
X149249501Y-52274500D01*
X149249501Y-52397876D01*
X149255908Y-52457483D01*
X149306202Y-52592328D01*
X149306206Y-52592335D01*
X149392452Y-52707544D01*
X149392455Y-52707547D01*
X149507664Y-52793793D01*
X149507671Y-52793797D01*
X149642517Y-52844091D01*
X149642516Y-52844091D01*
X149649444Y-52844835D01*
X149702127Y-52850500D01*
X151797872Y-52850499D01*
X151857483Y-52844091D01*
X151992331Y-52793796D01*
X152107546Y-52707546D01*
X152193796Y-52592331D01*
X152244091Y-52457483D01*
X152250500Y-52397873D01*
X152250499Y-51102128D01*
X152244091Y-51042517D01*
X152235257Y-51018833D01*
X152193797Y-50907671D01*
X152193793Y-50907664D01*
X152107547Y-50792455D01*
X152107544Y-50792452D01*
X152015792Y-50723766D01*
X151973921Y-50667832D01*
X151968937Y-50598141D01*
X152002423Y-50536818D01*
X152063746Y-50503334D01*
X152090103Y-50500500D01*
X181934108Y-50500500D01*
X181996249Y-50500500D01*
X182003736Y-50500726D01*
X182293796Y-50518271D01*
X182308657Y-50520075D01*
X182400017Y-50536818D01*
X182590798Y-50571780D01*
X182605335Y-50575363D01*
X182879172Y-50660695D01*
X182893163Y-50666000D01*
X183154743Y-50783727D01*
X183167989Y-50790680D01*
X183413465Y-50939075D01*
X183425776Y-50947573D01*
X183546964Y-51042517D01*
X183651573Y-51124473D01*
X183662781Y-51134403D01*
X183865596Y-51337218D01*
X183875526Y-51348426D01*
X184004200Y-51512667D01*
X184052422Y-51574217D01*
X184060926Y-51586537D01*
X184116661Y-51678734D01*
X184209316Y-51832004D01*
X184216275Y-51845263D01*
X184333997Y-52106831D01*
X184339306Y-52120832D01*
X184424635Y-52394663D01*
X184428219Y-52409201D01*
X184479923Y-52691340D01*
X184481728Y-52706205D01*
X184499274Y-52996263D01*
X184499500Y-53003750D01*
X184499500Y-136996249D01*
X184499274Y-137003736D01*
X184481728Y-137293794D01*
X184479923Y-137308659D01*
X184428219Y-137590798D01*
X184424635Y-137605336D01*
X184339306Y-137879167D01*
X184333997Y-137893168D01*
X184216275Y-138154736D01*
X184209316Y-138167995D01*
X184060928Y-138413459D01*
X184052422Y-138425782D01*
X183875526Y-138651573D01*
X183865596Y-138662781D01*
X183662781Y-138865596D01*
X183651573Y-138875526D01*
X183425782Y-139052422D01*
X183413459Y-139060928D01*
X183167995Y-139209316D01*
X183154736Y-139216275D01*
X182893168Y-139333997D01*
X182879167Y-139339306D01*
X182605336Y-139424635D01*
X182590798Y-139428219D01*
X182308659Y-139479923D01*
X182293794Y-139481728D01*
X182003736Y-139499274D01*
X181996249Y-139499500D01*
X128003751Y-139499500D01*
X127996264Y-139499274D01*
X127706205Y-139481728D01*
X127691340Y-139479923D01*
X127409201Y-139428219D01*
X127394663Y-139424635D01*
X127120832Y-139339306D01*
X127106831Y-139333997D01*
X126845263Y-139216275D01*
X126832004Y-139209316D01*
X126586540Y-139060928D01*
X126574217Y-139052422D01*
X126348426Y-138875526D01*
X126337218Y-138865596D01*
X126134403Y-138662781D01*
X126124473Y-138651573D01*
X125947573Y-138425776D01*
X125939075Y-138413465D01*
X125790680Y-138167989D01*
X125783727Y-138154743D01*
X125666000Y-137893163D01*
X125660693Y-137879167D01*
X125575364Y-137605336D01*
X125571780Y-137590798D01*
X125520076Y-137308659D01*
X125518271Y-137293794D01*
X125500726Y-137003736D01*
X125500500Y-136996249D01*
X125500500Y-126334038D01*
X129319500Y-126334038D01*
X129319500Y-126585961D01*
X129358910Y-126834785D01*
X129436760Y-127074383D01*
X129551132Y-127298848D01*
X129699201Y-127502649D01*
X129699205Y-127502654D01*
X129877345Y-127680794D01*
X129877350Y-127680798D01*
X130002478Y-127771708D01*
X130081155Y-127828870D01*
X130224184Y-127901747D01*
X130305616Y-127943239D01*
X130305618Y-127943239D01*
X130305621Y-127943241D01*
X130545215Y-128021090D01*
X130794038Y-128060500D01*
X130794039Y-128060500D01*
X131045961Y-128060500D01*
X131045962Y-128060500D01*
X131294785Y-128021090D01*
X131534379Y-127943241D01*
X131758845Y-127828870D01*
X131962656Y-127680793D01*
X132140793Y-127502656D01*
X132288870Y-127298845D01*
X132403241Y-127074379D01*
X132481090Y-126834785D01*
X132520500Y-126585962D01*
X132520500Y-126334038D01*
X132481090Y-126085215D01*
X132403241Y-125845621D01*
X132403239Y-125845618D01*
X132403239Y-125845616D01*
X132361747Y-125764184D01*
X132288870Y-125621155D01*
X132269952Y-125595117D01*
X132140798Y-125417350D01*
X132140794Y-125417345D01*
X131962654Y-125239205D01*
X131962649Y-125239201D01*
X131758848Y-125091132D01*
X131758847Y-125091131D01*
X131758845Y-125091130D01*
X131688747Y-125055413D01*
X131534383Y-124976760D01*
X131294785Y-124898910D01*
X131045962Y-124859500D01*
X130794038Y-124859500D01*
X130669626Y-124879205D01*
X130545214Y-124898910D01*
X130305616Y-124976760D01*
X130081151Y-125091132D01*
X129877350Y-125239201D01*
X129877345Y-125239205D01*
X129699205Y-125417345D01*
X129699201Y-125417350D01*
X129551132Y-125621151D01*
X129436760Y-125845616D01*
X129358910Y-126085214D01*
X129319500Y-126334038D01*
X125500500Y-126334038D01*
X125500500Y-116768872D01*
X126349500Y-116768872D01*
X126349500Y-117031127D01*
X126363805Y-117139778D01*
X126383730Y-117291116D01*
X126451602Y-117544418D01*
X126451605Y-117544428D01*
X126551953Y-117786690D01*
X126551958Y-117786700D01*
X126683075Y-118013803D01*
X126842718Y-118221851D01*
X126842726Y-118221860D01*
X127028140Y-118407274D01*
X127028148Y-118407281D01*
X127236196Y-118566924D01*
X127463299Y-118698041D01*
X127463309Y-118698046D01*
X127705571Y-118798394D01*
X127705581Y-118798398D01*
X127958884Y-118866270D01*
X128218880Y-118900500D01*
X128218887Y-118900500D01*
X128481113Y-118900500D01*
X128481120Y-118900500D01*
X128741116Y-118866270D01*
X128994419Y-118798398D01*
X129236697Y-118698043D01*
X129463803Y-118566924D01*
X129671851Y-118407282D01*
X129671855Y-118407277D01*
X129671860Y-118407274D01*
X129857274Y-118221860D01*
X129857277Y-118221855D01*
X129857282Y-118221851D01*
X130016924Y-118013803D01*
X130148043Y-117786697D01*
X130155622Y-117768401D01*
X130175114Y-117721340D01*
X130248398Y-117544419D01*
X130316270Y-117291116D01*
X130350500Y-117031120D01*
X130350500Y-116768880D01*
X130316270Y-116508884D01*
X130248398Y-116255581D01*
X130248394Y-116255571D01*
X130148046Y-116013309D01*
X130148041Y-116013299D01*
X130016924Y-115786196D01*
X129857281Y-115578148D01*
X129857274Y-115578140D01*
X129671860Y-115392726D01*
X129671851Y-115392718D01*
X129463803Y-115233075D01*
X129236700Y-115101958D01*
X129236690Y-115101953D01*
X128994428Y-115001605D01*
X128994421Y-115001603D01*
X128994419Y-115001602D01*
X128741116Y-114933730D01*
X128683339Y-114926123D01*
X128481127Y-114899500D01*
X128481120Y-114899500D01*
X128218880Y-114899500D01*
X128218872Y-114899500D01*
X127987772Y-114929926D01*
X127958884Y-114933730D01*
X127707876Y-115000987D01*
X127705581Y-115001602D01*
X127705571Y-115001605D01*
X127463309Y-115101953D01*
X127463299Y-115101958D01*
X127236196Y-115233075D01*
X127028148Y-115392718D01*
X126842718Y-115578148D01*
X126683075Y-115786196D01*
X126551958Y-116013299D01*
X126551953Y-116013309D01*
X126451605Y-116255571D01*
X126451602Y-116255581D01*
X126383730Y-116508885D01*
X126349500Y-116768872D01*
X125500500Y-116768872D01*
X125500500Y-92968872D01*
X126349500Y-92968872D01*
X126349500Y-93231127D01*
X126360246Y-93312745D01*
X126383730Y-93491116D01*
X126451602Y-93744419D01*
X126451603Y-93744421D01*
X126451605Y-93744428D01*
X126551953Y-93986690D01*
X126551958Y-93986700D01*
X126683075Y-94213803D01*
X126842718Y-94421851D01*
X126842726Y-94421860D01*
X127028140Y-94607274D01*
X127028148Y-94607281D01*
X127236196Y-94766924D01*
X127463299Y-94898041D01*
X127463309Y-94898046D01*
X127705571Y-94998394D01*
X127705581Y-94998398D01*
X127958884Y-95066270D01*
X128218880Y-95100500D01*
X128218887Y-95100500D01*
X128481113Y-95100500D01*
X128481120Y-95100500D01*
X128741116Y-95066270D01*
X128994419Y-94998398D01*
X129236697Y-94898043D01*
X129463803Y-94766924D01*
X129671851Y-94607282D01*
X129671855Y-94607277D01*
X129671860Y-94607274D01*
X129857274Y-94421860D01*
X129857277Y-94421855D01*
X129857282Y-94421851D01*
X130016924Y-94213803D01*
X130148043Y-93986697D01*
X130217269Y-93819571D01*
X135617534Y-93819571D01*
X135652589Y-93837432D01*
X135862164Y-93905526D01*
X136079819Y-93940000D01*
X136300181Y-93940000D01*
X136517835Y-93905526D01*
X136727411Y-93837431D01*
X136727418Y-93837428D01*
X136762464Y-93819570D01*
X136190001Y-93247106D01*
X136190000Y-93247106D01*
X135617534Y-93819571D01*
X130217269Y-93819571D01*
X130248398Y-93744419D01*
X130316270Y-93491116D01*
X130350500Y-93231120D01*
X130350500Y-92968880D01*
X130316270Y-92708884D01*
X130248398Y-92455581D01*
X130237727Y-92429818D01*
X134790000Y-92429818D01*
X134790000Y-92650181D01*
X134824473Y-92867835D01*
X134892568Y-93077412D01*
X134910427Y-93112464D01*
X134910428Y-93112464D01*
X135482893Y-92540000D01*
X135482893Y-92539999D01*
X135413777Y-92470883D01*
X135665007Y-92470883D01*
X135665007Y-92609117D01*
X135700785Y-92742640D01*
X135769901Y-92862353D01*
X135867647Y-92960099D01*
X135987360Y-93029215D01*
X136120883Y-93064993D01*
X136259117Y-93064993D01*
X136392640Y-93029215D01*
X136512353Y-92960099D01*
X136610099Y-92862353D01*
X136679215Y-92742640D01*
X136714993Y-92609117D01*
X136714993Y-92470883D01*
X136679215Y-92337360D01*
X136610099Y-92217647D01*
X136512353Y-92119901D01*
X136392640Y-92050785D01*
X136259117Y-92015007D01*
X136120883Y-92015007D01*
X135987360Y-92050785D01*
X135867647Y-92119901D01*
X135769901Y-92217647D01*
X135700785Y-92337360D01*
X135665007Y-92470883D01*
X135413777Y-92470883D01*
X134910428Y-91967534D01*
X134892568Y-92002588D01*
X134892567Y-92002591D01*
X134824473Y-92212164D01*
X134790000Y-92429818D01*
X130237727Y-92429818D01*
X130237710Y-92429778D01*
X130148046Y-92213309D01*
X130148041Y-92213299D01*
X130016924Y-91986196D01*
X129878636Y-91805978D01*
X129857282Y-91778149D01*
X129857281Y-91778148D01*
X129857274Y-91778140D01*
X129671860Y-91592726D01*
X129671851Y-91592718D01*
X129463803Y-91433075D01*
X129425255Y-91410820D01*
X129236700Y-91301958D01*
X129236690Y-91301953D01*
X129136440Y-91260428D01*
X135617534Y-91260428D01*
X136190000Y-91832893D01*
X136190001Y-91832893D01*
X136762464Y-91260428D01*
X136762464Y-91260427D01*
X136727412Y-91242568D01*
X136517835Y-91174473D01*
X136300181Y-91140000D01*
X136079819Y-91140000D01*
X135862164Y-91174473D01*
X135652591Y-91242567D01*
X135652588Y-91242568D01*
X135617534Y-91260428D01*
X129136440Y-91260428D01*
X128994428Y-91201605D01*
X128994421Y-91201603D01*
X128994419Y-91201602D01*
X128741116Y-91133730D01*
X128683339Y-91126123D01*
X128481127Y-91099500D01*
X128481120Y-91099500D01*
X128218880Y-91099500D01*
X128218872Y-91099500D01*
X127987772Y-91129926D01*
X127958884Y-91133730D01*
X127705581Y-91201602D01*
X127705571Y-91201605D01*
X127463309Y-91301953D01*
X127463299Y-91301958D01*
X127236196Y-91433075D01*
X127028148Y-91592718D01*
X126842718Y-91778148D01*
X126683075Y-91986196D01*
X126551958Y-92213299D01*
X126551953Y-92213309D01*
X126451605Y-92455571D01*
X126451602Y-92455581D01*
X126399449Y-92650222D01*
X126383730Y-92708885D01*
X126349500Y-92968872D01*
X125500500Y-92968872D01*
X125500500Y-78562135D01*
X126649500Y-78562135D01*
X126649500Y-80357870D01*
X126649501Y-80357876D01*
X126655908Y-80417483D01*
X126706202Y-80552328D01*
X126706206Y-80552335D01*
X126792452Y-80667544D01*
X126792455Y-80667547D01*
X126907664Y-80753793D01*
X126907671Y-80753797D01*
X127039082Y-80802810D01*
X127095016Y-80844681D01*
X127119433Y-80910145D01*
X127104582Y-80978418D01*
X127083431Y-81006673D01*
X126969889Y-81120215D01*
X126844951Y-81292179D01*
X126748444Y-81481585D01*
X126682753Y-81683760D01*
X126649500Y-81893713D01*
X126649500Y-82106286D01*
X126681806Y-82310261D01*
X126682754Y-82316243D01*
X126721643Y-82435931D01*
X126748444Y-82518414D01*
X126844951Y-82707820D01*
X126969890Y-82879786D01*
X127120213Y-83030109D01*
X127292182Y-83155050D01*
X127300946Y-83159516D01*
X127351742Y-83207491D01*
X127368536Y-83275312D01*
X127345998Y-83341447D01*
X127300946Y-83380484D01*
X127292182Y-83384949D01*
X127120213Y-83509890D01*
X126969890Y-83660213D01*
X126844951Y-83832179D01*
X126748444Y-84021585D01*
X126682753Y-84223760D01*
X126649500Y-84433713D01*
X126649500Y-84646286D01*
X126671040Y-84782288D01*
X126682754Y-84856243D01*
X126747620Y-85055880D01*
X126748444Y-85058414D01*
X126844951Y-85247820D01*
X126969890Y-85419786D01*
X127120213Y-85570109D01*
X127292182Y-85695050D01*
X127300946Y-85699516D01*
X127351742Y-85747491D01*
X127368536Y-85815312D01*
X127345998Y-85881447D01*
X127300946Y-85920484D01*
X127292182Y-85924949D01*
X127120213Y-86049890D01*
X126969890Y-86200213D01*
X126844951Y-86372179D01*
X126748444Y-86561585D01*
X126682753Y-86763760D01*
X126649500Y-86973713D01*
X126649500Y-87186286D01*
X126679468Y-87375500D01*
X126682754Y-87396243D01*
X126708952Y-87476873D01*
X126748444Y-87598414D01*
X126844951Y-87787820D01*
X126969890Y-87959786D01*
X127120213Y-88110109D01*
X127292179Y-88235048D01*
X127292181Y-88235049D01*
X127292184Y-88235051D01*
X127481588Y-88331557D01*
X127683757Y-88397246D01*
X127893713Y-88430500D01*
X127893714Y-88430500D01*
X128106286Y-88430500D01*
X128106287Y-88430500D01*
X128316243Y-88397246D01*
X128518412Y-88331557D01*
X128707816Y-88235051D01*
X128748732Y-88205324D01*
X128879786Y-88110109D01*
X128879788Y-88110106D01*
X128879792Y-88110104D01*
X129030104Y-87959792D01*
X129030106Y-87959788D01*
X129030109Y-87959786D01*
X129155048Y-87787820D01*
X129155047Y-87787820D01*
X129155051Y-87787816D01*
X129251557Y-87598412D01*
X129317246Y-87396243D01*
X129350500Y-87186287D01*
X129350500Y-86973713D01*
X129317246Y-86763757D01*
X129251557Y-86561588D01*
X129155051Y-86372184D01*
X129155049Y-86372181D01*
X129155048Y-86372179D01*
X129030109Y-86200213D01*
X128879786Y-86049890D01*
X128707820Y-85924951D01*
X128707115Y-85924591D01*
X128699054Y-85920485D01*
X128648259Y-85872512D01*
X128631463Y-85804692D01*
X128653999Y-85738556D01*
X128699054Y-85699515D01*
X128707816Y-85695051D01*
X128729789Y-85679086D01*
X128879786Y-85570109D01*
X128879788Y-85570106D01*
X128879792Y-85570104D01*
X129030104Y-85419792D01*
X129030106Y-85419788D01*
X129030109Y-85419786D01*
X129155048Y-85247820D01*
X129155047Y-85247820D01*
X129155051Y-85247816D01*
X129251557Y-85058412D01*
X129317246Y-84856243D01*
X129350500Y-84646287D01*
X129350500Y-84433713D01*
X129317246Y-84223757D01*
X129251557Y-84021588D01*
X129155051Y-83832184D01*
X129155049Y-83832181D01*
X129155048Y-83832179D01*
X129030109Y-83660213D01*
X128879786Y-83509890D01*
X128707820Y-83384951D01*
X128707115Y-83384591D01*
X128699054Y-83380485D01*
X128648259Y-83332512D01*
X128631463Y-83264692D01*
X128653999Y-83198556D01*
X128699054Y-83159515D01*
X128707816Y-83155051D01*
X128729789Y-83139086D01*
X128879786Y-83030109D01*
X128879788Y-83030106D01*
X128879792Y-83030104D01*
X129030104Y-82879792D01*
X129030106Y-82879788D01*
X129030109Y-82879786D01*
X129155048Y-82707820D01*
X129155047Y-82707820D01*
X129155051Y-82707816D01*
X129251557Y-82518412D01*
X129317246Y-82316243D01*
X129350500Y-82106287D01*
X129350500Y-81893713D01*
X129317246Y-81683757D01*
X129251557Y-81481588D01*
X129155051Y-81292184D01*
X129155049Y-81292181D01*
X129155048Y-81292179D01*
X129030109Y-81120213D01*
X128916569Y-81006673D01*
X128883084Y-80945350D01*
X128888068Y-80875658D01*
X128929940Y-80819725D01*
X128960915Y-80802810D01*
X129092331Y-80753796D01*
X129207546Y-80667546D01*
X129293796Y-80552331D01*
X129344091Y-80417483D01*
X129350500Y-80357873D01*
X129350499Y-78562128D01*
X129344091Y-78502517D01*
X129299925Y-78384103D01*
X129293797Y-78367671D01*
X129293793Y-78367664D01*
X129207547Y-78252455D01*
X129207544Y-78252452D01*
X129092335Y-78166206D01*
X129092328Y-78166202D01*
X128957482Y-78115908D01*
X128957483Y-78115908D01*
X128897883Y-78109501D01*
X128897881Y-78109500D01*
X128897873Y-78109500D01*
X128897864Y-78109500D01*
X127102129Y-78109500D01*
X127102123Y-78109501D01*
X127042516Y-78115908D01*
X126907671Y-78166202D01*
X126907664Y-78166206D01*
X126792455Y-78252452D01*
X126792452Y-78252455D01*
X126706206Y-78367664D01*
X126706202Y-78367671D01*
X126655908Y-78502517D01*
X126649501Y-78562116D01*
X126649501Y-78562123D01*
X126649500Y-78562135D01*
X125500500Y-78562135D01*
X125500500Y-71518432D01*
X125520185Y-71451393D01*
X125572989Y-71405638D01*
X125642147Y-71395694D01*
X125705703Y-71424719D01*
X125727599Y-71449537D01*
X125743723Y-71473669D01*
X125743724Y-71473670D01*
X125743727Y-71473674D01*
X126649342Y-72379288D01*
X126682827Y-72440611D01*
X126682319Y-72488755D01*
X126683516Y-72488945D01*
X126649500Y-72703713D01*
X126649500Y-72916286D01*
X126680782Y-73113797D01*
X126682754Y-73126243D01*
X126741014Y-73305549D01*
X126748444Y-73328414D01*
X126844951Y-73517820D01*
X126969890Y-73689786D01*
X127120213Y-73840109D01*
X127292179Y-73965048D01*
X127292181Y-73965049D01*
X127292184Y-73965051D01*
X127481588Y-74061557D01*
X127683757Y-74127246D01*
X127893713Y-74160500D01*
X127893714Y-74160500D01*
X128106286Y-74160500D01*
X128106287Y-74160500D01*
X128247866Y-74138076D01*
X128321055Y-74126484D01*
X128321315Y-74128128D01*
X128383852Y-74131250D01*
X128430711Y-74160657D01*
X133277522Y-79007468D01*
X133311007Y-79068791D01*
X133306023Y-79138483D01*
X133264151Y-79194416D01*
X133198687Y-79218833D01*
X133165650Y-79216766D01*
X133078846Y-79199500D01*
X133078842Y-79199500D01*
X132921158Y-79199500D01*
X132921155Y-79199500D01*
X132766510Y-79230261D01*
X132766498Y-79230264D01*
X132620827Y-79290602D01*
X132620814Y-79290609D01*
X132489711Y-79378210D01*
X132489707Y-79378213D01*
X132378213Y-79489707D01*
X132378210Y-79489711D01*
X132290609Y-79620814D01*
X132290602Y-79620827D01*
X132230264Y-79766498D01*
X132230261Y-79766510D01*
X132199500Y-79921153D01*
X132199500Y-80078846D01*
X132230261Y-80233489D01*
X132230264Y-80233501D01*
X132290602Y-80379172D01*
X132290609Y-80379185D01*
X132378210Y-80510288D01*
X132378213Y-80510292D01*
X132489707Y-80621786D01*
X132489711Y-80621789D01*
X132620814Y-80709390D01*
X132620827Y-80709397D01*
X132708230Y-80745599D01*
X132766503Y-80769737D01*
X132833580Y-80783079D01*
X132895490Y-80815463D01*
X132897069Y-80817015D01*
X134813181Y-82733127D01*
X134846666Y-82794450D01*
X134849500Y-82820808D01*
X134849500Y-86745064D01*
X134829815Y-86812103D01*
X134828603Y-86813954D01*
X134790608Y-86870817D01*
X134790602Y-86870828D01*
X134730264Y-87016498D01*
X134730261Y-87016510D01*
X134699500Y-87171153D01*
X134699500Y-87328846D01*
X134730261Y-87483489D01*
X134730264Y-87483501D01*
X134790602Y-87629172D01*
X134790609Y-87629185D01*
X134878210Y-87760288D01*
X134878213Y-87760292D01*
X134989707Y-87871786D01*
X134989711Y-87871789D01*
X135120814Y-87959390D01*
X135120827Y-87959397D01*
X135266498Y-88019735D01*
X135266503Y-88019737D01*
X135421153Y-88050499D01*
X135421156Y-88050500D01*
X135421158Y-88050500D01*
X135578844Y-88050500D01*
X135578845Y-88050499D01*
X135733497Y-88019737D01*
X135879179Y-87959394D01*
X136010289Y-87871789D01*
X136121789Y-87760289D01*
X136209394Y-87629179D01*
X136269737Y-87483497D01*
X136300500Y-87328842D01*
X136300500Y-87171158D01*
X136300500Y-87171155D01*
X136300499Y-87171153D01*
X136269738Y-87016510D01*
X136269737Y-87016503D01*
X136209394Y-86870821D01*
X136171396Y-86813953D01*
X136150520Y-86747276D01*
X136150500Y-86745064D01*
X136150500Y-82435928D01*
X136125502Y-82310261D01*
X136125501Y-82310260D01*
X136125501Y-82310256D01*
X136076465Y-82191873D01*
X136005277Y-82085331D01*
X136005274Y-82085328D01*
X136005272Y-82085325D01*
X136004230Y-82084055D01*
X136003892Y-82083259D01*
X136001892Y-82080266D01*
X136002459Y-82079886D01*
X135976920Y-82019744D01*
X135988715Y-81950877D01*
X136035869Y-81899319D01*
X136103413Y-81881440D01*
X136169900Y-81902915D01*
X136187768Y-81917714D01*
X143123181Y-88853127D01*
X143156666Y-88914450D01*
X143159500Y-88940808D01*
X143159500Y-91223641D01*
X143139815Y-91290680D01*
X143091798Y-91334123D01*
X143077754Y-91341280D01*
X143075972Y-91342188D01*
X142897641Y-91471752D01*
X142897636Y-91471756D01*
X142741756Y-91627636D01*
X142741752Y-91627641D01*
X142640318Y-91767254D01*
X142584988Y-91809920D01*
X142515375Y-91815899D01*
X142453580Y-91783293D01*
X142439682Y-91767254D01*
X142338247Y-91627641D01*
X142338243Y-91627636D01*
X142182363Y-91471756D01*
X142182358Y-91471752D01*
X142004025Y-91342187D01*
X142004024Y-91342186D01*
X142004022Y-91342185D01*
X141902939Y-91290680D01*
X141807606Y-91242104D01*
X141807603Y-91242103D01*
X141597952Y-91173985D01*
X141489086Y-91156742D01*
X141380222Y-91139500D01*
X141159778Y-91139500D01*
X141087201Y-91150995D01*
X140942047Y-91173985D01*
X140732396Y-91242103D01*
X140732393Y-91242104D01*
X140535974Y-91342187D01*
X140357641Y-91471752D01*
X140357636Y-91471756D01*
X140201756Y-91627636D01*
X140201752Y-91627641D01*
X140100318Y-91767254D01*
X140044988Y-91809920D01*
X139975375Y-91815899D01*
X139913580Y-91783293D01*
X139899682Y-91767254D01*
X139798247Y-91627641D01*
X139798243Y-91627636D01*
X139642363Y-91471756D01*
X139642358Y-91471752D01*
X139464025Y-91342187D01*
X139464024Y-91342186D01*
X139464022Y-91342185D01*
X139362939Y-91290680D01*
X139267606Y-91242104D01*
X139267603Y-91242103D01*
X139057952Y-91173985D01*
X138949086Y-91156742D01*
X138840222Y-91139500D01*
X138619778Y-91139500D01*
X138547201Y-91150995D01*
X138402047Y-91173985D01*
X138192396Y-91242103D01*
X138192393Y-91242104D01*
X137995974Y-91342187D01*
X137817641Y-91471752D01*
X137817636Y-91471756D01*
X137661756Y-91627636D01*
X137661752Y-91627641D01*
X137532185Y-91805976D01*
X137438311Y-91990211D01*
X137415508Y-92021596D01*
X136897106Y-92539999D01*
X136897106Y-92540000D01*
X137415507Y-93058401D01*
X137438310Y-93089786D01*
X137532185Y-93274023D01*
X137661752Y-93452358D01*
X137661756Y-93452363D01*
X137817636Y-93608243D01*
X137817641Y-93608247D01*
X137973192Y-93721260D01*
X137995978Y-93737815D01*
X138124375Y-93803237D01*
X138192393Y-93837895D01*
X138192396Y-93837896D01*
X138297221Y-93871955D01*
X138402049Y-93906015D01*
X138619778Y-93940500D01*
X138619779Y-93940500D01*
X138840221Y-93940500D01*
X138840222Y-93940500D01*
X139057951Y-93906015D01*
X139267606Y-93837895D01*
X139464022Y-93737815D01*
X139642365Y-93608242D01*
X139798242Y-93452365D01*
X139808804Y-93437826D01*
X139899682Y-93312745D01*
X139955011Y-93270079D01*
X140024625Y-93264100D01*
X140086420Y-93296705D01*
X140100318Y-93312745D01*
X140201752Y-93452358D01*
X140201756Y-93452363D01*
X140357636Y-93608243D01*
X140357641Y-93608247D01*
X140513192Y-93721260D01*
X140535978Y-93737815D01*
X140664375Y-93803237D01*
X140732393Y-93837895D01*
X140732396Y-93837896D01*
X140837221Y-93871955D01*
X140942049Y-93906015D01*
X141159778Y-93940500D01*
X141159779Y-93940500D01*
X141380221Y-93940500D01*
X141380222Y-93940500D01*
X141597951Y-93906015D01*
X141614829Y-93900531D01*
X141684670Y-93898532D01*
X141740833Y-93930779D01*
X142815325Y-95005272D01*
X142815332Y-95005278D01*
X142921863Y-95076459D01*
X142921867Y-95076461D01*
X142921874Y-95076466D01*
X142977484Y-95099500D01*
X142977485Y-95099500D01*
X142977486Y-95099501D01*
X142979898Y-95100500D01*
X143040256Y-95125501D01*
X143040260Y-95125501D01*
X143040261Y-95125502D01*
X143165928Y-95150500D01*
X143165931Y-95150500D01*
X144564071Y-95150500D01*
X144648615Y-95133682D01*
X144689744Y-95125501D01*
X144808127Y-95076465D01*
X144823385Y-95066270D01*
X144823387Y-95066269D01*
X144882141Y-95027011D01*
X144914669Y-95005277D01*
X145388819Y-94531127D01*
X145450142Y-94497642D01*
X145519833Y-94502626D01*
X145575767Y-94544497D01*
X145600184Y-94609962D01*
X145600500Y-94618808D01*
X145600500Y-103102441D01*
X145580815Y-103169480D01*
X145528011Y-103215235D01*
X145458853Y-103225179D01*
X145452309Y-103224058D01*
X145328846Y-103199500D01*
X145328842Y-103199500D01*
X145171158Y-103199500D01*
X145171155Y-103199500D01*
X145016510Y-103230261D01*
X145016498Y-103230264D01*
X144870827Y-103290602D01*
X144870814Y-103290609D01*
X144739711Y-103378210D01*
X144739707Y-103378213D01*
X144628213Y-103489707D01*
X144628210Y-103489711D01*
X144540609Y-103620814D01*
X144540602Y-103620827D01*
X144480264Y-103766498D01*
X144480261Y-103766510D01*
X144449500Y-103921153D01*
X144449500Y-104078846D01*
X144480261Y-104233489D01*
X144480264Y-104233501D01*
X144540602Y-104379172D01*
X144540606Y-104379179D01*
X144578602Y-104436045D01*
X144583428Y-104449452D01*
X144590306Y-104458079D01*
X144594828Y-104481128D01*
X144598857Y-104492321D01*
X144599500Y-104498609D01*
X144599500Y-104563069D01*
X144611919Y-104625501D01*
X144613062Y-104631248D01*
X144613063Y-104631256D01*
X144624497Y-104688736D01*
X144624499Y-104688744D01*
X144673535Y-104807127D01*
X144704021Y-104852753D01*
X144744726Y-104913673D01*
X144744727Y-104913674D01*
X145564181Y-105733127D01*
X145597666Y-105794450D01*
X145600500Y-105820808D01*
X145600500Y-111178191D01*
X145580815Y-111245230D01*
X145564181Y-111265872D01*
X132954727Y-123875325D01*
X132954726Y-123875326D01*
X132883534Y-123981874D01*
X132834499Y-124100255D01*
X132834497Y-124100261D01*
X132809500Y-124225928D01*
X132809500Y-131269175D01*
X132789815Y-131336214D01*
X132741796Y-131379659D01*
X132621153Y-131441130D01*
X132417350Y-131589201D01*
X132417345Y-131589205D01*
X132239205Y-131767345D01*
X132239201Y-131767350D01*
X132091132Y-131971151D01*
X131976760Y-132195616D01*
X131898910Y-132435214D01*
X131859500Y-132684038D01*
X131859500Y-132935961D01*
X131898910Y-133184785D01*
X131976760Y-133424383D01*
X132091132Y-133648848D01*
X132239201Y-133852649D01*
X132239205Y-133852654D01*
X132417345Y-134030794D01*
X132417350Y-134030798D01*
X132595117Y-134159952D01*
X132621155Y-134178870D01*
X132764184Y-134251747D01*
X132845616Y-134293239D01*
X132845618Y-134293239D01*
X132845621Y-134293241D01*
X133085215Y-134371090D01*
X133334038Y-134410500D01*
X133334039Y-134410500D01*
X133585961Y-134410500D01*
X133585962Y-134410500D01*
X133834785Y-134371090D01*
X134074379Y-134293241D01*
X134298845Y-134178870D01*
X134502656Y-134030793D01*
X134680793Y-133852656D01*
X134685380Y-133846341D01*
X134740708Y-133803675D01*
X134810322Y-133797693D01*
X134872118Y-133830296D01*
X134906477Y-133891134D01*
X134908174Y-133938621D01*
X134899500Y-133993389D01*
X134899500Y-134166611D01*
X134926598Y-134337701D01*
X134980127Y-134502445D01*
X135058768Y-134656788D01*
X135160586Y-134796928D01*
X135283072Y-134919414D01*
X135423212Y-135021232D01*
X135577555Y-135099873D01*
X135742299Y-135153402D01*
X135913389Y-135180500D01*
X135913390Y-135180500D01*
X136086610Y-135180500D01*
X136086611Y-135180500D01*
X136257701Y-135153402D01*
X136422445Y-135099873D01*
X136576788Y-135021232D01*
X136716928Y-134919414D01*
X136839414Y-134796928D01*
X136941232Y-134656788D01*
X137019873Y-134502445D01*
X137073402Y-134337701D01*
X137100500Y-134166611D01*
X137100500Y-133993389D01*
X137073402Y-133822299D01*
X137019873Y-133657555D01*
X136941232Y-133503212D01*
X136839414Y-133363072D01*
X136716928Y-133240586D01*
X136576788Y-133138768D01*
X136422445Y-133060127D01*
X136257701Y-133006598D01*
X136257699Y-133006597D01*
X136257698Y-133006597D01*
X136126271Y-132985781D01*
X136086611Y-132979500D01*
X135913389Y-132979500D01*
X135873728Y-132985781D01*
X135742302Y-133006597D01*
X135577552Y-133060128D01*
X135423211Y-133138768D01*
X135359875Y-133184785D01*
X135283072Y-133240586D01*
X135283070Y-133240588D01*
X135283068Y-133240589D01*
X135231139Y-133292518D01*
X135169816Y-133326002D01*
X135100124Y-133321017D01*
X135044191Y-133279146D01*
X135019775Y-133213681D01*
X135020986Y-133185438D01*
X135021088Y-133184788D01*
X135021090Y-133184785D01*
X135060500Y-132935962D01*
X135060500Y-132684038D01*
X135021090Y-132435215D01*
X134943241Y-132195621D01*
X134943239Y-132195618D01*
X134943239Y-132195616D01*
X134901747Y-132114184D01*
X134828870Y-131971155D01*
X134809952Y-131945117D01*
X134680798Y-131767350D01*
X134680794Y-131767345D01*
X134502654Y-131589205D01*
X134502649Y-131589201D01*
X134298846Y-131441130D01*
X134178204Y-131379659D01*
X134127409Y-131331685D01*
X134110500Y-131269175D01*
X134110500Y-130592551D01*
X134130185Y-130525512D01*
X134182989Y-130479757D01*
X134252147Y-130469813D01*
X134315703Y-130498838D01*
X134322181Y-130504870D01*
X134512952Y-130695641D01*
X134512959Y-130695647D01*
X134747006Y-130875238D01*
X135002489Y-131022741D01*
X135002490Y-131022741D01*
X135002493Y-131022743D01*
X135275048Y-131135639D01*
X135560007Y-131211993D01*
X135852494Y-131250500D01*
X135852501Y-131250500D01*
X136147499Y-131250500D01*
X136147506Y-131250500D01*
X136439993Y-131211993D01*
X136724952Y-131135639D01*
X136997507Y-131022743D01*
X137252994Y-130875238D01*
X137487042Y-130695646D01*
X137695646Y-130487042D01*
X137875238Y-130252994D01*
X138022743Y-129997507D01*
X138135639Y-129724952D01*
X138211993Y-129439993D01*
X138250500Y-129147506D01*
X138250500Y-128852494D01*
X138211993Y-128560007D01*
X138135639Y-128275048D01*
X138022743Y-128002493D01*
X137875238Y-127747006D01*
X137695646Y-127512958D01*
X137695641Y-127512952D01*
X137487047Y-127304358D01*
X137487040Y-127304352D01*
X137252993Y-127124761D01*
X136997510Y-126977258D01*
X136997500Y-126977254D01*
X136724961Y-126864364D01*
X136724954Y-126864362D01*
X136724952Y-126864361D01*
X136439993Y-126788007D01*
X136391113Y-126781571D01*
X136147513Y-126749500D01*
X136147506Y-126749500D01*
X135852494Y-126749500D01*
X135852486Y-126749500D01*
X135574085Y-126786153D01*
X135560007Y-126788007D01*
X135385428Y-126834785D01*
X135275048Y-126864361D01*
X135275038Y-126864364D01*
X135002499Y-126977254D01*
X135002489Y-126977258D01*
X134747006Y-127124761D01*
X134512959Y-127304352D01*
X134512952Y-127304358D01*
X134322181Y-127495130D01*
X134260858Y-127528615D01*
X134191166Y-127523631D01*
X134135233Y-127481759D01*
X134110816Y-127416295D01*
X134110500Y-127407449D01*
X134110500Y-124610807D01*
X134130185Y-124543768D01*
X134146815Y-124523130D01*
X134695127Y-123974817D01*
X134756448Y-123941334D01*
X134826139Y-123946318D01*
X134882073Y-123988189D01*
X134905279Y-124043102D01*
X134926597Y-124177697D01*
X134926598Y-124177701D01*
X134980127Y-124342445D01*
X135058768Y-124496788D01*
X135160586Y-124636928D01*
X135283072Y-124759414D01*
X135423212Y-124861232D01*
X135577555Y-124939873D01*
X135742299Y-124993402D01*
X135913389Y-125020500D01*
X135913390Y-125020500D01*
X136086610Y-125020500D01*
X136086611Y-125020500D01*
X136257701Y-124993402D01*
X136422445Y-124939873D01*
X136576788Y-124861232D01*
X136716928Y-124759414D01*
X136839414Y-124636928D01*
X136941232Y-124496788D01*
X137019873Y-124342445D01*
X137073402Y-124177701D01*
X137100500Y-124006611D01*
X137100500Y-123833389D01*
X137073402Y-123662299D01*
X137019873Y-123497555D01*
X136941232Y-123343212D01*
X136839414Y-123203072D01*
X136716928Y-123080586D01*
X136576788Y-122978768D01*
X136422445Y-122900127D01*
X136257701Y-122846598D01*
X136257699Y-122846597D01*
X136257697Y-122846597D01*
X136123102Y-122825279D01*
X136059967Y-122795350D01*
X136023036Y-122736038D01*
X136024034Y-122666175D01*
X136054817Y-122615127D01*
X146467821Y-112202124D01*
X146529142Y-112168641D01*
X146598834Y-112173625D01*
X146654767Y-112215497D01*
X146679184Y-112280961D01*
X146679500Y-112289807D01*
X146679500Y-113185931D01*
X146679500Y-114105931D01*
X146679500Y-127744069D01*
X146679500Y-127744071D01*
X146679499Y-127744071D01*
X146704497Y-127869738D01*
X146704499Y-127869744D01*
X146734942Y-127943241D01*
X146753535Y-127988127D01*
X146824723Y-128094669D01*
X146824726Y-128094673D01*
X146824727Y-128094674D01*
X150910499Y-132180445D01*
X150943984Y-132241768D01*
X150940749Y-132306444D01*
X150898910Y-132435210D01*
X150898910Y-132435213D01*
X150859500Y-132684038D01*
X150859500Y-132935961D01*
X150898910Y-133184785D01*
X150976760Y-133424383D01*
X151091132Y-133648848D01*
X151239201Y-133852649D01*
X151239205Y-133852654D01*
X151417345Y-134030794D01*
X151417350Y-134030798D01*
X151595117Y-134159952D01*
X151621155Y-134178870D01*
X151764184Y-134251747D01*
X151845616Y-134293239D01*
X151845618Y-134293239D01*
X151845621Y-134293241D01*
X152085215Y-134371090D01*
X152334038Y-134410500D01*
X152334039Y-134410500D01*
X152585961Y-134410500D01*
X152585962Y-134410500D01*
X152834785Y-134371090D01*
X153074379Y-134293241D01*
X153298845Y-134178870D01*
X153502656Y-134030793D01*
X153680793Y-133852656D01*
X153685380Y-133846341D01*
X153740708Y-133803675D01*
X153810322Y-133797693D01*
X153872118Y-133830296D01*
X153906477Y-133891134D01*
X153908174Y-133938621D01*
X153899500Y-133993389D01*
X153899500Y-134166611D01*
X153926598Y-134337701D01*
X153980127Y-134502445D01*
X154058768Y-134656788D01*
X154160586Y-134796928D01*
X154283072Y-134919414D01*
X154423212Y-135021232D01*
X154577555Y-135099873D01*
X154742299Y-135153402D01*
X154913389Y-135180500D01*
X154913390Y-135180500D01*
X155086610Y-135180500D01*
X155086611Y-135180500D01*
X155257701Y-135153402D01*
X155422445Y-135099873D01*
X155576788Y-135021232D01*
X155716928Y-134919414D01*
X155839414Y-134796928D01*
X155941232Y-134656788D01*
X156019873Y-134502445D01*
X156073402Y-134337701D01*
X156100500Y-134166611D01*
X156100500Y-133993389D01*
X156073402Y-133822299D01*
X156019873Y-133657555D01*
X155941232Y-133503212D01*
X155839414Y-133363072D01*
X155716928Y-133240586D01*
X155576788Y-133138768D01*
X155422445Y-133060127D01*
X155257701Y-133006598D01*
X155257699Y-133006597D01*
X155257698Y-133006597D01*
X155126271Y-132985781D01*
X155086611Y-132979500D01*
X154913389Y-132979500D01*
X154873728Y-132985781D01*
X154742302Y-133006597D01*
X154577552Y-133060128D01*
X154423211Y-133138768D01*
X154359875Y-133184785D01*
X154283072Y-133240586D01*
X154283070Y-133240588D01*
X154283068Y-133240589D01*
X154231139Y-133292518D01*
X154169816Y-133326002D01*
X154100124Y-133321017D01*
X154044191Y-133279146D01*
X154019775Y-133213681D01*
X154020986Y-133185438D01*
X154021088Y-133184788D01*
X154021090Y-133184785D01*
X154060500Y-132935962D01*
X154060500Y-132684038D01*
X154021090Y-132435215D01*
X153943241Y-132195621D01*
X153943239Y-132195618D01*
X153943239Y-132195616D01*
X153901747Y-132114184D01*
X153828870Y-131971155D01*
X153809952Y-131945117D01*
X153680798Y-131767350D01*
X153680794Y-131767345D01*
X153502654Y-131589205D01*
X153502649Y-131589201D01*
X153298848Y-131441132D01*
X153298847Y-131441131D01*
X153298845Y-131441130D01*
X153228747Y-131405413D01*
X153074383Y-131326760D01*
X152834785Y-131248910D01*
X152585962Y-131209500D01*
X152334038Y-131209500D01*
X152251097Y-131222636D01*
X152085213Y-131248910D01*
X152085210Y-131248910D01*
X151956444Y-131290749D01*
X151886602Y-131292744D01*
X151830445Y-131260499D01*
X149422432Y-128852486D01*
X152749500Y-128852486D01*
X152749500Y-129147513D01*
X152781571Y-129391113D01*
X152788007Y-129439993D01*
X152788008Y-129439995D01*
X152864361Y-129724951D01*
X152864364Y-129724961D01*
X152977254Y-129997500D01*
X152977258Y-129997510D01*
X153124761Y-130252993D01*
X153304352Y-130487040D01*
X153304358Y-130487047D01*
X153512952Y-130695641D01*
X153512959Y-130695647D01*
X153747006Y-130875238D01*
X154002489Y-131022741D01*
X154002490Y-131022741D01*
X154002493Y-131022743D01*
X154275048Y-131135639D01*
X154560007Y-131211993D01*
X154852494Y-131250500D01*
X154852501Y-131250500D01*
X155147499Y-131250500D01*
X155147506Y-131250500D01*
X155439993Y-131211993D01*
X155724952Y-131135639D01*
X155997507Y-131022743D01*
X156252994Y-130875238D01*
X156487042Y-130695646D01*
X156695646Y-130487042D01*
X156875238Y-130252994D01*
X157022743Y-129997507D01*
X157135639Y-129724952D01*
X157211993Y-129439993D01*
X157250500Y-129147506D01*
X157250500Y-128852494D01*
X157211993Y-128560007D01*
X157135639Y-128275048D01*
X157022743Y-128002493D01*
X156875238Y-127747006D01*
X156695646Y-127512958D01*
X156695641Y-127512952D01*
X156487047Y-127304358D01*
X156487040Y-127304352D01*
X156252993Y-127124761D01*
X155997510Y-126977258D01*
X155997500Y-126977254D01*
X155724961Y-126864364D01*
X155724954Y-126864362D01*
X155724952Y-126864361D01*
X155439993Y-126788007D01*
X155391113Y-126781571D01*
X155147513Y-126749500D01*
X155147506Y-126749500D01*
X154852494Y-126749500D01*
X154852486Y-126749500D01*
X154574085Y-126786153D01*
X154560007Y-126788007D01*
X154385428Y-126834785D01*
X154275048Y-126864361D01*
X154275038Y-126864364D01*
X154002499Y-126977254D01*
X154002489Y-126977258D01*
X153747006Y-127124761D01*
X153512959Y-127304352D01*
X153512952Y-127304358D01*
X153304358Y-127512952D01*
X153304352Y-127512959D01*
X153124761Y-127747006D01*
X152977258Y-128002489D01*
X152977254Y-128002499D01*
X152864364Y-128275038D01*
X152864361Y-128275048D01*
X152788008Y-128560004D01*
X152788006Y-128560015D01*
X152749500Y-128852486D01*
X149422432Y-128852486D01*
X148016819Y-127446873D01*
X147983334Y-127385550D01*
X147980500Y-127359192D01*
X147980500Y-126334038D01*
X148319500Y-126334038D01*
X148319500Y-126585961D01*
X148358910Y-126834785D01*
X148436760Y-127074383D01*
X148551132Y-127298848D01*
X148699201Y-127502649D01*
X148699205Y-127502654D01*
X148877345Y-127680794D01*
X148877350Y-127680798D01*
X149002478Y-127771708D01*
X149081155Y-127828870D01*
X149224184Y-127901747D01*
X149305616Y-127943239D01*
X149305618Y-127943239D01*
X149305621Y-127943241D01*
X149545215Y-128021090D01*
X149794038Y-128060500D01*
X149794039Y-128060500D01*
X150045961Y-128060500D01*
X150045962Y-128060500D01*
X150294785Y-128021090D01*
X150534379Y-127943241D01*
X150758845Y-127828870D01*
X150962656Y-127680793D01*
X151140793Y-127502656D01*
X151288870Y-127298845D01*
X151403241Y-127074379D01*
X151481090Y-126834785D01*
X151520500Y-126585962D01*
X151520500Y-126334038D01*
X151481090Y-126085215D01*
X151403241Y-125845621D01*
X151403239Y-125845618D01*
X151403239Y-125845616D01*
X151361747Y-125764184D01*
X151288870Y-125621155D01*
X151269952Y-125595117D01*
X151140798Y-125417350D01*
X151140794Y-125417345D01*
X150962654Y-125239205D01*
X150962649Y-125239201D01*
X150758848Y-125091132D01*
X150758847Y-125091131D01*
X150758845Y-125091130D01*
X150688747Y-125055413D01*
X150534383Y-124976760D01*
X150294785Y-124898910D01*
X150045962Y-124859500D01*
X149794038Y-124859500D01*
X149669626Y-124879205D01*
X149545214Y-124898910D01*
X149305616Y-124976760D01*
X149081151Y-125091132D01*
X148877350Y-125239201D01*
X148877345Y-125239205D01*
X148699205Y-125417345D01*
X148699201Y-125417350D01*
X148551132Y-125621151D01*
X148436760Y-125845616D01*
X148358910Y-126085214D01*
X148319500Y-126334038D01*
X147980500Y-126334038D01*
X147980500Y-123833389D01*
X153899500Y-123833389D01*
X153899500Y-124006611D01*
X153926598Y-124177701D01*
X153980127Y-124342445D01*
X154058768Y-124496788D01*
X154160586Y-124636928D01*
X154283072Y-124759414D01*
X154423212Y-124861232D01*
X154577555Y-124939873D01*
X154742299Y-124993402D01*
X154913389Y-125020500D01*
X154913390Y-125020500D01*
X155086610Y-125020500D01*
X155086611Y-125020500D01*
X155257701Y-124993402D01*
X155422445Y-124939873D01*
X155576788Y-124861232D01*
X155716928Y-124759414D01*
X155839414Y-124636928D01*
X155941232Y-124496788D01*
X156019873Y-124342445D01*
X156073402Y-124177701D01*
X156100500Y-124006611D01*
X156100500Y-123833389D01*
X156073402Y-123662299D01*
X156019873Y-123497555D01*
X155941232Y-123343212D01*
X155839414Y-123203072D01*
X155716928Y-123080586D01*
X155576788Y-122978768D01*
X155422445Y-122900127D01*
X155257701Y-122846598D01*
X155257699Y-122846597D01*
X155257698Y-122846597D01*
X155123098Y-122825279D01*
X155086611Y-122819500D01*
X154913389Y-122819500D01*
X154876902Y-122825279D01*
X154742302Y-122846597D01*
X154577552Y-122900128D01*
X154423211Y-122978768D01*
X154343256Y-123036859D01*
X154283072Y-123080586D01*
X154283070Y-123080588D01*
X154283069Y-123080588D01*
X154160588Y-123203069D01*
X154160588Y-123203070D01*
X154160586Y-123203072D01*
X154116859Y-123263256D01*
X154058768Y-123343211D01*
X153980128Y-123497552D01*
X153926597Y-123662302D01*
X153911345Y-123758600D01*
X153899500Y-123833389D01*
X147980500Y-123833389D01*
X147980500Y-114490807D01*
X148000185Y-114423768D01*
X148016814Y-114403131D01*
X149352931Y-113067013D01*
X149414252Y-113033530D01*
X149416317Y-113033099D01*
X149483497Y-113019737D01*
X149629179Y-112959394D01*
X149760289Y-112871789D01*
X149871789Y-112760289D01*
X149959394Y-112629179D01*
X150005486Y-112517903D01*
X150049327Y-112463499D01*
X150115621Y-112441434D01*
X150183320Y-112458713D01*
X150207728Y-112477674D01*
X152600026Y-114869972D01*
X152633511Y-114931295D01*
X152628527Y-115000987D01*
X152586655Y-115056920D01*
X152521191Y-115081337D01*
X152464892Y-115072214D01*
X152294428Y-115001605D01*
X152294421Y-115001603D01*
X152294419Y-115001602D01*
X152041116Y-114933730D01*
X151983339Y-114926123D01*
X151781127Y-114899500D01*
X151781120Y-114899500D01*
X151518880Y-114899500D01*
X151518872Y-114899500D01*
X151287772Y-114929926D01*
X151258884Y-114933730D01*
X151007876Y-115000987D01*
X151005581Y-115001602D01*
X151005571Y-115001605D01*
X150763309Y-115101953D01*
X150763299Y-115101958D01*
X150536196Y-115233075D01*
X150328148Y-115392718D01*
X150142718Y-115578148D01*
X149983075Y-115786196D01*
X149851958Y-116013299D01*
X149851953Y-116013309D01*
X149751605Y-116255571D01*
X149751602Y-116255581D01*
X149683730Y-116508885D01*
X149649500Y-116768872D01*
X149649500Y-117031127D01*
X149663805Y-117139778D01*
X149683730Y-117291116D01*
X149751602Y-117544418D01*
X149751605Y-117544428D01*
X149851953Y-117786690D01*
X149851958Y-117786700D01*
X149983075Y-118013803D01*
X150142718Y-118221851D01*
X150142726Y-118221860D01*
X150328140Y-118407274D01*
X150328148Y-118407281D01*
X150536196Y-118566924D01*
X150763299Y-118698041D01*
X150763309Y-118698046D01*
X151005571Y-118798394D01*
X151005581Y-118798398D01*
X151258884Y-118866270D01*
X151518880Y-118900500D01*
X151518887Y-118900500D01*
X151781113Y-118900500D01*
X151781120Y-118900500D01*
X152041116Y-118866270D01*
X152294419Y-118798398D01*
X152536697Y-118698043D01*
X152763803Y-118566924D01*
X152971851Y-118407282D01*
X152971855Y-118407277D01*
X152971860Y-118407274D01*
X153157274Y-118221860D01*
X153157277Y-118221855D01*
X153157282Y-118221851D01*
X153316924Y-118013803D01*
X153448043Y-117786697D01*
X153455622Y-117768401D01*
X153475114Y-117721340D01*
X153548398Y-117544419D01*
X153616270Y-117291116D01*
X153650500Y-117031120D01*
X153650500Y-116768880D01*
X153616270Y-116508884D01*
X153548398Y-116255581D01*
X153477784Y-116085106D01*
X153470316Y-116015638D01*
X153501591Y-115953158D01*
X153561680Y-115917506D01*
X153631505Y-115919999D01*
X153680027Y-115949973D01*
X169910499Y-132180445D01*
X169943984Y-132241768D01*
X169940749Y-132306444D01*
X169898910Y-132435210D01*
X169898910Y-132435213D01*
X169859500Y-132684038D01*
X169859500Y-132935961D01*
X169898910Y-133184785D01*
X169976760Y-133424383D01*
X170091132Y-133648848D01*
X170239201Y-133852649D01*
X170239205Y-133852654D01*
X170417345Y-134030794D01*
X170417350Y-134030798D01*
X170595117Y-134159952D01*
X170621155Y-134178870D01*
X170764184Y-134251747D01*
X170845616Y-134293239D01*
X170845618Y-134293239D01*
X170845621Y-134293241D01*
X171085215Y-134371090D01*
X171334038Y-134410500D01*
X171334039Y-134410500D01*
X171585961Y-134410500D01*
X171585962Y-134410500D01*
X171834785Y-134371090D01*
X172074379Y-134293241D01*
X172298845Y-134178870D01*
X172502656Y-134030793D01*
X172680793Y-133852656D01*
X172685380Y-133846341D01*
X172740708Y-133803675D01*
X172810322Y-133797693D01*
X172872118Y-133830296D01*
X172906477Y-133891134D01*
X172908174Y-133938621D01*
X172899500Y-133993389D01*
X172899500Y-134166611D01*
X172926598Y-134337701D01*
X172980127Y-134502445D01*
X173058768Y-134656788D01*
X173160586Y-134796928D01*
X173283072Y-134919414D01*
X173423212Y-135021232D01*
X173577555Y-135099873D01*
X173742299Y-135153402D01*
X173913389Y-135180500D01*
X173913390Y-135180500D01*
X174086610Y-135180500D01*
X174086611Y-135180500D01*
X174257701Y-135153402D01*
X174422445Y-135099873D01*
X174576788Y-135021232D01*
X174716928Y-134919414D01*
X174839414Y-134796928D01*
X174941232Y-134656788D01*
X175019873Y-134502445D01*
X175073402Y-134337701D01*
X175100500Y-134166611D01*
X175100500Y-133993389D01*
X175073402Y-133822299D01*
X175019873Y-133657555D01*
X174941232Y-133503212D01*
X174839414Y-133363072D01*
X174716928Y-133240586D01*
X174576788Y-133138768D01*
X174422445Y-133060127D01*
X174257701Y-133006598D01*
X174257699Y-133006597D01*
X174257698Y-133006597D01*
X174126271Y-132985781D01*
X174086611Y-132979500D01*
X173913389Y-132979500D01*
X173873728Y-132985781D01*
X173742302Y-133006597D01*
X173577552Y-133060128D01*
X173423211Y-133138768D01*
X173359875Y-133184785D01*
X173283072Y-133240586D01*
X173283070Y-133240588D01*
X173283068Y-133240589D01*
X173231139Y-133292518D01*
X173169816Y-133326002D01*
X173100124Y-133321017D01*
X173044191Y-133279146D01*
X173019775Y-133213681D01*
X173020986Y-133185438D01*
X173021088Y-133184788D01*
X173021090Y-133184785D01*
X173060500Y-132935962D01*
X173060500Y-132684038D01*
X173021090Y-132435215D01*
X172943241Y-132195621D01*
X172943239Y-132195618D01*
X172943239Y-132195616D01*
X172901747Y-132114184D01*
X172828870Y-131971155D01*
X172809952Y-131945117D01*
X172680798Y-131767350D01*
X172680794Y-131767345D01*
X172502654Y-131589205D01*
X172502649Y-131589201D01*
X172298848Y-131441132D01*
X172298847Y-131441131D01*
X172298845Y-131441130D01*
X172228747Y-131405413D01*
X172074383Y-131326760D01*
X171834785Y-131248910D01*
X171585962Y-131209500D01*
X171334038Y-131209500D01*
X171251097Y-131222636D01*
X171085213Y-131248910D01*
X171085210Y-131248910D01*
X170956444Y-131290749D01*
X170886602Y-131292744D01*
X170830445Y-131260499D01*
X168422432Y-128852486D01*
X171749500Y-128852486D01*
X171749500Y-129147513D01*
X171781571Y-129391113D01*
X171788007Y-129439993D01*
X171788008Y-129439995D01*
X171864361Y-129724951D01*
X171864364Y-129724961D01*
X171977254Y-129997500D01*
X171977258Y-129997510D01*
X172124761Y-130252993D01*
X172304352Y-130487040D01*
X172304358Y-130487047D01*
X172512952Y-130695641D01*
X172512959Y-130695647D01*
X172747006Y-130875238D01*
X173002489Y-131022741D01*
X173002490Y-131022741D01*
X173002493Y-131022743D01*
X173275048Y-131135639D01*
X173560007Y-131211993D01*
X173852494Y-131250500D01*
X173852501Y-131250500D01*
X174147499Y-131250500D01*
X174147506Y-131250500D01*
X174439993Y-131211993D01*
X174724952Y-131135639D01*
X174997507Y-131022743D01*
X175252994Y-130875238D01*
X175487042Y-130695646D01*
X175695646Y-130487042D01*
X175875238Y-130252994D01*
X176022743Y-129997507D01*
X176135639Y-129724952D01*
X176211993Y-129439993D01*
X176250500Y-129147506D01*
X176250500Y-128852494D01*
X176211993Y-128560007D01*
X176135639Y-128275048D01*
X176022743Y-128002493D01*
X175875238Y-127747006D01*
X175695646Y-127512958D01*
X175695641Y-127512952D01*
X175487047Y-127304358D01*
X175487040Y-127304352D01*
X175252993Y-127124761D01*
X174997510Y-126977258D01*
X174997500Y-126977254D01*
X174724961Y-126864364D01*
X174724954Y-126864362D01*
X174724952Y-126864361D01*
X174439993Y-126788007D01*
X174391113Y-126781571D01*
X174147513Y-126749500D01*
X174147506Y-126749500D01*
X173852494Y-126749500D01*
X173852486Y-126749500D01*
X173574085Y-126786153D01*
X173560007Y-126788007D01*
X173385428Y-126834785D01*
X173275048Y-126864361D01*
X173275038Y-126864364D01*
X173002499Y-126977254D01*
X173002489Y-126977258D01*
X172747006Y-127124761D01*
X172512959Y-127304352D01*
X172512952Y-127304358D01*
X172304358Y-127512952D01*
X172304352Y-127512959D01*
X172124761Y-127747006D01*
X171977258Y-128002489D01*
X171977254Y-128002499D01*
X171864364Y-128275038D01*
X171864361Y-128275048D01*
X171788008Y-128560004D01*
X171788006Y-128560015D01*
X171749500Y-128852486D01*
X168422432Y-128852486D01*
X165903984Y-126334038D01*
X167319500Y-126334038D01*
X167319500Y-126585961D01*
X167358910Y-126834785D01*
X167436760Y-127074383D01*
X167551132Y-127298848D01*
X167699201Y-127502649D01*
X167699205Y-127502654D01*
X167877345Y-127680794D01*
X167877350Y-127680798D01*
X168002478Y-127771708D01*
X168081155Y-127828870D01*
X168224184Y-127901747D01*
X168305616Y-127943239D01*
X168305618Y-127943239D01*
X168305621Y-127943241D01*
X168545215Y-128021090D01*
X168794038Y-128060500D01*
X168794039Y-128060500D01*
X169045961Y-128060500D01*
X169045962Y-128060500D01*
X169294785Y-128021090D01*
X169534379Y-127943241D01*
X169758845Y-127828870D01*
X169962656Y-127680793D01*
X170140793Y-127502656D01*
X170288870Y-127298845D01*
X170403241Y-127074379D01*
X170481090Y-126834785D01*
X170520500Y-126585962D01*
X170520500Y-126334038D01*
X170481090Y-126085215D01*
X170403241Y-125845621D01*
X170403239Y-125845618D01*
X170403239Y-125845616D01*
X170361747Y-125764184D01*
X170288870Y-125621155D01*
X170269952Y-125595117D01*
X170140798Y-125417350D01*
X170140794Y-125417345D01*
X169962654Y-125239205D01*
X169962649Y-125239201D01*
X169758848Y-125091132D01*
X169758847Y-125091131D01*
X169758845Y-125091130D01*
X169688747Y-125055413D01*
X169534383Y-124976760D01*
X169294785Y-124898910D01*
X169045962Y-124859500D01*
X168794038Y-124859500D01*
X168669626Y-124879205D01*
X168545214Y-124898910D01*
X168305616Y-124976760D01*
X168081151Y-125091132D01*
X167877350Y-125239201D01*
X167877345Y-125239205D01*
X167699205Y-125417345D01*
X167699201Y-125417350D01*
X167551132Y-125621151D01*
X167436760Y-125845616D01*
X167358910Y-126085214D01*
X167319500Y-126334038D01*
X165903984Y-126334038D01*
X163403335Y-123833389D01*
X172899500Y-123833389D01*
X172899500Y-124006611D01*
X172926598Y-124177701D01*
X172980127Y-124342445D01*
X173058768Y-124496788D01*
X173160586Y-124636928D01*
X173283072Y-124759414D01*
X173423212Y-124861232D01*
X173577555Y-124939873D01*
X173742299Y-124993402D01*
X173913389Y-125020500D01*
X173913390Y-125020500D01*
X174086610Y-125020500D01*
X174086611Y-125020500D01*
X174257701Y-124993402D01*
X174422445Y-124939873D01*
X174576788Y-124861232D01*
X174716928Y-124759414D01*
X174839414Y-124636928D01*
X174941232Y-124496788D01*
X175019873Y-124342445D01*
X175073402Y-124177701D01*
X175100500Y-124006611D01*
X175100500Y-123833389D01*
X175073402Y-123662299D01*
X175019873Y-123497555D01*
X174941232Y-123343212D01*
X174839414Y-123203072D01*
X174716928Y-123080586D01*
X174576788Y-122978768D01*
X174422445Y-122900127D01*
X174257701Y-122846598D01*
X174257699Y-122846597D01*
X174257698Y-122846597D01*
X174123098Y-122825279D01*
X174086611Y-122819500D01*
X173913389Y-122819500D01*
X173876902Y-122825279D01*
X173742302Y-122846597D01*
X173577552Y-122900128D01*
X173423211Y-122978768D01*
X173343256Y-123036859D01*
X173283072Y-123080586D01*
X173283070Y-123080588D01*
X173283069Y-123080588D01*
X173160588Y-123203069D01*
X173160588Y-123203070D01*
X173160586Y-123203072D01*
X173116859Y-123263256D01*
X173058768Y-123343211D01*
X172980128Y-123497552D01*
X172926597Y-123662302D01*
X172911345Y-123758600D01*
X172899500Y-123833389D01*
X163403335Y-123833389D01*
X150082127Y-110512181D01*
X150048642Y-110450858D01*
X150053626Y-110381166D01*
X150095498Y-110325233D01*
X150160962Y-110300816D01*
X150169808Y-110300500D01*
X150328844Y-110300500D01*
X150328845Y-110300499D01*
X150483497Y-110269737D01*
X150629179Y-110209394D01*
X150760289Y-110121789D01*
X150760292Y-110121786D01*
X150771122Y-110110957D01*
X150871786Y-110010292D01*
X150871789Y-110010289D01*
X150959394Y-109879179D01*
X151019737Y-109733497D01*
X151050500Y-109578842D01*
X151050500Y-109421158D01*
X151050500Y-109421155D01*
X151050499Y-109421153D01*
X151019738Y-109266510D01*
X151019737Y-109266503D01*
X151003877Y-109228213D01*
X150959397Y-109120828D01*
X150959396Y-109120827D01*
X150959394Y-109120821D01*
X150921396Y-109063953D01*
X150915746Y-109045907D01*
X150905523Y-109029999D01*
X150901071Y-108999036D01*
X150900520Y-108997276D01*
X150900500Y-108995064D01*
X150900500Y-108770142D01*
X154850000Y-108770142D01*
X154850000Y-109250000D01*
X155749989Y-109250000D01*
X155749989Y-110250000D01*
X154850000Y-110250000D01*
X154850000Y-110729857D01*
X154890629Y-110986377D01*
X154970883Y-111233377D01*
X155088796Y-111464791D01*
X155241445Y-111674896D01*
X155241449Y-111674901D01*
X155425098Y-111858550D01*
X155425103Y-111858554D01*
X155635208Y-112011203D01*
X155866619Y-112129115D01*
X155866625Y-112129117D01*
X155999999Y-112172452D01*
X156000000Y-112172451D01*
X156000000Y-111060662D01*
X156021896Y-111082558D01*
X156144737Y-111164637D01*
X156281230Y-111221175D01*
X156426130Y-111249997D01*
X156573870Y-111249997D01*
X156718770Y-111221175D01*
X156855263Y-111164637D01*
X156978104Y-111082558D01*
X157000000Y-111060662D01*
X157000000Y-112172452D01*
X157133374Y-112129117D01*
X157133380Y-112129115D01*
X157364791Y-112011203D01*
X157574896Y-111858554D01*
X157574901Y-111858550D01*
X157758550Y-111674901D01*
X157758554Y-111674896D01*
X157911203Y-111464791D01*
X158029116Y-111233377D01*
X158109370Y-110986377D01*
X158150000Y-110729857D01*
X158150000Y-110250000D01*
X157250011Y-110250000D01*
X157250011Y-109250000D01*
X158150000Y-109250000D01*
X158150000Y-108770142D01*
X158109370Y-108513622D01*
X158029116Y-108266622D01*
X157911203Y-108035208D01*
X157758554Y-107825103D01*
X157758550Y-107825098D01*
X157574901Y-107641449D01*
X157574896Y-107641445D01*
X157364791Y-107488796D01*
X157133382Y-107370886D01*
X157000000Y-107327547D01*
X157000000Y-108439338D01*
X156978104Y-108417442D01*
X156855263Y-108335363D01*
X156718770Y-108278825D01*
X156573870Y-108250003D01*
X156426130Y-108250003D01*
X156281230Y-108278825D01*
X156144737Y-108335363D01*
X156021896Y-108417442D01*
X156000000Y-108439338D01*
X156000000Y-107327547D01*
X155999999Y-107327547D01*
X155866617Y-107370886D01*
X155635208Y-107488796D01*
X155425103Y-107641445D01*
X155425098Y-107641449D01*
X155241449Y-107825098D01*
X155241445Y-107825103D01*
X155088796Y-108035208D01*
X154970883Y-108266622D01*
X154890629Y-108513622D01*
X154850000Y-108770142D01*
X150900500Y-108770142D01*
X150900500Y-104294168D01*
X150920185Y-104227129D01*
X150972989Y-104181374D01*
X151042147Y-104171430D01*
X151093392Y-104191067D01*
X151120812Y-104209389D01*
X151120827Y-104209397D01*
X151266498Y-104269735D01*
X151266503Y-104269737D01*
X151421153Y-104300499D01*
X151421156Y-104300500D01*
X151421158Y-104300500D01*
X151578844Y-104300500D01*
X151578845Y-104300499D01*
X151733497Y-104269737D01*
X151879179Y-104209394D01*
X152010289Y-104121789D01*
X152121789Y-104010289D01*
X152209394Y-103879179D01*
X152269737Y-103733497D01*
X152295495Y-103604002D01*
X152327879Y-103542092D01*
X152329374Y-103540570D01*
X153230166Y-102639778D01*
X158059500Y-102639778D01*
X158059500Y-102860221D01*
X158093985Y-103077952D01*
X158162103Y-103287603D01*
X158162104Y-103287606D01*
X158262187Y-103484025D01*
X158391752Y-103662358D01*
X158391756Y-103662363D01*
X158547636Y-103818243D01*
X158547641Y-103818247D01*
X158703192Y-103931260D01*
X158725978Y-103947815D01*
X158848587Y-104010288D01*
X158922393Y-104047895D01*
X158922396Y-104047896D01*
X159017653Y-104078846D01*
X159132049Y-104116015D01*
X159349778Y-104150500D01*
X159349779Y-104150500D01*
X159570221Y-104150500D01*
X159570222Y-104150500D01*
X159787951Y-104116015D01*
X159997606Y-104047895D01*
X160194022Y-103947815D01*
X160372365Y-103818242D01*
X160528242Y-103662365D01*
X160657815Y-103484022D01*
X160757895Y-103287606D01*
X160826015Y-103077951D01*
X160860500Y-102860222D01*
X160860500Y-102639778D01*
X160826015Y-102422049D01*
X160757895Y-102212394D01*
X160757895Y-102212393D01*
X160718933Y-102135928D01*
X160657815Y-102015978D01*
X160641260Y-101993192D01*
X160528247Y-101837641D01*
X160528243Y-101837636D01*
X160372363Y-101681756D01*
X160372358Y-101681752D01*
X160194025Y-101552187D01*
X160194024Y-101552186D01*
X160194022Y-101552185D01*
X160092939Y-101500680D01*
X159997606Y-101452104D01*
X159997603Y-101452103D01*
X159787952Y-101383985D01*
X159679086Y-101366742D01*
X159570222Y-101349500D01*
X159349778Y-101349500D01*
X159277201Y-101360995D01*
X159132047Y-101383985D01*
X158922396Y-101452103D01*
X158922393Y-101452104D01*
X158725974Y-101552187D01*
X158547641Y-101681752D01*
X158547636Y-101681756D01*
X158391756Y-101837636D01*
X158391752Y-101837641D01*
X158262187Y-102015974D01*
X158162104Y-102212393D01*
X158162103Y-102212396D01*
X158093985Y-102422047D01*
X158059500Y-102639778D01*
X153230166Y-102639778D01*
X154708127Y-101161816D01*
X154769448Y-101128333D01*
X154795797Y-101125499D01*
X155650008Y-101125499D01*
X155650016Y-101125498D01*
X155650019Y-101125498D01*
X155706302Y-101119748D01*
X155752797Y-101114999D01*
X155919334Y-101059814D01*
X156068656Y-100967712D01*
X156192712Y-100843656D01*
X156284814Y-100694334D01*
X156339999Y-100527797D01*
X156350500Y-100425009D01*
X156350500Y-100424986D01*
X157150001Y-100424986D01*
X157160494Y-100527697D01*
X157215641Y-100694119D01*
X157215643Y-100694124D01*
X157307684Y-100843345D01*
X157431654Y-100967315D01*
X157580875Y-101059356D01*
X157580880Y-101059358D01*
X157747303Y-101114505D01*
X157800000Y-101119888D01*
X157800000Y-101119887D01*
X158800000Y-101119887D01*
X158852696Y-101114505D01*
X159019119Y-101059358D01*
X159019124Y-101059356D01*
X159168345Y-100967315D01*
X159292315Y-100843345D01*
X159384356Y-100694124D01*
X159384358Y-100694119D01*
X159439505Y-100527697D01*
X159439506Y-100527690D01*
X159449999Y-100424986D01*
X159450000Y-100424973D01*
X159450000Y-100250000D01*
X158800000Y-100250000D01*
X158800000Y-101119887D01*
X157800000Y-101119887D01*
X157800000Y-100250000D01*
X157150001Y-100250000D01*
X157150001Y-100424986D01*
X156350500Y-100424986D01*
X156350499Y-99075013D01*
X157150000Y-99075013D01*
X157150000Y-99250000D01*
X157800000Y-99250000D01*
X158800000Y-99250000D01*
X159449999Y-99250000D01*
X159449999Y-99075028D01*
X159449998Y-99075013D01*
X159439505Y-98972302D01*
X159384358Y-98805880D01*
X159384356Y-98805875D01*
X159292315Y-98656654D01*
X159223342Y-98587681D01*
X159189857Y-98526358D01*
X159194841Y-98456666D01*
X159223342Y-98412319D01*
X159292315Y-98343345D01*
X159384356Y-98194124D01*
X159384358Y-98194119D01*
X159439505Y-98027697D01*
X159439506Y-98027690D01*
X159449999Y-97924986D01*
X159450000Y-97924973D01*
X159450000Y-97750000D01*
X158800000Y-97750000D01*
X158800000Y-99250000D01*
X157800000Y-99250000D01*
X157800000Y-97750000D01*
X157150001Y-97750000D01*
X157150001Y-97924986D01*
X157160494Y-98027697D01*
X157215641Y-98194119D01*
X157215643Y-98194124D01*
X157307684Y-98343345D01*
X157376658Y-98412319D01*
X157410143Y-98473642D01*
X157405159Y-98543334D01*
X157376658Y-98587681D01*
X157307684Y-98656654D01*
X157215643Y-98805875D01*
X157215641Y-98805880D01*
X157160494Y-98972302D01*
X157160493Y-98972309D01*
X157150000Y-99075013D01*
X156350499Y-99075013D01*
X156350499Y-99074992D01*
X156339999Y-98972203D01*
X156284814Y-98805666D01*
X156192712Y-98656344D01*
X156124049Y-98587681D01*
X156090564Y-98526358D01*
X156095548Y-98456666D01*
X156124049Y-98412319D01*
X156192712Y-98343656D01*
X156284814Y-98194334D01*
X156339999Y-98027797D01*
X156350500Y-97925009D01*
X156350499Y-96575013D01*
X157150000Y-96575013D01*
X157150000Y-96750000D01*
X157800000Y-96750000D01*
X158800000Y-96750000D01*
X159449999Y-96750000D01*
X159449999Y-96575028D01*
X159449998Y-96575013D01*
X159439505Y-96472302D01*
X159384358Y-96305880D01*
X159384356Y-96305875D01*
X159292315Y-96156654D01*
X159223342Y-96087681D01*
X159189857Y-96026358D01*
X159194841Y-95956666D01*
X159223342Y-95912319D01*
X159292315Y-95843345D01*
X159384356Y-95694124D01*
X159384358Y-95694119D01*
X159439505Y-95527697D01*
X159439506Y-95527690D01*
X159449999Y-95424986D01*
X159450000Y-95424973D01*
X159450000Y-95250000D01*
X158800000Y-95250000D01*
X158800000Y-96750000D01*
X157800000Y-96750000D01*
X157800000Y-95250000D01*
X157150001Y-95250000D01*
X157150001Y-95424986D01*
X157160494Y-95527697D01*
X157215641Y-95694119D01*
X157215643Y-95694124D01*
X157307684Y-95843345D01*
X157376658Y-95912319D01*
X157410143Y-95973642D01*
X157405159Y-96043334D01*
X157376658Y-96087681D01*
X157307684Y-96156654D01*
X157215643Y-96305875D01*
X157215641Y-96305880D01*
X157160494Y-96472302D01*
X157160493Y-96472309D01*
X157150000Y-96575013D01*
X156350499Y-96575013D01*
X156350499Y-96574992D01*
X156339999Y-96472203D01*
X156284814Y-96305666D01*
X156192712Y-96156344D01*
X156124049Y-96087681D01*
X156090564Y-96026358D01*
X156095548Y-95956666D01*
X156124049Y-95912319D01*
X156192712Y-95843656D01*
X156284814Y-95694334D01*
X156339999Y-95527797D01*
X156350500Y-95425009D01*
X156350499Y-94075013D01*
X157150000Y-94075013D01*
X157150000Y-94250000D01*
X157800000Y-94250000D01*
X157800000Y-93380110D01*
X157799999Y-93380110D01*
X157747309Y-93385493D01*
X157747302Y-93385494D01*
X157580880Y-93440641D01*
X157580875Y-93440643D01*
X157431654Y-93532684D01*
X157307684Y-93656654D01*
X157215643Y-93805875D01*
X157215641Y-93805880D01*
X157160494Y-93972302D01*
X157160493Y-93972309D01*
X157150000Y-94075013D01*
X156350499Y-94075013D01*
X156350499Y-94074992D01*
X156339999Y-93972203D01*
X156284814Y-93805666D01*
X156192712Y-93656344D01*
X156068656Y-93532288D01*
X155975888Y-93475069D01*
X155919336Y-93440187D01*
X155919331Y-93440185D01*
X155917862Y-93439698D01*
X155752797Y-93385001D01*
X155752795Y-93385000D01*
X155650010Y-93374500D01*
X154749998Y-93374500D01*
X154749980Y-93374501D01*
X154647203Y-93385000D01*
X154647200Y-93385001D01*
X154480668Y-93440185D01*
X154480663Y-93440187D01*
X154331342Y-93532289D01*
X154207289Y-93656342D01*
X154115187Y-93805663D01*
X154115185Y-93805668D01*
X154110578Y-93819571D01*
X154060001Y-93972203D01*
X154060001Y-93972204D01*
X154060000Y-93972204D01*
X154049500Y-94074983D01*
X154049500Y-94929190D01*
X154040856Y-94958626D01*
X154034333Y-94988616D01*
X154030577Y-94993632D01*
X154029815Y-94996229D01*
X154013182Y-95016870D01*
X153966873Y-95063180D01*
X153905550Y-95096666D01*
X153879191Y-95099500D01*
X152650538Y-95099500D01*
X152583499Y-95079815D01*
X152537744Y-95027011D01*
X152527800Y-94957853D01*
X152556825Y-94894297D01*
X152588538Y-94868113D01*
X152763803Y-94766924D01*
X152971851Y-94607282D01*
X152971855Y-94607277D01*
X152971860Y-94607274D01*
X153157274Y-94421860D01*
X153157277Y-94421855D01*
X153157282Y-94421851D01*
X153316924Y-94213803D01*
X153448043Y-93986697D01*
X153548398Y-93744419D01*
X153616270Y-93491116D01*
X153650500Y-93231120D01*
X153650500Y-92968880D01*
X153616270Y-92708884D01*
X153548398Y-92455581D01*
X153537710Y-92429778D01*
X153448046Y-92213309D01*
X153448041Y-92213299D01*
X153316924Y-91986196D01*
X153178636Y-91805978D01*
X153157282Y-91778149D01*
X153157281Y-91778148D01*
X153157274Y-91778140D01*
X152971860Y-91592726D01*
X152971851Y-91592718D01*
X152763803Y-91433075D01*
X152536700Y-91301958D01*
X152536690Y-91301953D01*
X152294428Y-91201605D01*
X152294421Y-91201603D01*
X152294419Y-91201602D01*
X152041116Y-91133730D01*
X151983339Y-91126123D01*
X151781127Y-91099500D01*
X151781120Y-91099500D01*
X151518880Y-91099500D01*
X151518872Y-91099500D01*
X151287772Y-91129926D01*
X151258884Y-91133730D01*
X151005581Y-91201602D01*
X151005571Y-91201605D01*
X150763309Y-91301953D01*
X150763299Y-91301958D01*
X150536196Y-91433075D01*
X150328148Y-91592718D01*
X150142718Y-91778148D01*
X149983075Y-91986196D01*
X149851958Y-92213299D01*
X149851953Y-92213309D01*
X149751605Y-92455571D01*
X149751602Y-92455581D01*
X149699449Y-92650222D01*
X149683730Y-92708885D01*
X149649500Y-92968872D01*
X149649500Y-93231127D01*
X149660246Y-93312745D01*
X149683730Y-93491116D01*
X149751602Y-93744419D01*
X149751603Y-93744421D01*
X149751605Y-93744428D01*
X149851953Y-93986690D01*
X149851958Y-93986700D01*
X149983075Y-94213803D01*
X150142718Y-94421851D01*
X150142726Y-94421860D01*
X150328140Y-94607274D01*
X150328148Y-94607281D01*
X150536196Y-94766924D01*
X150711462Y-94868113D01*
X150759677Y-94918680D01*
X150772901Y-94987287D01*
X150746933Y-95052151D01*
X150690019Y-95092680D01*
X150649462Y-95099500D01*
X149274500Y-95099500D01*
X149207461Y-95079815D01*
X149161706Y-95027011D01*
X149150500Y-94975500D01*
X149150500Y-88579808D01*
X149170185Y-88512769D01*
X149222989Y-88467014D01*
X149292147Y-88457070D01*
X149355703Y-88486095D01*
X149362181Y-88492127D01*
X150375324Y-89505271D01*
X150375331Y-89505277D01*
X150481871Y-89576464D01*
X150481870Y-89576464D01*
X150516544Y-89590826D01*
X150600256Y-89625501D01*
X150600260Y-89625501D01*
X150600261Y-89625502D01*
X150725928Y-89650500D01*
X150725931Y-89650500D01*
X155179192Y-89650500D01*
X155246231Y-89670185D01*
X155266873Y-89686819D01*
X158791899Y-93211845D01*
X158825384Y-93273168D01*
X158820400Y-93342860D01*
X158800000Y-93372894D01*
X158800000Y-94250000D01*
X159449999Y-94250000D01*
X159449999Y-94169307D01*
X159469684Y-94102268D01*
X159522488Y-94056513D01*
X159591646Y-94046569D01*
X159655202Y-94075594D01*
X159661680Y-94081626D01*
X163853181Y-98273127D01*
X163886666Y-98334450D01*
X163889500Y-98360808D01*
X163889500Y-101433641D01*
X163869815Y-101500680D01*
X163821798Y-101544123D01*
X163807754Y-101551280D01*
X163805972Y-101552188D01*
X163627641Y-101681752D01*
X163627636Y-101681756D01*
X163471756Y-101837636D01*
X163471752Y-101837641D01*
X163342187Y-102015974D01*
X163242104Y-102212393D01*
X163242103Y-102212396D01*
X163173985Y-102422047D01*
X163139500Y-102639778D01*
X163139500Y-102860221D01*
X163173985Y-103077952D01*
X163242103Y-103287603D01*
X163242104Y-103287606D01*
X163342187Y-103484025D01*
X163471752Y-103662358D01*
X163471756Y-103662363D01*
X163627636Y-103818243D01*
X163627641Y-103818247D01*
X163783192Y-103931260D01*
X163805978Y-103947815D01*
X163928587Y-104010288D01*
X164002393Y-104047895D01*
X164002396Y-104047896D01*
X164097653Y-104078846D01*
X164212049Y-104116015D01*
X164429778Y-104150500D01*
X164429779Y-104150500D01*
X164650221Y-104150500D01*
X164650222Y-104150500D01*
X164867951Y-104116015D01*
X164889393Y-104109047D01*
X164959233Y-104107051D01*
X165019067Y-104143130D01*
X165049896Y-104205830D01*
X165041934Y-104275245D01*
X165015394Y-104314659D01*
X158954727Y-110375325D01*
X158954724Y-110375328D01*
X158920556Y-110426464D01*
X158920557Y-110426465D01*
X158883534Y-110481874D01*
X158834499Y-110600255D01*
X158834497Y-110600261D01*
X158809500Y-110725928D01*
X158809500Y-115933641D01*
X158789815Y-116000680D01*
X158741798Y-116044123D01*
X158727754Y-116051280D01*
X158725972Y-116052188D01*
X158547641Y-116181752D01*
X158547636Y-116181756D01*
X158391756Y-116337636D01*
X158391752Y-116337641D01*
X158262187Y-116515974D01*
X158162104Y-116712393D01*
X158162103Y-116712396D01*
X158093985Y-116922047D01*
X158059500Y-117139778D01*
X158059500Y-117360221D01*
X158093985Y-117577952D01*
X158162103Y-117787603D01*
X158162104Y-117787606D01*
X158206651Y-117875032D01*
X158248470Y-117957106D01*
X158262187Y-117984025D01*
X158391752Y-118162358D01*
X158391756Y-118162363D01*
X158547636Y-118318243D01*
X158547641Y-118318247D01*
X158641236Y-118386247D01*
X158725978Y-118447815D01*
X158854375Y-118513237D01*
X158922393Y-118547895D01*
X158922396Y-118547896D01*
X158980960Y-118566924D01*
X159132049Y-118616015D01*
X159349778Y-118650500D01*
X159349779Y-118650500D01*
X159570221Y-118650500D01*
X159570222Y-118650500D01*
X159787951Y-118616015D01*
X159997606Y-118547895D01*
X160033568Y-118529571D01*
X161427534Y-118529571D01*
X161462589Y-118547432D01*
X161672164Y-118615526D01*
X161889819Y-118650000D01*
X162110181Y-118650000D01*
X162327835Y-118615526D01*
X162537411Y-118547431D01*
X162537418Y-118547428D01*
X162572464Y-118529570D01*
X162000001Y-117957106D01*
X162000000Y-117957106D01*
X161427534Y-118529571D01*
X160033568Y-118529571D01*
X160194022Y-118447815D01*
X160372365Y-118318242D01*
X160528242Y-118162365D01*
X160657815Y-117984022D01*
X160751691Y-117799781D01*
X160774492Y-117768400D01*
X161292893Y-117250000D01*
X161292893Y-117249999D01*
X161228873Y-117185979D01*
X161349988Y-117185979D01*
X161349988Y-117314021D01*
X161374968Y-117439601D01*
X161423967Y-117557896D01*
X161495103Y-117664358D01*
X161585642Y-117754897D01*
X161692104Y-117826033D01*
X161810399Y-117875032D01*
X161935979Y-117900012D01*
X162064021Y-117900012D01*
X162189601Y-117875032D01*
X162307896Y-117826033D01*
X162414358Y-117754897D01*
X162504897Y-117664358D01*
X162576033Y-117557896D01*
X162625032Y-117439601D01*
X162650012Y-117314021D01*
X162650012Y-117185979D01*
X162625032Y-117060399D01*
X162576033Y-116942104D01*
X162504897Y-116835642D01*
X162414358Y-116745103D01*
X162307896Y-116673967D01*
X162189601Y-116624968D01*
X162064021Y-116599988D01*
X161935979Y-116599988D01*
X161810399Y-116624968D01*
X161692104Y-116673967D01*
X161585642Y-116745103D01*
X161495103Y-116835642D01*
X161423967Y-116942104D01*
X161374968Y-117060399D01*
X161349988Y-117185979D01*
X161228873Y-117185979D01*
X160774491Y-116731597D01*
X160751687Y-116700211D01*
X160738315Y-116673967D01*
X160657815Y-116515978D01*
X160641260Y-116493192D01*
X160528247Y-116337641D01*
X160528243Y-116337636D01*
X160372363Y-116181756D01*
X160372358Y-116181752D01*
X160280284Y-116114857D01*
X160280269Y-116114847D01*
X160194022Y-116052185D01*
X160171196Y-116040554D01*
X160164695Y-116036126D01*
X160147320Y-116014955D01*
X160127408Y-115996149D01*
X160125207Y-115988013D01*
X160120368Y-115982117D01*
X160119005Y-115970428D01*
X161427534Y-115970428D01*
X162000000Y-116542893D01*
X162000001Y-116542893D01*
X162572464Y-115970428D01*
X162572464Y-115970427D01*
X162537412Y-115952568D01*
X162327835Y-115884473D01*
X162110181Y-115850000D01*
X161889819Y-115850000D01*
X161672164Y-115884473D01*
X161462591Y-115952567D01*
X161462588Y-115952568D01*
X161427534Y-115970428D01*
X160119005Y-115970428D01*
X160117910Y-115961038D01*
X160110500Y-115933641D01*
X160110500Y-111110808D01*
X160130185Y-111043769D01*
X160146819Y-111023127D01*
X163677819Y-107492127D01*
X163739142Y-107458642D01*
X163808834Y-107463626D01*
X163864767Y-107505498D01*
X163889184Y-107570962D01*
X163889500Y-107579808D01*
X163889500Y-115933641D01*
X163869815Y-116000680D01*
X163821798Y-116044123D01*
X163807754Y-116051280D01*
X163805972Y-116052188D01*
X163627641Y-116181752D01*
X163627636Y-116181756D01*
X163471756Y-116337636D01*
X163471752Y-116337641D01*
X163342185Y-116515976D01*
X163248311Y-116700211D01*
X163225508Y-116731596D01*
X162707106Y-117249999D01*
X162707106Y-117250000D01*
X163225507Y-117768401D01*
X163248310Y-117799786D01*
X163342185Y-117984023D01*
X163471752Y-118162358D01*
X163471756Y-118162363D01*
X163627636Y-118318243D01*
X163627641Y-118318247D01*
X163721236Y-118386247D01*
X163805978Y-118447815D01*
X163934375Y-118513237D01*
X164002393Y-118547895D01*
X164002396Y-118547896D01*
X164060960Y-118566924D01*
X164212049Y-118616015D01*
X164429778Y-118650500D01*
X164429779Y-118650500D01*
X164650221Y-118650500D01*
X164650222Y-118650500D01*
X164867951Y-118616015D01*
X165077606Y-118547895D01*
X165274022Y-118447815D01*
X165452365Y-118318242D01*
X165608242Y-118162365D01*
X165737815Y-117984022D01*
X165837895Y-117787606D01*
X165906015Y-117577951D01*
X165940500Y-117360222D01*
X165940500Y-117139778D01*
X165906015Y-116922049D01*
X165848523Y-116745103D01*
X165837896Y-116712396D01*
X165837895Y-116712393D01*
X165793349Y-116624968D01*
X165737815Y-116515978D01*
X165721260Y-116493192D01*
X165608247Y-116337641D01*
X165608243Y-116337636D01*
X165452363Y-116181756D01*
X165452358Y-116181752D01*
X165274027Y-116052188D01*
X165274024Y-116052186D01*
X165274022Y-116052185D01*
X165258201Y-116044124D01*
X165207408Y-115996149D01*
X165190500Y-115933641D01*
X165190500Y-108770142D01*
X165850000Y-108770142D01*
X165850000Y-109250000D01*
X166749989Y-109250000D01*
X166749989Y-110250000D01*
X165850000Y-110250000D01*
X165850000Y-110729857D01*
X165890629Y-110986377D01*
X165970883Y-111233377D01*
X166088796Y-111464791D01*
X166241445Y-111674896D01*
X166241449Y-111674901D01*
X166425098Y-111858550D01*
X166425103Y-111858554D01*
X166635208Y-112011203D01*
X166866619Y-112129115D01*
X166866625Y-112129117D01*
X166999999Y-112172452D01*
X167000000Y-112172451D01*
X167000000Y-111060662D01*
X167021896Y-111082558D01*
X167144737Y-111164637D01*
X167281230Y-111221175D01*
X167426130Y-111249997D01*
X167573870Y-111249997D01*
X167718770Y-111221175D01*
X167855263Y-111164637D01*
X167978104Y-111082558D01*
X168000000Y-111060662D01*
X168000000Y-112172452D01*
X168133374Y-112129117D01*
X168133380Y-112129115D01*
X168364791Y-112011203D01*
X168574896Y-111858554D01*
X168574901Y-111858550D01*
X168758550Y-111674901D01*
X168758554Y-111674896D01*
X168911203Y-111464791D01*
X169029116Y-111233377D01*
X169109370Y-110986377D01*
X169150000Y-110729857D01*
X169150000Y-110352135D01*
X173149500Y-110352135D01*
X173149500Y-112147870D01*
X173149501Y-112147876D01*
X173155908Y-112207483D01*
X173206202Y-112342328D01*
X173206206Y-112342335D01*
X173292452Y-112457544D01*
X173292455Y-112457547D01*
X173407664Y-112543793D01*
X173407671Y-112543797D01*
X173542517Y-112594091D01*
X173542516Y-112594091D01*
X173549444Y-112594835D01*
X173602127Y-112600500D01*
X175397872Y-112600499D01*
X175457483Y-112594091D01*
X175592331Y-112543796D01*
X175707546Y-112457546D01*
X175793796Y-112342331D01*
X175844091Y-112207483D01*
X175850500Y-112147873D01*
X175850499Y-110352128D01*
X175844091Y-110292517D01*
X175833704Y-110264669D01*
X175793797Y-110157671D01*
X175793793Y-110157664D01*
X175707547Y-110042455D01*
X175707544Y-110042452D01*
X175592335Y-109956206D01*
X175592328Y-109956202D01*
X175457482Y-109905908D01*
X175457483Y-109905908D01*
X175397883Y-109899501D01*
X175397881Y-109899500D01*
X175397873Y-109899500D01*
X175397865Y-109899500D01*
X175033756Y-109899500D01*
X174966717Y-109879815D01*
X174946075Y-109863181D01*
X174500001Y-109417106D01*
X174500000Y-109417106D01*
X174053923Y-109863181D01*
X173992600Y-109896666D01*
X173966242Y-109899500D01*
X173602130Y-109899500D01*
X173602123Y-109899501D01*
X173542516Y-109905908D01*
X173407671Y-109956202D01*
X173407664Y-109956206D01*
X173292455Y-110042452D01*
X173292452Y-110042455D01*
X173206206Y-110157664D01*
X173206202Y-110157671D01*
X173155908Y-110292517D01*
X173149501Y-110352116D01*
X173149501Y-110352123D01*
X173149500Y-110352135D01*
X169150000Y-110352135D01*
X169150000Y-110250000D01*
X168250011Y-110250000D01*
X168250011Y-109250000D01*
X169150000Y-109250000D01*
X169150000Y-108770142D01*
X169125947Y-108618279D01*
X169123646Y-108603753D01*
X173150000Y-108603753D01*
X173150000Y-108816246D01*
X173183242Y-109026127D01*
X173183242Y-109026130D01*
X173248903Y-109228213D01*
X173248908Y-109228225D01*
X173257602Y-109245289D01*
X173257603Y-109245290D01*
X173792894Y-108710000D01*
X173727068Y-108644174D01*
X174000001Y-108644174D01*
X174000001Y-108775826D01*
X174034076Y-108902992D01*
X174099902Y-109017006D01*
X174192994Y-109110098D01*
X174307008Y-109175924D01*
X174434174Y-109209999D01*
X174565826Y-109209999D01*
X174692992Y-109175924D01*
X174807006Y-109110098D01*
X174900098Y-109017006D01*
X174965924Y-108902992D01*
X174999999Y-108775826D01*
X174999999Y-108709999D01*
X175207106Y-108709999D01*
X175207106Y-108710000D01*
X175742395Y-109245290D01*
X175742395Y-109245289D01*
X175751093Y-109228220D01*
X175751094Y-109228218D01*
X175816757Y-109026130D01*
X175816757Y-109026127D01*
X175850000Y-108816246D01*
X175850000Y-108603753D01*
X175816757Y-108393872D01*
X175816757Y-108393869D01*
X175751094Y-108191781D01*
X175751094Y-108191780D01*
X175742396Y-108174708D01*
X175207106Y-108709999D01*
X174999999Y-108709999D01*
X174999999Y-108644174D01*
X174965924Y-108517008D01*
X174900098Y-108402994D01*
X174807006Y-108309902D01*
X174692992Y-108244076D01*
X174565826Y-108210001D01*
X174434174Y-108210001D01*
X174307008Y-108244076D01*
X174192994Y-108309902D01*
X174099902Y-108402994D01*
X174034076Y-108517008D01*
X174000001Y-108644174D01*
X173727068Y-108644174D01*
X173257603Y-108174709D01*
X173248904Y-108191783D01*
X173183242Y-108393869D01*
X173183242Y-108393872D01*
X173150000Y-108603753D01*
X169123646Y-108603753D01*
X169109370Y-108513622D01*
X169029116Y-108266622D01*
X168911203Y-108035208D01*
X168758554Y-107825103D01*
X168758550Y-107825098D01*
X168574901Y-107641449D01*
X168574896Y-107641445D01*
X168364791Y-107488796D01*
X168133382Y-107370886D01*
X168000000Y-107327547D01*
X168000000Y-108439338D01*
X167978104Y-108417442D01*
X167855263Y-108335363D01*
X167718770Y-108278825D01*
X167573870Y-108250003D01*
X167426130Y-108250003D01*
X167281230Y-108278825D01*
X167144737Y-108335363D01*
X167021896Y-108417442D01*
X167000000Y-108439338D01*
X167000000Y-107327547D01*
X166999999Y-107327547D01*
X166866617Y-107370886D01*
X166635208Y-107488796D01*
X166425103Y-107641445D01*
X166425098Y-107641449D01*
X166241449Y-107825098D01*
X166241445Y-107825103D01*
X166088796Y-108035208D01*
X165970883Y-108266622D01*
X165890629Y-108513622D01*
X165850000Y-108770142D01*
X165190500Y-108770142D01*
X165190500Y-106780808D01*
X165210185Y-106713769D01*
X165226819Y-106693127D01*
X165856233Y-106063713D01*
X173149500Y-106063713D01*
X173149500Y-106276286D01*
X173182753Y-106486239D01*
X173248444Y-106688414D01*
X173344951Y-106877820D01*
X173469890Y-107049786D01*
X173620213Y-107200109D01*
X173792179Y-107325048D01*
X173792181Y-107325049D01*
X173792184Y-107325051D01*
X173892446Y-107376136D01*
X173943241Y-107424110D01*
X173950490Y-107453384D01*
X174500000Y-108002894D01*
X174500001Y-108002894D01*
X175047978Y-107454915D01*
X175050328Y-107436729D01*
X175095322Y-107383276D01*
X175107541Y-107376143D01*
X175207816Y-107325051D01*
X175269210Y-107280446D01*
X175379786Y-107200109D01*
X175379788Y-107200106D01*
X175379792Y-107200104D01*
X175530104Y-107049792D01*
X175530106Y-107049788D01*
X175530109Y-107049786D01*
X175655048Y-106877820D01*
X175655047Y-106877820D01*
X175655051Y-106877816D01*
X175751557Y-106688412D01*
X175817246Y-106486243D01*
X175850500Y-106276287D01*
X175850500Y-106063713D01*
X175817246Y-105853757D01*
X175751557Y-105651588D01*
X175655051Y-105462184D01*
X175655049Y-105462181D01*
X175655048Y-105462179D01*
X175530109Y-105290213D01*
X175379786Y-105139890D01*
X175207820Y-105014951D01*
X175018414Y-104918444D01*
X175018413Y-104918443D01*
X175018412Y-104918443D01*
X174816243Y-104852754D01*
X174816241Y-104852753D01*
X174816240Y-104852753D01*
X174654957Y-104827208D01*
X174606287Y-104819500D01*
X174393713Y-104819500D01*
X174345042Y-104827208D01*
X174183760Y-104852753D01*
X174183757Y-104852754D01*
X173996269Y-104913673D01*
X173981585Y-104918444D01*
X173792179Y-105014951D01*
X173620213Y-105139890D01*
X173469890Y-105290213D01*
X173344951Y-105462179D01*
X173248444Y-105651585D01*
X173182753Y-105853760D01*
X173149500Y-106063713D01*
X165856233Y-106063713D01*
X167255273Y-104664673D01*
X167255277Y-104664669D01*
X167326465Y-104558127D01*
X167375501Y-104439744D01*
X167387548Y-104379179D01*
X167400500Y-104314069D01*
X167400500Y-95935931D01*
X167400500Y-95935928D01*
X167375502Y-95810261D01*
X167375501Y-95810260D01*
X167375501Y-95810256D01*
X167348357Y-95744724D01*
X167326466Y-95691874D01*
X167255277Y-95585331D01*
X167255272Y-95585325D01*
X157436819Y-85766872D01*
X157403334Y-85705549D01*
X157400500Y-85679191D01*
X157400500Y-69685928D01*
X157375502Y-69560261D01*
X157375501Y-69560260D01*
X157375501Y-69560256D01*
X157326465Y-69441873D01*
X157255277Y-69335331D01*
X157255275Y-69335329D01*
X157255273Y-69335326D01*
X152286818Y-64366871D01*
X152253333Y-64305548D01*
X152250499Y-64279190D01*
X152250499Y-63802129D01*
X152250498Y-63802123D01*
X152250497Y-63802116D01*
X152244091Y-63742517D01*
X152234014Y-63715500D01*
X152193797Y-63607671D01*
X152193793Y-63607664D01*
X152107547Y-63492455D01*
X152107544Y-63492452D01*
X151992335Y-63406206D01*
X151992328Y-63406202D01*
X151857482Y-63355908D01*
X151857483Y-63355908D01*
X151797883Y-63349501D01*
X151797881Y-63349500D01*
X151797873Y-63349500D01*
X151797864Y-63349500D01*
X149702129Y-63349500D01*
X149702123Y-63349501D01*
X149642516Y-63355908D01*
X149507671Y-63406202D01*
X149507669Y-63406203D01*
X149443810Y-63454009D01*
X149378346Y-63478426D01*
X149310073Y-63463575D01*
X149260667Y-63414170D01*
X149245499Y-63354742D01*
X149245499Y-63127129D01*
X149245498Y-63127123D01*
X149239091Y-63067516D01*
X149223787Y-63026484D01*
X149218803Y-62956792D01*
X149252288Y-62895469D01*
X149313612Y-62861985D01*
X149383303Y-62866970D01*
X149414277Y-62883883D01*
X149507665Y-62953793D01*
X149507668Y-62953795D01*
X149507671Y-62953797D01*
X149642517Y-63004091D01*
X149642516Y-63004091D01*
X149649444Y-63004835D01*
X149702127Y-63010500D01*
X151797872Y-63010499D01*
X151857483Y-63004091D01*
X151992331Y-62953796D01*
X152107546Y-62867546D01*
X152193796Y-62752331D01*
X152201149Y-62732615D01*
X152235258Y-62641167D01*
X152277129Y-62585233D01*
X152342593Y-62560816D01*
X152351440Y-62560500D01*
X154089192Y-62560500D01*
X154156231Y-62580185D01*
X154176873Y-62596819D01*
X155682984Y-64102930D01*
X155716469Y-64164253D01*
X155716920Y-64166420D01*
X155730261Y-64233489D01*
X155730264Y-64233501D01*
X155790602Y-64379172D01*
X155790609Y-64379185D01*
X155878210Y-64510288D01*
X155878213Y-64510292D01*
X155989707Y-64621786D01*
X155989711Y-64621789D01*
X156120814Y-64709390D01*
X156120827Y-64709397D01*
X156266498Y-64769735D01*
X156266503Y-64769737D01*
X156421153Y-64800499D01*
X156421156Y-64800500D01*
X156421158Y-64800500D01*
X156578844Y-64800500D01*
X156578845Y-64800499D01*
X156733497Y-64769737D01*
X156879179Y-64709394D01*
X157010289Y-64621789D01*
X157121789Y-64510289D01*
X157209394Y-64379179D01*
X157269737Y-64233497D01*
X157300500Y-64078842D01*
X157300500Y-63921158D01*
X157300500Y-63921155D01*
X157300499Y-63921153D01*
X157280341Y-63819815D01*
X157269737Y-63766503D01*
X157233904Y-63679993D01*
X157209397Y-63620827D01*
X157209390Y-63620814D01*
X157121789Y-63489711D01*
X157121786Y-63489707D01*
X157010292Y-63378213D01*
X157010288Y-63378210D01*
X156879185Y-63290609D01*
X156879172Y-63290602D01*
X156733501Y-63230264D01*
X156733489Y-63230261D01*
X156666420Y-63216920D01*
X156604509Y-63184535D01*
X156602930Y-63182984D01*
X154824674Y-61404727D01*
X154824673Y-61404726D01*
X154824669Y-61404723D01*
X154718127Y-61333535D01*
X154599744Y-61284499D01*
X154599738Y-61284497D01*
X154474071Y-61259500D01*
X154474069Y-61259500D01*
X152351440Y-61259500D01*
X152284401Y-61239815D01*
X152238646Y-61187011D01*
X152235258Y-61178833D01*
X152193797Y-61067671D01*
X152193793Y-61067664D01*
X152107547Y-60952455D01*
X152107544Y-60952452D01*
X151992335Y-60866206D01*
X151992328Y-60866202D01*
X151857482Y-60815908D01*
X151857483Y-60815908D01*
X151797883Y-60809501D01*
X151797881Y-60809500D01*
X151797873Y-60809500D01*
X151797864Y-60809500D01*
X149702129Y-60809500D01*
X149702123Y-60809501D01*
X149642516Y-60815908D01*
X149507671Y-60866202D01*
X149507669Y-60866203D01*
X149443810Y-60914009D01*
X149378346Y-60938426D01*
X149310073Y-60923575D01*
X149260667Y-60874170D01*
X149245499Y-60814742D01*
X149245499Y-60597129D01*
X149245498Y-60597123D01*
X149239091Y-60537516D01*
X149218612Y-60482610D01*
X149213628Y-60412919D01*
X149247113Y-60351596D01*
X149308436Y-60318111D01*
X149378128Y-60323095D01*
X149409102Y-60340009D01*
X149507665Y-60413793D01*
X149507668Y-60413795D01*
X149507671Y-60413797D01*
X149642517Y-60464091D01*
X149642516Y-60464091D01*
X149649444Y-60464835D01*
X149702127Y-60470500D01*
X151797872Y-60470499D01*
X151857483Y-60464091D01*
X151992331Y-60413796D01*
X152107546Y-60327546D01*
X152193796Y-60212331D01*
X152214796Y-60156028D01*
X152235258Y-60101167D01*
X152248527Y-60083440D01*
X152257727Y-60063297D01*
X152269057Y-60056015D01*
X152277129Y-60045233D01*
X152297877Y-60037494D01*
X152316505Y-60025523D01*
X152338421Y-60022371D01*
X152342593Y-60020816D01*
X152351440Y-60020500D01*
X152549192Y-60020500D01*
X152616231Y-60040185D01*
X152636873Y-60056819D01*
X152682984Y-60102930D01*
X152716469Y-60164253D01*
X152716920Y-60166420D01*
X152730261Y-60233489D01*
X152730264Y-60233501D01*
X152790602Y-60379172D01*
X152790609Y-60379185D01*
X152878210Y-60510288D01*
X152878213Y-60510292D01*
X152989707Y-60621786D01*
X152989711Y-60621789D01*
X153120814Y-60709390D01*
X153120827Y-60709397D01*
X153266498Y-60769735D01*
X153266503Y-60769737D01*
X153421153Y-60800499D01*
X153421156Y-60800500D01*
X153421158Y-60800500D01*
X153578844Y-60800500D01*
X153578845Y-60800499D01*
X153733497Y-60769737D01*
X153879179Y-60709394D01*
X154010289Y-60621789D01*
X154121789Y-60510289D01*
X154209394Y-60379179D01*
X154269737Y-60233497D01*
X154300500Y-60078842D01*
X154300500Y-59921158D01*
X154300500Y-59921155D01*
X154300499Y-59921153D01*
X154274899Y-59792454D01*
X154269737Y-59766503D01*
X154269735Y-59766498D01*
X154209397Y-59620827D01*
X154209390Y-59620814D01*
X154121789Y-59489711D01*
X154121786Y-59489707D01*
X154010292Y-59378213D01*
X154010288Y-59378210D01*
X153879185Y-59290609D01*
X153879172Y-59290602D01*
X153733501Y-59230264D01*
X153733489Y-59230261D01*
X153666420Y-59216920D01*
X153604509Y-59184535D01*
X153602930Y-59182984D01*
X153284674Y-58864727D01*
X153284673Y-58864726D01*
X153284669Y-58864723D01*
X153178127Y-58793535D01*
X153121837Y-58770219D01*
X153059744Y-58744499D01*
X153059738Y-58744497D01*
X152934071Y-58719500D01*
X152934069Y-58719500D01*
X152351440Y-58719500D01*
X152284401Y-58699815D01*
X152238646Y-58647011D01*
X152235258Y-58638833D01*
X152193797Y-58527671D01*
X152193793Y-58527664D01*
X152107547Y-58412455D01*
X152107544Y-58412452D01*
X151992335Y-58326206D01*
X151992328Y-58326202D01*
X151857482Y-58275908D01*
X151857483Y-58275908D01*
X151797883Y-58269501D01*
X151797881Y-58269500D01*
X151797873Y-58269500D01*
X151797864Y-58269500D01*
X149702129Y-58269500D01*
X149702123Y-58269501D01*
X149642516Y-58275908D01*
X149507671Y-58326202D01*
X149507669Y-58326203D01*
X149443810Y-58374009D01*
X149378346Y-58398426D01*
X149310073Y-58383575D01*
X149260667Y-58334170D01*
X149245499Y-58274742D01*
X149245499Y-58057129D01*
X149245498Y-58057123D01*
X149244596Y-58048735D01*
X149239091Y-57997517D01*
X149237807Y-57994075D01*
X149218612Y-57942610D01*
X149213628Y-57872919D01*
X149247113Y-57811596D01*
X149308436Y-57778111D01*
X149378128Y-57783095D01*
X149409102Y-57800009D01*
X149507665Y-57873793D01*
X149507668Y-57873795D01*
X149507671Y-57873797D01*
X149642517Y-57924091D01*
X149642516Y-57924091D01*
X149648256Y-57924708D01*
X149702127Y-57930500D01*
X151797872Y-57930499D01*
X151857483Y-57924091D01*
X151992331Y-57873796D01*
X152107546Y-57787546D01*
X152193796Y-57672331D01*
X152244091Y-57537483D01*
X152250500Y-57477873D01*
X152250499Y-56182128D01*
X152244091Y-56122517D01*
X152225946Y-56073869D01*
X152193797Y-55987671D01*
X152193793Y-55987664D01*
X152107547Y-55872455D01*
X152107544Y-55872452D01*
X151992335Y-55786206D01*
X151992328Y-55786202D01*
X151857482Y-55735908D01*
X151857483Y-55735908D01*
X151797883Y-55729501D01*
X151797881Y-55729500D01*
X151797873Y-55729500D01*
X151797865Y-55729500D01*
X150620808Y-55729500D01*
X150553769Y-55709815D01*
X150533127Y-55693181D01*
X150286319Y-55446373D01*
X150255537Y-55390000D01*
X151250000Y-55390000D01*
X151797828Y-55390000D01*
X151797844Y-55389999D01*
X151857372Y-55383598D01*
X151857379Y-55383596D01*
X151992086Y-55333354D01*
X151992093Y-55333350D01*
X152107187Y-55247190D01*
X152107190Y-55247187D01*
X152193350Y-55132093D01*
X152193354Y-55132086D01*
X152243596Y-54997379D01*
X152243598Y-54997372D01*
X152249999Y-54937844D01*
X152250000Y-54937827D01*
X152250000Y-54790000D01*
X151250000Y-54790000D01*
X151250000Y-55390000D01*
X150255537Y-55390000D01*
X150252834Y-55385050D01*
X150250000Y-55358692D01*
X150250000Y-54790000D01*
X149250000Y-54790000D01*
X149226819Y-54813181D01*
X149165496Y-54846666D01*
X149139138Y-54849500D01*
X138685929Y-54849500D01*
X138560261Y-54874497D01*
X138560255Y-54874499D01*
X138441875Y-54923533D01*
X138441866Y-54923538D01*
X138335331Y-54994723D01*
X138335327Y-54994726D01*
X137494722Y-55835331D01*
X137483490Y-55852141D01*
X137472307Y-55868880D01*
X137452771Y-55898117D01*
X137423534Y-55941873D01*
X137374499Y-56060255D01*
X137374497Y-56060261D01*
X137349500Y-56185928D01*
X137349500Y-57102242D01*
X137343564Y-57122455D01*
X137342437Y-57143495D01*
X137333917Y-57155309D01*
X137329815Y-57169281D01*
X137313894Y-57183076D01*
X137301570Y-57200167D01*
X137288016Y-57205499D01*
X137277011Y-57215036D01*
X137256156Y-57218034D01*
X137236552Y-57225748D01*
X137211755Y-57224418D01*
X137207853Y-57224980D01*
X137201309Y-57223859D01*
X137078150Y-57199361D01*
X137016239Y-57166976D01*
X137014660Y-57165425D01*
X136317590Y-56468355D01*
X136317588Y-56468352D01*
X136198717Y-56349481D01*
X136198716Y-56349480D01*
X136111904Y-56299360D01*
X136111904Y-56299359D01*
X136111900Y-56299358D01*
X136061785Y-56270423D01*
X135909057Y-56229499D01*
X135750943Y-56229499D01*
X135743347Y-56229499D01*
X135743331Y-56229500D01*
X135366977Y-56229500D01*
X135299938Y-56209815D01*
X135254183Y-56157011D01*
X135246733Y-56129865D01*
X135245876Y-56130068D01*
X135244092Y-56122520D01*
X135193797Y-55987671D01*
X135193793Y-55987664D01*
X135107547Y-55872455D01*
X135107544Y-55872452D01*
X134992335Y-55786206D01*
X134992328Y-55786202D01*
X134857482Y-55735908D01*
X134857483Y-55735908D01*
X134797883Y-55729501D01*
X134797881Y-55729500D01*
X134797873Y-55729500D01*
X134797864Y-55729500D01*
X132702129Y-55729500D01*
X132702123Y-55729501D01*
X132642516Y-55735908D01*
X132507671Y-55786202D01*
X132507664Y-55786206D01*
X132392455Y-55872452D01*
X132392452Y-55872455D01*
X132306206Y-55987664D01*
X132306202Y-55987671D01*
X132255908Y-56122517D01*
X132252200Y-56157011D01*
X132249501Y-56182123D01*
X132249500Y-56182135D01*
X132249500Y-57477870D01*
X132249501Y-57477876D01*
X132255908Y-57537483D01*
X132306202Y-57672328D01*
X132306206Y-57672335D01*
X132392452Y-57787544D01*
X132392455Y-57787547D01*
X132507664Y-57873793D01*
X132507671Y-57873797D01*
X132642517Y-57924091D01*
X132642516Y-57924091D01*
X132648256Y-57924708D01*
X132702127Y-57930500D01*
X134797872Y-57930499D01*
X134857483Y-57924091D01*
X134992331Y-57873796D01*
X135107546Y-57787546D01*
X135193796Y-57672331D01*
X135244091Y-57537483D01*
X135244091Y-57537481D01*
X135244238Y-57536858D01*
X135244238Y-57536853D01*
X135244242Y-57536843D01*
X135245874Y-57529938D01*
X135247247Y-57530262D01*
X135257869Y-57507003D01*
X135270429Y-57476688D01*
X135272311Y-57475381D01*
X135273263Y-57473297D01*
X135300861Y-57455560D01*
X135327823Y-57436843D01*
X135330716Y-57436374D01*
X135332041Y-57435523D01*
X135366976Y-57430500D01*
X135529903Y-57430500D01*
X135596942Y-57450185D01*
X135617584Y-57466819D01*
X136165425Y-58014660D01*
X136198910Y-58075983D01*
X136199361Y-58078149D01*
X136230261Y-58233491D01*
X136230264Y-58233501D01*
X136290602Y-58379172D01*
X136290609Y-58379185D01*
X136378210Y-58510288D01*
X136378213Y-58510292D01*
X136425739Y-58557818D01*
X136436349Y-58577249D01*
X136450851Y-58593985D01*
X136452768Y-58607318D01*
X136459224Y-58619141D01*
X136457644Y-58641227D01*
X136460796Y-58663144D01*
X136455200Y-58675395D01*
X136454240Y-58688833D01*
X136440969Y-58706560D01*
X136431772Y-58726700D01*
X136420440Y-58733982D01*
X136412368Y-58744766D01*
X136391621Y-58752504D01*
X136372995Y-58764475D01*
X136351075Y-58767627D01*
X136346904Y-58769183D01*
X136338060Y-58769499D01*
X136290943Y-58769499D01*
X136290939Y-58769499D01*
X136283333Y-58769500D01*
X136283332Y-58769499D01*
X136283331Y-58769500D01*
X135366977Y-58769500D01*
X135299938Y-58749815D01*
X135254183Y-58697011D01*
X135246733Y-58669865D01*
X135245876Y-58670068D01*
X135244092Y-58662520D01*
X135193797Y-58527671D01*
X135193793Y-58527664D01*
X135107547Y-58412455D01*
X135107544Y-58412452D01*
X134992335Y-58326206D01*
X134992328Y-58326202D01*
X134857482Y-58275908D01*
X134857483Y-58275908D01*
X134797883Y-58269501D01*
X134797881Y-58269500D01*
X134797873Y-58269500D01*
X134797864Y-58269500D01*
X132702129Y-58269500D01*
X132702123Y-58269501D01*
X132642516Y-58275908D01*
X132507671Y-58326202D01*
X132507664Y-58326206D01*
X132392455Y-58412452D01*
X132392452Y-58412455D01*
X132306206Y-58527664D01*
X132306202Y-58527671D01*
X132255908Y-58662517D01*
X132249501Y-58722116D01*
X132249500Y-58722135D01*
X132249501Y-59975500D01*
X132229816Y-60042539D01*
X132177013Y-60088294D01*
X132125501Y-60099500D01*
X129451440Y-60099500D01*
X129384401Y-60079815D01*
X129338646Y-60027011D01*
X129335258Y-60018833D01*
X129293797Y-59907671D01*
X129293793Y-59907664D01*
X129207547Y-59792455D01*
X129207544Y-59792452D01*
X129092335Y-59706206D01*
X129092328Y-59706202D01*
X128957482Y-59655908D01*
X128957483Y-59655908D01*
X128897883Y-59649501D01*
X128897881Y-59649500D01*
X128897873Y-59649500D01*
X128897865Y-59649500D01*
X128533756Y-59649500D01*
X128466717Y-59629815D01*
X128446075Y-59613181D01*
X127734128Y-58901234D01*
X127720263Y-58875843D01*
X127807007Y-58925925D01*
X127934174Y-58960000D01*
X128065826Y-58960000D01*
X128192993Y-58925925D01*
X128307007Y-58860099D01*
X128400099Y-58767007D01*
X128465925Y-58652993D01*
X128500000Y-58525826D01*
X128500000Y-58459999D01*
X128707106Y-58459999D01*
X128707106Y-58460000D01*
X129242395Y-58995290D01*
X129242395Y-58995289D01*
X129251093Y-58978220D01*
X129251094Y-58978218D01*
X129316757Y-58776130D01*
X129316757Y-58776127D01*
X129350000Y-58566246D01*
X129350000Y-58353753D01*
X129316757Y-58143872D01*
X129316757Y-58143869D01*
X129251094Y-57941781D01*
X129251094Y-57941780D01*
X129242396Y-57924708D01*
X128707106Y-58459999D01*
X128500000Y-58459999D01*
X128500000Y-58394174D01*
X128465925Y-58267007D01*
X128400099Y-58152993D01*
X128307007Y-58059901D01*
X128192993Y-57994075D01*
X128065826Y-57960000D01*
X127934174Y-57960000D01*
X127807007Y-57994075D01*
X127716362Y-58046408D01*
X127734128Y-58018766D01*
X128547978Y-57204915D01*
X128550328Y-57186729D01*
X128595322Y-57133276D01*
X128607541Y-57126143D01*
X128707816Y-57075051D01*
X128759255Y-57037678D01*
X128879786Y-56950109D01*
X128879788Y-56950106D01*
X128879792Y-56950104D01*
X129030104Y-56799792D01*
X129030106Y-56799788D01*
X129030109Y-56799786D01*
X129155048Y-56627820D01*
X129155047Y-56627820D01*
X129155051Y-56627816D01*
X129251557Y-56438412D01*
X129317246Y-56236243D01*
X129350500Y-56026287D01*
X129350500Y-55813713D01*
X129334044Y-55709815D01*
X129316484Y-55598945D01*
X129318126Y-55598684D01*
X129321254Y-55536137D01*
X129350657Y-55489288D01*
X129863127Y-54976819D01*
X129924450Y-54943334D01*
X129950808Y-54940500D01*
X132148560Y-54940500D01*
X132215599Y-54960185D01*
X132261354Y-55012989D01*
X132264742Y-55021167D01*
X132306202Y-55132328D01*
X132306206Y-55132335D01*
X132392452Y-55247544D01*
X132392455Y-55247547D01*
X132507664Y-55333793D01*
X132507671Y-55333797D01*
X132642517Y-55384091D01*
X132642516Y-55384091D01*
X132649444Y-55384835D01*
X132702127Y-55390500D01*
X134797872Y-55390499D01*
X134857483Y-55384091D01*
X134992331Y-55333796D01*
X135107546Y-55247546D01*
X135193796Y-55132331D01*
X135244091Y-54997483D01*
X135250500Y-54937873D01*
X135250499Y-53642155D01*
X149250000Y-53642155D01*
X149250000Y-53790000D01*
X150250000Y-53790000D01*
X151250000Y-53790000D01*
X152250000Y-53790000D01*
X152250000Y-53765212D01*
X159000000Y-53765212D01*
X159000000Y-55500000D01*
X160839340Y-55500000D01*
X160817437Y-55521903D01*
X160735359Y-55644742D01*
X160678822Y-55781233D01*
X160650000Y-55926131D01*
X160650000Y-56073869D01*
X160678822Y-56218767D01*
X160735359Y-56355258D01*
X160817437Y-56478097D01*
X160839340Y-56500000D01*
X159000000Y-56500000D01*
X159000000Y-58234787D01*
X159030178Y-58502633D01*
X159030181Y-58502651D01*
X159090163Y-58765451D01*
X159090167Y-58765463D01*
X159179192Y-59019881D01*
X159179198Y-59019895D01*
X159296152Y-59262752D01*
X159439568Y-59490998D01*
X159607638Y-59701751D01*
X159798248Y-59892361D01*
X160009001Y-60060431D01*
X160237247Y-60203847D01*
X160480104Y-60320801D01*
X160480118Y-60320807D01*
X160734536Y-60409832D01*
X160734548Y-60409836D01*
X160899999Y-60447599D01*
X160900000Y-60447599D01*
X160900000Y-56560660D01*
X160921903Y-56582563D01*
X161044742Y-56664641D01*
X161181233Y-56721178D01*
X161326131Y-56750000D01*
X161473869Y-56750000D01*
X161618767Y-56721178D01*
X161755258Y-56664641D01*
X161878097Y-56582563D01*
X161900000Y-56560660D01*
X161900000Y-60447599D01*
X162065451Y-60409836D01*
X162065463Y-60409832D01*
X162319881Y-60320807D01*
X162319895Y-60320801D01*
X162562752Y-60203847D01*
X162790998Y-60060431D01*
X163001751Y-59892361D01*
X163192361Y-59701751D01*
X163360431Y-59490998D01*
X163503847Y-59262752D01*
X163620801Y-59019895D01*
X163620807Y-59019881D01*
X163709832Y-58765463D01*
X163709836Y-58765451D01*
X163769818Y-58502651D01*
X163769821Y-58502633D01*
X163799999Y-58234787D01*
X163800000Y-58234783D01*
X163800000Y-56500000D01*
X161960660Y-56500000D01*
X161982563Y-56478097D01*
X162064641Y-56355258D01*
X162121178Y-56218767D01*
X162150000Y-56073869D01*
X162150000Y-55926131D01*
X162121178Y-55781233D01*
X162064641Y-55644742D01*
X161982563Y-55521903D01*
X161960660Y-55500000D01*
X163800000Y-55500000D01*
X163800000Y-53765214D01*
X163799997Y-53765186D01*
X166199500Y-53765186D01*
X166199500Y-58234813D01*
X166229686Y-58502719D01*
X166229688Y-58502731D01*
X166289684Y-58765594D01*
X166289687Y-58765602D01*
X166378734Y-59020082D01*
X166495714Y-59262994D01*
X166495716Y-59262997D01*
X166639162Y-59491289D01*
X166713261Y-59584206D01*
X166806999Y-59701751D01*
X166807266Y-59702085D01*
X166997915Y-59892734D01*
X167208711Y-60060838D01*
X167413863Y-60189744D01*
X167437005Y-60204285D01*
X167453713Y-60212331D01*
X167679921Y-60321267D01*
X167845442Y-60379185D01*
X167934397Y-60410312D01*
X167934405Y-60410315D01*
X167934408Y-60410315D01*
X167934409Y-60410316D01*
X168197268Y-60470312D01*
X168465187Y-60500499D01*
X168465188Y-60500500D01*
X168465191Y-60500500D01*
X168734812Y-60500500D01*
X168734812Y-60500499D01*
X169002732Y-60470312D01*
X169265591Y-60410316D01*
X169520079Y-60321267D01*
X169762997Y-60204284D01*
X169809556Y-60175028D01*
X169876787Y-60156028D01*
X169943623Y-60176394D01*
X169963207Y-60192341D01*
X171697960Y-61927094D01*
X171741688Y-61975876D01*
X171751274Y-61986273D01*
X171751713Y-61986736D01*
X171801342Y-62032523D01*
X171806375Y-62035509D01*
X171815745Y-62044879D01*
X178548143Y-68777278D01*
X178548150Y-68777284D01*
X178665868Y-68867611D01*
X178665869Y-68867612D01*
X178756198Y-68936925D01*
X178756201Y-68936927D01*
X178897392Y-69018443D01*
X178897393Y-69018443D01*
X178983299Y-69068041D01*
X178983300Y-69068041D01*
X178983303Y-69068043D01*
X179225581Y-69168398D01*
X179478884Y-69236271D01*
X179600853Y-69252328D01*
X179738880Y-69270500D01*
X179875500Y-69270500D01*
X179942539Y-69290185D01*
X179988294Y-69342989D01*
X179999500Y-69394500D01*
X179999500Y-71245500D01*
X179979815Y-71312539D01*
X179927011Y-71358294D01*
X179875500Y-71369500D01*
X178891303Y-71369500D01*
X178717341Y-71404103D01*
X178717329Y-71404106D01*
X178635392Y-71438045D01*
X178635393Y-71438046D01*
X178553455Y-71471985D01*
X178479268Y-71521556D01*
X178405961Y-71570537D01*
X175550537Y-74425961D01*
X175512563Y-74482794D01*
X175512555Y-74482805D01*
X175511063Y-74485040D01*
X175451987Y-74573453D01*
X175443561Y-74593796D01*
X175439938Y-74602540D01*
X175439938Y-74602542D01*
X175384105Y-74737333D01*
X175384103Y-74737341D01*
X175349500Y-74911303D01*
X175349500Y-80838695D01*
X175384103Y-81012658D01*
X175384106Y-81012667D01*
X175451983Y-81176540D01*
X175451990Y-81176553D01*
X175550535Y-81324034D01*
X175550538Y-81324038D01*
X175675961Y-81449461D01*
X175675965Y-81449464D01*
X175823446Y-81548009D01*
X175823459Y-81548016D01*
X175946363Y-81598923D01*
X175987334Y-81615894D01*
X175987336Y-81615894D01*
X175987341Y-81615896D01*
X176161304Y-81650499D01*
X176161307Y-81650500D01*
X176161309Y-81650500D01*
X176338693Y-81650500D01*
X176338694Y-81650499D01*
X176396682Y-81638964D01*
X176512658Y-81615896D01*
X176512661Y-81615894D01*
X176512666Y-81615894D01*
X176676547Y-81548013D01*
X176824035Y-81449464D01*
X176949464Y-81324035D01*
X177048013Y-81176547D01*
X177115894Y-81012666D01*
X177122707Y-80978418D01*
X177149255Y-80844949D01*
X177150500Y-80838691D01*
X177150500Y-75854298D01*
X179999500Y-75854298D01*
X179999500Y-78685701D01*
X180002401Y-78722567D01*
X180002402Y-78722573D01*
X180048254Y-78880393D01*
X180048255Y-78880396D01*
X180131917Y-79021862D01*
X180131923Y-79021870D01*
X180248129Y-79138076D01*
X180248133Y-79138079D01*
X180248135Y-79138081D01*
X180389602Y-79221744D01*
X180418924Y-79230263D01*
X180547426Y-79267597D01*
X180547429Y-79267597D01*
X180547431Y-79267598D01*
X180584306Y-79270500D01*
X180584314Y-79270500D01*
X183415686Y-79270500D01*
X183415694Y-79270500D01*
X183452569Y-79267598D01*
X183452571Y-79267597D01*
X183452573Y-79267597D01*
X183494191Y-79255505D01*
X183610398Y-79221744D01*
X183751865Y-79138081D01*
X183868081Y-79021865D01*
X183951744Y-78880398D01*
X183997598Y-78722569D01*
X184000500Y-78685694D01*
X184000500Y-75854306D01*
X183997598Y-75817431D01*
X183951744Y-75659602D01*
X183868081Y-75518135D01*
X183868079Y-75518133D01*
X183868076Y-75518129D01*
X183751870Y-75401923D01*
X183751862Y-75401917D01*
X183610396Y-75318255D01*
X183610393Y-75318254D01*
X183452573Y-75272402D01*
X183452567Y-75272401D01*
X183415701Y-75269500D01*
X183415694Y-75269500D01*
X180584306Y-75269500D01*
X180584298Y-75269500D01*
X180547432Y-75272401D01*
X180547426Y-75272402D01*
X180389606Y-75318254D01*
X180389603Y-75318255D01*
X180248137Y-75401917D01*
X180248129Y-75401923D01*
X180131923Y-75518129D01*
X180131917Y-75518137D01*
X180048255Y-75659603D01*
X180048254Y-75659606D01*
X180002402Y-75817426D01*
X180002401Y-75817432D01*
X179999500Y-75854298D01*
X177150500Y-75854298D01*
X177150500Y-75424362D01*
X177170185Y-75357323D01*
X177186819Y-75336681D01*
X179316681Y-73206819D01*
X179378004Y-73173334D01*
X179404362Y-73170500D01*
X179875500Y-73170500D01*
X179942539Y-73190185D01*
X179988294Y-73242989D01*
X179999500Y-73294500D01*
X179999500Y-73685701D01*
X180002401Y-73722567D01*
X180002402Y-73722573D01*
X180048254Y-73880393D01*
X180048255Y-73880396D01*
X180131917Y-74021862D01*
X180131923Y-74021870D01*
X180248129Y-74138076D01*
X180248133Y-74138079D01*
X180248135Y-74138081D01*
X180389602Y-74221744D01*
X180419926Y-74230554D01*
X180547426Y-74267597D01*
X180547429Y-74267597D01*
X180547431Y-74267598D01*
X180584306Y-74270500D01*
X180584314Y-74270500D01*
X183415686Y-74270500D01*
X183415694Y-74270500D01*
X183452569Y-74267598D01*
X183452571Y-74267597D01*
X183452573Y-74267597D01*
X183526114Y-74246231D01*
X183610398Y-74221744D01*
X183751865Y-74138081D01*
X183868081Y-74021865D01*
X183951744Y-73880398D01*
X183997598Y-73722569D01*
X184000500Y-73685694D01*
X184000500Y-70854306D01*
X184000500Y-67138880D01*
X184000500Y-65854306D01*
X183997598Y-65817431D01*
X183995534Y-65810327D01*
X183957325Y-65678813D01*
X183951744Y-65659602D01*
X183868081Y-65518135D01*
X183868079Y-65518133D01*
X183868076Y-65518129D01*
X183751870Y-65401923D01*
X183751862Y-65401917D01*
X183610396Y-65318255D01*
X183610393Y-65318254D01*
X183452573Y-65272402D01*
X183452567Y-65272401D01*
X183415701Y-65269500D01*
X183415694Y-65269500D01*
X182131120Y-65269500D01*
X180749996Y-65269500D01*
X180682957Y-65249815D01*
X180662315Y-65233181D01*
X180267762Y-64838628D01*
X180234277Y-64777305D01*
X180239261Y-64707613D01*
X180281133Y-64651680D01*
X180346597Y-64627263D01*
X180390038Y-64631871D01*
X180547426Y-64677597D01*
X180547429Y-64677597D01*
X180547431Y-64677598D01*
X180584306Y-64680500D01*
X180584314Y-64680500D01*
X183415686Y-64680500D01*
X183415694Y-64680500D01*
X183452569Y-64677598D01*
X183452571Y-64677597D01*
X183452573Y-64677597D01*
X183541778Y-64651680D01*
X183610398Y-64631744D01*
X183751865Y-64548081D01*
X183868081Y-64431865D01*
X183951744Y-64290398D01*
X183997598Y-64132569D01*
X184000500Y-64095694D01*
X184000500Y-61264306D01*
X183997598Y-61227431D01*
X183951744Y-61069602D01*
X183868081Y-60928135D01*
X183868079Y-60928133D01*
X183868076Y-60928129D01*
X183751870Y-60811923D01*
X183751862Y-60811917D01*
X183610396Y-60728255D01*
X183610393Y-60728254D01*
X183452573Y-60682402D01*
X183452567Y-60682401D01*
X183415701Y-60679500D01*
X183415694Y-60679500D01*
X180584306Y-60679500D01*
X180584298Y-60679500D01*
X180547432Y-60682401D01*
X180547426Y-60682402D01*
X180389606Y-60728254D01*
X180389603Y-60728255D01*
X180248137Y-60811917D01*
X180248129Y-60811923D01*
X180131923Y-60928129D01*
X180131917Y-60928137D01*
X180048255Y-61069603D01*
X180048254Y-61069606D01*
X180002402Y-61227426D01*
X180002401Y-61227432D01*
X179999500Y-61264298D01*
X179999500Y-64095701D01*
X180002401Y-64132567D01*
X180002402Y-64132573D01*
X180048128Y-64289961D01*
X180047929Y-64359831D01*
X180009987Y-64418501D01*
X179946348Y-64447344D01*
X179877219Y-64437203D01*
X179841371Y-64412237D01*
X174609197Y-59180063D01*
X174584575Y-59149293D01*
X174486253Y-59057119D01*
X171209992Y-55780858D01*
X171187800Y-55750657D01*
X171117133Y-55615566D01*
X171111899Y-55604193D01*
X171054878Y-55461722D01*
X171049936Y-55446637D01*
X171042401Y-55417437D01*
X171020218Y-55331480D01*
X171016814Y-55311935D01*
X171004811Y-55182214D01*
X171002229Y-55166925D01*
X171000500Y-55146288D01*
X171000500Y-53765188D01*
X171000499Y-53765186D01*
X171000352Y-53763883D01*
X170970312Y-53497268D01*
X170910316Y-53234409D01*
X170897016Y-53196401D01*
X170850602Y-53063757D01*
X170821267Y-52979921D01*
X170704284Y-52737003D01*
X170560838Y-52508711D01*
X170392734Y-52297915D01*
X170202085Y-52107266D01*
X169991289Y-51939162D01*
X169762997Y-51795716D01*
X169762994Y-51795714D01*
X169520082Y-51678734D01*
X169265602Y-51589687D01*
X169265594Y-51589684D01*
X169068446Y-51544687D01*
X169002732Y-51529688D01*
X169002728Y-51529687D01*
X169002719Y-51529686D01*
X168734813Y-51499500D01*
X168734809Y-51499500D01*
X168465191Y-51499500D01*
X168465186Y-51499500D01*
X168197280Y-51529686D01*
X168197268Y-51529688D01*
X167934405Y-51589684D01*
X167934397Y-51589687D01*
X167679917Y-51678734D01*
X167437005Y-51795714D01*
X167208712Y-51939161D01*
X166997915Y-52107265D01*
X166807265Y-52297915D01*
X166639161Y-52508712D01*
X166495714Y-52737005D01*
X166378734Y-52979917D01*
X166289687Y-53234397D01*
X166289684Y-53234405D01*
X166229688Y-53497268D01*
X166229686Y-53497280D01*
X166199500Y-53765186D01*
X163799997Y-53765186D01*
X163769821Y-53497366D01*
X163769818Y-53497348D01*
X163709836Y-53234548D01*
X163709832Y-53234536D01*
X163620807Y-52980118D01*
X163620801Y-52980104D01*
X163503847Y-52737247D01*
X163360431Y-52509001D01*
X163192361Y-52298248D01*
X163001751Y-52107638D01*
X162790998Y-51939568D01*
X162562752Y-51796152D01*
X162319895Y-51679198D01*
X162319881Y-51679192D01*
X162065463Y-51590167D01*
X162065451Y-51590163D01*
X161900000Y-51552400D01*
X161900000Y-55439340D01*
X161878097Y-55417437D01*
X161755258Y-55335359D01*
X161618767Y-55278822D01*
X161473869Y-55250000D01*
X161326131Y-55250000D01*
X161181233Y-55278822D01*
X161044742Y-55335359D01*
X160921903Y-55417437D01*
X160900000Y-55439340D01*
X160900000Y-51552400D01*
X160899999Y-51552400D01*
X160734548Y-51590163D01*
X160734536Y-51590167D01*
X160480118Y-51679192D01*
X160480104Y-51679198D01*
X160237247Y-51796152D01*
X160009001Y-51939568D01*
X159798248Y-52107638D01*
X159607638Y-52298248D01*
X159439568Y-52509001D01*
X159296152Y-52737247D01*
X159179198Y-52980104D01*
X159179192Y-52980118D01*
X159090167Y-53234536D01*
X159090163Y-53234548D01*
X159030181Y-53497348D01*
X159030178Y-53497366D01*
X159000000Y-53765212D01*
X152250000Y-53765212D01*
X152250000Y-53642172D01*
X152249999Y-53642155D01*
X152243598Y-53582627D01*
X152243596Y-53582620D01*
X152193354Y-53447913D01*
X152193350Y-53447906D01*
X152107190Y-53332812D01*
X152107187Y-53332809D01*
X151992093Y-53246649D01*
X151992086Y-53246645D01*
X151857379Y-53196403D01*
X151857372Y-53196401D01*
X151797844Y-53190000D01*
X151250000Y-53190000D01*
X151250000Y-53790000D01*
X150250000Y-53790000D01*
X150250000Y-53190000D01*
X149702155Y-53190000D01*
X149642627Y-53196401D01*
X149642620Y-53196403D01*
X149507913Y-53246645D01*
X149507906Y-53246649D01*
X149392812Y-53332809D01*
X149392809Y-53332812D01*
X149306649Y-53447906D01*
X149306645Y-53447913D01*
X149256403Y-53582620D01*
X149256401Y-53582627D01*
X149250000Y-53642155D01*
X135250499Y-53642155D01*
X135250499Y-53642128D01*
X135244091Y-53582517D01*
X135235257Y-53558833D01*
X135193797Y-53447671D01*
X135193793Y-53447664D01*
X135107547Y-53332455D01*
X135107544Y-53332452D01*
X134992335Y-53246206D01*
X134992328Y-53246202D01*
X134857482Y-53195908D01*
X134857483Y-53195908D01*
X134797883Y-53189501D01*
X134797881Y-53189500D01*
X134797873Y-53189500D01*
X134797864Y-53189500D01*
X132702129Y-53189500D01*
X132702123Y-53189501D01*
X132642516Y-53195908D01*
X132507671Y-53246202D01*
X132507664Y-53246206D01*
X132392455Y-53332452D01*
X132392452Y-53332455D01*
X132306206Y-53447664D01*
X132306202Y-53447671D01*
X132264742Y-53558833D01*
X132222871Y-53614767D01*
X132157407Y-53639184D01*
X132148560Y-53639500D01*
X129565929Y-53639500D01*
X129492933Y-53654020D01*
X129423341Y-53647793D01*
X129368164Y-53604930D01*
X129344919Y-53539040D01*
X129346268Y-53513005D01*
X129348759Y-53497280D01*
X129350500Y-53486287D01*
X129350500Y-53273713D01*
X129337162Y-53189500D01*
X129316484Y-53058945D01*
X129318126Y-53058684D01*
X129321254Y-52996137D01*
X129350657Y-52949288D01*
X129601227Y-52698719D01*
X129863127Y-52436819D01*
X129924450Y-52403334D01*
X129950808Y-52400500D01*
X132148560Y-52400500D01*
X132215599Y-52420185D01*
X132261354Y-52472989D01*
X132264742Y-52481167D01*
X132306202Y-52592328D01*
X132306206Y-52592335D01*
X132392452Y-52707544D01*
X132392455Y-52707547D01*
X132507664Y-52793793D01*
X132507671Y-52793797D01*
X132642517Y-52844091D01*
X132642516Y-52844091D01*
X132649444Y-52844835D01*
X132702127Y-52850500D01*
X134797872Y-52850499D01*
X134857483Y-52844091D01*
X134992331Y-52793796D01*
X135107546Y-52707546D01*
X135193796Y-52592331D01*
X135244091Y-52457483D01*
X135250500Y-52397873D01*
X135250499Y-51102128D01*
X135244091Y-51042517D01*
X135235257Y-51018833D01*
X135193797Y-50907671D01*
X135193793Y-50907664D01*
X135107547Y-50792455D01*
X135107544Y-50792452D01*
X135015792Y-50723766D01*
X134973921Y-50667832D01*
X134968937Y-50598141D01*
X135002423Y-50536818D01*
X135063746Y-50503334D01*
X135090103Y-50500500D01*
X144935790Y-50500500D01*
X145002829Y-50520185D01*
G37*
%TD.AperFunction*%
%TA.AperFunction,Conductor*%
G36*
X152455702Y-69616094D02*
G01*
X152462180Y-69622126D01*
X155563181Y-72723127D01*
X155596666Y-72784450D01*
X155599500Y-72810808D01*
X155599500Y-84967440D01*
X155579815Y-85034479D01*
X155527011Y-85080234D01*
X155457853Y-85090178D01*
X155394297Y-85061153D01*
X155369962Y-85032537D01*
X155292319Y-84906659D01*
X155292316Y-84906655D01*
X155168345Y-84782684D01*
X155019124Y-84690643D01*
X155019119Y-84690641D01*
X154852697Y-84635494D01*
X154852690Y-84635493D01*
X154800000Y-84630110D01*
X154800000Y-87369887D01*
X154852696Y-87364505D01*
X155019119Y-87309358D01*
X155019124Y-87309356D01*
X155168345Y-87217315D01*
X155292315Y-87093345D01*
X155384356Y-86944124D01*
X155384358Y-86944119D01*
X155439505Y-86777697D01*
X155439506Y-86777690D01*
X155449999Y-86674986D01*
X155449999Y-86632359D01*
X155469682Y-86565319D01*
X155522485Y-86519563D01*
X155591643Y-86509618D01*
X155655200Y-86538641D01*
X155677101Y-86563465D01*
X155744724Y-86664671D01*
X155744727Y-86664674D01*
X165563181Y-96483127D01*
X165596666Y-96544450D01*
X165599500Y-96570808D01*
X165599500Y-101545293D01*
X165596334Y-101556072D01*
X165597542Y-101567242D01*
X165586666Y-101588998D01*
X165579815Y-101612332D01*
X165571325Y-101619688D01*
X165566302Y-101629738D01*
X165545390Y-101642161D01*
X165527011Y-101658087D01*
X165515891Y-101659685D01*
X165506233Y-101665424D01*
X165481927Y-101664569D01*
X165457853Y-101668031D01*
X165445818Y-101663299D01*
X165436406Y-101662969D01*
X165408446Y-101648607D01*
X165404836Y-101647188D01*
X165403675Y-101646382D01*
X165274022Y-101552185D01*
X165250728Y-101540316D01*
X165243836Y-101535536D01*
X165226953Y-101514609D01*
X165207408Y-101496149D01*
X165205061Y-101487474D01*
X165199965Y-101481157D01*
X165197710Y-101460299D01*
X165190500Y-101433641D01*
X165190500Y-97975928D01*
X165165502Y-97850260D01*
X165165500Y-97850254D01*
X165145189Y-97801221D01*
X165145187Y-97801216D01*
X165116468Y-97731878D01*
X165116462Y-97731868D01*
X165045278Y-97625332D01*
X165045272Y-97625325D01*
X155914673Y-88494726D01*
X155914669Y-88494723D01*
X155808127Y-88423535D01*
X155689744Y-88374499D01*
X155689738Y-88374497D01*
X155564071Y-88349500D01*
X155564069Y-88349500D01*
X151110808Y-88349500D01*
X151043769Y-88329815D01*
X151023127Y-88313181D01*
X150186819Y-87476873D01*
X150172115Y-87449945D01*
X150155523Y-87424127D01*
X150154631Y-87417926D01*
X150153334Y-87415550D01*
X150150500Y-87389192D01*
X150150500Y-87328340D01*
X150170185Y-87261301D01*
X150222989Y-87215546D01*
X150292147Y-87205602D01*
X150339591Y-87222798D01*
X150480666Y-87309814D01*
X150647203Y-87364999D01*
X150749991Y-87375500D01*
X151650008Y-87375499D01*
X151650016Y-87375498D01*
X151650019Y-87375498D01*
X151706302Y-87369748D01*
X151752797Y-87364999D01*
X151919334Y-87309814D01*
X152068656Y-87217712D01*
X152192712Y-87093656D01*
X152284814Y-86944334D01*
X152339999Y-86777797D01*
X152350500Y-86675009D01*
X152350500Y-86674986D01*
X153150001Y-86674986D01*
X153160494Y-86777697D01*
X153215641Y-86944119D01*
X153215643Y-86944124D01*
X153307684Y-87093345D01*
X153431654Y-87217315D01*
X153580875Y-87309356D01*
X153580880Y-87309358D01*
X153747303Y-87364505D01*
X153800000Y-87369888D01*
X153800000Y-86500000D01*
X153150001Y-86500000D01*
X153150001Y-86674986D01*
X152350500Y-86674986D01*
X152350499Y-85924951D01*
X152350499Y-85325013D01*
X153150000Y-85325013D01*
X153150000Y-85500000D01*
X153800000Y-85500000D01*
X153800000Y-84630110D01*
X153799999Y-84630110D01*
X153747309Y-84635493D01*
X153747302Y-84635494D01*
X153580880Y-84690641D01*
X153580875Y-84690643D01*
X153431654Y-84782684D01*
X153307684Y-84906654D01*
X153215643Y-85055875D01*
X153215641Y-85055880D01*
X153160494Y-85222302D01*
X153160493Y-85222309D01*
X153150000Y-85325013D01*
X152350499Y-85325013D01*
X152350499Y-85324998D01*
X152350498Y-85324981D01*
X152339999Y-85222203D01*
X152339998Y-85222200D01*
X152296250Y-85090178D01*
X152284814Y-85055666D01*
X152192712Y-84906344D01*
X152068656Y-84782288D01*
X151919334Y-84690186D01*
X151752797Y-84635001D01*
X151752795Y-84635000D01*
X151650010Y-84624500D01*
X150749998Y-84624500D01*
X150749980Y-84624501D01*
X150647203Y-84635000D01*
X150647200Y-84635001D01*
X150480668Y-84690185D01*
X150480659Y-84690189D01*
X150339596Y-84777198D01*
X150272204Y-84795638D01*
X150205541Y-84774715D01*
X150160771Y-84721073D01*
X150150500Y-84671659D01*
X150150500Y-78070808D01*
X150170185Y-78003769D01*
X150186819Y-77983127D01*
X153255273Y-74914673D01*
X153255277Y-74914669D01*
X153326465Y-74808127D01*
X153375501Y-74689744D01*
X153383307Y-74650500D01*
X153392847Y-74602542D01*
X153400500Y-74564070D01*
X153400500Y-71465928D01*
X153375502Y-71340261D01*
X153375501Y-71340260D01*
X153375501Y-71340256D01*
X153326465Y-71221873D01*
X153326464Y-71221872D01*
X153326461Y-71221866D01*
X153255277Y-71115332D01*
X153252397Y-71112452D01*
X153164669Y-71024724D01*
X152286818Y-70146873D01*
X152253333Y-70085550D01*
X152250499Y-70059192D01*
X152250499Y-69709807D01*
X152270184Y-69642768D01*
X152322988Y-69597013D01*
X152392146Y-69587069D01*
X152455702Y-69616094D01*
G37*
%TD.AperFunction*%
%TA.AperFunction,Conductor*%
G36*
X147517773Y-56170185D02*
G01*
X147563528Y-56222989D01*
X147573472Y-56292147D01*
X147544447Y-56355703D01*
X147500174Y-56386441D01*
X147500454Y-56386953D01*
X147495697Y-56389550D01*
X147494069Y-56390681D01*
X147492673Y-56391201D01*
X147492664Y-56391206D01*
X147377455Y-56477452D01*
X147377452Y-56477455D01*
X147291206Y-56592664D01*
X147291202Y-56592671D01*
X147243273Y-56721178D01*
X147240909Y-56727517D01*
X147234500Y-56787127D01*
X147234500Y-56787134D01*
X147234500Y-56787135D01*
X147234500Y-57492870D01*
X147234501Y-57492876D01*
X147240908Y-57552483D01*
X147291202Y-57687328D01*
X147291205Y-57687333D01*
X147301205Y-57700692D01*
X147325620Y-57766157D01*
X147316642Y-57822102D01*
X147310651Y-57836690D01*
X147291204Y-57862669D01*
X147240909Y-57997517D01*
X147239596Y-58009728D01*
X147232898Y-58026040D01*
X147221635Y-58040103D01*
X147214739Y-58056750D01*
X147200248Y-58066809D01*
X147189223Y-58080577D01*
X147172146Y-58086318D01*
X147157344Y-58096595D01*
X147137982Y-58097806D01*
X147122997Y-58102845D01*
X147109957Y-58099559D01*
X147094008Y-58100557D01*
X147088692Y-58099500D01*
X147088691Y-58099500D01*
X146911309Y-58099500D01*
X146911306Y-58099500D01*
X146737341Y-58134103D01*
X146737332Y-58134106D01*
X146573459Y-58201983D01*
X146573446Y-58201990D01*
X146425965Y-58300535D01*
X146425961Y-58300538D01*
X146300538Y-58425961D01*
X146243859Y-58510787D01*
X146190246Y-58555591D01*
X146120921Y-58564298D01*
X146057894Y-58534143D01*
X146053076Y-58529576D01*
X145496539Y-57973038D01*
X145496531Y-57973032D01*
X145428337Y-57927466D01*
X145428327Y-57927460D01*
X145423284Y-57924091D01*
X145349047Y-57874487D01*
X145267106Y-57840546D01*
X145261467Y-57838210D01*
X145261463Y-57838208D01*
X145185166Y-57806605D01*
X145185158Y-57806603D01*
X145011196Y-57772000D01*
X145011192Y-57772000D01*
X145011191Y-57772000D01*
X143224499Y-57772000D01*
X143157460Y-57752315D01*
X143111705Y-57699511D01*
X143100499Y-57648000D01*
X143100499Y-56874629D01*
X143100498Y-56874623D01*
X143100497Y-56874616D01*
X143094091Y-56815017D01*
X143088412Y-56799792D01*
X143043797Y-56680171D01*
X143043793Y-56680164D01*
X142957547Y-56564955D01*
X142957544Y-56564952D01*
X142842335Y-56478706D01*
X142842328Y-56478702D01*
X142707482Y-56428408D01*
X142707483Y-56428408D01*
X142647883Y-56422001D01*
X142647881Y-56422000D01*
X142647873Y-56422000D01*
X142647864Y-56422000D01*
X141352129Y-56422000D01*
X141352123Y-56422001D01*
X141292516Y-56428408D01*
X141157671Y-56478702D01*
X141157664Y-56478706D01*
X141042455Y-56564952D01*
X141042452Y-56564955D01*
X140956206Y-56680164D01*
X140956202Y-56680171D01*
X140905908Y-56815017D01*
X140899501Y-56874616D01*
X140899501Y-56874623D01*
X140899500Y-56874635D01*
X140899500Y-60470370D01*
X140899501Y-60470376D01*
X140905908Y-60529983D01*
X140956202Y-60664828D01*
X140956206Y-60664835D01*
X141042452Y-60780044D01*
X141042455Y-60780047D01*
X141157664Y-60866293D01*
X141157671Y-60866297D01*
X141292517Y-60916591D01*
X141292516Y-60916591D01*
X141299444Y-60917335D01*
X141352127Y-60923000D01*
X142647872Y-60922999D01*
X142707483Y-60916591D01*
X142842331Y-60866296D01*
X142957546Y-60780046D01*
X143043796Y-60664831D01*
X143094091Y-60529983D01*
X143100500Y-60470373D01*
X143100500Y-59697000D01*
X143120185Y-59629961D01*
X143172989Y-59584206D01*
X143224500Y-59573000D01*
X144498138Y-59573000D01*
X144565177Y-59592685D01*
X144585819Y-59609319D01*
X146063181Y-61086680D01*
X146096666Y-61148003D01*
X146099500Y-61174361D01*
X146099500Y-63887770D01*
X146079815Y-63954809D01*
X146063181Y-63975451D01*
X144075451Y-65963181D01*
X144014128Y-65996666D01*
X143987770Y-65999500D01*
X143217708Y-65999500D01*
X143150669Y-65979815D01*
X143104914Y-65927011D01*
X143094419Y-65862244D01*
X143099999Y-65810344D01*
X143100000Y-65810327D01*
X143100000Y-64512500D01*
X140900000Y-64512500D01*
X140900000Y-65810344D01*
X140906401Y-65869872D01*
X140906403Y-65869879D01*
X140956645Y-66004586D01*
X140956649Y-66004593D01*
X141042809Y-66119687D01*
X141042812Y-66119690D01*
X141157906Y-66205850D01*
X141157913Y-66205854D01*
X141292620Y-66256096D01*
X141292627Y-66256098D01*
X141352155Y-66262499D01*
X141352172Y-66262500D01*
X141399895Y-66262500D01*
X141466934Y-66282185D01*
X141512689Y-66334989D01*
X141522633Y-66404147D01*
X141514456Y-66433952D01*
X141480264Y-66516498D01*
X141480261Y-66516510D01*
X141449500Y-66671153D01*
X141449500Y-66828846D01*
X141480261Y-66983489D01*
X141480264Y-66983501D01*
X141540602Y-67129172D01*
X141540609Y-67129185D01*
X141628210Y-67260288D01*
X141628213Y-67260292D01*
X141739707Y-67371786D01*
X141739711Y-67371789D01*
X141870814Y-67459390D01*
X141870827Y-67459397D01*
X141970060Y-67500500D01*
X142016503Y-67519737D01*
X142103325Y-67537007D01*
X142171153Y-67550499D01*
X142171156Y-67550500D01*
X142171158Y-67550500D01*
X142328844Y-67550500D01*
X142328845Y-67550499D01*
X142405152Y-67535320D01*
X142483488Y-67519739D01*
X142483489Y-67519738D01*
X142483497Y-67519737D01*
X142507155Y-67509937D01*
X142554604Y-67500500D01*
X144423920Y-67500500D01*
X144521462Y-67481096D01*
X144568913Y-67471658D01*
X144705495Y-67415084D01*
X144770291Y-67371789D01*
X144770294Y-67371786D01*
X144770296Y-67371786D01*
X144828175Y-67333113D01*
X144828416Y-67332952D01*
X147038728Y-65122638D01*
X147066718Y-65107354D01*
X147093893Y-65090660D01*
X147097171Y-65090726D01*
X147100049Y-65089155D01*
X147131863Y-65091430D01*
X147163748Y-65092077D01*
X147166469Y-65093905D01*
X147169740Y-65094139D01*
X147195268Y-65113249D01*
X147221748Y-65131036D01*
X147223833Y-65134632D01*
X147225674Y-65136011D01*
X147240223Y-65161108D01*
X147241483Y-65164022D01*
X147291204Y-65297331D01*
X147309954Y-65322377D01*
X147315752Y-65335787D01*
X147318309Y-65356554D01*
X147325620Y-65376157D01*
X147322492Y-65390530D01*
X147324291Y-65405133D01*
X147315214Y-65423985D01*
X147310767Y-65444429D01*
X147301205Y-65459308D01*
X147291205Y-65472666D01*
X147291202Y-65472671D01*
X147254833Y-65570184D01*
X147240909Y-65607517D01*
X147234500Y-65667127D01*
X147234500Y-65667134D01*
X147234500Y-65667135D01*
X147234500Y-66372870D01*
X147234501Y-66372876D01*
X147240908Y-66432483D01*
X147291202Y-66567328D01*
X147291205Y-66567333D01*
X147301205Y-66580692D01*
X147325620Y-66646157D01*
X147310767Y-66714429D01*
X147301205Y-66729308D01*
X147291205Y-66742666D01*
X147291202Y-66742671D01*
X147240910Y-66877513D01*
X147240909Y-66877517D01*
X147234500Y-66937127D01*
X147234500Y-66937134D01*
X147234500Y-66937135D01*
X147234500Y-67642870D01*
X147234501Y-67642876D01*
X147240908Y-67702483D01*
X147291202Y-67837328D01*
X147291205Y-67837333D01*
X147301205Y-67850692D01*
X147325620Y-67916157D01*
X147310767Y-67984429D01*
X147301205Y-67999308D01*
X147291205Y-68012666D01*
X147291202Y-68012671D01*
X147247746Y-68129185D01*
X147240909Y-68147517D01*
X147234500Y-68207127D01*
X147234500Y-68207134D01*
X147234500Y-68207135D01*
X147234500Y-68912870D01*
X147234501Y-68912876D01*
X147240908Y-68972483D01*
X147291202Y-69107328D01*
X147291206Y-69107335D01*
X147377452Y-69222544D01*
X147377455Y-69222547D01*
X147492664Y-69308793D01*
X147492671Y-69308797D01*
X147627517Y-69359091D01*
X147627516Y-69359091D01*
X147634444Y-69359835D01*
X147687127Y-69365500D01*
X148792872Y-69365499D01*
X148852483Y-69359091D01*
X148987331Y-69308796D01*
X149051189Y-69260991D01*
X149116652Y-69236574D01*
X149184925Y-69251425D01*
X149234331Y-69300830D01*
X149249500Y-69360258D01*
X149249500Y-70177870D01*
X149249501Y-70177876D01*
X149255908Y-70237483D01*
X149306202Y-70372328D01*
X149306206Y-70372335D01*
X149392452Y-70487544D01*
X149392455Y-70487547D01*
X149507664Y-70573793D01*
X149507671Y-70573797D01*
X149642517Y-70624091D01*
X149642516Y-70624091D01*
X149649444Y-70624835D01*
X149702127Y-70630500D01*
X150879191Y-70630499D01*
X150908631Y-70639143D01*
X150938618Y-70645667D01*
X150943633Y-70649421D01*
X150946230Y-70650184D01*
X150966872Y-70666818D01*
X151057873Y-70757819D01*
X151091358Y-70819142D01*
X151086374Y-70888834D01*
X151044502Y-70944767D01*
X150979038Y-70969184D01*
X150970192Y-70969500D01*
X149702129Y-70969500D01*
X149702123Y-70969501D01*
X149642516Y-70975908D01*
X149507671Y-71026202D01*
X149507664Y-71026206D01*
X149392455Y-71112452D01*
X149392452Y-71112455D01*
X149306206Y-71227664D01*
X149306202Y-71227671D01*
X149255908Y-71362517D01*
X149249501Y-71422116D01*
X149249500Y-71422135D01*
X149249500Y-72599191D01*
X149229815Y-72666230D01*
X149213181Y-72686872D01*
X148642180Y-73257873D01*
X148580857Y-73291358D01*
X148511165Y-73286374D01*
X148455232Y-73244502D01*
X148430815Y-73179038D01*
X148430499Y-73170192D01*
X148430499Y-72102129D01*
X148430498Y-72102123D01*
X148430497Y-72102116D01*
X148424091Y-72042517D01*
X148373796Y-71907669D01*
X148373795Y-71907668D01*
X148373793Y-71907664D01*
X148287547Y-71792455D01*
X148287544Y-71792452D01*
X148172335Y-71706206D01*
X148172328Y-71706202D01*
X148037482Y-71655908D01*
X148037483Y-71655908D01*
X147977883Y-71649501D01*
X147977881Y-71649500D01*
X147977873Y-71649500D01*
X147977864Y-71649500D01*
X146682129Y-71649500D01*
X146682123Y-71649501D01*
X146622516Y-71655908D01*
X146487671Y-71706202D01*
X146487664Y-71706206D01*
X146372455Y-71792452D01*
X146372452Y-71792455D01*
X146286206Y-71907664D01*
X146286202Y-71907671D01*
X146235908Y-72042517D01*
X146229857Y-72098806D01*
X146229501Y-72102123D01*
X146229500Y-72102135D01*
X146229500Y-73370192D01*
X146223261Y-73391437D01*
X146221682Y-73413526D01*
X146213609Y-73424309D01*
X146209815Y-73437231D01*
X146193081Y-73451730D01*
X146179810Y-73469459D01*
X146167189Y-73474166D01*
X146157011Y-73482986D01*
X146135093Y-73486137D01*
X146114346Y-73493876D01*
X146101185Y-73491013D01*
X146087853Y-73492930D01*
X146067709Y-73483730D01*
X146046073Y-73479024D01*
X146028347Y-73465755D01*
X146024297Y-73463905D01*
X146017819Y-73457873D01*
X145926818Y-73366872D01*
X145893333Y-73305549D01*
X145890499Y-73279191D01*
X145890499Y-72102129D01*
X145890498Y-72102123D01*
X145890497Y-72102116D01*
X145884091Y-72042517D01*
X145833796Y-71907669D01*
X145833795Y-71907668D01*
X145833793Y-71907664D01*
X145747547Y-71792455D01*
X145747544Y-71792452D01*
X145632335Y-71706206D01*
X145632328Y-71706202D01*
X145497482Y-71655908D01*
X145497483Y-71655908D01*
X145437883Y-71649501D01*
X145437881Y-71649500D01*
X145437873Y-71649500D01*
X145437864Y-71649500D01*
X144142129Y-71649500D01*
X144142123Y-71649501D01*
X144082516Y-71655908D01*
X143947671Y-71706202D01*
X143947664Y-71706206D01*
X143832455Y-71792452D01*
X143832452Y-71792455D01*
X143746206Y-71907664D01*
X143746202Y-71907671D01*
X143695908Y-72042517D01*
X143689857Y-72098806D01*
X143689501Y-72102123D01*
X143689500Y-72102135D01*
X143689500Y-74197870D01*
X143689501Y-74197876D01*
X143695908Y-74257483D01*
X143746202Y-74392328D01*
X143746206Y-74392335D01*
X143832452Y-74507544D01*
X143832455Y-74507547D01*
X143947664Y-74593793D01*
X143947671Y-74593797D01*
X144082517Y-74644091D01*
X144082516Y-74644091D01*
X144089444Y-74644835D01*
X144142127Y-74650500D01*
X145319191Y-74650499D01*
X145348631Y-74659143D01*
X145378618Y-74665667D01*
X145383633Y-74669421D01*
X145386230Y-74670184D01*
X145406872Y-74686818D01*
X145564181Y-74844127D01*
X145597666Y-74905450D01*
X145600500Y-74931808D01*
X145600500Y-86631191D01*
X145580815Y-86698230D01*
X145528011Y-86743985D01*
X145458853Y-86753929D01*
X145395297Y-86724904D01*
X145388819Y-86718872D01*
X143684671Y-85014724D01*
X143634549Y-84981234D01*
X143615759Y-84965813D01*
X143395806Y-84745860D01*
X143362321Y-84684537D01*
X143367305Y-84614845D01*
X143409177Y-84558912D01*
X143425035Y-84548820D01*
X143426540Y-84548014D01*
X143426547Y-84548012D01*
X143574036Y-84449464D01*
X143699464Y-84324036D01*
X143798012Y-84176547D01*
X143865895Y-84012666D01*
X143900500Y-83838692D01*
X143900500Y-83661308D01*
X143865895Y-83487334D01*
X143798012Y-83323453D01*
X143774619Y-83288443D01*
X143699465Y-83175965D01*
X143699459Y-83175958D01*
X139074041Y-78550540D01*
X139074034Y-78550534D01*
X138926548Y-78451988D01*
X138762666Y-78384105D01*
X138762658Y-78384103D01*
X138588696Y-78349500D01*
X138588692Y-78349500D01*
X138411308Y-78349500D01*
X138411303Y-78349500D01*
X138237341Y-78384103D01*
X138237333Y-78384105D01*
X138073451Y-78451988D01*
X137925965Y-78550534D01*
X137925958Y-78550540D01*
X137800537Y-78675961D01*
X137701981Y-78823460D01*
X137701172Y-78824976D01*
X137700539Y-78825619D01*
X137698603Y-78828518D01*
X137698053Y-78828150D01*
X137652205Y-78874816D01*
X137584066Y-78890269D01*
X137518388Y-78866431D01*
X137504139Y-78854193D01*
X129350657Y-70700711D01*
X129317172Y-70639388D01*
X129317689Y-70591245D01*
X129316484Y-70591055D01*
X129350500Y-70376286D01*
X129350500Y-70163713D01*
X129327650Y-70019446D01*
X129317246Y-69953757D01*
X129251557Y-69751588D01*
X129155051Y-69562184D01*
X129155049Y-69562181D01*
X129155048Y-69562179D01*
X129030109Y-69390213D01*
X128879786Y-69239890D01*
X128707820Y-69114951D01*
X128607552Y-69063862D01*
X128556756Y-69015887D01*
X128549506Y-68986611D01*
X127734128Y-68171233D01*
X127720264Y-68145844D01*
X127807007Y-68195925D01*
X127934174Y-68230000D01*
X128065826Y-68230000D01*
X128192993Y-68195925D01*
X128307007Y-68130099D01*
X128400099Y-68037007D01*
X128465925Y-67922993D01*
X128500000Y-67795826D01*
X128500000Y-67729999D01*
X128707106Y-67729999D01*
X128707106Y-67730000D01*
X129242395Y-68265290D01*
X129242395Y-68265289D01*
X129251093Y-68248220D01*
X129251094Y-68248218D01*
X129316757Y-68046130D01*
X129316757Y-68046127D01*
X129350000Y-67836246D01*
X129350000Y-67623753D01*
X129316757Y-67413872D01*
X129316757Y-67413869D01*
X129251094Y-67211781D01*
X129251094Y-67211780D01*
X129242396Y-67194708D01*
X128707106Y-67729999D01*
X128500000Y-67729999D01*
X128500000Y-67664174D01*
X128465925Y-67537007D01*
X128400099Y-67422993D01*
X128307007Y-67329901D01*
X128192993Y-67264075D01*
X128065826Y-67230000D01*
X127934174Y-67230000D01*
X127807007Y-67264075D01*
X127716362Y-67316408D01*
X127734128Y-67288766D01*
X128446076Y-66576818D01*
X128507399Y-66543333D01*
X128533757Y-66540499D01*
X128897871Y-66540499D01*
X128897872Y-66540499D01*
X128957483Y-66534091D01*
X129092331Y-66483796D01*
X129207546Y-66397546D01*
X129293796Y-66282331D01*
X129344091Y-66147483D01*
X129350500Y-66087873D01*
X129350499Y-64292128D01*
X129344196Y-64233497D01*
X129344091Y-64232516D01*
X129293797Y-64097671D01*
X129293793Y-64097664D01*
X129207547Y-63982455D01*
X129207544Y-63982452D01*
X129092335Y-63896206D01*
X129092328Y-63896202D01*
X128957482Y-63845908D01*
X128957483Y-63845908D01*
X128897883Y-63839501D01*
X128897881Y-63839500D01*
X128897873Y-63839500D01*
X128897865Y-63839500D01*
X128774500Y-63839500D01*
X128707461Y-63819815D01*
X128661706Y-63767011D01*
X128650500Y-63715500D01*
X128650500Y-62474499D01*
X128670185Y-62407460D01*
X128722989Y-62361705D01*
X128774500Y-62350499D01*
X128897871Y-62350499D01*
X128897872Y-62350499D01*
X128957483Y-62344091D01*
X129092331Y-62293796D01*
X129207546Y-62207546D01*
X129293796Y-62092331D01*
X129344091Y-61957483D01*
X129350500Y-61897873D01*
X129350500Y-61524500D01*
X129370185Y-61457461D01*
X129422989Y-61411706D01*
X129474500Y-61400500D01*
X132125500Y-61400500D01*
X132192539Y-61420185D01*
X132238294Y-61472989D01*
X132249500Y-61524500D01*
X132249500Y-62557870D01*
X132249501Y-62557876D01*
X132255908Y-62617483D01*
X132306202Y-62752328D01*
X132306206Y-62752335D01*
X132392452Y-62867544D01*
X132392455Y-62867547D01*
X132507664Y-62953793D01*
X132507671Y-62953797D01*
X132642517Y-63004091D01*
X132642516Y-63004091D01*
X132649444Y-63004835D01*
X132702127Y-63010500D01*
X134797872Y-63010499D01*
X134857483Y-63004091D01*
X134992331Y-62953796D01*
X135107546Y-62867546D01*
X135193796Y-62752331D01*
X135244091Y-62617483D01*
X135244091Y-62617481D01*
X135245874Y-62609938D01*
X135248146Y-62610474D01*
X135270429Y-62556688D01*
X135327823Y-62516843D01*
X135366976Y-62510500D01*
X136080362Y-62510500D01*
X136100577Y-62516436D01*
X136121621Y-62517565D01*
X136133432Y-62526083D01*
X136147401Y-62530185D01*
X136161198Y-62546107D01*
X136178291Y-62558435D01*
X136183621Y-62571986D01*
X136193156Y-62582989D01*
X136196154Y-62603844D01*
X136203869Y-62623454D01*
X136202538Y-62648244D01*
X136203100Y-62652147D01*
X136201978Y-62658698D01*
X136199360Y-62671856D01*
X136166972Y-62733765D01*
X136165425Y-62735339D01*
X135337496Y-63563267D01*
X135276173Y-63596752D01*
X135206481Y-63591768D01*
X135150549Y-63549898D01*
X135122552Y-63512500D01*
X135107546Y-63492454D01*
X135107544Y-63492453D01*
X135107544Y-63492452D01*
X134992335Y-63406206D01*
X134992328Y-63406202D01*
X134857482Y-63355908D01*
X134857483Y-63355908D01*
X134797883Y-63349501D01*
X134797881Y-63349500D01*
X134797873Y-63349500D01*
X134797864Y-63349500D01*
X132702129Y-63349500D01*
X132702123Y-63349501D01*
X132642516Y-63355908D01*
X132507671Y-63406202D01*
X132507664Y-63406206D01*
X132392455Y-63492452D01*
X132392452Y-63492455D01*
X132306206Y-63607664D01*
X132306202Y-63607671D01*
X132255908Y-63742517D01*
X132249501Y-63802116D01*
X132249501Y-63802123D01*
X132249500Y-63802135D01*
X132249500Y-65097870D01*
X132249501Y-65097876D01*
X132255908Y-65157483D01*
X132306202Y-65292328D01*
X132306206Y-65292335D01*
X132392452Y-65407544D01*
X132392455Y-65407547D01*
X132507664Y-65493793D01*
X132507671Y-65493797D01*
X132642517Y-65544091D01*
X132642516Y-65544091D01*
X132649444Y-65544835D01*
X132702127Y-65550500D01*
X134300902Y-65550499D01*
X134322147Y-65556737D01*
X134344236Y-65558317D01*
X134355019Y-65566389D01*
X134367941Y-65570184D01*
X134382441Y-65586917D01*
X134400169Y-65600189D01*
X134404875Y-65612808D01*
X134413696Y-65622987D01*
X134416847Y-65644905D01*
X134424586Y-65665653D01*
X134421723Y-65678813D01*
X134423640Y-65692146D01*
X134414440Y-65712289D01*
X134409734Y-65733926D01*
X134396465Y-65751651D01*
X134394615Y-65755702D01*
X134388583Y-65762180D01*
X134297582Y-65853181D01*
X134236259Y-65886666D01*
X134209901Y-65889500D01*
X132702129Y-65889500D01*
X132702123Y-65889501D01*
X132642516Y-65895908D01*
X132507671Y-65946202D01*
X132507664Y-65946206D01*
X132392455Y-66032452D01*
X132392452Y-66032455D01*
X132306206Y-66147664D01*
X132306202Y-66147671D01*
X132255908Y-66282517D01*
X132249501Y-66342116D01*
X132249500Y-66342135D01*
X132249500Y-67637870D01*
X132249501Y-67637876D01*
X132255908Y-67697483D01*
X132306202Y-67832328D01*
X132306206Y-67832335D01*
X132392452Y-67947544D01*
X132392455Y-67947547D01*
X132507664Y-68033793D01*
X132507671Y-68033797D01*
X132642517Y-68084091D01*
X132642516Y-68084091D01*
X132649444Y-68084835D01*
X132702127Y-68090500D01*
X134010902Y-68090499D01*
X134032147Y-68096737D01*
X134054236Y-68098317D01*
X134065019Y-68106389D01*
X134077941Y-68110184D01*
X134092441Y-68126917D01*
X134110169Y-68140189D01*
X134114875Y-68152808D01*
X134123696Y-68162987D01*
X134126847Y-68184905D01*
X134134586Y-68205653D01*
X134131723Y-68218813D01*
X134133640Y-68232146D01*
X134124440Y-68252289D01*
X134119734Y-68273926D01*
X134106465Y-68291651D01*
X134104615Y-68295702D01*
X134098583Y-68302180D01*
X134007582Y-68393181D01*
X133946259Y-68426666D01*
X133919901Y-68429500D01*
X132702129Y-68429500D01*
X132702123Y-68429501D01*
X132642516Y-68435908D01*
X132507671Y-68486202D01*
X132507664Y-68486206D01*
X132392455Y-68572452D01*
X132392452Y-68572455D01*
X132306206Y-68687664D01*
X132306202Y-68687671D01*
X132255908Y-68822517D01*
X132249501Y-68882116D01*
X132249500Y-68882135D01*
X132249500Y-70177870D01*
X132249501Y-70177876D01*
X132255908Y-70237483D01*
X132306202Y-70372328D01*
X132306206Y-70372335D01*
X132392452Y-70487544D01*
X132392455Y-70487547D01*
X132507664Y-70573793D01*
X132507671Y-70573797D01*
X132642517Y-70624091D01*
X132642516Y-70624091D01*
X132649444Y-70624835D01*
X132702127Y-70630500D01*
X134040902Y-70630499D01*
X134062147Y-70636737D01*
X134084236Y-70638317D01*
X134095019Y-70646389D01*
X134107941Y-70650184D01*
X134122441Y-70666917D01*
X134140169Y-70680189D01*
X134144875Y-70692808D01*
X134153696Y-70702987D01*
X134156847Y-70724905D01*
X134164586Y-70745653D01*
X134161723Y-70758813D01*
X134163640Y-70772146D01*
X134154440Y-70792289D01*
X134149734Y-70813926D01*
X134136465Y-70831651D01*
X134134615Y-70835702D01*
X134128583Y-70842180D01*
X134037582Y-70933181D01*
X133976259Y-70966666D01*
X133949901Y-70969500D01*
X132702129Y-70969500D01*
X132702123Y-70969501D01*
X132642516Y-70975908D01*
X132507671Y-71026202D01*
X132507664Y-71026206D01*
X132392455Y-71112452D01*
X132392452Y-71112455D01*
X132306206Y-71227664D01*
X132306202Y-71227671D01*
X132255908Y-71362517D01*
X132249501Y-71422116D01*
X132249500Y-71422135D01*
X132249500Y-72717870D01*
X132249501Y-72717876D01*
X132255908Y-72777483D01*
X132306202Y-72912328D01*
X132306206Y-72912335D01*
X132392452Y-73027544D01*
X132392455Y-73027547D01*
X132507664Y-73113793D01*
X132507671Y-73113797D01*
X132642517Y-73164091D01*
X132642516Y-73164091D01*
X132648525Y-73164737D01*
X132702127Y-73170500D01*
X134797872Y-73170499D01*
X134857483Y-73164091D01*
X134992331Y-73113796D01*
X135107546Y-73027546D01*
X135193796Y-72912331D01*
X135244091Y-72777483D01*
X135250500Y-72717873D01*
X135250499Y-72102135D01*
X136069500Y-72102135D01*
X136069500Y-74197870D01*
X136069501Y-74197876D01*
X136075908Y-74257483D01*
X136126202Y-74392328D01*
X136126206Y-74392335D01*
X136212452Y-74507544D01*
X136212455Y-74507547D01*
X136327664Y-74593793D01*
X136327671Y-74593797D01*
X136462517Y-74644091D01*
X136462516Y-74644091D01*
X136469444Y-74644835D01*
X136522127Y-74650500D01*
X137817872Y-74650499D01*
X137877483Y-74644091D01*
X138012331Y-74593796D01*
X138127546Y-74507546D01*
X138213796Y-74392331D01*
X138264091Y-74257483D01*
X138270500Y-74197873D01*
X138270499Y-72102135D01*
X138609500Y-72102135D01*
X138609500Y-74197870D01*
X138609501Y-74197876D01*
X138615908Y-74257483D01*
X138666202Y-74392328D01*
X138666206Y-74392335D01*
X138752452Y-74507544D01*
X138752455Y-74507547D01*
X138867664Y-74593793D01*
X138867671Y-74593797D01*
X139002517Y-74644091D01*
X139002516Y-74644091D01*
X139009444Y-74644835D01*
X139062127Y-74650500D01*
X140357872Y-74650499D01*
X140417483Y-74644091D01*
X140552331Y-74593796D01*
X140667546Y-74507546D01*
X140753796Y-74392331D01*
X140804091Y-74257483D01*
X140810500Y-74197873D01*
X140810499Y-72102135D01*
X141149500Y-72102135D01*
X141149500Y-74197870D01*
X141149501Y-74197876D01*
X141155908Y-74257483D01*
X141206202Y-74392328D01*
X141206206Y-74392335D01*
X141292452Y-74507544D01*
X141292455Y-74507547D01*
X141407664Y-74593793D01*
X141407671Y-74593797D01*
X141542517Y-74644091D01*
X141542516Y-74644091D01*
X141549444Y-74644835D01*
X141602127Y-74650500D01*
X142897872Y-74650499D01*
X142957483Y-74644091D01*
X143092331Y-74593796D01*
X143207546Y-74507546D01*
X143293796Y-74392331D01*
X143344091Y-74257483D01*
X143350500Y-74197873D01*
X143350499Y-72102128D01*
X143344091Y-72042517D01*
X143293796Y-71907669D01*
X143293795Y-71907668D01*
X143293793Y-71907664D01*
X143207547Y-71792455D01*
X143207544Y-71792452D01*
X143092335Y-71706206D01*
X143092328Y-71706202D01*
X142957482Y-71655908D01*
X142957483Y-71655908D01*
X142897883Y-71649501D01*
X142897881Y-71649500D01*
X142897873Y-71649500D01*
X142897864Y-71649500D01*
X141602129Y-71649500D01*
X141602123Y-71649501D01*
X141542516Y-71655908D01*
X141407671Y-71706202D01*
X141407664Y-71706206D01*
X141292455Y-71792452D01*
X141292452Y-71792455D01*
X141206206Y-71907664D01*
X141206202Y-71907671D01*
X141155908Y-72042517D01*
X141149857Y-72098806D01*
X141149501Y-72102123D01*
X141149500Y-72102135D01*
X140810499Y-72102135D01*
X140810499Y-72102128D01*
X140804091Y-72042517D01*
X140753796Y-71907669D01*
X140753795Y-71907668D01*
X140753793Y-71907664D01*
X140667547Y-71792455D01*
X140667544Y-71792452D01*
X140552335Y-71706206D01*
X140552328Y-71706202D01*
X140417482Y-71655908D01*
X140417483Y-71655908D01*
X140357883Y-71649501D01*
X140357881Y-71649500D01*
X140357873Y-71649500D01*
X140357864Y-71649500D01*
X139062129Y-71649500D01*
X139062123Y-71649501D01*
X139002516Y-71655908D01*
X138867671Y-71706202D01*
X138867664Y-71706206D01*
X138752455Y-71792452D01*
X138752452Y-71792455D01*
X138666206Y-71907664D01*
X138666202Y-71907671D01*
X138615908Y-72042517D01*
X138609857Y-72098806D01*
X138609501Y-72102123D01*
X138609500Y-72102135D01*
X138270499Y-72102135D01*
X138270499Y-72102128D01*
X138264091Y-72042517D01*
X138213796Y-71907669D01*
X138213795Y-71907668D01*
X138213793Y-71907664D01*
X138127547Y-71792455D01*
X138127544Y-71792452D01*
X138012335Y-71706206D01*
X138012328Y-71706202D01*
X137877482Y-71655908D01*
X137877483Y-71655908D01*
X137817883Y-71649501D01*
X137817881Y-71649500D01*
X137817873Y-71649500D01*
X137817864Y-71649500D01*
X136522129Y-71649500D01*
X136522123Y-71649501D01*
X136462516Y-71655908D01*
X136327671Y-71706202D01*
X136327664Y-71706206D01*
X136212455Y-71792452D01*
X136212452Y-71792455D01*
X136126206Y-71907664D01*
X136126202Y-71907671D01*
X136075908Y-72042517D01*
X136069857Y-72098806D01*
X136069501Y-72102123D01*
X136069500Y-72102135D01*
X135250499Y-72102135D01*
X135250499Y-72042517D01*
X135250499Y-71470096D01*
X135270183Y-71403057D01*
X135286813Y-71382420D01*
X138108506Y-68560728D01*
X138108511Y-68560724D01*
X138118714Y-68550520D01*
X138118716Y-68550520D01*
X138230520Y-68438716D01*
X138273114Y-68364938D01*
X138292817Y-68339259D01*
X138371789Y-68260289D01*
X138459394Y-68129179D01*
X138519737Y-67983497D01*
X138550500Y-67828842D01*
X138550500Y-67671158D01*
X138550500Y-67671155D01*
X138550499Y-67671153D01*
X138544874Y-67642873D01*
X138519737Y-67516503D01*
X138517018Y-67509938D01*
X138459397Y-67370827D01*
X138459390Y-67370814D01*
X138371789Y-67239711D01*
X138371786Y-67239707D01*
X138260292Y-67128213D01*
X138260288Y-67128210D01*
X138129185Y-67040609D01*
X138129172Y-67040602D01*
X137983501Y-66980264D01*
X137983489Y-66980261D01*
X137828845Y-66949500D01*
X137828842Y-66949500D01*
X137727350Y-66949500D01*
X137660311Y-66929815D01*
X137614556Y-66877011D01*
X137604612Y-66807853D01*
X137624248Y-66756609D01*
X137709390Y-66629185D01*
X137709390Y-66629184D01*
X137709394Y-66629179D01*
X137769737Y-66483497D01*
X137800500Y-66328842D01*
X137800500Y-66171158D01*
X137800500Y-66171155D01*
X137800499Y-66171153D01*
X137795791Y-66147483D01*
X137769737Y-66016503D01*
X137754726Y-65980263D01*
X137709397Y-65870827D01*
X137709390Y-65870814D01*
X137621789Y-65739711D01*
X137621786Y-65739707D01*
X137510292Y-65628213D01*
X137510288Y-65628210D01*
X137379185Y-65540609D01*
X137379172Y-65540602D01*
X137233501Y-65480264D01*
X137233489Y-65480261D01*
X137078845Y-65449500D01*
X137078842Y-65449500D01*
X136921158Y-65449500D01*
X136921155Y-65449500D01*
X136766510Y-65480261D01*
X136766503Y-65480263D01*
X136663811Y-65522798D01*
X136594342Y-65530265D01*
X136531863Y-65498990D01*
X136496211Y-65438900D01*
X136498706Y-65369075D01*
X136528676Y-65320559D01*
X137014664Y-64834571D01*
X137075985Y-64801088D01*
X137078152Y-64800637D01*
X137078841Y-64800500D01*
X137078842Y-64800500D01*
X137233497Y-64769737D01*
X137379179Y-64709394D01*
X137510289Y-64621789D01*
X137621789Y-64510289D01*
X137709394Y-64379179D01*
X137769737Y-64233497D01*
X137800500Y-64078842D01*
X137800500Y-63921158D01*
X137800500Y-63921155D01*
X137800499Y-63921153D01*
X137780341Y-63819815D01*
X137769737Y-63766503D01*
X137733904Y-63679993D01*
X137709397Y-63620827D01*
X137709390Y-63620814D01*
X137621789Y-63489711D01*
X137621786Y-63489707D01*
X137594760Y-63462681D01*
X137561275Y-63401358D01*
X137566259Y-63331666D01*
X137594760Y-63287319D01*
X137621786Y-63260292D01*
X137621789Y-63260289D01*
X137709394Y-63129179D01*
X137769737Y-62983497D01*
X137800500Y-62828842D01*
X137800500Y-62671158D01*
X137800500Y-62671155D01*
X137800499Y-62671153D01*
X137769737Y-62516503D01*
X137769709Y-62516436D01*
X137709397Y-62370827D01*
X137709395Y-62370823D01*
X137709394Y-62370821D01*
X137657928Y-62293797D01*
X137648871Y-62280242D01*
X137648870Y-62280241D01*
X137621787Y-62239708D01*
X137596734Y-62214655D01*
X140900000Y-62214655D01*
X140900000Y-63512500D01*
X141500000Y-63512500D01*
X142500000Y-63512500D01*
X143100000Y-63512500D01*
X143100000Y-62214672D01*
X143099999Y-62214655D01*
X143093598Y-62155127D01*
X143093596Y-62155120D01*
X143043354Y-62020413D01*
X143043350Y-62020406D01*
X142957190Y-61905312D01*
X142957187Y-61905309D01*
X142842093Y-61819149D01*
X142842086Y-61819145D01*
X142707379Y-61768903D01*
X142707372Y-61768901D01*
X142647844Y-61762500D01*
X142500000Y-61762500D01*
X142500000Y-63512500D01*
X141500000Y-63512500D01*
X141500000Y-61762500D01*
X141352155Y-61762500D01*
X141292627Y-61768901D01*
X141292620Y-61768903D01*
X141157913Y-61819145D01*
X141157906Y-61819149D01*
X141042812Y-61905309D01*
X141042809Y-61905312D01*
X140956649Y-62020406D01*
X140956645Y-62020413D01*
X140906403Y-62155120D01*
X140906401Y-62155127D01*
X140900000Y-62214655D01*
X137596734Y-62214655D01*
X137510292Y-62128213D01*
X137510284Y-62128207D01*
X137463168Y-62096725D01*
X137418362Y-62043113D01*
X137409655Y-61973788D01*
X137428957Y-61924731D01*
X137459389Y-61879186D01*
X137459394Y-61879179D01*
X137519737Y-61733497D01*
X137550500Y-61578842D01*
X137550500Y-61421158D01*
X137550500Y-61421155D01*
X137549903Y-61415093D01*
X137551689Y-61414917D01*
X137557154Y-61353758D01*
X137600010Y-61298575D01*
X137603647Y-61296049D01*
X137664669Y-61255277D01*
X138505276Y-60414669D01*
X138576465Y-60308127D01*
X138625501Y-60189744D01*
X138627621Y-60179085D01*
X138650500Y-60064069D01*
X138650500Y-56570807D01*
X138670185Y-56503768D01*
X138686819Y-56483126D01*
X138983126Y-56186819D01*
X139044449Y-56153334D01*
X139070807Y-56150500D01*
X147450734Y-56150500D01*
X147517773Y-56170185D01*
G37*
%TD.AperFunction*%
%TA.AperFunction,Conductor*%
G36*
X152063182Y-73164737D02*
G01*
X152096666Y-73226061D01*
X152099500Y-73252418D01*
X152099500Y-74179192D01*
X152079815Y-74246231D01*
X152063181Y-74266873D01*
X149362181Y-76967873D01*
X149300858Y-77001358D01*
X149231166Y-76996374D01*
X149175233Y-76954502D01*
X149150816Y-76889038D01*
X149150500Y-76880192D01*
X149150500Y-74640807D01*
X149170185Y-74573768D01*
X149186814Y-74553131D01*
X150533127Y-73206817D01*
X150594450Y-73173333D01*
X150620808Y-73170499D01*
X151797871Y-73170499D01*
X151797872Y-73170499D01*
X151857483Y-73164091D01*
X151932167Y-73136236D01*
X152001859Y-73131252D01*
X152063182Y-73164737D01*
G37*
%TD.AperFunction*%
%TD*%
%TA.AperFunction,Conductor*%
%TO.N,+19V*%
G36*
X170494293Y-55219063D02*
G01*
X170500622Y-55225397D01*
X170501461Y-55228792D01*
X170518122Y-55408841D01*
X170570565Y-55612061D01*
X170570569Y-55612072D01*
X170654441Y-55821631D01*
X170766851Y-56036517D01*
X170766854Y-56036523D01*
X170904917Y-56255735D01*
X170904921Y-56255740D01*
X170904927Y-56255750D01*
X171065765Y-56478286D01*
X171065770Y-56478292D01*
X171246478Y-56703118D01*
X171444177Y-56929229D01*
X171444191Y-56929245D01*
X171879005Y-57381276D01*
X171879008Y-57381279D01*
X172347128Y-57826304D01*
X172825436Y-58256210D01*
X173290804Y-58662874D01*
X173290818Y-58662901D01*
X173290826Y-58662893D01*
X173857037Y-59160151D01*
X173857318Y-59160406D01*
X174133040Y-59418887D01*
X174233517Y-59513082D01*
X174238849Y-59518080D01*
X174242541Y-59526239D01*
X174239383Y-59534618D01*
X174239120Y-59534889D01*
X172135082Y-61638927D01*
X172126809Y-61642354D01*
X172118536Y-61638927D01*
X172118097Y-61638464D01*
X171897502Y-61392373D01*
X171897177Y-61391994D01*
X171611598Y-61044704D01*
X171208000Y-60555627D01*
X171207993Y-60555619D01*
X170840440Y-60141791D01*
X170840429Y-60141780D01*
X170550758Y-59855498D01*
X170550744Y-59855486D01*
X170328764Y-59673962D01*
X170321087Y-59667684D01*
X170139013Y-59555519D01*
X170139010Y-59555517D01*
X170139007Y-59555516D01*
X169993881Y-59500326D01*
X169875786Y-59488395D01*
X169875782Y-59488395D01*
X169775594Y-59513081D01*
X169729411Y-59540034D01*
X169729409Y-59540036D01*
X169686566Y-59577290D01*
X169686564Y-59577292D01*
X169644576Y-59629133D01*
X169620903Y-59669746D01*
X169613776Y-59675168D01*
X169604903Y-59673962D01*
X169599507Y-59666932D01*
X169589199Y-59629133D01*
X168602005Y-56009238D01*
X168603135Y-56000357D01*
X168608818Y-55995352D01*
X170485339Y-55219059D01*
X170494293Y-55219063D01*
G37*
%TD.AperFunction*%
%TD*%
M02*
